<?xml version="1.0" encoding="UTF-8"?> <svg xmlns="http://www.w3.org/2000/svg" width="800" height="550" viewBox="0 0 800 550"><g id="diagram-Figura-Chair" transform="translate(-601 -1420.534)"><g id="Group_1078" data-name="Group 1078" transform="translate(402.5 -383)"><g id="Group_1077" data-name="Group 1077"><g id="Group_1069" data-name="Group 1069" transform="translate(501 2003.066)"><g id="Group_1048" data-name="Group 1048" transform="translate(10.459 8.16)"><path id="Path_1219" data-name="Path 1219" d="M1.6.07Q1.029,11.988.487,23.909m-2.508-.12Q-1.435,11.851-.881-.088m19.067,0q.557,11.937,1.14,23.876m-2.508.12Q16.276,11.987,15.7.07" transform="translate(2.021 0.088)" fill="none" stroke="#001dff" stroke-width="0.5"></path></g><g id="Group_1049" data-name="Group 1049" transform="translate(0)"><path id="Path_1220" data-name="Path 1220" d="M16.986.075c-1.17-.4-2.7.018-3.906.1C11.908.258,10.738.34,9.566.392,6.891.511,4.222.563,1.545.609c-4.6.079-9.211-.048-13.8-.341-1.269-.081-2.533-.185-3.8-.287C-19.188-.271-20.527,2.975-19,5.547c1.12,1.889,2.966,1.988,4.891,2.2,1.224.14,2.45.246,3.678.35A115.468,115.468,0,0,0,3.276,8.44c2.524-.086,5.04-.21,7.555-.423,1.262-.108,2.515-.247,3.773-.389a6.348,6.348,0,0,0,1.93-.391A4.377,4.377,0,0,0,19,3.764,3.292,3.292,0,0,0,16.979.073M9.463,36.982A66.783,66.783,0,0,1-.3,37.993a66.269,66.269,0,0,1-9.767-1.011m8.458,1.006c1.009.007,2.025.03,3.031-.007m11.487-1.64c1.791-.486,3.547-1.147,5.311-1.728a6.1,6.1,0,0,0,2.24-.882,1.022,1.022,0,0,0,.31-.765c.02-.33.1-.993-.17-1.287a.731.731,0,0,0-.353-.165,11.124,11.124,0,0,0-3.158-.022c-4.1.385-8.173.869-12.3.995-3.592.108-7.2.131-10.794-.027-1.88-.084-3.755-.188-5.63-.342a79.261,79.261,0,0,0-7.985-.7c-.434.009-1.335-.106-1.645.344a2.3,2.3,0,0,0-.082,1.522c.163.548.728.733,1.213.9,2.185.751,4.391,1.552,6.621,2.158M15.118,77.365c-.213.45-1.106.287-1.455.287H12.152a.518.518,0,0,1-.5-.434m-23.907,0a.52.52,0,0,1-.5.434h-2.5a.5.5,0,0,1-.464-.287" transform="translate(21.436 0.095)" fill="none" stroke="#001dff" stroke-width="0.5"></path></g><g id="Group_1050" data-name="Group 1050" transform="translate(30.961 35.379)"><path id="Path_1221" data-name="Path 1221" d="M1.49.16,3.662,16Q5.229,27.43,6.795,38.857c.111.8.26,1.615.333,2.425a1.843,1.843,0,0,1,.043.31c-.088.862-1.308.574-1.93.574-.575,0-1.3.192-1.524-.477a3.148,3.148,0,0,1-.075-.552q-.2-1.425-.391-2.846L.057,14.981q-.729-5.3-1.454-10.6Q-1.6,2.905-1.8,1.425c-.086-.62-.237-.866.419-1.2C-.692-.129.844-.493,1.49.16Z" transform="translate(1.88 0.201)" fill="none" stroke="#001dff" stroke-width="0.5"></path></g><g id="Group_1051" data-name="Group 1051" transform="translate(2.259 35.46)"><path id="Path_1222" data-name="Path 1222" d="M2.522.032Q1.463,7.751.405,15.468-1.162,26.9-2.728,38.323q-.191,1.382-.38,2.762a2.914,2.914,0,0,0-.073.54c.063.8.816.62,1.4.62.626,0,1.771.269,2.04-.434A1.634,1.634,0,0,0,.3,41.5c.131-.794.219-1.6.328-2.4q1.53-11.219,3.061-22.437L5.2,5.632q.237-1.737.475-3.475a4.479,4.479,0,0,0,.192-1.4C5.743.41,4.784.185,4.5.113A4.583,4.583,0,0,0,2.522.032Z" transform="translate(3.183 0.041)" fill="none" stroke="#001dff" stroke-width="0.5"></path></g><g id="Group_1052" data-name="Group 1052" transform="translate(3.74 31.685)"><path id="Path_1223" data-name="Path 1223" d="M0,0A283.7,283.7,0,0,0,34.787,0" fill="none" stroke="#001dff" stroke-width="0.5"></path></g><g id="Group_1054" data-name="Group 1054" transform="translate(27.947 37.522)"><path id="Path_1225" data-name="Path 1225" d="M2.25,17.632-2.84-22.252" transform="translate(2.84 22.252)" fill="none" stroke="#001dff" stroke-width="0.5"></path></g><g id="Group_1055" data-name="Group 1055" transform="translate(9.227 37.523)"><path id="Path_1226" data-name="Path 1226" d="M2.251,0-2.841,39.884" transform="translate(2.841)" fill="none" stroke="#001dff" stroke-width="0.5"></path></g><g id="Group_1056" data-name="Group 1056" transform="translate(2.585 0.228)"><path id="Path_1227" data-name="Path 1227" d="M15.288,0c3.814-.256,2.791,5.639.172,6.666a16.165,16.165,0,0,1-4.173.561c-2.62.247-5.248.384-7.878.473a135.229,135.229,0,0,1-15.481-.418c-1.387-.111-2.8-.222-4.169-.436a3.779,3.779,0,0,1-2.981-3.239c-.314-1.694.367-3.746,2.443-3.608" transform="translate(19.294 0.005)" fill="none" stroke="#001dff" stroke-width="0.5"></path></g></g><g id="Group_1071" data-name="Group 1071" transform="translate(360 384.034)"><path id="Path_1167" data-name="Path 1167" d="M0,0H44" transform="translate(140.5 1720.5)" fill="none" stroke="#001dff" stroke-width="1"></path><path id="Path_1736" data-name="Path 1736" d="M8.45-15.35h-2L.55-4.875v1.4H7.625V0H9.45V-3.475h2.7v-1.65H9.45v-3.7H7.625v3.7h-4.9Zm13.225,0h-2l-5.9,10.475v1.4H20.85V0h1.825V-3.475h2.7v-1.65h-2.7v-3.7H20.85v3.7h-4.9ZM33.25.225c3.425,0,5.725-3.225,5.725-7.9s-2.3-7.9-5.725-7.9-5.725,3.225-5.725,7.9S29.825.225,33.25.225Zm0-14.025c2.475,0,3.8,2.55,3.8,6.125S35.725-1.55,33.25-1.55c-2.5,0-3.8-2.55-3.8-6.125S30.75-13.8,33.25-13.8Z" transform="translate(142 1745)" fill="#001dff"></path></g><g id="Group_1073" data-name="Group 1073" transform="translate(312.5 336.034)"><path id="Path_1735" data-name="Path 1735" d="M10.375-13.825V-15.35H.45v1.75h7.9L2.925,0H4.9Zm11.825,0V-15.35H12.275v1.75h7.9L14.75,0h1.975ZM29.875.225C33.3.225,35.6-3,35.6-7.675s-2.3-7.9-5.725-7.9-5.725,3.225-5.725,7.9S26.45.225,29.875.225Zm0-14.025c2.475,0,3.8,2.55,3.8,6.125S32.35-1.55,29.875-1.55c-2.5,0-3.8-2.55-3.8-6.125S27.375-13.8,29.875-13.8Z" transform="translate(276.797 1724.794) rotate(-90)" fill="#001dff"></path><g id="Group_1001" data-name="Group 1001" transform="translate(252.92 1667)"><path id="Path_1134" data-name="Path 1134" d="M.734,24.506V-53.528" transform="translate(-0.734 53.528)" fill="none" stroke="#001dff" stroke-width="1"></path></g></g></g><g id="Group_1076" data-name="Group 1076" transform="translate(26)"><g id="Group_1070" data-name="Group 1070" transform="translate(609 2003.066)"><g id="Group_1060" data-name="Group 1060" transform="translate(8.476 32.703)"><path id="Path_1231" data-name="Path 1231" d="M0,2.281l2.841-.143m37.37-5.015h0" transform="translate(0 2.878)" fill="none" stroke="#001dff" stroke-width="0.5"></path></g><g id="Group_1061" data-name="Group 1061" transform="translate(0 2.428)"><path id="Path_1232" data-name="Path 1232" d="M.01,0,.015,0M-.012.021ZM0,.009l0,0" transform="translate(0.012 0.002)" fill="none" stroke="#001dff" stroke-width="0.5"></path></g><g id="Group_1062" data-name="Group 1062" transform="translate(0.051)"><path id="Path_1233" data-name="Path 1233" d="M1.547,3.635l0,0a1.568,1.568,0,0,1-.722-.7A14.82,14.82,0,0,1,.039.109,10.6,10.6,0,0,0-.57-2.1c-.158-.283,0-.229-.237-.281a1.82,1.82,0,0,0-.584.125c-.744.158-.552.238-.428.979Q-1.65-.265-1.481.752-.661,5.64.165,10.53c1.468,8.75,2.857,17.513,4.519,26.23q.766,4.025,1.534,8.048c.233-.047.807-.048.988-.2.2-.163.226-.724.274-1.009a12.9,12.9,0,0,0,.17-1.893,20.593,20.593,0,0,0-.4-3.325l-.817-5.619a3.533,3.533,0,0,0-.2-1.239c-.278-.4-.882-.317-1.077-.878a2.751,2.751,0,0,1-.109-1.179c.163-.6,1.667-.457,2.19-.5q1.573-.137,3.146-.283c2.714-.251,5.426-.543,8.141-.794,3.25-.3,14.9-.963,15.51-.984a46.85,46.85,0,0,1,6.5.145c1.179.124,2.353.306,3.524.505.6.1,2.517.143,2.776.753a1.066,1.066,0,0,1-.093.778c-.351.6-1.529.71-2.088.891a27.382,27.382,0,0,1-6.334,1.744m-36.744-28c.916-.246,1.839-.473,2.75-.738C5.848,2.545,6.184.8,6.049-.629c-.177-1.9-1.36-4.309-3.565-3.915a28.206,28.206,0,0,0-3.506.609,1.263,1.263,0,0,0-.855,1.66m4.015-.88c.658-.09,1.158.69,1.4,1.187a4.171,4.171,0,0,1,.231,3.493.938.938,0,0,1-.534.5m2.608,27.06C4.406,20.609,3,12.127,1.561,3.651c0,0,0,0,0,0v0h0s-.005-.007-.009-.011M7.273,44.6,6.7,44.75,1.851,65.682Q1.268,68.2.683,70.719c-.1.445-.731,1.975-.212,2.339.262.185.778.088,1.065.088.534,0,1.1.052,1.627,0a.693.693,0,0,0,.706-.554,23.877,23.877,0,0,0,.545-2.35l5.732-24.735q1.231-5.315,2.463-10.632a8.725,8.725,0,0,0,.52-2.24c-.016-.185.022-.167-.1-.317-.466-.577-2.845-.755-3.373-.176-.185.2-.181.635-.238.88q-.731,3.159-1.463,6.315-.175.755-.351,1.511" transform="translate(1.952 4.587)" fill="none" stroke="#001dff" stroke-width="0.5"></path></g><g id="Group_1063" data-name="Group 1063" transform="translate(0.04 2.458)"><path id="Path_1234" data-name="Path 1234" d="M0,0V0ZM0,0ZM42.464,74.839c.1.742,1.852.436,2.319.436.538,0,1.181.117,1.217-.609a9.521,9.521,0,0,0-.231-1.645L44.5,63.977q-1.726-12.29-3.45-24.579-.29-2.065-.581-4.133a10.353,10.353,0,0,0-.3-2.149c-.068-.176.009-.152-.16-.292-.556-.455-2.923.082-3.251.724-.152.3.022.787.07,1.122q1.465,10.445,2.932,20.892,1.331,9.472,2.66,18.946C42.433,74.618,42.449,74.727,42.464,74.839Z" transform="translate(0 0.001)" fill="none" stroke="#001dff" stroke-width="0.5"></path></g><g id="Group_1065" data-name="Group 1065" transform="translate(14.997 36.601)"><path id="Path_1236" data-name="Path 1236" d="M0,.406,21.842-.513" transform="translate(0 0.513)" fill="none" stroke="#001dff" stroke-width="0.5"></path></g></g><g id="Group_1072" data-name="Group 1072" transform="translate(466.5 384.034)"><path id="Path_1167-2" data-name="Path 1167" d="M0,0H48.5" transform="translate(142.5 1720.5)" fill="none" stroke="#001dff" stroke-width="1"></path><path id="Path_1734" data-name="Path 1734" d="M8.45-15.35h-2L.55-4.875v1.4H7.625V0H9.45V-3.475h2.7v-1.65H9.45v-3.7H7.625v3.7h-4.9ZM19.425-1.375A3.027,3.027,0,0,1,16.1-4.325,3.024,3.024,0,0,1,19.425-7.25c1.95,0,3.35,1.2,3.35,2.925C22.775-2.575,21.375-1.375,19.425-1.375Zm0-7.525a2.59,2.59,0,0,1-2.8-2.525,2.594,2.594,0,0,1,2.8-2.55,2.6,2.6,0,0,1,2.825,2.55A2.6,2.6,0,0,1,19.425-8.9Zm0,9.125c2.975,0,5.25-1.75,5.25-4.4a3.974,3.974,0,0,0-3-3.9,3.616,3.616,0,0,0,2.45-3.45c0-2.475-2.075-4.05-4.7-4.05-2.6,0-4.675,1.575-4.675,4.05a3.584,3.584,0,0,0,2.45,3.45,3.948,3.948,0,0,0-3,3.9C14.2-1.525,16.475.225,19.425.225Zm12.6-8.475a3.171,3.171,0,0,1,3.15,3.4A3.144,3.144,0,0,1,32.05-1.475a3.169,3.169,0,0,1-3.35-2.9H26.775A4.972,4.972,0,0,0,32.05.225,4.874,4.874,0,0,0,37.025-4.85,4.791,4.791,0,0,0,32.2-9.95a4.322,4.322,0,0,0-2.8.975V-13.6h6.75v-1.75h-8.4v8.425H29.3A3.506,3.506,0,0,1,32.025-8.25Z" transform="translate(147 1745)" fill="#001dff"></path></g><g id="Group_1075" data-name="Group 1075" transform="translate(145 -123)"><path id="Path_1733" data-name="Path 1733" d="M8.45-15.35h-2L.55-4.875v1.4H7.625V0H9.45V-3.475h2.7v-1.65H9.45v-3.7H7.625v3.7h-4.9Zm10.925,7.1a3.171,3.171,0,0,1,3.15,3.4A3.144,3.144,0,0,1,19.4-1.475a3.169,3.169,0,0,1-3.35-2.9H14.125A4.972,4.972,0,0,0,19.4.225,4.874,4.874,0,0,0,24.375-4.85a4.791,4.791,0,0,0-4.825-5.1,4.322,4.322,0,0,0-2.8.975V-13.6H23.5v-1.75H15.1v8.425h1.55A3.506,3.506,0,0,1,19.375-8.25ZM32.45.225c3.425,0,5.725-3.225,5.725-7.9s-2.3-7.9-5.725-7.9-5.725,3.225-5.725,7.9S29.025.225,32.45.225Zm0-14.025c2.475,0,3.8,2.55,3.8,6.125S34.925-1.55,32.45-1.55c-2.5,0-3.8-2.55-3.8-6.125S29.95-13.8,32.45-13.8Z" transform="translate(560.263 2201.434) rotate(-90)" fill="#001dff"></path><g id="Group_1074" data-name="Group 1074" transform="translate(95 1291)"><g id="Group_954" data-name="Group 954" transform="translate(440.887 868.192)"><path id="Path_1131" data-name="Path 1131" d="M.188,11.339v-45" transform="translate(-0.188 33.661)" fill="none" stroke="#001dff" stroke-width="1"></path></g><g id="Group_955" data-name="Group 955" transform="translate(435.517 868.379)"><path id="Path_1132" data-name="Path 1132" d="M0,0H5.558" fill="none" stroke="#001dff" stroke-width="1"></path></g></g></g></g></g><path id="Path_1737" data-name="Path 1737" d="M2.128,0V-3.738H6.02v-.98H2.128v-2.9H6.272V-8.6H1.022V0Zm6.65-6.216H7.728V0h1.05Zm.154-1.876a.675.675,0,0,0-.686-.672.672.672,0,0,0-.672.672.681.681,0,0,0,.672.672A.684.684,0,0,0,8.932-8.092Zm5.8,7.672c0,1.344-.588,2.044-1.708,2.044A1.484,1.484,0,0,1,11.4.462H10.36A2.415,2.415,0,0,0,13.02,2.52c1.6,0,2.772-.966,2.772-3.01V-6.216H14.728v.7a2.182,2.182,0,0,0-1.736-.826,2.859,2.859,0,0,0-2.786,3.15,2.867,2.867,0,0,0,2.786,3.15,2.191,2.191,0,0,0,1.736-.84Zm0-1.54a1.8,1.8,0,0,1-1.582.966c-1.176,0-1.862-.924-1.862-2.2S11.97-5.4,13.146-5.4a1.8,1.8,0,0,1,1.582.966Zm7.9-4.256H21.56V-2A1.652,1.652,0,0,1,20.006-.84a1.284,1.284,0,0,1-1.358-1.47V-6.216H17.584v4.074A2.043,2.043,0,0,0,19.754.126a2.244,2.244,0,0,0,1.806-.91V0h1.064Zm5.054-.028a1.518,1.518,0,0,0-.6-.1,1.735,1.735,0,0,0-1.54.938v-.812h-1.05V0h1.05V-4.172a1.505,1.505,0,0,1,1.442-1.162,1.329,1.329,0,0,1,.7.168ZM33.32,0V-4.144a2.108,2.108,0,0,0-2.366-2.2A2.252,2.252,0,0,0,28.63-4.578h1.036a1.205,1.205,0,0,1,1.274-.854A1.254,1.254,0,0,1,32.312-4.1v.784a2.663,2.663,0,0,0-1.568-.5,2.129,2.129,0,0,0-2.38,1.946A2.091,2.091,0,0,0,30.674.112a2.491,2.491,0,0,0,1.638-.574V0ZM32.312-1.54a1.556,1.556,0,0,1-1.456.77c-.756,0-1.484-.35-1.484-1.106s.728-1.078,1.484-1.078a1.556,1.556,0,0,1,1.456.77ZM39.4-.994V-7.616h1.638c1.946,0,3.094,1.3,3.094,3.318s-1.148,3.3-3.094,3.3ZM38.29,0h2.758A3.974,3.974,0,0,0,45.22-4.3a3.974,3.974,0,0,0-4.172-4.3H38.29Zm9.436-6.216h-1.05V0h1.05Zm.154-1.876a.675.675,0,0,0-.686-.672.672.672,0,0,0-.672.672.681.681,0,0,0,.672.672A.684.684,0,0,0,47.88-8.092ZM49.6,0h1.05V-4.214a1.687,1.687,0,0,1,1.582-1.162,1.294,1.294,0,0,1,1.372,1.47V0H54.67V-4.074a2.053,2.053,0,0,0-2.184-2.268,2.322,2.322,0,0,0-1.834.91v-.784H49.6Zm7.9-6.216h-1.05V0H57.5Zm.154-1.876a.675.675,0,0,0-.686-.672.672.672,0,0,0-.672.672.681.681,0,0,0,.672.672A.684.684,0,0,0,57.652-8.092ZM59.374,0h1.05V-4.214a1.687,1.687,0,0,1,1.582-1.162,1.294,1.294,0,0,1,1.372,1.47V0h1.064V-4.074a2.053,2.053,0,0,0-2.184-2.268,2.322,2.322,0,0,0-1.834.91v-.784h-1.05Zm10.92-.42c0,1.344-.588,2.044-1.708,2.044A1.484,1.484,0,0,1,66.962.462H65.926a2.415,2.415,0,0,0,2.66,2.058c1.6,0,2.772-.966,2.772-3.01V-6.216H70.294v.7a2.182,2.182,0,0,0-1.736-.826,2.859,2.859,0,0,0-2.786,3.15,2.867,2.867,0,0,0,2.786,3.15,2.191,2.191,0,0,0,1.736-.84Zm0-1.54a1.8,1.8,0,0,1-1.582.966c-1.176,0-1.862-.924-1.862-2.2S67.536-5.4,68.712-5.4a1.8,1.8,0,0,1,1.582.966ZM75.908-4.3c0,2.674,1.68,4.424,3.85,4.424A3.226,3.226,0,0,0,83.1-2.534H82.012A2.244,2.244,0,0,1,79.758-.868c-1.652,0-2.744-1.4-2.744-3.43s1.106-3.43,2.744-3.43a2.248,2.248,0,0,1,2.254,1.652H83.1a3.217,3.217,0,0,0-3.346-2.646C77.588-8.722,75.908-6.972,75.908-4.3ZM84.532,0h1.05V-4.214a1.687,1.687,0,0,1,1.582-1.162,1.294,1.294,0,0,1,1.372,1.47V0H89.6V-4.074a2.053,2.053,0,0,0-2.184-2.268,2.322,2.322,0,0,0-1.834.91V-9.1h-1.05ZM95.886,0V-4.144a2.108,2.108,0,0,0-2.366-2.2A2.252,2.252,0,0,0,91.2-4.578h1.036a1.205,1.205,0,0,1,1.274-.854A1.254,1.254,0,0,1,94.878-4.1v.784a2.663,2.663,0,0,0-1.568-.5,2.129,2.129,0,0,0-2.38,1.946A2.091,2.091,0,0,0,93.24.112a2.491,2.491,0,0,0,1.638-.574V0ZM94.878-1.54a1.556,1.556,0,0,1-1.456.77c-.756,0-1.484-.35-1.484-1.106s.728-1.078,1.484-1.078a1.556,1.556,0,0,1,1.456.77Zm3.85-4.676h-1.05V0h1.05Zm.154-1.876a.675.675,0,0,0-.686-.672.672.672,0,0,0-.672.672.681.681,0,0,0,.672.672A.684.684,0,0,0,98.882-8.092ZM103.8-6.244a1.518,1.518,0,0,0-.6-.1,1.735,1.735,0,0,0-1.54.938v-.812H100.6V0h1.05V-4.172A1.505,1.505,0,0,1,103.1-5.334a1.329,1.329,0,0,1,.7.168Z" transform="translate(949 1798)" fill="#001dff"></path><rect id="measuerments_background_box" data-name="measuerments background box" width="800" height="550" transform="translate(601 1420.534)" fill="none"></rect></g></svg> 