<?xml version="1.0" encoding="UTF-8"?> <svg xmlns="http://www.w3.org/2000/svg" width="800" height="550" viewBox="0 0 800 550"><g id="Neuf_Side_Table" data-name="Neuf Side Table" transform="translate(-2305.999 -1696.5)"><g id="Group_1605" data-name="Group 1605" transform="translate(-1)"><g id="Group_1604" data-name="Group 1604"><g id="Group_1433" data-name="Group 1433" transform="translate(2634.599 1949.699)"><path id="Path_1567" data-name="Path 1567" d="M31.9,2.294a4.252,4.252,0,0,0,.5-2,4.259,4.259,0,0,0-.5-2M23.495,2.2H-14.69V7.69a2.036,2.036,0,0,0,.092.594M-14.69,2.2-16.6.3l-2,1.994,0,0V35.8h4V8.289h38V35.8h4V2.3l0,0L25.4.3,23.495,2.2V7.69a2.134,2.134,0,0,1-.092.6m-42-5.99h-4.5a4.27,4.27,0,0,1-.5-2,4.261,4.261,0,0,1,.5-2v4m0-4h55v4H27.4" transform="translate(0 0)" fill="none" stroke="#001dff" stroke-width="0.5"></path></g><path id="Path_1708" data-name="Path 1708" d="M4.6-7.025H5.675C7.425-7.025,8.8-6,8.8-4.275a2.783,2.783,0,0,1-3.075,2.8,3.179,3.179,0,0,1-3.375-2.9H.425A4.963,4.963,0,0,0,5.75.225c3.075,0,4.925-2,4.925-4.525a3.62,3.62,0,0,0-2.7-3.575,3.547,3.547,0,0,0,2.4-3.5c0-2.45-1.75-4.2-4.675-4.2A4.874,4.874,0,0,0,.725-11.15H2.65A2.954,2.954,0,0,1,5.7-13.875a2.577,2.577,0,0,1,2.8,2.6A2.58,2.58,0,0,1,5.625-8.7H4.6Zm17.65-6.8V-15.35H12.325v1.75h7.9L14.8,0h1.975ZM29.3-8.25a3.171,3.171,0,0,1,3.15,3.4,3.144,3.144,0,0,1-3.125,3.375,3.169,3.169,0,0,1-3.35-2.9H24.05a4.972,4.972,0,0,0,5.275,4.6A4.874,4.874,0,0,0,34.3-4.85a4.791,4.791,0,0,0-4.825-5.1,4.322,4.322,0,0,0-2.8.975V-13.6h6.75v-1.75h-8.4v8.425h1.55A3.506,3.506,0,0,1,29.3-8.25Z" transform="translate(2705.699 1985.286) rotate(-90)" fill="#001dff"></path><path id="Path_1092" data-name="Path 1092" d="M0,1.408v-37.5" transform="translate(2681.501 1984.592)" fill="none" stroke="#001dff" stroke-width="1"></path><path id="Path_1089" data-name="Path 1089" d="M0,0H56" transform="translate(2611.5 2000.254)" fill="none" stroke="#001dff" stroke-width="1"></path><path id="Path_1709" data-name="Path 1709" d="M5.925-8.25a3.171,3.171,0,0,1,3.15,3.4A3.144,3.144,0,0,1,5.95-1.475a3.169,3.169,0,0,1-3.35-2.9H.675A4.972,4.972,0,0,0,5.95.225,4.874,4.874,0,0,0,10.925-4.85,4.791,4.791,0,0,0,6.1-9.95a4.322,4.322,0,0,0-2.8.975V-13.6h6.75v-1.75H1.65v8.425H3.2A3.506,3.506,0,0,1,5.925-8.25ZM15.4-4.9a3.264,3.264,0,0,1,3.325-3.5,3.273,3.273,0,0,1,3.3,3.5,3.245,3.245,0,0,1-3.3,3.45A3.25,3.25,0,0,1,15.4-4.9Zm8.225-6.875a4.534,4.534,0,0,0-4.775-3.8c-3.325,0-5.625,3.2-5.625,8.175a10.739,10.739,0,0,0,.9,4.7A4.9,4.9,0,0,0,18.7.225a4.976,4.976,0,0,0,5.15-5.15,4.922,4.922,0,0,0-4.975-5.1A4,4,0,0,0,15-7.4c0-.15-.025-.525-.025-.675,0-3.3,1.625-5.875,3.875-5.875a2.79,2.79,0,0,1,2.825,2.175Zm8.325,12c3.425,0,5.725-3.225,5.725-7.9s-2.3-7.9-5.725-7.9-5.725,3.225-5.725,7.9S28.525.225,31.95.225Zm0-14.025c2.475,0,3.8,2.55,3.8,6.125S34.425-1.55,31.95-1.55c-2.5,0-3.8-2.55-3.8-6.125S29.45-13.8,31.95-13.8Z" transform="translate(2620 2024)" fill="#001dff"></path></g><g id="Group_1600" data-name="Group 1600"><g id="Group_1599" data-name="Group 1599" transform="translate(497.293 -151.223)"><g id="Group_1424" data-name="Group 1424" transform="translate(2245.707 2099.222)"><path id="Path_1559" data-name="Path 1559" d="M32.423,1.163a2.018,2.018,0,0,0,.587,1.412,2,2,0,0,0,2.829,0,2.026,2.026,0,0,0,.584-1.412m-56,0a2.014,2.014,0,0,0-.587-1.412,2.022,2.022,0,0,0-1.413-.586,2.023,2.023,0,0,0-1.416.586,2.022,2.022,0,0,0-.584,1.412m4,.924V9.154m0-4.6h52m0-2.563V1.163A2.014,2.014,0,0,1,33.01-.249a2,2,0,0,1,2.829,0,2.022,2.022,0,0,1,.584,1.412v35.5h-4V15.145h-52a2.124,2.124,0,0,1-.093-.6V9.752a2.124,2.124,0,0,1,.093-.6h52V2.089m-52,13.057V36.665h-4V1.163a2.026,2.026,0,0,0,.584,1.412,2.023,2.023,0,0,0,1.416.586,2.022,2.022,0,0,0,1.413-.586,2.018,2.018,0,0,0,.587-1.412V2m52,7.159a2.124,2.124,0,0,1,.093.6v4.795a2.124,2.124,0,0,1-.093.6m0-13.205v.122a.5.5,0,0,1-.5.5h-51a.5.5,0,0,1-.352-.146.5.5,0,0,1-.147-.352h0l0-.23" transform="translate(23.577 0.835)" fill="none" stroke="#001dff" stroke-linecap="round" stroke-linejoin="round" stroke-width="0.5"></path></g><path id="Path_1561" data-name="Path 1561" d="M0,0H56.849" transform="translate(2247.282 2099.557)" fill="none" stroke="#001dff" stroke-linecap="round" stroke-linejoin="round" stroke-width="0.5"></path></g><path id="Path_1089-2" data-name="Path 1089" d="M0,0H60" transform="translate(2742.5 2000.254)" fill="none" stroke="#001dff" stroke-width="1"></path><path id="Path_1707" data-name="Path 1707" d="M3.175-4.9A3.264,3.264,0,0,1,6.5-8.4,3.273,3.273,0,0,1,9.8-4.9,3.245,3.245,0,0,1,6.5-1.45,3.25,3.25,0,0,1,3.175-4.9ZM11.4-11.775a4.534,4.534,0,0,0-4.775-3.8C3.3-15.575,1-12.375,1-7.4a10.739,10.739,0,0,0,.9,4.7A4.9,4.9,0,0,0,6.475.225a4.976,4.976,0,0,0,5.15-5.15,4.922,4.922,0,0,0-4.975-5.1A4,4,0,0,0,2.775-7.4c0-.15-.025-.525-.025-.675,0-3.3,1.625-5.875,3.875-5.875A2.79,2.79,0,0,1,9.45-11.775Zm8.325,12C23.15.225,25.45-3,25.45-7.675s-2.3-7.9-5.725-7.9S14-12.35,14-7.675,16.3.225,19.725.225Zm0-14.025c2.475,0,3.8,2.55,3.8,6.125S22.2-1.55,19.725-1.55c-2.5,0-3.8-2.55-3.8-6.125S17.225-13.8,19.725-13.8ZM33.675.225C37.1.225,39.4-3,39.4-7.675s-2.3-7.9-5.725-7.9-5.725,3.225-5.725,7.9S30.25.225,33.675.225Zm0-14.025c2.475,0,3.8,2.55,3.8,6.125S36.15-1.55,33.675-1.55c-2.5,0-3.8-2.55-3.8-6.125S31.175-13.8,33.675-13.8Z" transform="translate(2753 2024)" fill="#001dff"></path></g></g><path id="Path_1706" data-name="Path 1706" d="M7.7-8.6H6.65v6.538L2.072-8.6H1.022V0H2.086V-6.832L6.888,0H7.7Zm5.88,6.734A1.432,1.432,0,0,1,12.068-.77c-1.05,0-1.792-.812-1.806-2.142h4.4V-3.29c0-1.806-.91-3.052-2.618-3.052S9.212-4.956,9.212-3.094c0,1.918,1.162,3.22,2.856,3.22a2.371,2.371,0,0,0,2.506-1.988ZM12.054-5.446a1.561,1.561,0,0,1,1.54,1.736h-3.3A1.782,1.782,0,0,1,12.054-5.446Zm8.96-.77H19.95V-2A1.652,1.652,0,0,1,18.4-.84a1.284,1.284,0,0,1-1.358-1.47V-6.216H15.974v4.074A2.043,2.043,0,0,0,18.144.126a2.244,2.244,0,0,0,1.806-.91V0h1.064Zm4.97-2.87a2.01,2.01,0,0,0-.812-.14,1.827,1.827,0,0,0-1.9,1.974v1.036h-1.05v.9h1.05V0H24.3V-5.32h1.4v-.9H24.3v-.952A.991.991,0,0,1,25.326-8.3a1.216,1.216,0,0,1,.658.168ZM29.4-2.24A3.081,3.081,0,0,0,32.7.126c1.708,0,2.968-.938,2.968-2.492,0-1.218-.77-1.96-2.142-2.31l-1.47-.378c-.9-.238-1.372-.588-1.372-1.316,0-.882.756-1.414,1.778-1.414a1.969,1.969,0,0,1,2.044,1.33h1.106a2.927,2.927,0,0,0-3.15-2.268,2.548,2.548,0,0,0-2.828,2.436c0,1.3.868,1.9,2.058,2.212l1.54.406c.994.252,1.372.686,1.372,1.358,0,.952-.784,1.5-1.9,1.5A2.122,2.122,0,0,1,30.52-2.24Zm8.75-3.976H37.1V0h1.05ZM38.3-8.092a.675.675,0,0,0-.686-.672.672.672,0,0,0-.672.672.681.681,0,0,0,.672.672A.684.684,0,0,0,38.3-8.092ZM44.128,0h1.064V-9.1H44.128v3.612a2.189,2.189,0,0,0-1.75-.854c-1.82,0-2.8,1.484-2.8,3.234s.98,3.234,2.8,3.234a2.189,2.189,0,0,0,1.75-.854Zm0-1.848a1.789,1.789,0,0,1-1.6,1.022c-1.19,0-1.89-.966-1.89-2.282s.7-2.282,1.89-2.282a1.789,1.789,0,0,1,1.6,1.022Zm6.846-.014A1.432,1.432,0,0,1,49.462-.77c-1.05,0-1.792-.812-1.806-2.142h4.4V-3.29c0-1.806-.91-3.052-2.618-3.052s-2.828,1.386-2.828,3.248c0,1.918,1.162,3.22,2.856,3.22a2.371,2.371,0,0,0,2.506-1.988ZM49.448-5.446a1.561,1.561,0,0,1,1.54,1.736h-3.3A1.782,1.782,0,0,1,49.448-5.446Zm6.58-2.17h3V0H60.13V-7.616h3V-8.6h-7.1ZM67.942,0V-4.144a2.108,2.108,0,0,0-2.366-2.2,2.252,2.252,0,0,0-2.324,1.764h1.036a1.205,1.205,0,0,1,1.274-.854A1.254,1.254,0,0,1,66.934-4.1v.784a2.663,2.663,0,0,0-1.568-.5,2.129,2.129,0,0,0-2.38,1.946A2.091,2.091,0,0,0,65.3.112a2.491,2.491,0,0,0,1.638-.574V0ZM66.934-1.54a1.556,1.556,0,0,1-1.456.77c-.756,0-1.484-.35-1.484-1.106s.728-1.078,1.484-1.078a1.556,1.556,0,0,1,1.456.77Zm3.85.812a2.189,2.189,0,0,0,1.75.854c1.82,0,2.8-1.47,2.8-3.234s-.98-3.234-2.8-3.234a2.189,2.189,0,0,0-1.75.854V-9.1H69.72V0h1.064Zm0-3.64a1.789,1.789,0,0,1,1.6-1.022c1.19,0,1.89.966,1.89,2.282s-.7,2.282-1.89,2.282a1.789,1.789,0,0,1-1.6-1.022ZM77.812-9.1h-1.05V0h1.05Zm5.8,7.238A1.432,1.432,0,0,1,82.1-.77c-1.05,0-1.792-.812-1.806-2.142h4.4V-3.29c0-1.806-.91-3.052-2.618-3.052S79.24-4.956,79.24-3.094C79.24-1.176,80.4.126,82.1.126A2.371,2.371,0,0,0,84.6-1.862ZM82.082-5.446a1.561,1.561,0,0,1,1.54,1.736h-3.3A1.782,1.782,0,0,1,82.082-5.446Z" transform="translate(2658 2078.25)" fill="#001dff"></path><rect id="measuerments_background_box" data-name="measuerments background box" width="800" height="550" transform="translate(2306 1696.5)" fill="none"></rect></g></svg> 