<?xml version="1.0" encoding="UTF-8"?> <svg xmlns="http://www.w3.org/2000/svg" width="800" height="550" viewBox="0 0 800 550"><g id="diagram-papa" transform="translate(-1464 -2582.5)"><g id="Group_1575" data-name="Group 1575" transform="translate(-553.722 2119)"><g id="Group_1573" data-name="Group 1573"><path id="Path_1446" data-name="Path 1446" d="M0,0H50" transform="translate(2356.309 764.328)" fill="none" stroke="#001dff" stroke-width="1"></path><path id="Path_1674" data-name="Path 1674" d="M5.925-8.25a3.171,3.171,0,0,1,3.15,3.4A3.144,3.144,0,0,1,5.95-1.475a3.169,3.169,0,0,1-3.35-2.9H.675A4.972,4.972,0,0,0,5.95.225,4.874,4.874,0,0,0,10.925-4.85,4.791,4.791,0,0,0,6.1-9.95a4.322,4.322,0,0,0-2.8.975V-13.6h6.75v-1.75H1.65v8.425H3.2A3.506,3.506,0,0,1,5.925-8.25ZM18.95.225c3.425,0,5.725-3.225,5.725-7.9s-2.3-7.9-5.725-7.9-5.725,3.225-5.725,7.9S15.525.225,18.95.225Zm0-14.025c2.475,0,3.8,2.55,3.8,6.125S21.425-1.55,18.95-1.55c-2.5,0-3.8-2.55-3.8-6.125S16.45-13.8,18.95-13.8ZM32.9.225c3.425,0,5.725-3.225,5.725-7.9s-2.3-7.9-5.725-7.9-5.725,3.225-5.725,7.9S29.475.225,32.9.225Zm0-14.025c2.475,0,3.8,2.55,3.8,6.125S35.375-1.55,32.9-1.55c-2.5,0-3.8-2.55-3.8-6.125S30.4-13.8,32.9-13.8Z" transform="translate(2361.888 788.773)" fill="#001dff"></path><path id="Path_1447" data-name="Path 1447" d="M0,28.74v-50" transform="translate(2426.161 715.74)" fill="none" stroke="#001dff" stroke-width="1"></path><path id="Path_1675" data-name="Path 1675" d="M5.925-8.25a3.171,3.171,0,0,1,3.15,3.4A3.144,3.144,0,0,1,5.95-1.475a3.169,3.169,0,0,1-3.35-2.9H.675A4.972,4.972,0,0,0,5.95.225,4.874,4.874,0,0,0,10.925-4.85,4.791,4.791,0,0,0,6.1-9.95a4.322,4.322,0,0,0-2.8.975V-13.6h6.75v-1.75H1.65v8.425H3.2A3.506,3.506,0,0,1,5.925-8.25ZM18.95.225c3.425,0,5.725-3.225,5.725-7.9s-2.3-7.9-5.725-7.9-5.725,3.225-5.725,7.9S15.525.225,18.95.225Zm0-14.025c2.475,0,3.8,2.55,3.8,6.125S21.425-1.55,18.95-1.55c-2.5,0-3.8-2.55-3.8-6.125S16.45-13.8,18.95-13.8ZM32.9.225c3.425,0,5.725-3.225,5.725-7.9s-2.3-7.9-5.725-7.9-5.725,3.225-5.725,7.9S29.475.225,32.9.225Zm0-14.025c2.475,0,3.8,2.55,3.8,6.125S35.375-1.55,32.9-1.55c-2.5,0-3.8-2.55-3.8-6.125S30.4-13.8,32.9-13.8Z" transform="translate(2450.605 739.43) rotate(-90)" fill="#001dff"></path><g id="Group_1570" data-name="Group 1570"><g id="Group_1305" data-name="Group 1305" transform="translate(2356.617 694.79)"><path id="Path_1448" data-name="Path 1448" d="M.792,2.456A4.543,4.543,0,0,0,1.018-.911a8.132,8.132,0,0,0,2.47,0c.771-.129,13.536-.869,20.937-.869s20.164.74,20.935.869a8.132,8.132,0,0,0,2.47,0,11.7,11.7,0,0,0,.333,2.865c.362,1.261,1.259,10.756,1.259,21.108,0,12.791-.5,20.463-1.107,21.976a6.925,6.925,0,0,0-.485,2.87s-1.133-.307-2.389-.5c-2.32-.352-15.495.807-21.009.807S6.5,47.206,3.676,47.51c-1.378.148-2.658.4-2.658.4A11.32,11.32,0,0,0,.7,44.686C.264,42.73-.574,35.852-.574,23.061-.574,12.71.335,3.679.792,2.456Z" transform="translate(0.574 1.78)" fill="none" stroke="#001dff" stroke-linecap="round" stroke-linejoin="round" stroke-width="0.5"></path></g><g id="Group_1306" data-name="Group 1306" transform="translate(2397.61 721.276)"><path id="Path_1449" data-name="Path 1449" d="M0,0" fill="#2b2e34"></path></g><path id="Path_1451" data-name="Path 1451" d="M0,0" transform="translate(2397.61 721.276)" fill="none" stroke="#001dff" stroke-width="0.5"></path><g id="Group_1309" data-name="Group 1309" transform="translate(2356.736 719.77)"><path id="Path_1452" data-name="Path 1452" d="M28.919.513s-3.412-.862-25-.862c-18.93,0-24.881.966-24.881.966" transform="translate(20.962 0.349)" fill="none" stroke="#001dff" stroke-linecap="round" stroke-linejoin="round" stroke-miterlimit="10" stroke-width="0.5"></path></g></g></g><g id="Group_1572" data-name="Group 1572" transform="translate(13 2)"><path id="Path_1454" data-name="Path 1454" d="M0,20.118v-35" transform="translate(2228.42 709.362)" fill="none" stroke="#001dff" stroke-miterlimit="10" stroke-width="1"></path><path id="Path_1673" data-name="Path 1673" d="M4.6-7.025H5.675C7.425-7.025,8.8-6,8.8-4.275a2.783,2.783,0,0,1-3.075,2.8,3.179,3.179,0,0,1-3.375-2.9H.425A4.963,4.963,0,0,0,5.75.225c3.075,0,4.925-2,4.925-4.525a3.62,3.62,0,0,0-2.7-3.575,3.547,3.547,0,0,0,2.4-3.5c0-2.45-1.75-4.2-4.675-4.2A4.874,4.874,0,0,0,.725-11.15H2.65A2.954,2.954,0,0,1,5.7-13.875a2.577,2.577,0,0,1,2.8,2.6A2.58,2.58,0,0,1,5.625-8.7H4.6ZM18-8.25a3.171,3.171,0,0,1,3.15,3.4,3.144,3.144,0,0,1-3.125,3.375,3.169,3.169,0,0,1-3.35-2.9H12.75a4.972,4.972,0,0,0,5.275,4.6A4.874,4.874,0,0,0,23-4.85a4.791,4.791,0,0,0-4.825-5.1,4.322,4.322,0,0,0-2.8.975V-13.6h6.75v-1.75h-8.4v8.425h1.55A3.506,3.506,0,0,1,18-8.25ZM31.025.225C34.45.225,36.75-3,36.75-7.675s-2.3-7.9-5.725-7.9S25.3-12.35,25.3-7.675,27.6.225,31.025.225Zm0-14.025c2.475,0,3.8,2.55,3.8,6.125S33.5-1.55,31.025-1.55c-2.5,0-3.8-2.55-3.8-6.125S28.525-13.8,31.025-13.8Z" transform="translate(2252.865 730.856) rotate(-90)" fill="#001dff"></path><path id="Path_1455" data-name="Path 1455" d="M0,0H35" transform="translate(2173.328 749.57)" fill="none" stroke="#001dff" stroke-miterlimit="10" stroke-width="1"></path><path id="Path_1672" data-name="Path 1672" d="M4.6-7.025H5.675C7.425-7.025,8.8-6,8.8-4.275a2.783,2.783,0,0,1-3.075,2.8,3.179,3.179,0,0,1-3.375-2.9H.425A4.963,4.963,0,0,0,5.75.225c3.075,0,4.925-2,4.925-4.525a3.62,3.62,0,0,0-2.7-3.575,3.547,3.547,0,0,0,2.4-3.5c0-2.45-1.75-4.2-4.675-4.2A4.874,4.874,0,0,0,.725-11.15H2.65A2.954,2.954,0,0,1,5.7-13.875a2.577,2.577,0,0,1,2.8,2.6A2.58,2.58,0,0,1,5.625-8.7H4.6ZM18-8.25a3.171,3.171,0,0,1,3.15,3.4,3.144,3.144,0,0,1-3.125,3.375,3.169,3.169,0,0,1-3.35-2.9H12.75a4.972,4.972,0,0,0,5.275,4.6A4.874,4.874,0,0,0,23-4.85a4.791,4.791,0,0,0-4.825-5.1,4.322,4.322,0,0,0-2.8.975V-13.6h6.75v-1.75h-8.4v8.425h1.55A3.506,3.506,0,0,1,18-8.25ZM31.025.225C34.45.225,36.75-3,36.75-7.675s-2.3-7.9-5.725-7.9S25.3-12.35,25.3-7.675,27.6.225,31.025.225Zm0-14.025c2.475,0,3.8,2.55,3.8,6.125S33.5-1.55,31.025-1.55c-2.5,0-3.8-2.55-3.8-6.125S28.525-13.8,31.025-13.8Z" transform="translate(2171.722 774.014)" fill="#001dff"></path><g id="Group_1569" data-name="Group 1569"><g id="Group_1313" data-name="Group 1313" transform="translate(2173.638 694.788)"><path id="Path_1456" data-name="Path 1456" d="M.555,1.726A3.188,3.188,0,0,0,.713-.63a5.664,5.664,0,0,0,1.729,0c.541-.091,9.475-.61,14.656-.61s14.116.519,14.656.61a5.669,5.669,0,0,0,1.729,0,8.176,8.176,0,0,0,.232,2A103.864,103.864,0,0,1,34.6,16.15c0,8.956-.349,14.326-.773,15.385a4.842,4.842,0,0,0-.34,2.009A17.031,17.031,0,0,0,31.81,33.2c-1.624-.249-10.846.565-14.707.565s-12.551-.706-14.53-.5c-.964.105-1.861.28-1.861.28a7.967,7.967,0,0,0-.222-2.256C.185,29.92-.4,25.105-.4,16.15-.4,8.9.235,2.582.555,1.726Z" transform="translate(0.399 1.24)" fill="none" stroke="#001dff" stroke-linecap="round" stroke-linejoin="round" stroke-miterlimit="10" stroke-width="0.5"></path></g><g id="Group_1314" data-name="Group 1314" transform="translate(2202.41 713.334)"><path id="Path_1457" data-name="Path 1457" d="M0,0" fill="#2b2e34"></path></g><path id="Path_1459" data-name="Path 1459" d="M0,0" transform="translate(2202.41 713.334)" fill="none" stroke="#001dff" stroke-width="0.5"></path><g id="Group_1317" data-name="Group 1317" transform="translate(2173.72 712.347)"><path id="Path_1460" data-name="Path 1460" d="M20.319.285S17.93-.194,2.82-.194C-10.434-.194-14.6.342-14.6.342" transform="translate(14.598 0.194)" fill="none" stroke="#001dff" stroke-linecap="round" stroke-linejoin="round" stroke-miterlimit="10" stroke-width="0.5"></path></g></g></g><g id="Group_1574" data-name="Group 1574"><path id="Path_1462" data-name="Path 1462" d="M0,18.061v-30" transform="translate(2620.563 706.42)" fill="none" stroke="#001dff" stroke-miterlimit="10" stroke-width="1"></path><path id="Path_1677" data-name="Path 1677" d="M4.6-7.025H5.675C7.425-7.025,8.8-6,8.8-4.275a2.783,2.783,0,0,1-3.075,2.8,3.179,3.179,0,0,1-3.375-2.9H.425A4.963,4.963,0,0,0,5.75.225c3.075,0,4.925-2,4.925-4.525a3.62,3.62,0,0,0-2.7-3.575,3.547,3.547,0,0,0,2.4-3.5c0-2.45-1.75-4.2-4.675-4.2A4.874,4.874,0,0,0,.725-11.15H2.65A2.954,2.954,0,0,1,5.7-13.875a2.577,2.577,0,0,1,2.8,2.6A2.58,2.58,0,0,1,5.625-8.7H4.6ZM18.725.225C22.15.225,24.45-3,24.45-7.675s-2.3-7.9-5.725-7.9S13-12.35,13-7.675,15.3.225,18.725.225Zm0-14.025c2.475,0,3.8,2.55,3.8,6.125S21.2-1.55,18.725-1.55c-2.5,0-3.8-2.55-3.8-6.125S16.225-13.8,18.725-13.8ZM32.675.225C36.1.225,38.4-3,38.4-7.675s-2.3-7.9-5.725-7.9-5.725,3.225-5.725,7.9S29.25.225,32.675.225Zm0-14.025c2.475,0,3.8,2.55,3.8,6.125S35.15-1.55,32.675-1.55c-2.5,0-3.8-2.55-3.8-6.125S30.175-13.8,32.675-13.8Z" transform="translate(2645.008 728.832) rotate(-90)" fill="#001dff"></path><path id="Path_1463" data-name="Path 1463" d="M0,0H60" transform="translate(2541.042 744.3)" fill="none" stroke="#001dff" stroke-miterlimit="10" stroke-width="1"></path><path id="Path_1676" data-name="Path 1676" d="M3.175-4.9A3.264,3.264,0,0,1,6.5-8.4,3.273,3.273,0,0,1,9.8-4.9,3.245,3.245,0,0,1,6.5-1.45,3.25,3.25,0,0,1,3.175-4.9ZM11.4-11.775a4.534,4.534,0,0,0-4.775-3.8C3.3-15.575,1-12.375,1-7.4a10.739,10.739,0,0,0,.9,4.7A4.9,4.9,0,0,0,6.475.225a4.976,4.976,0,0,0,5.15-5.15,4.922,4.922,0,0,0-4.975-5.1A4,4,0,0,0,2.775-7.4c0-.15-.025-.525-.025-.675,0-3.3,1.625-5.875,3.875-5.875A2.79,2.79,0,0,1,9.45-11.775Zm8.325,12C23.15.225,25.45-3,25.45-7.675s-2.3-7.9-5.725-7.9S14-12.35,14-7.675,16.3.225,19.725.225Zm0-14.025c2.475,0,3.8,2.55,3.8,6.125S22.2-1.55,19.725-1.55c-2.5,0-3.8-2.55-3.8-6.125S17.225-13.8,19.725-13.8ZM33.675.225C37.1.225,39.4-3,39.4-7.675s-2.3-7.9-5.725-7.9-5.725,3.225-5.725,7.9S30.25.225,33.675.225Zm0-14.025c2.475,0,3.8,2.55,3.8,6.125S36.15-1.55,33.675-1.55c-2.5,0-3.8-2.55-3.8-6.125S31.175-13.8,33.675-13.8Z" transform="translate(2551.587 768.744)" fill="#001dff"></path><g id="Group_1571" data-name="Group 1571"><g id="Group_1321" data-name="Group 1321" transform="translate(2541.35 694.792)"><path id="Path_1464" data-name="Path 1464" d="M3.08,17.811a42.009,42.009,0,0,0-4.273-.139,11.076,11.076,0,0,0-.124-3.262A72.845,72.845,0,0,1-2.24,3.629c0-4.44.874-9.922.924-11.7a20.767,20.767,0,0,0-.05-2.638s2.508.177,4.042.1c2.021-.1,12.531-.762,25-.762,15.4,0,23.62.662,27.157.814,1.031.044,2.757.141,2.757.141a13.833,13.833,0,0,0-.33,1.838c-.138,1.622.5,8.9.5,12.2s-.606,10.328-.3,13.069c.093.842.128.978.128.978a27.258,27.258,0,0,0-3.881.19c-2.351.264-10.631.765-26.034.765C15.208,18.627,5.793,18.011,3.08,17.811Z" transform="translate(2.24 11.37)" fill="none" stroke="#001dff" stroke-linecap="round" stroke-linejoin="round" stroke-miterlimit="10" stroke-width="0.5"></path></g><g id="Group_1322" data-name="Group 1322" transform="translate(2573.235 699.78)"><path id="Path_1465" data-name="Path 1465" d="M0,0" fill="#2b2e34"></path></g><path id="Path_1467" data-name="Path 1467" d="M0,0" transform="translate(2573.235 699.78)" fill="none" stroke="#001dff" stroke-width="0.5"></path><g id="Group_1325" data-name="Group 1325" transform="translate(2571.315 694.789)"><path id="Path_1468" data-name="Path 1468" d="M.1,0S.742,2.048.742,15c0,11.36-.81,14.933-.81,14.933" transform="translate(0.068)" fill="none" stroke="#001dff" stroke-linecap="round" stroke-linejoin="round" stroke-miterlimit="10" stroke-width="0.5"></path></g></g></g></g><path id="Path_1671" data-name="Path 1671" d="M4.242-3.444c1.736,0,2.828-.9,2.828-2.576S5.978-8.6,4.242-8.6H1.022V0H2.128V-3.444ZM5.978-6.02c0,.966-.6,1.6-1.764,1.6H2.128V-7.63H4.214A1.541,1.541,0,0,1,5.978-6.02ZM12.782,0V-4.144a2.108,2.108,0,0,0-2.366-2.2A2.252,2.252,0,0,0,8.092-4.578H9.128A1.205,1.205,0,0,1,10.4-5.432,1.254,1.254,0,0,1,11.774-4.1v.784a2.663,2.663,0,0,0-1.568-.5,2.129,2.129,0,0,0-2.38,1.946A2.091,2.091,0,0,0,10.136.112a2.491,2.491,0,0,0,1.638-.574V0ZM11.774-1.54a1.556,1.556,0,0,1-1.456.77c-.756,0-1.484-.35-1.484-1.106s.728-1.078,1.484-1.078a1.556,1.556,0,0,1,1.456.77Zm3.85.812a2.21,2.21,0,0,0,1.75.854c1.834,0,2.8-1.512,2.8-3.234s-.966-3.234-2.8-3.234a2.21,2.21,0,0,0-1.75.854v-.728h-1.05v8.6h1.05Zm0-3.64a1.789,1.789,0,0,1,1.6-1.022c1.19,0,1.89.966,1.89,2.282s-.7,2.282-1.89,2.282a1.789,1.789,0,0,1-1.6-1.022ZM26.11,0V-4.144a2.108,2.108,0,0,0-2.366-2.2A2.252,2.252,0,0,0,21.42-4.578h1.036a1.205,1.205,0,0,1,1.274-.854A1.254,1.254,0,0,1,25.1-4.1v.784a2.663,2.663,0,0,0-1.568-.5,2.129,2.129,0,0,0-2.38,1.946A2.091,2.091,0,0,0,23.464.112,2.491,2.491,0,0,0,25.1-.462V0ZM25.1-1.54a1.556,1.556,0,0,1-1.456.77c-.756,0-1.484-.35-1.484-1.106s.728-1.078,1.484-1.078a1.556,1.556,0,0,1,1.456.77ZM30.576-4.3c0,2.674,1.68,4.424,3.85,4.424a3.226,3.226,0,0,0,3.346-2.66H36.68A2.244,2.244,0,0,1,34.426-.868c-1.652,0-2.744-1.4-2.744-3.43s1.106-3.43,2.744-3.43A2.248,2.248,0,0,1,36.68-6.076h1.092a3.217,3.217,0,0,0-3.346-2.646C32.256-8.722,30.576-6.972,30.576-4.3ZM44.114-6.216H43.05V-2A1.652,1.652,0,0,1,41.5-.84a1.284,1.284,0,0,1-1.358-1.47V-6.216H39.074v4.074A2.043,2.043,0,0,0,41.244.126a2.244,2.244,0,0,0,1.806-.91V0h1.064Zm1.344,4.508A2.335,2.335,0,0,0,48.006.126c1.33,0,2.31-.7,2.31-1.876,0-.868-.518-1.456-1.582-1.736l-1.2-.294c-.588-.168-.868-.364-.868-.784,0-.6.574-.9,1.19-.9a1.275,1.275,0,0,1,1.372.882h1.05a2.19,2.19,0,0,0-2.408-1.764A1.98,1.98,0,0,0,45.64-4.508c0,.966.616,1.414,1.5,1.638l1.232.322c.644.168.924.434.924.868,0,.63-.532.924-1.274.924a1.386,1.386,0,0,1-1.47-.952ZM51.772,0h1.05V-4.214A1.687,1.687,0,0,1,54.4-5.376a1.294,1.294,0,0,1,1.372,1.47V0H56.84V-4.074a2.053,2.053,0,0,0-2.184-2.268,2.322,2.322,0,0,0-1.834.91V-9.1h-1.05Zm7.9-6.216h-1.05V0h1.05Zm.154-1.876a.675.675,0,0,0-.686-.672.672.672,0,0,0-.672.672.681.681,0,0,0,.672.672A.684.684,0,0,0,59.822-8.092Zm6.986,4.984c0-1.9-1.162-3.234-2.856-3.234S61.1-5.012,61.1-3.108,62.244.126,63.952.126,66.808-1.2,66.808-3.108Zm-1.064,0c0,1.358-.672,2.31-1.792,2.31S62.16-1.75,62.16-3.108s.672-2.31,1.792-2.31S65.744-4.466,65.744-3.108ZM68.236,0h1.05V-4.214a1.687,1.687,0,0,1,1.582-1.162,1.294,1.294,0,0,1,1.372,1.47V0H73.3V-4.074A2.053,2.053,0,0,0,71.12-6.342a2.322,2.322,0,0,0-1.834.91v-.784h-1.05Zm6.328-1.708A2.335,2.335,0,0,0,77.112.126c1.33,0,2.31-.7,2.31-1.876,0-.868-.518-1.456-1.582-1.736l-1.2-.294c-.588-.168-.868-.364-.868-.784,0-.6.574-.9,1.19-.9a1.275,1.275,0,0,1,1.372.882h1.05a2.19,2.19,0,0,0-2.408-1.764,1.98,1.98,0,0,0-2.226,1.834c0,.966.616,1.414,1.5,1.638l1.232.322c.644.168.924.434.924.868,0,.63-.532.924-1.274.924a1.386,1.386,0,0,1-1.47-.952Z" transform="translate(1824 2961.25)" fill="#001dff"></path><rect id="measuerments_background_box" data-name="measuerments background box" width="800" height="550" transform="translate(1464 2582.5)" fill="none"></rect></g></svg> 