<?xml version="1.0" encoding="UTF-8"?> <svg xmlns="http://www.w3.org/2000/svg" width="800" height="1950" viewBox="0 0 800 1950"><g id="diagram-Cherry-Sofas" transform="translate(-240 -136)"><g id="diagram-Cherry-2seater" transform="translate(245.676 -372)"><g id="Group_1483" data-name="Group 1483" transform="translate(-2235 367)"><path id="Path_1590" data-name="Path 1590" d="M2.976,1.336A12.4,12.4,0,0,1,10.534-.975M2.706,17.21a57.171,57.171,0,0,1,.27-15.873M10.534-.975c6.716,4.746,11.256,11.04,12.951,17.941m-3.62-8.413a12.479,12.479,0,0,1-.251-4.661m0,0a7.754,7.754,0,0,1,5.414-.738m-.007.009A28.134,28.134,0,0,1,35.254,16.822M24.163,3.009l8.147,13.85M3.29,1.171,9.511,17.132m9.382-.166L14.232,8.075,10.382-.978m17.281,17.8a34.738,34.738,0,0,1-8.05-12.93M-1.979,63.278H70.763M73.02,59.49H88.8M73.221,42.59a101.03,101.03,0,0,1,14.51,2.444M89.6,46.723a10.128,10.128,0,0,1-.09,9.8M87.731,45.034a2.828,2.828,0,0,1,1.874,1.661m-.057,9.762A2.817,2.817,0,0,1,87,58.681M72.992,62.658c-.007.345-.187.62-.4.62m-.608-46.016a.636.636,0,0,1,.608.66m0,0,.606,22.458-.2,22.238m-74.765-44.7a.636.636,0,0,1,.608-.66m-.878,45.987-.135-22.664.4-22.664m.608-.66,36.673-.44,36.471.44m.608,46.016M74,69.86H7.749M86.972,58.69,73,59.289m16.6-12.563-16.408.2m15.646,10.77-15.693.4m-2.591,5.184H88.8m.859-1.129c0,.62-.364,1.121-.812,1.121m0-3.781a.805.805,0,0,1,.812.8m-13.22,2.991V83.022M74,63.278V83.022m2.43-19.744V69.86M7.749,63.278V83.022M5.52,63.278V83.022M7.749,63.278V69.86m81.906-9.573V62.08M5.52,83.022H7.749m66.256,0h2.43" transform="translate(2721.678 316.478)" fill="none" stroke="#001dff" stroke-linecap="round" stroke-linejoin="round" stroke-width="0.5"></path><path id="Path_1785" data-name="Path 1785" d="M-9.875-10.45A3.264,3.264,0,0,1-13.2-6.95a3.273,3.273,0,0,1-3.3-3.5,3.245,3.245,0,0,1,3.3-3.45A3.25,3.25,0,0,1-9.875-10.45ZM-18.1-3.575a4.534,4.534,0,0,0,4.775,3.8C-10,.225-7.7-2.975-7.7-7.95a10.739,10.739,0,0,0-.9-4.7,4.9,4.9,0,0,0-4.575-2.925,4.976,4.976,0,0,0-5.15,5.15,4.922,4.922,0,0,0,4.975,5.1A4,4,0,0,0-9.475-7.95c0,.15.025.525.025.675,0,3.3-1.625,5.875-3.875,5.875A2.79,2.79,0,0,1-16.15-3.575Zm16.45-3.45H-.575C1.175-7.025,2.55-6,2.55-4.275a2.783,2.783,0,0,1-3.075,2.8A3.179,3.179,0,0,1-3.9-4.375H-5.825A4.963,4.963,0,0,0-.5.225c3.075,0,4.925-2,4.925-4.525a3.62,3.62,0,0,0-2.7-3.575,3.547,3.547,0,0,0,2.4-3.5c0-2.45-1.75-4.2-4.675-4.2A4.874,4.874,0,0,0-5.525-11.15H-3.6A2.954,2.954,0,0,1-.55-13.875a2.577,2.577,0,0,1,2.8,2.6A2.58,2.58,0,0,1-.625-8.7H-1.65ZM12.475.225C15.9.225,18.2-3,18.2-7.675s-2.3-7.9-5.725-7.9S6.75-12.35,6.75-7.675,9.05.225,12.475.225Zm0-14.025c2.475,0,3.8,2.55,3.8,6.125S14.95-1.55,12.475-1.55c-2.5,0-3.8-2.55-3.8-6.125S9.975-13.8,12.475-13.8Z" transform="translate(2766 436.868)" fill="#001dff"></path><path id="Path_1591" data-name="Path 1591" d="M0,0H93" transform="translate(2719.5 412.698)" fill="none" stroke="#001dff" stroke-width="1"></path><path id="Path_1786" data-name="Path 1786" d="M8.112-14.736H6.192L.528-4.68v1.344H7.32V0H9.072V-3.336h2.592V-4.92H9.072V-8.472H7.32V-4.92h-4.7ZM19.032-7.92a3.044,3.044,0,0,1,3.024,3.264,3.019,3.019,0,0,1-3,3.24A3.042,3.042,0,0,1,15.84-4.2H13.992A4.773,4.773,0,0,0,19.056.216a4.679,4.679,0,0,0,4.776-4.872,4.6,4.6,0,0,0-4.632-4.9,4.149,4.149,0,0,0-2.688.936v-4.44h6.48v-1.68H14.928v8.088h1.488A3.366,3.366,0,0,1,19.032-7.92ZM32.016.216c3.288,0,5.5-3.1,5.5-7.584s-2.208-7.584-5.5-7.584-5.5,3.1-5.5,7.584S28.728.216,32.016.216Zm0-13.464c2.376,0,3.648,2.448,3.648,5.88s-1.272,5.88-3.648,5.88c-2.4,0-3.648-2.448-3.648-5.88S29.616-13.248,32.016-13.248Z" transform="translate(2850.266 394.632) rotate(-90)" fill="#001dff"></path><g id="Group_1481" data-name="Group 1481" transform="translate(2826.753 354.99)"><path id="Path_1068" data-name="Path 1068" d="M.263,8.575v-45" transform="translate(-0.263 36.425)" fill="none" stroke="#001dff" stroke-width="1"></path></g><g id="Group_1480" data-name="Group 1480" transform="translate(2821.109 354.682)"><path id="Path_1069" data-name="Path 1069" d="M0,0H6.156" fill="none" stroke="#001dff" stroke-width="1"></path></g></g><g id="Group_1482" data-name="Group 1482" transform="translate(-2235 367)"><path id="Path_1589" data-name="Path 1589" d="M1.575,10.763a.425.425,0,0,0-.42-.428m.63,44.144V53.407M2.2,51.05a.425.425,0,0,0-.42.424m0,3a.425.425,0,0,0,.418.433h0m-1.05,0a.423.423,0,0,0,.42-.424m194.112-3.648H2.207M1.575,10.763a.425.425,0,0,0-.42-.428M17.348,61.979h163.2m2.312-7.072V76.121m-2.312-21.214V76.121M1.785,53.407l-.21-42.644M15.034,54.907V76.121m2.314-21.214V76.121M197.369,54.907V10.335m.422,44.572V10.335m-1.684,43.072v1.072m0-3.218a.424.424,0,0,0-.42-.426m0,4.072a.425.425,0,0,0,.42-.428v0m0,0c0,.237.285.428.632.428m-194.532,0h193.48M15.034,76.121h2.314m163.2,0h2.312m14.511-21.214V10.335m.422,44.572V10.335m-1.052,0a.425.425,0,0,0-.422.428m2.314,0a.425.425,0,0,0-.42-.428m.526,44.144.1-21.858-.21-21.858m-.42,44.144a.491.491,0,0,0,.526-.428m-.526.428h-1.472m-.422-44.144-.21,42.644m1.262-43.072h-.63m.623.024a82.149,82.149,0,0,0-11.289-.409m12.138.386h-.842M.523,54.907V10.335M.1,54.907V10.335M1.155,54.907a.423.423,0,0,0,.42-.424m-1.052.424V10.335M.1,54.907V10.335m1.472.428a.425.425,0,0,0-.42-.428m-1.484,0c-.337,0-.609.192-.609.428m-.012,0-.21,21.858.21,21.858m0,.012a.425.425,0,0,0,.42.416m0,0H1.155M.523,10.335h.632m-1.472,0h.84m115.7,39.859h63.69m13.537-12.81a93.978,93.978,0,0,0-21.72-3.769m0,0q-4.731-.408-9.482-.565m0,0H133.436M194.9,46.919a24.508,24.508,0,0,0,.146-7.508m.019.08a2.5,2.5,0,0,0-1.613-2.108M178.2,50.187a73.4,73.4,0,0,0,14.669-1.3m0,0a2.337,2.337,0,0,0,1.941-1.919M122.692,33.615a93.21,93.21,0,0,0-21.883,3.857M132.6,33.049q-4.961.156-9.9.565m9.9-.565h29.652M99.168,39.412a24.507,24.507,0,0,0,.146,7.508m2.18,2a76.325,76.325,0,0,0,14.731,1.263M99.4,46.964a2.337,2.337,0,0,0,1.941,1.919M99.578,38.406l94.9-.213M99.368,46.919l31.7.916h31.915l31.915-.916M110.858.064a1.571,1.571,0,0,0-1.186,1.055m0,0,.21,31.717a4.975,4.975,0,0,0,.283,1.176c.156.227.877.984.877.984M175.918,1.119a1.747,1.747,0,0,0-1.37-1.036m1.37,1.036-.21,15.429.63,15.429a4.845,4.845,0,0,1-.087.965c-.087.317-.844.944-.844.944M117.672.066q-3.407-.032-6.815,0M167.717.05,151.1-.594H134.278L117.663.05m56.861.014q-3.407-.032-6.815,0M99.368-5.951l-.422,20.358.21,20.358s.092.875.158,1.169a3.169,3.169,0,0,0,.675,1.041,5.377,5.377,0,0,0,.821.5,2.343,2.343,0,0,0-1.642,1.94m85.042-4.33a5.381,5.381,0,0,0,.821-.468,2.936,2.936,0,0,0,.675-.984c.066-.277.158-1.1.158-1.1l.21-19.238-.42-19.236a1.17,1.17,0,0,0-1.059-.965c-.887-.024-4.89.106-4.89.106l-24.185-.857-24.185-.213-23.975.641s-2.335.085-3.177.1-3.562.13-3.562.13a1.632,1.632,0,0,0-1.253,1.055M81.67,50.194H17.978M4.443,37.384a93.959,93.959,0,0,1,21.717-3.769m0,0q4.731-.408,9.485-.565m0,0h28.81M2.995,46.919a24.36,24.36,0,0,1-.146-7.508m-.021.08a2.493,2.493,0,0,1,1.616-2.108m15.25,12.8a73.372,73.372,0,0,1-14.667-1.3m0,0a2.335,2.335,0,0,1-1.941-1.919M75.2,33.615a93.212,93.212,0,0,1,21.88,3.857M65.3,33.049q4.961.156,9.9.565m-9.9-.565H35.645m63.081,6.362a24.434,24.434,0,0,1-.149,7.508m-2.18,2A76.317,76.317,0,0,1,81.67,50.187m16.821-3.223a2.34,2.34,0,0,1-1.941,1.919m1.767-10.477-94.9-.213m95.114,8.726-31.7.916H34.909L2.995,46.919M87.036.064a1.571,1.571,0,0,1,1.184,1.055m0,0-.21,31.717a4.859,4.859,0,0,1-.283,1.176c-.156.227-.875.984-.875.984M21.974,1.119A1.747,1.747,0,0,1,23.347.083M21.974,1.119l.212,15.429-.632,15.429a5.041,5.041,0,0,0,.087.965c.09.317.844.944.844.944M80.222.066q3.407-.032,6.815,0M30.178.05,46.791-.594H63.616L80.229.05M23.37.064q3.407-.032,6.815,0M98.526-5.951l.42,20.358-.21,20.358s-.092.875-.158,1.169a3.132,3.132,0,0,1-.675,1.041,5.377,5.377,0,0,1-.821.5,2.345,2.345,0,0,1,1.644,1.94m-85.042-4.33a5.491,5.491,0,0,1-.823-.468,2.931,2.931,0,0,1-.672-.984c-.068-.277-.158-1.1-.158-1.1l-.212-19.238.422-19.236A1.169,1.169,0,0,1,13.3-6.916c.887-.024,4.892.106,4.892.106l24.185-.857L66.56-7.879l23.975.641s2.333.085,3.177.1,3.559.13,3.559.13a1.635,1.635,0,0,1,1.255,1.055m-98,16.309a82.149,82.149,0,0,1,11.289-.409" transform="translate(2443.659 323.379)" fill="none" stroke="#001dff" stroke-linecap="round" stroke-linejoin="round" stroke-width="0.5"></path><g id="Group_1478" data-name="Group 1478" transform="translate(2443 412.698)"><path id="Path_1062" data-name="Path 1062" d="M0,0H200" transform="translate(0 0)" fill="none" stroke="#001dff" stroke-width="1"></path></g><path id="Path_1782" data-name="Path 1782" d="M-18.113-11.225c0,1.45-1.25,2.725-2.85,4.475l-4.95,5.45V0h10.025V-1.75h-7.325l3.9-4.275c1.55-1.75,3.1-3.275,3.1-5.225,0-2.625-1.75-4.325-4.675-4.325-2.825,0-4.725,1.975-5.025,4.825h2.025c.15-1.775,1.15-3.075,3-3.075A2.517,2.517,0,0,1-18.113-11.225ZM-7.988.225c3.425,0,5.725-3.225,5.725-7.9s-2.3-7.9-5.725-7.9-5.725,3.225-5.725,7.9S-11.413.225-7.988.225Zm0-14.025c2.475,0,3.8,2.55,3.8,6.125S-5.513-1.55-7.988-1.55c-2.5,0-3.8-2.55-3.8-6.125S-10.488-13.8-7.988-13.8ZM5.962.225c3.425,0,5.725-3.225,5.725-7.9s-2.3-7.9-5.725-7.9S.237-12.35.237-7.675,2.537.225,5.962.225Zm0-14.025c2.475,0,3.8,2.55,3.8,6.125S8.437-1.55,5.962-1.55c-2.5,0-3.8-2.55-3.8-6.125S3.462-13.8,5.962-13.8ZM19.913.225c3.425,0,5.725-3.225,5.725-7.9s-2.3-7.9-5.725-7.9-5.725,3.225-5.725,7.9S16.487.225,19.913.225Zm0-14.025c2.475,0,3.8,2.55,3.8,6.125s-1.325,6.125-3.8,6.125c-2.5,0-3.8-2.55-3.8-6.125S17.413-13.8,19.913-13.8Z" transform="translate(2543 436.868)" fill="#001dff"></path><path id="Path_1784" data-name="Path 1784" d="M-13.662-1.375a3.027,3.027,0,0,1-3.325-2.95A3.024,3.024,0,0,1-13.662-7.25c1.95,0,3.35,1.2,3.35,2.925C-10.312-2.575-11.712-1.375-13.662-1.375Zm0-7.525a2.59,2.59,0,0,1-2.8-2.525,2.594,2.594,0,0,1,2.8-2.55,2.6,2.6,0,0,1,2.825,2.55A2.6,2.6,0,0,1-13.662-8.9Zm0,9.125c2.975,0,5.25-1.75,5.25-4.4a3.974,3.974,0,0,0-3-3.9,3.616,3.616,0,0,0,2.45-3.45c0-2.475-2.075-4.05-4.7-4.05-2.6,0-4.675,1.575-4.675,4.05a3.584,3.584,0,0,0,2.45,3.45,3.948,3.948,0,0,0-3,3.9C-18.887-1.525-16.612.225-13.662.225ZM1.438-15.35h-2l-5.9,10.475v1.4H.613V0H2.438V-3.475h2.7v-1.65h-2.7v-3.7H.613v3.7h-4.9ZM13.013.225c3.425,0,5.725-3.225,5.725-7.9s-2.3-7.9-5.725-7.9-5.725,3.225-5.725,7.9S9.588.225,13.013.225Zm0-14.025c2.475,0,3.8,2.55,3.8,6.125s-1.325,6.125-3.8,6.125c-2.5,0-3.8-2.55-3.8-6.125S10.513-13.8,13.013-13.8Z" transform="translate(2682.412 357.682) rotate(-90)" fill="#001dff"></path><g id="Group_1479" data-name="Group 1479" transform="translate(2658.243 316)"><path id="Path_1065" data-name="Path 1065" d="M.339,22.182v-83" transform="translate(-0.339 60.818)" fill="none" stroke="#001dff" stroke-width="1"></path></g></g><path id="Path_1783" data-name="Path 1783" d="M.518-4.3C.518-1.624,2.2.126,4.368.126a3.226,3.226,0,0,0,3.346-2.66H6.622A2.244,2.244,0,0,1,4.368-.868c-1.652,0-2.744-1.4-2.744-3.43s1.106-3.43,2.744-3.43A2.248,2.248,0,0,1,6.622-6.076H7.714A3.217,3.217,0,0,0,4.368-8.722C2.2-8.722.518-6.972.518-4.3ZM9.142,0h1.05V-4.214a1.687,1.687,0,0,1,1.582-1.162,1.294,1.294,0,0,1,1.372,1.47V0H14.21V-4.074a2.053,2.053,0,0,0-2.184-2.268,2.322,2.322,0,0,0-1.834.91V-9.1H9.142ZM19.908-1.862A1.432,1.432,0,0,1,18.4-.77c-1.05,0-1.792-.812-1.806-2.142h4.4V-3.29c0-1.806-.91-3.052-2.618-3.052S15.54-4.956,15.54-3.094C15.54-1.176,16.7.126,18.4.126A2.371,2.371,0,0,0,20.9-1.862ZM18.382-5.446a1.561,1.561,0,0,1,1.54,1.736h-3.3A1.782,1.782,0,0,1,18.382-5.446Zm7.2-.8a1.518,1.518,0,0,0-.6-.1,1.735,1.735,0,0,0-1.54.938v-.812h-1.05V0h1.05V-4.172a1.505,1.505,0,0,1,1.442-1.162,1.329,1.329,0,0,1,.7.168Zm4.494,0a1.518,1.518,0,0,0-.6-.1,1.735,1.735,0,0,0-1.54.938v-.812H26.88V0h1.05V-4.172a1.505,1.505,0,0,1,1.442-1.162,1.329,1.329,0,0,1,.7.168ZM33.208,2.38l3.346-8.6H35.462l-1.806,4.9-1.834-4.9H30.688L33.11.042,32.172,2.38ZM44.674-6.286c0,.812-.7,1.526-1.6,2.506L40.306-.728V0H45.92V-.98h-4.1L44-3.374c.868-.98,1.736-1.834,1.736-2.926A2.343,2.343,0,0,0,43.12-8.722a2.78,2.78,0,0,0-2.814,2.7H41.44a1.66,1.66,0,0,1,1.68-1.722A1.41,1.41,0,0,1,44.674-6.286Zm1.932,3.122H49.98v-.98H46.606Zm4.452,1.456A2.335,2.335,0,0,0,53.606.126c1.33,0,2.31-.7,2.31-1.876,0-.868-.518-1.456-1.582-1.736l-1.2-.294c-.588-.168-.868-.364-.868-.784,0-.6.574-.9,1.19-.9a1.275,1.275,0,0,1,1.372.882h1.05a2.19,2.19,0,0,0-2.408-1.764A1.98,1.98,0,0,0,51.24-4.508c0,.966.616,1.414,1.5,1.638l1.232.322c.644.168.924.434.924.868,0,.63-.532.924-1.274.924a1.386,1.386,0,0,1-1.47-.952Zm10.234-.154A1.432,1.432,0,0,1,59.78-.77c-1.05,0-1.792-.812-1.806-2.142h4.4V-3.29c0-1.806-.91-3.052-2.618-3.052s-2.828,1.386-2.828,3.248c0,1.918,1.162,3.22,2.856,3.22a2.371,2.371,0,0,0,2.506-1.988ZM59.766-5.446a1.561,1.561,0,0,1,1.54,1.736H58A1.782,1.782,0,0,1,59.766-5.446ZM68.278,0V-4.144a2.108,2.108,0,0,0-2.366-2.2,2.252,2.252,0,0,0-2.324,1.764h1.036A1.205,1.205,0,0,1,65.9-5.432,1.254,1.254,0,0,1,67.27-4.1v.784a2.663,2.663,0,0,0-1.568-.5,2.129,2.129,0,0,0-2.38,1.946A2.091,2.091,0,0,0,65.632.112,2.491,2.491,0,0,0,67.27-.462V0ZM67.27-1.54a1.556,1.556,0,0,1-1.456.77c-.756,0-1.484-.35-1.484-1.106s.728-1.078,1.484-1.078a1.556,1.556,0,0,1,1.456.77Zm3.052-.028A1.55,1.55,0,0,0,72.03.126a2.209,2.209,0,0,0,.98-.21v-.98a1.547,1.547,0,0,1-.812.252c-.532,0-.826-.266-.826-.868V-5.32h1.5v-.9h-1.5V-7.854h-1.05v1.638H69.314v.9h1.008Zm7.994-.294A1.432,1.432,0,0,1,76.8-.77c-1.05,0-1.792-.812-1.806-2.142h4.4V-3.29c0-1.806-.91-3.052-2.618-3.052s-2.828,1.386-2.828,3.248c0,1.918,1.162,3.22,2.856,3.22A2.371,2.371,0,0,0,79.31-1.862ZM76.79-5.446A1.561,1.561,0,0,1,78.33-3.71h-3.3A1.782,1.782,0,0,1,76.79-5.446Zm7.2-.8a1.518,1.518,0,0,0-.6-.1,1.735,1.735,0,0,0-1.54.938v-.812h-1.05V0h1.05V-4.172a1.505,1.505,0,0,1,1.442-1.162,1.329,1.329,0,0,1,.7.168Zm3.78,4A3.081,3.081,0,0,0,91.07.126c1.708,0,2.968-.938,2.968-2.492,0-1.218-.77-1.96-2.142-2.31l-1.47-.378c-.9-.238-1.372-.588-1.372-1.316,0-.882.756-1.414,1.778-1.414a1.969,1.969,0,0,1,2.044,1.33h1.106a2.927,2.927,0,0,0-3.15-2.268A2.548,2.548,0,0,0,88-6.286c0,1.3.868,1.9,2.058,2.212l1.54.406c.994.252,1.372.686,1.372,1.358,0,.952-.784,1.5-1.9,1.5A2.122,2.122,0,0,1,88.886-2.24Zm13.076-.868c0-1.9-1.162-3.234-2.856-3.234S95.13-5.012,95.13-3.108,96.278.126,97.986.126,100.842-1.2,100.842-3.108Zm-1.064,0c0,1.358-.672,2.31-1.792,2.31s-1.792-.952-1.792-2.31.672-2.31,1.792-2.31S99.778-4.466,99.778-3.108Zm5.6-5.978a2.01,2.01,0,0,0-.812-.14,1.827,1.827,0,0,0-1.9,1.974v1.036h-1.05v.9h1.05V0H103.7V-5.32h1.4v-.9h-1.4v-.952A.991.991,0,0,1,104.72-8.3a1.216,1.216,0,0,1,.658.168ZM110.684,0V-4.144a2.108,2.108,0,0,0-2.366-2.2,2.252,2.252,0,0,0-2.324,1.764h1.036a1.205,1.205,0,0,1,1.274-.854,1.254,1.254,0,0,1,1.372,1.33v.784a2.663,2.663,0,0,0-1.568-.5,2.129,2.129,0,0,0-2.38,1.946,2.091,2.091,0,0,0,2.31,1.988,2.491,2.491,0,0,0,1.638-.574V0Zm-1.008-1.54a1.556,1.556,0,0,1-1.456.77c-.756,0-1.484-.35-1.484-1.106s.728-1.078,1.484-1.078a1.556,1.556,0,0,1,1.456.77Z" transform="translate(358.383 857.25)" fill="#001dff"></path></g><g id="diagram-Cherry-2.5seater" transform="translate(223.059 -278)"><g id="Group_1486" data-name="Group 1486" transform="translate(-2214.501 367)"><g id="Group_1478-2" data-name="Group 1478" transform="translate(2423 627.698)"><path id="Path_1062-2" data-name="Path 1062" d="M0,0H220" transform="translate(0 0)" fill="none" stroke="#001dff" stroke-width="1"></path></g><path id="Path_1790" data-name="Path 1790" d="M-17.163-11.225c0,1.45-1.25,2.725-2.85,4.475l-4.95,5.45V0h10.025V-1.75h-7.325l3.9-4.275c1.55-1.75,3.1-3.275,3.1-5.225,0-2.625-1.75-4.325-4.675-4.325-2.825,0-4.725,1.975-5.025,4.825h2.025c.15-1.775,1.15-3.075,3-3.075A2.517,2.517,0,0,1-17.163-11.225Zm12.05,0c0,1.45-1.25,2.725-2.85,4.475l-4.95,5.45V0H-2.887V-1.75h-7.325l3.9-4.275c1.55-1.75,3.1-3.275,3.1-5.225,0-2.625-1.75-4.325-4.675-4.325-2.825,0-4.725,1.975-5.025,4.825h2.025c.15-1.775,1.15-3.075,3-3.075A2.517,2.517,0,0,1-5.113-11.225ZM5.013.225c3.425,0,5.725-3.225,5.725-7.9s-2.3-7.9-5.725-7.9S-.712-12.35-.712-7.675,1.588.225,5.013.225Zm0-14.025c2.475,0,3.8,2.55,3.8,6.125S7.488-1.55,5.013-1.55c-2.5,0-3.8-2.55-3.8-6.125S2.513-13.8,5.013-13.8ZM18.962.225c3.425,0,5.725-3.225,5.725-7.9s-2.3-7.9-5.725-7.9-5.725,3.225-5.725,7.9S15.537.225,18.962.225Zm0-14.025c2.475,0,3.8,2.55,3.8,6.125s-1.325,6.125-3.8,6.125c-2.5,0-3.8-2.55-3.8-6.125S16.462-13.8,18.962-13.8Z" transform="translate(2543 651.868)" fill="#001dff"></path><path id="Path_1789" data-name="Path 1789" d="M-13.662-1.375a3.027,3.027,0,0,1-3.325-2.95A3.024,3.024,0,0,1-13.662-7.25c1.95,0,3.35,1.2,3.35,2.925C-10.312-2.575-11.712-1.375-13.662-1.375Zm0-7.525a2.59,2.59,0,0,1-2.8-2.525,2.594,2.594,0,0,1,2.8-2.55,2.6,2.6,0,0,1,2.825,2.55A2.6,2.6,0,0,1-13.662-8.9Zm0,9.125c2.975,0,5.25-1.75,5.25-4.4a3.974,3.974,0,0,0-3-3.9,3.616,3.616,0,0,0,2.45-3.45c0-2.475-2.075-4.05-4.7-4.05-2.6,0-4.675,1.575-4.675,4.05a3.584,3.584,0,0,0,2.45,3.45,3.948,3.948,0,0,0-3,3.9C-18.887-1.525-16.612.225-13.662.225ZM1.438-15.35h-2l-5.9,10.475v1.4H.613V0H2.438V-3.475h2.7v-1.65h-2.7v-3.7H.613v3.7h-4.9ZM13.013.225c3.425,0,5.725-3.225,5.725-7.9s-2.3-7.9-5.725-7.9-5.725,3.225-5.725,7.9S9.588.225,13.013.225Zm0-14.025c2.475,0,3.8,2.55,3.8,6.125s-1.325,6.125-3.8,6.125c-2.5,0-3.8-2.55-3.8-6.125S10.513-13.8,13.013-13.8Z" transform="translate(2682.412 572.682) rotate(-90)" fill="#001dff"></path><g id="Group_1479-2" data-name="Group 1479" transform="translate(2658.243 531)"><path id="Path_1065-2" data-name="Path 1065" d="M.339,22.182v-83" transform="translate(-0.339 60.818)" fill="none" stroke="#001dff" stroke-width="1"></path></g><path id="Path_1592" data-name="Path 1592" d="M1.732,10.763a.446.446,0,0,0-.462-.428m.693,44.142V53.405m.462-2.356a.448.448,0,0,0-.462.426m0,3a.445.445,0,0,0,.46.431h0m-1.155,0a.446.446,0,0,0,.462-.423m213.524-3.648H2.425M1.732,10.763a.446.446,0,0,0-.462-.428M19.083,61.977H198.6m2.544-7.072V76.12M198.6,54.905V76.12M1.963,53.405,1.732,10.763m14.8,44.142V76.12m2.547-21.215V76.12M217.1,54.905V10.335m.465,44.571V10.335m-1.851,43.071v1.072m0-3.218a.449.449,0,0,0-.462-.426m0,4.072a.447.447,0,0,0,.462-.428v0m0,0c0,.237.314.428.693.428m-213.987,0H215.256M16.536,76.12h2.547m179.515,0h2.544M217.1,54.905V10.335m.465,44.571V10.335m-1.158,0a.447.447,0,0,0-.462.428m2.544,0a.446.446,0,0,0-.462-.428m.578,44.142.116-21.856-.231-21.858m-.462,44.142a.527.527,0,0,0,.578-.428m-.578.428h-1.62m-.462-44.142-.231,42.642M217.1,10.335h-.693m.686.024a99.35,99.35,0,0,0-12.418-.409m13.352.386H217.1M.574,54.905V10.335M.112,54.905V10.335M1.269,54.905a.446.446,0,0,0,.462-.423m-1.158.423V10.335M.112,54.905V10.335m1.62.428a.446.446,0,0,0-.462-.428m-1.632,0c-.37,0-.67.192-.67.428m-.012,0-.231,21.858.231,21.856m0,.012a.448.448,0,0,0,.462.416m0,0H1.269m-.7-44.571h.7m-1.62,0H.574m127.27,39.858H197.9m14.889-12.809A112.634,112.634,0,0,0,188.9,33.615m0,0q-5.2-.408-10.43-.565m0,0H146.78m67.609,13.869a22.233,22.233,0,0,0,.16-7.507m.021.08a2.546,2.546,0,0,0-1.776-2.108m-16.774,12.8a88.6,88.6,0,0,0,16.135-1.3m0,0a2.465,2.465,0,0,0,2.134-1.919M134.961,33.615a111.84,111.84,0,0,0-24.07,3.856m34.964-4.422q-5.458.156-10.895.565m10.895-.565h32.618m-69.389,6.362a22.233,22.233,0,0,0,.16,7.507m2.4,2a92.348,92.348,0,0,0,16.2,1.266m-18.5-3.225a2.471,2.471,0,0,0,2.136,1.919m-1.943-10.476,104.393-.215M109.3,46.918l34.872.916h35.106l35.106-.916M121.941.062a1.674,1.674,0,0,0-1.3,1.058m0,0,.231,31.714a4.467,4.467,0,0,0,.311,1.178c.17.225.962.984.962.984M193.509,1.12A1.892,1.892,0,0,0,192,.083m1.509,1.036-.231,15.428.693,15.43a4.375,4.375,0,0,1-.1.963c-.1.317-.927.946-.927.946M129.438.067q-3.749-.035-7.5,0M184.487.048,166.211-.593H147.7L129.428.048m62.546.014q-3.746-.028-7.5,0M109.3-5.952l-.465,20.358.233,20.356s.1.878.172,1.171a3.1,3.1,0,0,0,.743,1.041,6.049,6.049,0,0,0,.9.5,2.419,2.419,0,0,0-1.806,1.94m93.544-4.33a6.282,6.282,0,0,0,.906-.471,2.941,2.941,0,0,0,.74-.982c.073-.279.174-1.107.174-1.107l.231-19.237-.462-19.237a1.226,1.226,0,0,0-1.165-.963c-.976-.026-5.379.106-5.379.106l-26.6-.856-26.6-.215-26.374.644s-2.566.085-3.495.1S110.683-7,110.683-7a1.754,1.754,0,0,0-1.38,1.053M89.835,50.192H19.776M4.887,37.384a112.611,112.611,0,0,1,23.891-3.769m0,0q5.2-.408,10.43-.565m0,0H70.9M3.293,46.918a22.233,22.233,0,0,1-.16-7.507m-.021.08a2.546,2.546,0,0,1,1.776-2.108m16.774,12.8a88.584,88.584,0,0,1-16.135-1.3m0,0a2.465,2.465,0,0,1-2.134-1.919M82.72,33.615a111.84,111.84,0,0,1,24.07,3.856M71.826,33.049q5.458.156,10.895.565m-10.895-.565H39.208M108.6,39.411a22.233,22.233,0,0,1-.16,7.507m-2.4,2a92.357,92.357,0,0,1-16.2,1.266m18.5-3.225a2.465,2.465,0,0,1-2.134,1.919m1.943-10.476L3.753,38.19m104.625,8.728L73.5,47.834H38.4L3.293,46.918M95.74.062a1.678,1.678,0,0,1,1.3,1.058m0,0L96.81,32.834a4.467,4.467,0,0,1-.311,1.178c-.17.225-.962.984-.962.984M24.172,1.12A1.892,1.892,0,0,1,25.681.083M24.172,1.12,24.4,16.548l-.693,15.43a4.477,4.477,0,0,0,.094.963c.1.317.929.946.929.946M88.243.067q3.746-.035,7.5,0M33.194.048,51.47-.593H69.977L88.25.048M25.7.062q3.749-.028,7.5,0m75.176-6.019.462,20.358-.231,20.356s-.1.878-.172,1.171a3.132,3.132,0,0,1-.743,1.041,6.049,6.049,0,0,1-.9.5,2.419,2.419,0,0,1,1.806,1.94m-93.546-4.33a6.289,6.289,0,0,1-.9-.471,2.941,2.941,0,0,1-.74-.982c-.073-.279-.175-1.107-.175-1.107L13,13.285l.462-19.237a1.226,1.226,0,0,1,1.165-.963c.976-.026,5.379.106,5.379.106l26.6-.856,26.6-.215,26.371.644s2.568.085,3.495.1S107-7,107-7a1.754,1.754,0,0,1,1.38,1.053M.574,10.358a99.349,99.349,0,0,1,12.418-.409" transform="translate(2423.775 538.381)" fill="none" stroke="#001dff" stroke-linecap="round" stroke-linejoin="round" stroke-width="0.5"></path></g><path id="Path_1791" data-name="Path 1791" d="M.518-4.3C.518-1.624,2.2.126,4.368.126a3.226,3.226,0,0,0,3.346-2.66H6.622A2.244,2.244,0,0,1,4.368-.868c-1.652,0-2.744-1.4-2.744-3.43s1.106-3.43,2.744-3.43A2.248,2.248,0,0,1,6.622-6.076H7.714A3.217,3.217,0,0,0,4.368-8.722C2.2-8.722.518-6.972.518-4.3ZM9.142,0h1.05V-4.214a1.687,1.687,0,0,1,1.582-1.162,1.294,1.294,0,0,1,1.372,1.47V0H14.21V-4.074a2.053,2.053,0,0,0-2.184-2.268,2.322,2.322,0,0,0-1.834.91V-9.1H9.142ZM19.908-1.862A1.432,1.432,0,0,1,18.4-.77c-1.05,0-1.792-.812-1.806-2.142h4.4V-3.29c0-1.806-.91-3.052-2.618-3.052S15.54-4.956,15.54-3.094C15.54-1.176,16.7.126,18.4.126A2.371,2.371,0,0,0,20.9-1.862ZM18.382-5.446a1.561,1.561,0,0,1,1.54,1.736h-3.3A1.782,1.782,0,0,1,18.382-5.446Zm7.2-.8a1.518,1.518,0,0,0-.6-.1,1.735,1.735,0,0,0-1.54.938v-.812h-1.05V0h1.05V-4.172a1.505,1.505,0,0,1,1.442-1.162,1.329,1.329,0,0,1,.7.168Zm4.494,0a1.518,1.518,0,0,0-.6-.1,1.735,1.735,0,0,0-1.54.938v-.812H26.88V0h1.05V-4.172a1.505,1.505,0,0,1,1.442-1.162,1.329,1.329,0,0,1,.7.168ZM33.208,2.38l3.346-8.6H35.462l-1.806,4.9-1.834-4.9H30.688L33.11.042,32.172,2.38ZM44.674-6.286c0,.812-.7,1.526-1.6,2.506L40.306-.728V0H45.92V-.98h-4.1L44-3.374c.868-.98,1.736-1.834,1.736-2.926A2.343,2.343,0,0,0,43.12-8.722a2.78,2.78,0,0,0-2.814,2.7H41.44a1.66,1.66,0,0,1,1.68-1.722A1.41,1.41,0,0,1,44.674-6.286ZM47-.686a.744.744,0,0,0,.756.756A.741.741,0,0,0,48.5-.686a.753.753,0,0,0-.742-.77A.756.756,0,0,0,47-.686ZM52.164-4.62a1.776,1.776,0,0,1,1.764,1.9,1.761,1.761,0,0,1-1.75,1.89A1.775,1.775,0,0,1,50.3-2.45H49.224A2.784,2.784,0,0,0,52.178.126a2.729,2.729,0,0,0,2.786-2.842,2.683,2.683,0,0,0-2.7-2.856,2.421,2.421,0,0,0-1.568.546v-2.59h3.78V-8.6h-4.7v4.718h.868A1.963,1.963,0,0,1,52.164-4.62Zm3.85,1.456h3.374v-.98H56.014Zm4.452,1.456A2.335,2.335,0,0,0,63.014.126c1.33,0,2.31-.7,2.31-1.876,0-.868-.518-1.456-1.582-1.736l-1.2-.294c-.588-.168-.868-.364-.868-.784,0-.6.574-.9,1.19-.9a1.275,1.275,0,0,1,1.372.882h1.05a2.19,2.19,0,0,0-2.408-1.764,1.98,1.98,0,0,0-2.226,1.834c0,.966.616,1.414,1.5,1.638l1.232.322c.644.168.924.434.924.868,0,.63-.532.924-1.274.924a1.386,1.386,0,0,1-1.47-.952ZM70.7-1.862A1.432,1.432,0,0,1,69.188-.77c-1.05,0-1.792-.812-1.806-2.142h4.4V-3.29c0-1.806-.91-3.052-2.618-3.052s-2.828,1.386-2.828,3.248c0,1.918,1.162,3.22,2.856,3.22a2.371,2.371,0,0,0,2.506-1.988ZM69.174-5.446a1.561,1.561,0,0,1,1.54,1.736h-3.3A1.782,1.782,0,0,1,69.174-5.446ZM77.686,0V-4.144a2.108,2.108,0,0,0-2.366-2.2A2.252,2.252,0,0,0,73-4.578h1.036a1.205,1.205,0,0,1,1.274-.854A1.254,1.254,0,0,1,76.678-4.1v.784a2.663,2.663,0,0,0-1.568-.5,2.129,2.129,0,0,0-2.38,1.946A2.091,2.091,0,0,0,75.04.112a2.491,2.491,0,0,0,1.638-.574V0ZM76.678-1.54a1.556,1.556,0,0,1-1.456.77c-.756,0-1.484-.35-1.484-1.106s.728-1.078,1.484-1.078a1.556,1.556,0,0,1,1.456.77Zm3.052-.028A1.55,1.55,0,0,0,81.438.126a2.209,2.209,0,0,0,.98-.21v-.98a1.547,1.547,0,0,1-.812.252c-.532,0-.826-.266-.826-.868V-5.32h1.5v-.9h-1.5V-7.854H79.73v1.638H78.722v.9H79.73Zm7.994-.294A1.432,1.432,0,0,1,86.212-.77c-1.05,0-1.792-.812-1.806-2.142h4.4V-3.29c0-1.806-.91-3.052-2.618-3.052s-2.828,1.386-2.828,3.248c0,1.918,1.162,3.22,2.856,3.22a2.371,2.371,0,0,0,2.506-1.988ZM86.2-5.446a1.561,1.561,0,0,1,1.54,1.736h-3.3A1.782,1.782,0,0,1,86.2-5.446Zm7.2-.8a1.518,1.518,0,0,0-.6-.1,1.735,1.735,0,0,0-1.54.938v-.812H90.2V0h1.05V-4.172a1.505,1.505,0,0,1,1.442-1.162,1.329,1.329,0,0,1,.7.168Zm3.78,4a3.081,3.081,0,0,0,3.3,2.366c1.708,0,2.968-.938,2.968-2.492,0-1.218-.77-1.96-2.142-2.31l-1.47-.378c-.9-.238-1.372-.588-1.372-1.316,0-.882.756-1.414,1.778-1.414a1.969,1.969,0,0,1,2.044,1.33h1.106a2.927,2.927,0,0,0-3.15-2.268,2.548,2.548,0,0,0-2.828,2.436c0,1.3.868,1.9,2.058,2.212l1.54.406c.994.252,1.372.686,1.372,1.358,0,.952-.784,1.5-1.9,1.5A2.122,2.122,0,0,1,98.294-2.24Zm13.076-.868c0-1.9-1.162-3.234-2.856-3.234s-2.856,1.33-2.856,3.234S105.686.126,107.394.126,110.25-1.2,110.25-3.108Zm-1.064,0c0,1.358-.672,2.31-1.792,2.31S105.6-1.75,105.6-3.108s.672-2.31,1.792-2.31S109.186-4.466,109.186-3.108Zm5.6-5.978a2.01,2.01,0,0,0-.812-.14,1.827,1.827,0,0,0-1.9,1.974v1.036h-1.05v.9h1.05V0h1.036V-5.32h1.4v-.9h-1.4v-.952A.991.991,0,0,1,114.128-8.3a1.216,1.216,0,0,1,.658.168ZM120.092,0V-4.144a2.108,2.108,0,0,0-2.366-2.2A2.252,2.252,0,0,0,115.4-4.578h1.036a1.205,1.205,0,0,1,1.274-.854,1.254,1.254,0,0,1,1.372,1.33v.784a2.663,2.663,0,0,0-1.568-.5,2.129,2.129,0,0,0-2.38,1.946,2.091,2.091,0,0,0,2.31,1.988,2.491,2.491,0,0,0,1.638-.574V0Zm-1.008-1.54a1.556,1.556,0,0,1-1.456.77c-.756,0-1.484-.35-1.484-1.106s.728-1.078,1.484-1.078a1.556,1.556,0,0,1,1.456.77Z" transform="translate(376.5 1072.25)" fill="#001dff"></path><g id="Group_1495" data-name="Group 1495" transform="translate(-2212.383 582)"><path id="Path_1590-2" data-name="Path 1590" d="M2.976,1.336A12.4,12.4,0,0,1,10.534-.975M2.706,17.21a57.171,57.171,0,0,1,.27-15.873M10.534-.975c6.716,4.746,11.256,11.04,12.951,17.941m-3.62-8.413a12.479,12.479,0,0,1-.251-4.661m0,0a7.754,7.754,0,0,1,5.414-.738m-.007.009A28.134,28.134,0,0,1,35.254,16.822M24.163,3.009l8.147,13.85M3.29,1.171,9.511,17.132m9.382-.166L14.232,8.075,10.382-.978m17.281,17.8a34.738,34.738,0,0,1-8.05-12.93M-1.979,63.278H70.763M73.02,59.49H88.8M73.221,42.59a101.03,101.03,0,0,1,14.51,2.444M89.6,46.723a10.128,10.128,0,0,1-.09,9.8M87.731,45.034a2.828,2.828,0,0,1,1.874,1.661m-.057,9.762A2.817,2.817,0,0,1,87,58.681M72.992,62.658c-.007.345-.187.62-.4.62m-.608-46.016a.636.636,0,0,1,.608.66m0,0,.606,22.458-.2,22.238m-74.765-44.7a.636.636,0,0,1,.608-.66m-.878,45.987-.135-22.664.4-22.664m.608-.66,36.673-.44,36.471.44m.608,46.016M74,69.86H7.749M86.972,58.69,73,59.289m16.6-12.563-16.408.2m15.646,10.77-15.693.4m-2.591,5.184H88.8m.859-1.129c0,.62-.364,1.121-.812,1.121m0-3.781a.805.805,0,0,1,.812.8m-13.22,2.991V83.022M74,63.278V83.022m2.43-19.744V69.86M7.749,63.278V83.022M5.52,63.278V83.022M7.749,63.278V69.86m81.906-9.573V62.08M5.52,83.022H7.749m66.256,0h2.43" transform="translate(2721.678 316.478)" fill="none" stroke="#001dff" stroke-linecap="round" stroke-linejoin="round" stroke-width="0.5"></path><path id="Path_1788" data-name="Path 1788" d="M-9.875-10.45A3.264,3.264,0,0,1-13.2-6.95a3.273,3.273,0,0,1-3.3-3.5,3.245,3.245,0,0,1,3.3-3.45A3.25,3.25,0,0,1-9.875-10.45ZM-18.1-3.575a4.534,4.534,0,0,0,4.775,3.8C-10,.225-7.7-2.975-7.7-7.95a10.739,10.739,0,0,0-.9-4.7,4.9,4.9,0,0,0-4.575-2.925,4.976,4.976,0,0,0-5.15,5.15,4.922,4.922,0,0,0,4.975,5.1A4,4,0,0,0-9.475-7.95c0,.15.025.525.025.675,0,3.3-1.625,5.875-3.875,5.875A2.79,2.79,0,0,1-16.15-3.575Zm16.45-3.45H-.575C1.175-7.025,2.55-6,2.55-4.275a2.783,2.783,0,0,1-3.075,2.8A3.179,3.179,0,0,1-3.9-4.375H-5.825A4.963,4.963,0,0,0-.5.225c3.075,0,4.925-2,4.925-4.525a3.62,3.62,0,0,0-2.7-3.575,3.547,3.547,0,0,0,2.4-3.5c0-2.45-1.75-4.2-4.675-4.2A4.874,4.874,0,0,0-5.525-11.15H-3.6A2.954,2.954,0,0,1-.55-13.875a2.577,2.577,0,0,1,2.8,2.6A2.58,2.58,0,0,1-.625-8.7H-1.65ZM12.475.225C15.9.225,18.2-3,18.2-7.675s-2.3-7.9-5.725-7.9S6.75-12.35,6.75-7.675,9.05.225,12.475.225Zm0-14.025c2.475,0,3.8,2.55,3.8,6.125S14.95-1.55,12.475-1.55c-2.5,0-3.8-2.55-3.8-6.125S9.975-13.8,12.475-13.8Z" transform="translate(2766 436.868)" fill="#001dff"></path><path id="Path_1591-2" data-name="Path 1591" d="M0,0H93" transform="translate(2719.5 412.698)" fill="none" stroke="#001dff" stroke-width="1"></path><path id="Path_1787" data-name="Path 1787" d="M8.112-14.736H6.192L.528-4.68v1.344H7.32V0H9.072V-3.336h2.592V-4.92H9.072V-8.472H7.32V-4.92h-4.7ZM19.032-7.92a3.044,3.044,0,0,1,3.024,3.264,3.019,3.019,0,0,1-3,3.24A3.042,3.042,0,0,1,15.84-4.2H13.992A4.773,4.773,0,0,0,19.056.216a4.679,4.679,0,0,0,4.776-4.872,4.6,4.6,0,0,0-4.632-4.9,4.149,4.149,0,0,0-2.688.936v-4.44h6.48v-1.68H14.928v8.088h1.488A3.366,3.366,0,0,1,19.032-7.92ZM32.016.216c3.288,0,5.5-3.1,5.5-7.584s-2.208-7.584-5.5-7.584-5.5,3.1-5.5,7.584S28.728.216,32.016.216Zm0-13.464c2.376,0,3.648,2.448,3.648,5.88s-1.272,5.88-3.648,5.88c-2.4,0-3.648-2.448-3.648-5.88S29.616-13.248,32.016-13.248Z" transform="translate(2850.266 394.632) rotate(-90)" fill="#001dff"></path><g id="Group_1481-2" data-name="Group 1481" transform="translate(2826.753 354.99)"><path id="Path_1068-2" data-name="Path 1068" d="M.263,8.575v-45" transform="translate(-0.263 36.425)" fill="none" stroke="#001dff" stroke-width="1"></path></g><g id="Group_1480-2" data-name="Group 1480" transform="translate(2821.109 354.682)"><path id="Path_1069-2" data-name="Path 1069" d="M0,0H6.156" fill="none" stroke="#001dff" stroke-width="1"></path></g></g></g><g id="diagram-Cherry-3seater" transform="translate(205.059 -206)"><g id="Group_1487" data-name="Group 1487" transform="translate(-2194.5 367)"><g id="Group_1485" data-name="Group 1485" transform="translate(2403 864.698)"><path id="Path_1062-3" data-name="Path 1062" d="M0,0H240" transform="translate(0 0)" fill="none" stroke="#001dff" stroke-width="1"></path></g><path id="Path_1792" data-name="Path 1792" d="M-17.625-11.225c0,1.45-1.25,2.725-2.85,4.475l-4.95,5.45V0H-15.4V-1.75h-7.325l3.9-4.275c1.55-1.75,3.1-3.275,3.1-5.225,0-2.625-1.75-4.325-4.675-4.325-2.825,0-4.725,1.975-5.025,4.825H-23.4c.15-1.775,1.15-3.075,3-3.075A2.517,2.517,0,0,1-17.625-11.225ZM-6.1-15.35h-2L-14-4.875v1.4h7.075V0H-5.1V-3.475h2.7v-1.65H-5.1v-3.7H-6.925v3.7h-4.9ZM5.475.225C8.9.225,11.2-3,11.2-7.675s-2.3-7.9-5.725-7.9S-.25-12.35-.25-7.675,2.05.225,5.475.225Zm0-14.025c2.475,0,3.8,2.55,3.8,6.125S7.95-1.55,5.475-1.55c-2.5,0-3.8-2.55-3.8-6.125S2.975-13.8,5.475-13.8ZM19.425.225C22.85.225,25.15-3,25.15-7.675s-2.3-7.9-5.725-7.9S13.7-12.35,13.7-7.675,16,.225,19.425.225Zm0-14.025c2.475,0,3.8,2.55,3.8,6.125S21.9-1.55,19.425-1.55c-2.5,0-3.8-2.55-3.8-6.125S16.925-13.8,19.425-13.8Z" transform="translate(2523 888.868)" fill="#001dff"></path><path id="Path_1829" data-name="Path 1829" d="M-13.662-1.375a3.027,3.027,0,0,1-3.325-2.95A3.024,3.024,0,0,1-13.662-7.25c1.95,0,3.35,1.2,3.35,2.925C-10.312-2.575-11.712-1.375-13.662-1.375Zm0-7.525a2.59,2.59,0,0,1-2.8-2.525,2.594,2.594,0,0,1,2.8-2.55,2.6,2.6,0,0,1,2.825,2.55A2.6,2.6,0,0,1-13.662-8.9Zm0,9.125c2.975,0,5.25-1.75,5.25-4.4a3.974,3.974,0,0,0-3-3.9,3.616,3.616,0,0,0,2.45-3.45c0-2.475-2.075-4.05-4.7-4.05-2.6,0-4.675,1.575-4.675,4.05a3.584,3.584,0,0,0,2.45,3.45,3.948,3.948,0,0,0-3,3.9C-18.887-1.525-16.612.225-13.662.225ZM1.438-15.35h-2l-5.9,10.475v1.4H.613V0H2.438V-3.475h2.7v-1.65h-2.7v-3.7H.613v3.7h-4.9ZM13.013.225c3.425,0,5.725-3.225,5.725-7.9s-2.3-7.9-5.725-7.9-5.725,3.225-5.725,7.9S9.588.225,13.013.225Zm0-14.025c2.475,0,3.8,2.55,3.8,6.125s-1.325,6.125-3.8,6.125c-2.5,0-3.8-2.55-3.8-6.125S10.513-13.8,13.013-13.8Z" transform="translate(2682.412 809.682) rotate(-90)" fill="#001dff"></path><g id="Group_1484" data-name="Group 1484" transform="translate(2658.243 768)"><path id="Path_1065-3" data-name="Path 1065" d="M.339,22.182v-83" transform="translate(-0.339 60.818)" fill="none" stroke="#001dff" stroke-width="1"></path></g><path id="Path_1594" data-name="Path 1594" d="M1.576,10.342a.427.427,0,0,0-.422-.433m.631,44.484v-.863m.422-2.591a.428.428,0,0,0-.422.428m0,3.024c0,.357.188.648.422.65h0m233.469-4.1H2.207m-.631-40.6a.427.427,0,0,0-.422-.433M158.207-6.5l.422,20.73-.212,20.515A2.714,2.714,0,0,1,158,36.13a5.949,5.949,0,0,1-1.788,1.14m2-43.774a1.61,1.61,0,0,0-1.218-1.076m-.047,0h-6.736M17.365,62.167H220.523m2.316-7.126V76.419m-2.316-21.378V76.419M1.786,53.531l-.21-43.188M158.259,46.993a24.838,24.838,0,0,0,.148-7.566m0,0a2.5,2.5,0,0,0-1.81-2.043m-15.266,12.9a75.782,75.782,0,0,0,14.745-1.277m0,0a2.543,2.543,0,0,0,2.182-2.017m-142.247,3.3h203.88m15-3.3a24.763,24.763,0,0,0,.146-7.566m-.009-.043a2.358,2.358,0,0,0-1.645-1.955M218.174,50.287a75.8,75.8,0,0,0,14.745-1.277m0,0a2.411,2.411,0,0,0,1.972-2.017M160.714,37.43A92.017,92.017,0,0,1,182.4,33.586s10.636-.79,14.439-.754,14.863.754,14.863.754a92.017,92.017,0,0,1,21.684,3.844m-74.533,2A24.764,24.764,0,0,0,159,46.993m1.718-9.563a2.5,2.5,0,0,0-1.864,2m2.328,9.582a75.8,75.8,0,0,0,14.745,1.277M159,46.993a2.546,2.546,0,0,0,2.182,2.017M159.47,38.2l75.2.215m-75.626,8.639,37.788.648h37.788M15.048,55.041V76.419m2.316-21.378V76.419m220-21.378V9.91m.419,45.131V9.91M236.1,53.531v.863m0-3.026a.428.428,0,0,0-.422-.428m0,4.1c.233,0,.422-.288.422-.645v0m0,.007a.64.64,0,0,0,.634.643m-234.527,0H235.681M15.048,76.419h2.316m203.159,0h2.316m14.526-21.378V9.91m.419,45.131V9.91m-1.051,0a.427.427,0,0,0-.422.433m2.316,0a.427.427,0,0,0-.422-.433m.528,44.484.1-22.026-.21-22.026m-.422,44.7a.606.606,0,0,0,.528-.648m-.528.648h-1.473m-.422-44.7-.21,43.188M237.365,9.91h-.631m-.422.218a69.018,69.018,0,0,0-10.1-.392M170.629-.443A1.632,1.632,0,0,0,169.376.621m-.012,0,.212,32.175a5.032,5.032,0,0,0,.2,1.144,4.752,4.752,0,0,0,.469.752c.111.116.273.3.273.3M215.891.841a1.942,1.942,0,0,0-1.475-1.3m1.475,1.3-.21,15.547.631,15.547a4.123,4.123,0,0,1,0,.9,5.27,5.27,0,0,1-.631,1.062M177.365-.455h-6.736m37.051,0H177.365m37.051,0H207.68m18.1-4.4a2.137,2.137,0,0,0-1.944-2.069,22.261,22.261,0,0,0-2.293-.222c-.855-.012-1.868,0-1.868,0l-52.63-.433m58.735,2.724,1.053,38.088a9.216,9.216,0,0,1-.071,1.054c-.059.3-.214.411-.455.61a5.614,5.614,0,0,1-.834.478M159.048-6.5l-.419,20.515.21,20.73s.2,1.416.631,1.75a11.568,11.568,0,0,0,1.529.851m-.688-44.926a1.652,1.652,0,0,0-1.263,1.08m8-1.08h-6.739m77.9,17.491h-.841M.523,55.041V9.91M.1,55.041V9.91M1.366,55.041c.231,0,.419-.286.419-.643m-1.263.643V9.91M.1,55.041V9.91m1.473.433a.427.427,0,0,0-.422-.433m-1.473,0c-.349,0-.631.194-.631.433m0,0-.212,22.026L-.95,54.393m0,.012c0,.355.193.636.422.636m0,0H1.366M.523,9.91h.631m-1.473,0H.523M150.208-7.581H87.47M81.137,37.43a92.019,92.019,0,0,1,21.682-3.844s10.476-.96,15.994-1.019,16.046,1.019,16.046,1.019a93.372,93.372,0,0,1,21.74,3.8M79.48,39.428a24.839,24.839,0,0,0,.148,7.566M81.6,49.01a75.814,75.814,0,0,0,14.745,1.277M79.629,46.993A2.409,2.409,0,0,0,81.6,49.01M80.018,38.2l77.98.215m-78.369,8.58,39.289.707H158M147.828.621a1.489,1.489,0,0,0-1.1-1.04M147.892.625,147.68,32.8a3.482,3.482,0,0,1-.219,1.213,5.651,5.651,0,0,1-1.114.917m.283-35.386H139.89M91.16-.42a1.489,1.489,0,0,0-1.1,1.04M90,.625V32.8a1.743,1.743,0,0,0,.337,1.1c.358.336,1.223,1.007,1.223,1.007M98-.455H91.259m48.631,0L118.838-.67,98-.455M79.471-6.5l-.422,20.515.21,20.73s.038,1.255.459,1.643a15.4,15.4,0,0,0,1.418,1.043,2.358,2.358,0,0,0-1.645,1.955M80.715-7.572a1.621,1.621,0,0,0-1.244,1.052m8-1.062H80.734M96.313,50.291H136.1M1.576,10.127a69.018,69.018,0,0,1,10.1-.392M67.313-.443A1.636,1.636,0,0,1,68.567.621m.009,0L68.366,32.8a4.934,4.934,0,0,1-.2,1.144,4.761,4.761,0,0,1-.467.752c-.111.116-.273.3-.273.3M22.051.841a1.938,1.938,0,0,1,1.473-1.3M22.051.841l.21,15.547-.631,15.547a3.971,3.971,0,0,0,0,.9,5.27,5.27,0,0,0,.631,1.062M60.577-.455h6.736m-37.053,0H60.577m-37.053,0H30.26m-18.1-4.4A2.133,2.133,0,0,1,14.1-6.926a22.186,22.186,0,0,1,2.29-.222c.858-.012,1.868,0,1.868,0l52.632-.433M12.157-4.857,11.1,33.231a9.215,9.215,0,0,0,.071,1.054c.061.3.217.411.457.61a5.614,5.614,0,0,0,.834.478M78.891-6.5l.422,20.515-.21,20.73s-.2,1.416-.631,1.75a11.569,11.569,0,0,1-1.529.851m.686-44.926A1.645,1.645,0,0,1,78.891-6.5m-8-1.08h6.736M2.931,46.993a24.839,24.839,0,0,1-.148-7.566m.012-.043A2.358,2.358,0,0,1,4.439,37.43M19.645,50.287A75.814,75.814,0,0,1,4.9,49.01m0,0a2.409,2.409,0,0,1-1.97-2.017M77.105,37.43a92,92,0,0,0-21.682-3.844s-10.638-.79-14.439-.754-14.865.754-14.865.754A92.019,92.019,0,0,0,4.439,37.43m74.533,2a24.763,24.763,0,0,1-.146,7.566m-1.72-9.563a2.5,2.5,0,0,1,1.866,2M76.644,49.01A75.814,75.814,0,0,1,61.9,50.287m16.927-3.293a2.549,2.549,0,0,1-2.182,2.017M78.352,38.2l-75.2.215m75.624,8.639L40.985,47.7H3.2" transform="translate(2403.662 774.955)" fill="none" stroke="#001dff" stroke-linecap="round" stroke-linejoin="round" stroke-width="0.5"></path></g><path id="Path_1795" data-name="Path 1795" d="M.518-4.3C.518-1.624,2.2.126,4.368.126a3.226,3.226,0,0,0,3.346-2.66H6.622A2.244,2.244,0,0,1,4.368-.868c-1.652,0-2.744-1.4-2.744-3.43s1.106-3.43,2.744-3.43A2.248,2.248,0,0,1,6.622-6.076H7.714A3.217,3.217,0,0,0,4.368-8.722C2.2-8.722.518-6.972.518-4.3ZM9.142,0h1.05V-4.214a1.687,1.687,0,0,1,1.582-1.162,1.294,1.294,0,0,1,1.372,1.47V0H14.21V-4.074a2.053,2.053,0,0,0-2.184-2.268,2.322,2.322,0,0,0-1.834.91V-9.1H9.142ZM19.908-1.862A1.432,1.432,0,0,1,18.4-.77c-1.05,0-1.792-.812-1.806-2.142h4.4V-3.29c0-1.806-.91-3.052-2.618-3.052S15.54-4.956,15.54-3.094C15.54-1.176,16.7.126,18.4.126A2.371,2.371,0,0,0,20.9-1.862ZM18.382-5.446a1.561,1.561,0,0,1,1.54,1.736h-3.3A1.782,1.782,0,0,1,18.382-5.446Zm7.2-.8a1.518,1.518,0,0,0-.6-.1,1.735,1.735,0,0,0-1.54.938v-.812h-1.05V0h1.05V-4.172a1.505,1.505,0,0,1,1.442-1.162,1.329,1.329,0,0,1,.7.168Zm4.494,0a1.518,1.518,0,0,0-.6-.1,1.735,1.735,0,0,0-1.54.938v-.812H26.88V0h1.05V-4.172a1.505,1.505,0,0,1,1.442-1.162,1.329,1.329,0,0,1,.7.168ZM33.208,2.38l3.346-8.6H35.462l-1.806,4.9-1.834-4.9H30.688L33.11.042,32.172,2.38Zm9.268-6.314h.6a1.576,1.576,0,0,1,1.75,1.54A1.559,1.559,0,0,1,43.106-.826a1.78,1.78,0,0,1-1.89-1.624H40.138A2.779,2.779,0,0,0,43.12.126a2.527,2.527,0,0,0,2.758-2.534,2.027,2.027,0,0,0-1.512-2A1.986,1.986,0,0,0,45.71-6.37a2.343,2.343,0,0,0-2.618-2.352,2.729,2.729,0,0,0-2.786,2.478h1.078A1.654,1.654,0,0,1,43.092-7.77,1.443,1.443,0,0,1,44.66-6.314a1.445,1.445,0,0,1-1.61,1.442h-.574Zm4.424.77h3.374v-.98H46.9Zm4.452,1.456A2.335,2.335,0,0,0,53.9.126c1.33,0,2.31-.7,2.31-1.876,0-.868-.518-1.456-1.582-1.736l-1.2-.294c-.588-.168-.868-.364-.868-.784,0-.6.574-.9,1.19-.9a1.275,1.275,0,0,1,1.372.882h1.05A2.19,2.19,0,0,0,53.76-6.342a1.98,1.98,0,0,0-2.226,1.834c0,.966.616,1.414,1.5,1.638l1.232.322c.644.168.924.434.924.868,0,.63-.532.924-1.274.924a1.386,1.386,0,0,1-1.47-.952Zm10.234-.154A1.432,1.432,0,0,1,60.074-.77c-1.05,0-1.792-.812-1.806-2.142h4.4V-3.29c0-1.806-.91-3.052-2.618-3.052s-2.828,1.386-2.828,3.248c0,1.918,1.162,3.22,2.856,3.22A2.371,2.371,0,0,0,62.58-1.862ZM60.06-5.446A1.561,1.561,0,0,1,61.6-3.71H58.3A1.782,1.782,0,0,1,60.06-5.446ZM68.572,0V-4.144a2.108,2.108,0,0,0-2.366-2.2,2.252,2.252,0,0,0-2.324,1.764h1.036a1.205,1.205,0,0,1,1.274-.854A1.254,1.254,0,0,1,67.564-4.1v.784A2.663,2.663,0,0,0,66-3.822a2.129,2.129,0,0,0-2.38,1.946A2.091,2.091,0,0,0,65.926.112a2.491,2.491,0,0,0,1.638-.574V0ZM67.564-1.54a1.556,1.556,0,0,1-1.456.77c-.756,0-1.484-.35-1.484-1.106s.728-1.078,1.484-1.078a1.556,1.556,0,0,1,1.456.77Zm3.052-.028A1.55,1.55,0,0,0,72.324.126a2.209,2.209,0,0,0,.98-.21v-.98a1.547,1.547,0,0,1-.812.252c-.532,0-.826-.266-.826-.868V-5.32h1.5v-.9h-1.5V-7.854h-1.05v1.638H69.608v.9h1.008Zm7.994-.294A1.432,1.432,0,0,1,77.1-.77c-1.05,0-1.792-.812-1.806-2.142h4.4V-3.29c0-1.806-.91-3.052-2.618-3.052s-2.828,1.386-2.828,3.248c0,1.918,1.162,3.22,2.856,3.22A2.371,2.371,0,0,0,79.6-1.862ZM77.084-5.446a1.561,1.561,0,0,1,1.54,1.736h-3.3A1.782,1.782,0,0,1,77.084-5.446Zm7.2-.8a1.518,1.518,0,0,0-.6-.1,1.735,1.735,0,0,0-1.54.938v-.812h-1.05V0h1.05V-4.172A1.505,1.505,0,0,1,83.58-5.334a1.329,1.329,0,0,1,.7.168Zm3.78,4a3.081,3.081,0,0,0,3.3,2.366c1.708,0,2.968-.938,2.968-2.492,0-1.218-.77-1.96-2.142-2.31l-1.47-.378c-.9-.238-1.372-.588-1.372-1.316,0-.882.756-1.414,1.778-1.414a1.969,1.969,0,0,1,2.044,1.33h1.106a2.927,2.927,0,0,0-3.15-2.268A2.548,2.548,0,0,0,88.3-6.286c0,1.3.868,1.9,2.058,2.212l1.54.406c.994.252,1.372.686,1.372,1.358,0,.952-.784,1.5-1.9,1.5A2.122,2.122,0,0,1,89.18-2.24Zm13.076-.868c0-1.9-1.162-3.234-2.856-3.234s-2.856,1.33-2.856,3.234S96.572.126,98.28.126,101.136-1.2,101.136-3.108Zm-1.064,0c0,1.358-.672,2.31-1.792,2.31s-1.792-.952-1.792-2.31.672-2.31,1.792-2.31S100.072-4.466,100.072-3.108Zm5.6-5.978a2.01,2.01,0,0,0-.812-.14,1.827,1.827,0,0,0-1.9,1.974v1.036h-1.05v.9h1.05V0h1.036V-5.32h1.4v-.9h-1.4v-.952A.991.991,0,0,1,105.014-8.3a1.216,1.216,0,0,1,.658.168ZM110.978,0V-4.144a2.108,2.108,0,0,0-2.366-2.2,2.252,2.252,0,0,0-2.324,1.764h1.036a1.205,1.205,0,0,1,1.274-.854A1.254,1.254,0,0,1,109.97-4.1v.784a2.663,2.663,0,0,0-1.568-.5,2.129,2.129,0,0,0-2.38,1.946,2.091,2.091,0,0,0,2.31,1.988,2.491,2.491,0,0,0,1.638-.574V0ZM109.97-1.54a1.556,1.556,0,0,1-1.456.77c-.756,0-1.484-.35-1.484-1.106s.728-1.078,1.484-1.078a1.556,1.556,0,0,1,1.456.77Z" transform="translate(399 1310.25)" fill="#001dff"></path><g id="Group_1496" data-name="Group 1496" transform="translate(-2194.383 819)"><path id="Path_1590-3" data-name="Path 1590" d="M2.976,1.336A12.4,12.4,0,0,1,10.534-.975M2.706,17.21a57.171,57.171,0,0,1,.27-15.873M10.534-.975c6.716,4.746,11.256,11.04,12.951,17.941m-3.62-8.413a12.479,12.479,0,0,1-.251-4.661m0,0a7.754,7.754,0,0,1,5.414-.738m-.007.009A28.134,28.134,0,0,1,35.254,16.822M24.163,3.009l8.147,13.85M3.29,1.171,9.511,17.132m9.382-.166L14.232,8.075,10.382-.978m17.281,17.8a34.738,34.738,0,0,1-8.05-12.93M-1.979,63.278H70.763M73.02,59.49H88.8M73.221,42.59a101.03,101.03,0,0,1,14.51,2.444M89.6,46.723a10.128,10.128,0,0,1-.09,9.8M87.731,45.034a2.828,2.828,0,0,1,1.874,1.661m-.057,9.762A2.817,2.817,0,0,1,87,58.681M72.992,62.658c-.007.345-.187.62-.4.62m-.608-46.016a.636.636,0,0,1,.608.66m0,0,.606,22.458-.2,22.238m-74.765-44.7a.636.636,0,0,1,.608-.66m-.878,45.987-.135-22.664.4-22.664m.608-.66,36.673-.44,36.471.44m.608,46.016M74,69.86H7.749M86.972,58.69,73,59.289m16.6-12.563-16.408.2m15.646,10.77-15.693.4m-2.591,5.184H88.8m.859-1.129c0,.62-.364,1.121-.812,1.121m0-3.781a.805.805,0,0,1,.812.8m-13.22,2.991V83.022M74,63.278V83.022m2.43-19.744V69.86M7.749,63.278V83.022M5.52,63.278V83.022M7.749,63.278V69.86m81.906-9.573V62.08M5.52,83.022H7.749m66.256,0h2.43" transform="translate(2721.678 316.478)" fill="none" stroke="#001dff" stroke-linecap="round" stroke-linejoin="round" stroke-width="0.5"></path><path id="Path_1793" data-name="Path 1793" d="M-9.875-10.45A3.264,3.264,0,0,1-13.2-6.95a3.273,3.273,0,0,1-3.3-3.5,3.245,3.245,0,0,1,3.3-3.45A3.25,3.25,0,0,1-9.875-10.45ZM-18.1-3.575a4.534,4.534,0,0,0,4.775,3.8C-10,.225-7.7-2.975-7.7-7.95a10.739,10.739,0,0,0-.9-4.7,4.9,4.9,0,0,0-4.575-2.925,4.976,4.976,0,0,0-5.15,5.15,4.922,4.922,0,0,0,4.975,5.1A4,4,0,0,0-9.475-7.95c0,.15.025.525.025.675,0,3.3-1.625,5.875-3.875,5.875A2.79,2.79,0,0,1-16.15-3.575Zm16.45-3.45H-.575C1.175-7.025,2.55-6,2.55-4.275a2.783,2.783,0,0,1-3.075,2.8A3.179,3.179,0,0,1-3.9-4.375H-5.825A4.963,4.963,0,0,0-.5.225c3.075,0,4.925-2,4.925-4.525a3.62,3.62,0,0,0-2.7-3.575,3.547,3.547,0,0,0,2.4-3.5c0-2.45-1.75-4.2-4.675-4.2A4.874,4.874,0,0,0-5.525-11.15H-3.6A2.954,2.954,0,0,1-.55-13.875a2.577,2.577,0,0,1,2.8,2.6A2.58,2.58,0,0,1-.625-8.7H-1.65ZM12.475.225C15.9.225,18.2-3,18.2-7.675s-2.3-7.9-5.725-7.9S6.75-12.35,6.75-7.675,9.05.225,12.475.225Zm0-14.025c2.475,0,3.8,2.55,3.8,6.125S14.95-1.55,12.475-1.55c-2.5,0-3.8-2.55-3.8-6.125S9.975-13.8,12.475-13.8Z" transform="translate(2766 436.868)" fill="#001dff"></path><path id="Path_1591-3" data-name="Path 1591" d="M0,0H93" transform="translate(2719.5 412.698)" fill="none" stroke="#001dff" stroke-width="1"></path><path id="Path_1794" data-name="Path 1794" d="M8.112-14.736H6.192L.528-4.68v1.344H7.32V0H9.072V-3.336h2.592V-4.92H9.072V-8.472H7.32V-4.92h-4.7ZM19.032-7.92a3.044,3.044,0,0,1,3.024,3.264,3.019,3.019,0,0,1-3,3.24A3.042,3.042,0,0,1,15.84-4.2H13.992A4.773,4.773,0,0,0,19.056.216a4.679,4.679,0,0,0,4.776-4.872,4.6,4.6,0,0,0-4.632-4.9,4.149,4.149,0,0,0-2.688.936v-4.44h6.48v-1.68H14.928v8.088h1.488A3.366,3.366,0,0,1,19.032-7.92ZM32.016.216c3.288,0,5.5-3.1,5.5-7.584s-2.208-7.584-5.5-7.584-5.5,3.1-5.5,7.584S28.728.216,32.016.216Zm0-13.464c2.376,0,3.648,2.448,3.648,5.88s-1.272,5.88-3.648,5.88c-2.4,0-3.648-2.448-3.648-5.88S29.616-13.248,32.016-13.248Z" transform="translate(2850.266 394.632) rotate(-90)" fill="#001dff"></path><g id="Group_1481-3" data-name="Group 1481" transform="translate(2826.753 354.99)"><path id="Path_1068-3" data-name="Path 1068" d="M.263,8.575v-45" transform="translate(-0.263 36.425)" fill="none" stroke="#001dff" stroke-width="1"></path></g><g id="Group_1480-3" data-name="Group 1480" transform="translate(2821.109 354.682)"><path id="Path_1069-3" data-name="Path 1069" d="M0,0H6.156" fill="none" stroke="#001dff" stroke-width="1"></path></g></g></g><g id="diagram-Cherry_1-arm_LHF_and_chaise_RHF" data-name="diagram-Cherry 1-arm LHF and chaise RHF" transform="translate(-291.585 966)"><g id="Group_1493" data-name="Group 1493" transform="translate(-1699 -300)"><path id="Path_1307" data-name="Path 1307" d="M-39.555,98.372l-.414-84.092.62-84.092m92.309.193v-.389m-86.514,171.3a14.184,14.184,0,0,1-5.086-1.411m0,0a1.735,1.735,0,0,1-.916-1.475M51.926-1.488l.828,33.483-.208,33.48-1.034,33.48m-6,2.921-19.663.583-19.869.2-19.663-.389-19.869-.975m84.143-.847a13.984,13.984,0,0,1-5.078,1.432m6-2.921a1.752,1.752,0,0,1-.923,1.489M-39.761-70.2V-71.37m.412-.389,45.328-.585,45.119.389m0,0a.594.594,0,0,1,.629.533m-91.488.052a.4.4,0,0,1,.4-.389m-.4.583,91.479.2m-91.479.389H51.718m-.62.583-45.119.585-45.328-.389M51.727-70.4c0,.212-.263.385-.592.389m-90.492.2a.4.4,0,0,1-.4-.389M52.132-71.37l-.826,31.144v3.7l.206,34.648m.622-69.509a.4.4,0,0,1,.421-.373M52.123-1.488c-.324,0-.589-.172-.6-.389m1.022.389h-.414m.828,0V-71.76m.414,70.271V-71.76m1.034.389.622,34.648L54.409-1.878M54-71.76a.4.4,0,0,1,.4.375m0,69.521A.4.4,0,0,1,54-1.488M52.546-71.76H54M54-1.488H52.132M51.718-70.4v-.972M-38.62-67.659a44.2,44.2,0,0,0-.476,8.4m7.646-10.286a14.278,14.278,0,0,0-7.17,1.883m89.474,8.632a29.46,29.46,0,0,0-.445-8.632m0,0a15,15,0,0,0-7.372-1.883m7.305,1.883H-38.53m-.6,8.434,9.724.583s20.224.9,34.368.9,35.762-.9,35.762-.9l10.138-.389M-39.1-59.041a32.68,32.68,0,0,0,6.865,11.148,26.156,26.156,0,0,0,6.008,2.086c2.679.439,6.11.786,6.11.786A145.564,145.564,0,0,0,1.674-43.886h8.4A145.563,145.563,0,0,0,31.87-45.021s3.431-.347,6.11-.786a26.156,26.156,0,0,0,6.008-2.086,32.68,32.68,0,0,0,6.865-11.148m-82.3-10.5H43.061" transform="translate(2685.969 1055.845)" fill="none" stroke="#001dff" stroke-linecap="round" stroke-linejoin="round" stroke-width="0.5"></path><path id="Path_1310" data-name="Path 1310" d="M-76.923.237a.631.631,0,0,1,.635.617m.422,73.258a.417.417,0,0,1-.422.4M-75.441.237l46.124-.411L16.6.237M-75.866.855c0-.336.189-.61.425-.617m92.048,0a.416.416,0,0,1,.413.411m-92.885.411H17.019m-92.885.617H17.019M-76.923,74.515h.635m-1.057,0V.237m-.425,74.277V.237M-78.826,74.1l-.635-36.625L-78.826.855m0,0a.643.643,0,0,1,.635-.617m0,74.277c-.342,0-.623-.182-.635-.411M17.019.649v1.44m-.422.206-45.914.617L-75.441,2.5m92.46-.617a.416.416,0,0,1-.413.411M-75.441,2.5c-.236,0-.425-.281-.425-.617m186.4-.206V.649m0,.823V.855M-66.979,3.324H9.192M-76.923.237h-1.269m0,74.277h1.9m.422-72.631V.855M16.5,5.315a48.441,48.441,0,0,1,.486,8.883M9.168,3.324A14.217,14.217,0,0,1,16.5,5.315m-91.47,9.124a32.187,32.187,0,0,1,.455-9.124m0,0a14.93,14.93,0,0,1,7.535-1.991m-7.467,1.991H16.406m.613,8.913-9.939.617s-20.676.946-35.135.946-36.56-.946-36.56-.946l-10.361-.411m91.97-.009A34.748,34.748,0,0,1,9.975,26.2a26.224,26.224,0,0,1-6.141,2.209c-2.739.461-6.247.83-6.247.83a144.067,144.067,0,0,1-22.28,1.2h-8.59a144.036,144.036,0,0,1-22.278-1.2s-3.51-.369-6.247-.83A26.214,26.214,0,0,1-67.951,26.2a34.786,34.786,0,0,1-7.019-11.78M-76.288.855l.847,33.331v2.469L-75.866,74.1m92.885,14.4a3.892,3.892,0,0,1-3.808,3.909m3.808-3.909V1.06M-75.866,74.1V86.654m0,0A11.153,11.153,0,0,0-74.1,91.5a3.931,3.931,0,0,0,.571.688,4.859,4.859,0,0,0,1.045.435l42.741.206,42.951-.411M17.654.237,63.78-.174,109.9.237m.007,0c.349,0,.63.163.628.359M17.012.649c0-.225.281-.407.632-.411m-.625.823h93.52m0,.617a.633.633,0,0,1-.635.617M17.019,1.678h93.52m-92.892.617c-.328,0-.59-.187-.59-.411m92.847.411L63.78,2.706,17.654,2.295M110.433.855l-.845,33.331v2.469l.422,37.448m-92.885,14.4a3.892,3.892,0,0,0,3.808,3.909m-3.808-3.909V1.06M110.011,74.1V86.654m0,0a11.179,11.179,0,0,1-1.767,4.843,3.931,3.931,0,0,1-.571.688,4.914,4.914,0,0,1-1.047.435l-42.739.206-42.953-.411m-3.289-87.1a48.233,48.233,0,0,0-.484,8.883M24.977,3.324a14.223,14.223,0,0,0-7.332,1.991m91.47,9.124a32.1,32.1,0,0,0-.455-9.124m0,0a14.918,14.918,0,0,0-7.535-1.991m7.469,1.991H17.739m-.613,8.913,9.939.617s20.676.946,35.135.946,36.56-.946,36.56-.946l10.364-.411m-91.972-.009A34.786,34.786,0,0,0,24.17,26.2a26.214,26.214,0,0,0,6.143,2.209c2.737.461,6.247.83,6.247.83a144.036,144.036,0,0,0,22.278,1.2h8.59a144.067,144.067,0,0,0,22.28-1.2s3.508-.369,6.247-.83A26.224,26.224,0,0,0,102.1,26.2a34.749,34.749,0,0,0,7.019-11.78M24.977,3.324h76.17" transform="translate(2515.462 983.674)" fill="none" stroke="#001dff" stroke-linecap="round" stroke-linejoin="round" stroke-width="0.5"></path><path id="Path_1595" data-name="Path 1595" d="M0,0H190" transform="translate(2436 1096.699)" fill="none" stroke="#001dff" stroke-width="1"></path><path id="Path_1596" data-name="Path 1596" d="M0,0H95" transform="translate(2645.5 1180.699)" fill="none" stroke="#001dff" stroke-width="1"></path><path id="Path_1802" data-name="Path 1802" d="M-18.212-15.375h-1.175l-4.55,2.325v2l3.8-1.95V0h1.925Zm11.7,4.925a3.264,3.264,0,0,1-3.325,3.5,3.273,3.273,0,0,1-3.3-3.5,3.245,3.245,0,0,1,3.3-3.45A3.25,3.25,0,0,1-6.512-10.45Zm-8.225,6.875A4.534,4.534,0,0,0-9.962.225c3.325,0,5.625-3.2,5.625-8.175a10.739,10.739,0,0,0-.9-4.7,4.9,4.9,0,0,0-4.575-2.925,4.976,4.976,0,0,0-5.15,5.15,4.922,4.922,0,0,0,4.975,5.1A4,4,0,0,0-6.112-7.95c0,.15.025.525.025.675,0,3.3-1.625,5.875-3.875,5.875a2.79,2.79,0,0,1-2.825-2.175ZM3.888.225C7.313.225,9.613-3,9.613-7.675s-2.3-7.9-5.725-7.9-5.725,3.225-5.725,7.9S.463.225,3.888.225Zm0-14.025c2.475,0,3.8,2.55,3.8,6.125S6.363-1.55,3.888-1.55c-2.5,0-3.8-2.55-3.8-6.125S1.388-13.8,3.888-13.8ZM17.837.225c3.425,0,5.725-3.225,5.725-7.9s-2.3-7.9-5.725-7.9-5.725,3.225-5.725,7.9S14.412.225,17.837.225Zm0-14.025c2.475,0,3.8,2.55,3.8,6.125s-1.325,6.125-3.8,6.125c-2.5,0-3.8-2.55-3.8-6.125S15.337-13.8,17.837-13.8Z" transform="translate(2531 1120.867)" fill="#001dff"></path><path id="Path_1801" data-name="Path 1801" d="M-10.012-10.45a3.264,3.264,0,0,1-3.325,3.5,3.273,3.273,0,0,1-3.3-3.5,3.245,3.245,0,0,1,3.3-3.45A3.25,3.25,0,0,1-10.012-10.45Zm-8.225,6.875a4.534,4.534,0,0,0,4.775,3.8c3.325,0,5.625-3.2,5.625-8.175a10.739,10.739,0,0,0-.9-4.7,4.9,4.9,0,0,0-4.575-2.925,4.976,4.976,0,0,0-5.15,5.15,4.922,4.922,0,0,0,4.975,5.1A4,4,0,0,0-9.612-7.95c0,.15.025.525.025.675,0,3.3-1.625,5.875-3.875,5.875a2.79,2.79,0,0,1-2.825-2.175ZM-.412-8.25a3.171,3.171,0,0,1,3.15,3.4A3.144,3.144,0,0,1-.387-1.475a3.169,3.169,0,0,1-3.35-2.9H-5.662A4.972,4.972,0,0,0-.387.225,4.874,4.874,0,0,0,4.588-4.85,4.791,4.791,0,0,0-.237-9.95a4.322,4.322,0,0,0-2.8.975V-13.6h6.75v-1.75h-8.4v8.425h1.55A3.506,3.506,0,0,1-.412-8.25ZM12.613.225c3.425,0,5.725-3.225,5.725-7.9s-2.3-7.9-5.725-7.9-5.725,3.225-5.725,7.9S9.188.225,12.613.225Zm0-14.025c2.475,0,3.8,2.55,3.8,6.125s-1.325,6.125-3.8,6.125c-2.5,0-3.8-2.55-3.8-6.125S10.113-13.8,12.613-13.8Z" transform="translate(2693 1204.867)" fill="#001dff"></path><path id="Path_1804" data-name="Path 1804" d="M-9.875-10.45A3.264,3.264,0,0,1-13.2-6.95a3.273,3.273,0,0,1-3.3-3.5,3.245,3.245,0,0,1,3.3-3.45A3.25,3.25,0,0,1-9.875-10.45ZM-18.1-3.575a4.534,4.534,0,0,0,4.775,3.8C-10,.225-7.7-2.975-7.7-7.95a10.739,10.739,0,0,0-.9-4.7,4.9,4.9,0,0,0-4.575-2.925,4.976,4.976,0,0,0-5.15,5.15,4.922,4.922,0,0,0,4.975,5.1A4,4,0,0,0-9.475-7.95c0,.15.025.525.025.675,0,3.3-1.625,5.875-3.875,5.875A2.79,2.79,0,0,1-16.15-3.575Zm16.45-3.45H-.575C1.175-7.025,2.55-6,2.55-4.275a2.783,2.783,0,0,1-3.075,2.8A3.179,3.179,0,0,1-3.9-4.375H-5.825A4.963,4.963,0,0,0-.5.225c3.075,0,4.925-2,4.925-4.525a3.62,3.62,0,0,0-2.7-3.575,3.547,3.547,0,0,0,2.4-3.5c0-2.45-1.75-4.2-4.675-4.2A4.874,4.874,0,0,0-5.525-11.15H-3.6A2.954,2.954,0,0,1-.55-13.875a2.577,2.577,0,0,1,2.8,2.6A2.58,2.58,0,0,1-.625-8.7H-1.65ZM12.475.225C15.9.225,18.2-3,18.2-7.675s-2.3-7.9-5.725-7.9S6.75-12.35,6.75-7.675,9.05.225,12.475.225Zm0-14.025c2.475,0,3.8,2.55,3.8,6.125S14.95-1.55,12.475-1.55c-2.5,0-3.8-2.55-3.8-6.125S9.975-13.8,12.475-13.8Z" transform="translate(2819.17 1024.682) rotate(-90)" fill="#001dff"></path><path id="Path_1803" data-name="Path 1803" d="M-16.6-15.375h-1.175l-4.55,2.325v2l3.8-1.95V0H-16.6Zm12.75,1.55V-15.35h-9.925v1.75h7.9L-11.3,0h1.975ZM3.2-8.25a3.171,3.171,0,0,1,3.15,3.4A3.144,3.144,0,0,1,3.225-1.475a3.169,3.169,0,0,1-3.35-2.9H-2.05A4.972,4.972,0,0,0,3.225.225,4.874,4.874,0,0,0,8.2-4.85a4.791,4.791,0,0,0-4.825-5.1,4.322,4.322,0,0,0-2.8.975V-13.6h6.75v-1.75h-8.4v8.425H.475A3.506,3.506,0,0,1,3.2-8.25ZM16.225.225C19.65.225,21.95-3,21.95-7.675s-2.3-7.9-5.725-7.9S10.5-12.35,10.5-7.675,12.8.225,16.225.225Zm0-14.025c2.475,0,3.8,2.55,3.8,6.125S18.7-1.55,16.225-1.55c-2.5,0-3.8-2.55-3.8-6.125S13.725-13.8,16.225-13.8Z" transform="translate(2784.17 1071) rotate(-90)" fill="#001dff"></path><g id="Group_1488" data-name="Group 1488" transform="translate(2760 983)"><path id="Path_1065-4" data-name="Path 1065" d="M.339,114.182v-175" transform="translate(-0.339 60.818)" fill="none" stroke="#001dff" stroke-width="1"></path></g><g id="Group_1489" data-name="Group 1489" transform="translate(2795 983)"><path id="Path_1065-5" data-name="Path 1065" d="M.509,32.182v-93" transform="translate(-0.509 60.818)" fill="none" stroke="#001dff" stroke-width="1"></path></g></g><path id="Path_1805" data-name="Path 1805" d="M.518-4.3C.518-1.624,2.2.126,4.368.126a3.226,3.226,0,0,0,3.346-2.66H6.622A2.244,2.244,0,0,1,4.368-.868c-1.652,0-2.744-1.4-2.744-3.43s1.106-3.43,2.744-3.43A2.248,2.248,0,0,1,6.622-6.076H7.714A3.217,3.217,0,0,0,4.368-8.722C2.2-8.722.518-6.972.518-4.3ZM9.142,0h1.05V-4.214a1.687,1.687,0,0,1,1.582-1.162,1.294,1.294,0,0,1,1.372,1.47V0H14.21V-4.074a2.053,2.053,0,0,0-2.184-2.268,2.322,2.322,0,0,0-1.834.91V-9.1H9.142ZM19.908-1.862A1.432,1.432,0,0,1,18.4-.77c-1.05,0-1.792-.812-1.806-2.142h4.4V-3.29c0-1.806-.91-3.052-2.618-3.052S15.54-4.956,15.54-3.094C15.54-1.176,16.7.126,18.4.126A2.371,2.371,0,0,0,20.9-1.862ZM18.382-5.446a1.561,1.561,0,0,1,1.54,1.736h-3.3A1.782,1.782,0,0,1,18.382-5.446Zm7.2-.8a1.518,1.518,0,0,0-.6-.1,1.735,1.735,0,0,0-1.54.938v-.812h-1.05V0h1.05V-4.172a1.505,1.505,0,0,1,1.442-1.162,1.329,1.329,0,0,1,.7.168Zm4.494,0a1.518,1.518,0,0,0-.6-.1,1.735,1.735,0,0,0-1.54.938v-.812H26.88V0h1.05V-4.172a1.505,1.505,0,0,1,1.442-1.162,1.329,1.329,0,0,1,.7.168ZM33.208,2.38l3.346-8.6H35.462l-1.806,4.9-1.834-4.9H30.688L33.11.042,32.172,2.38ZM43.456-8.61H42.8l-2.548,1.3v1.12L42.378-7.28V0h1.078Zm1.61,5.446H48.44v-.98H45.066ZM54.446,0V-4.144a2.108,2.108,0,0,0-2.366-2.2,2.252,2.252,0,0,0-2.324,1.764h1.036a1.205,1.205,0,0,1,1.274-.854A1.254,1.254,0,0,1,53.438-4.1v.784a2.663,2.663,0,0,0-1.568-.5,2.129,2.129,0,0,0-2.38,1.946A2.091,2.091,0,0,0,51.8.112a2.491,2.491,0,0,0,1.638-.574V0ZM53.438-1.54a1.556,1.556,0,0,1-1.456.77c-.756,0-1.484-.35-1.484-1.106s.728-1.078,1.484-1.078a1.556,1.556,0,0,1,1.456.77Zm5.992-4.7a1.518,1.518,0,0,0-.6-.1,1.735,1.735,0,0,0-1.54.938v-.812h-1.05V0h1.05V-4.172A1.505,1.505,0,0,1,58.73-5.334a1.329,1.329,0,0,1,.7.168Zm5.712.9a1.82,1.82,0,0,0-1.68-.994,1.944,1.944,0,0,0-1.68.854v-.728h-1.05V0h1.05V-4.284A1.449,1.449,0,0,1,63.154-5.39c.8,0,1.176.574,1.176,1.442V0h1.05V-4.284A1.449,1.449,0,0,1,66.752-5.39c.8,0,1.176.574,1.176,1.442V0h1.064V-4.116c0-1.344-.7-2.226-1.96-2.226A2.248,2.248,0,0,0,65.142-5.348ZM73.948,0h5.488V-.994H75.054V-8.6H73.948Zm13.02-8.6v3.682H82.11V-8.6H81V0H82.11V-3.92h4.858V0h1.106V-8.6ZM91.224,0V-3.738h3.892v-.98H91.224v-2.9h4.144V-8.6h-5.25V0Zm13.2,0V-4.144a2.108,2.108,0,0,0-2.366-2.2,2.252,2.252,0,0,0-2.324,1.764h1.036a1.205,1.205,0,0,1,1.274-.854,1.254,1.254,0,0,1,1.372,1.33v.784a2.663,2.663,0,0,0-1.568-.5,2.129,2.129,0,0,0-2.38,1.946A2.091,2.091,0,0,0,101.78.112a2.491,2.491,0,0,0,1.638-.574V0Zm-1.008-1.54a1.556,1.556,0,0,1-1.456.77c-.756,0-1.484-.35-1.484-1.106s.728-1.078,1.484-1.078a1.556,1.556,0,0,1,1.456.77Zm2.8,1.54h1.05V-4.214a1.687,1.687,0,0,1,1.582-1.162,1.294,1.294,0,0,1,1.372,1.47V0h1.064V-4.074A2.053,2.053,0,0,0,109.1-6.342a2.322,2.322,0,0,0-1.834.91v-.784h-1.05Zm10.948,0h1.064V-9.1h-1.064v3.612a2.189,2.189,0,0,0-1.75-.854c-1.82,0-2.8,1.484-2.8,3.234s.98,3.234,2.8,3.234a2.189,2.189,0,0,0,1.75-.854Zm0-1.848a1.789,1.789,0,0,1-1.6,1.022c-1.19,0-1.89-.966-1.89-2.282s.7-2.282,1.89-2.282a1.789,1.789,0,0,1,1.6,1.022Zm5.572-1.26c0,1.932,1.162,3.234,2.828,3.234a2.347,2.347,0,0,0,2.492-2H126.98A1.34,1.34,0,0,1,125.566-.8c-1.064,0-1.764-.952-1.764-2.31s.7-2.31,1.764-2.31A1.34,1.34,0,0,1,126.98-4.34h1.078a2.347,2.347,0,0,0-2.492-2C123.9-6.342,122.738-5.04,122.738-3.108ZM129.43,0h1.05V-4.214a1.686,1.686,0,0,1,1.582-1.162,1.294,1.294,0,0,1,1.372,1.47V0H134.5V-4.074a2.053,2.053,0,0,0-2.184-2.268,2.322,2.322,0,0,0-1.834.91V-9.1h-1.05Zm11.354,0V-4.144a2.108,2.108,0,0,0-2.366-2.2,2.252,2.252,0,0,0-2.324,1.764h1.036a1.205,1.205,0,0,1,1.274-.854,1.254,1.254,0,0,1,1.372,1.33v.784a2.663,2.663,0,0,0-1.568-.5,2.129,2.129,0,0,0-2.38,1.946,2.091,2.091,0,0,0,2.31,1.988,2.491,2.491,0,0,0,1.638-.574V0Zm-1.008-1.54a1.556,1.556,0,0,1-1.456.77c-.756,0-1.484-.35-1.484-1.106s.728-1.078,1.484-1.078a1.556,1.556,0,0,1,1.456.77Zm3.85-4.676h-1.05V0h1.05Zm.154-1.876a.675.675,0,0,0-.686-.672.672.672,0,0,0-.672.672.681.681,0,0,0,.672.672A.684.684,0,0,0,143.78-8.092Zm1.2,6.384A2.335,2.335,0,0,0,147.532.126c1.33,0,2.31-.7,2.31-1.876,0-.868-.518-1.456-1.582-1.736l-1.2-.294c-.588-.168-.868-.364-.868-.784,0-.6.574-.9,1.19-.9a1.275,1.275,0,0,1,1.372.882h1.05a2.19,2.19,0,0,0-2.408-1.764,1.98,1.98,0,0,0-2.226,1.834c0,.966.616,1.414,1.5,1.638l1.232.322c.644.168.924.434.924.868,0,.63-.532.924-1.274.924a1.386,1.386,0,0,1-1.47-.952Zm10.234-.154A1.432,1.432,0,0,1,153.706-.77c-1.05,0-1.792-.812-1.806-2.142h4.4V-3.29c0-1.806-.91-3.052-2.618-3.052s-2.828,1.386-2.828,3.248c0,1.918,1.162,3.22,2.856,3.22a2.371,2.371,0,0,0,2.506-1.988Zm-1.526-3.584a1.561,1.561,0,0,1,1.54,1.736h-3.3A1.782,1.782,0,0,1,153.692-5.446Zm9.814,1.806L165.97,0h1.26L164.7-3.682A2.278,2.278,0,0,0,166.88-6.1c0-1.624-1.092-2.492-2.814-2.492h-3.192V0h1.106V-3.64ZM161.98-7.63h2.058c1.134,0,1.75.574,1.75,1.526s-.616,1.526-1.75,1.526H161.98ZM174.566-8.6v3.682h-4.858V-8.6H168.6V0h1.106V-3.92h4.858V0h1.106V-8.6ZM178.822,0V-3.738h3.892v-.98h-3.892v-2.9h4.144V-8.6h-5.25V0Z" transform="translate(840 957.25)" fill="#001dff"></path></g><g id="Cherry_Chaise_LHF_and_1-arm_RHF" data-name="Cherry Chaise LHF and 1-arm RHF" transform="translate(-291.585 220)"><g id="Group_1494" data-name="Group 1494" transform="translate(-1699 -300)"><g id="Group_1492" data-name="Group 1492"><path id="Path_1597" data-name="Path 1597" d="M54.617,98.372l.414-84.093-.62-84.093m-92.309.193v-.389m86.514,171.3A14.184,14.184,0,0,0,53.7,99.88m0,0a1.735,1.735,0,0,0,.916-1.475M-36.864-1.488l-.828,33.483.208,33.48,1.034,33.48m6,2.921,19.663.583,19.869.2,19.663-.389,19.869-.975m-84.143-.847a13.984,13.984,0,0,0,5.078,1.432m-6-2.921a1.752,1.752,0,0,0,.923,1.489M54.823-70.2V-71.37m-.412-.389L9.083-72.345l-45.119.389m0,0a.594.594,0,0,0-.629.533m91.488.052a.4.4,0,0,0-.4-.389m.4.583-91.479.2m91.479.389H-36.656m.62.583,45.119.585,45.328-.389M-36.665-70.4c0,.212.263.385.592.389m90.492.2a.4.4,0,0,0,.4-.389M-37.07-71.37l.826,31.144v3.7L-36.45-1.878m-.622-69.509a.4.4,0,0,0-.421-.373m.433,70.271c.324,0,.589-.172.6-.389m-1.022.389h.414m-.828,0V-71.76m-.414,70.271V-71.76m-1.034.389-.622,34.648.622,34.844m.4-69.882a.4.4,0,0,0-.4.375m0,69.521a.4.4,0,0,0,.412.375m1.451-70.271h-1.451m0,70.271h1.865m.414-68.91v-.972m90.338,3.712a44.2,44.2,0,0,1,.476,8.4M46.512-69.542a14.278,14.278,0,0,1,7.17,1.883m-89.474,8.632a29.46,29.46,0,0,1,.445-8.632m0,0a15,15,0,0,1,7.372-1.883m-7.305,1.883H53.592m.6,8.434-9.724.583s-20.224.9-34.368.9-35.762-.9-35.762-.9L-35.8-59.031m89.966-.009A32.68,32.68,0,0,1,47.3-47.893a26.156,26.156,0,0,1-6.008,2.086c-2.679.439-6.11.786-6.11.786a145.563,145.563,0,0,1-21.793,1.135h-8.4a145.563,145.563,0,0,1-21.793-1.135s-3.431-.347-6.11-.786a26.156,26.156,0,0,1-6.008-2.086,32.68,32.68,0,0,1-6.865-11.148m82.3-10.5H-28" transform="translate(2475.969 1390.845)" fill="none" stroke="#001dff" stroke-linecap="round" stroke-linejoin="round" stroke-width="0.5"></path><path id="Path_1598" data-name="Path 1598" d="M108,.237a.631.631,0,0,0-.635.617m-.422,73.258a.417.417,0,0,0,.422.4M106.519.237,60.395-.174,14.481.237m92.463.617c0-.336-.189-.61-.425-.617m-92.047,0a.416.416,0,0,0-.413.411m92.885.411H14.059m92.885.617H14.059M108,74.515h-.635m1.057,0V.237m.425,74.277V.237M109.9,74.1l.635-36.625L109.9.855m0,0a.643.643,0,0,0-.635-.617m0,74.277c.342,0,.623-.182.635-.411M14.059.649v1.44m.422.206,45.914.617L106.519,2.5m-92.46-.617a.416.416,0,0,0,.413.411m92.047.206c.236,0,.425-.281.425-.617m-186.4-.206V.649m0,.823V.855M98.057,3.324H21.886M108,.237h1.269m0,74.277h-1.9m-.422-72.631V.855M14.578,5.315a48.441,48.441,0,0,0-.486,8.883M21.91,3.324a14.217,14.217,0,0,0-7.332,1.991m91.469,9.124a32.187,32.187,0,0,0-.455-9.124m0,0a14.93,14.93,0,0,0-7.535-1.991m7.467,1.991H14.672m-.613,8.913L24,14.846s20.676.946,35.135.946,36.56-.946,36.56-.946l10.361-.411m-91.97-.009A34.748,34.748,0,0,0,21.1,26.2a26.224,26.224,0,0,0,6.141,2.209c2.739.461,6.247.83,6.247.83a144.066,144.066,0,0,0,22.28,1.2h8.59a144.036,144.036,0,0,0,22.278-1.2s3.51-.369,6.247-.83A26.214,26.214,0,0,0,99.029,26.2a34.786,34.786,0,0,0,7.019-11.78M107.366.855l-.847,33.331v2.469l.425,37.448m-92.885,14.4a3.892,3.892,0,0,0,3.808,3.909m-3.808-3.909V1.06M106.944,74.1V86.654m0,0a11.153,11.153,0,0,1-1.769,4.843,3.931,3.931,0,0,1-.571.688,4.859,4.859,0,0,1-1.045.435l-42.741.206-42.951-.411M13.424.237-32.7-.174-78.826.237m-.007,0c-.349,0-.63.163-.628.359M14.066.649c0-.225-.281-.407-.632-.411m.625.823h-93.52m0,.617a.633.633,0,0,0,.635.617m92.885-.617h-93.52m92.892.617c.328,0,.59-.187.59-.411m-92.847.411,46.124.411,46.126-.411M-79.355.855l.845,33.331v2.469L-78.933,74.1m92.885,14.4a3.892,3.892,0,0,1-3.808,3.909m3.808-3.909V1.06M-78.933,74.1V86.654m0,0A11.179,11.179,0,0,0-77.166,91.5a3.931,3.931,0,0,0,.571.688,4.914,4.914,0,0,0,1.047.435l42.739.206,42.953-.411m3.289-87.1a48.233,48.233,0,0,1,.484,8.883M6.1,3.324a14.223,14.223,0,0,1,7.332,1.991m-91.47,9.124a32.1,32.1,0,0,1,.455-9.124m0,0a14.918,14.918,0,0,1,7.535-1.991m-7.469,1.991H13.339m.613,8.913-9.939.617s-20.676.946-35.135.946-36.56-.946-36.56-.946l-10.364-.411m91.972-.009A34.786,34.786,0,0,1,6.908,26.2,26.214,26.214,0,0,1,.765,28.413c-2.737.461-6.247.83-6.247.83a144.036,144.036,0,0,1-22.278,1.2h-8.59a144.066,144.066,0,0,1-22.28-1.2s-3.508-.369-6.247-.83A26.224,26.224,0,0,1-71.018,26.2a34.749,34.749,0,0,1-7.019-11.78M6.1,3.324h-76.17" transform="translate(2630.46 1318.674)" fill="none" stroke="#001dff" stroke-linecap="round" stroke-linejoin="round" stroke-width="0.5"></path><path id="Path_1599" data-name="Path 1599" d="M0,0H190" transform="translate(2551 1431.699)" fill="none" stroke="#001dff" stroke-width="1"></path><path id="Path_1600" data-name="Path 1600" d="M0,0H95" transform="translate(2436.5 1515.699)" fill="none" stroke="#001dff" stroke-width="1"></path><path id="Path_1798" data-name="Path 1798" d="M-18.212-15.375h-1.175l-4.55,2.325v2l3.8-1.95V0h1.925Zm11.7,4.925a3.264,3.264,0,0,1-3.325,3.5,3.273,3.273,0,0,1-3.3-3.5,3.245,3.245,0,0,1,3.3-3.45A3.25,3.25,0,0,1-6.512-10.45Zm-8.225,6.875A4.534,4.534,0,0,0-9.962.225c3.325,0,5.625-3.2,5.625-8.175a10.739,10.739,0,0,0-.9-4.7,4.9,4.9,0,0,0-4.575-2.925,4.976,4.976,0,0,0-5.15,5.15,4.922,4.922,0,0,0,4.975,5.1A4,4,0,0,0-6.112-7.95c0,.15.025.525.025.675,0,3.3-1.625,5.875-3.875,5.875a2.79,2.79,0,0,1-2.825-2.175ZM3.888.225C7.313.225,9.613-3,9.613-7.675s-2.3-7.9-5.725-7.9-5.725,3.225-5.725,7.9S.463.225,3.888.225Zm0-14.025c2.475,0,3.8,2.55,3.8,6.125S6.363-1.55,3.888-1.55c-2.5,0-3.8-2.55-3.8-6.125S1.388-13.8,3.888-13.8ZM17.837.225c3.425,0,5.725-3.225,5.725-7.9s-2.3-7.9-5.725-7.9-5.725,3.225-5.725,7.9S14.412.225,17.837.225Zm0-14.025c2.475,0,3.8,2.55,3.8,6.125s-1.325,6.125-3.8,6.125c-2.5,0-3.8-2.55-3.8-6.125S15.337-13.8,17.837-13.8Z" transform="translate(2646 1455.867)" fill="#001dff"></path><path id="Path_1797" data-name="Path 1797" d="M-10.012-10.45a3.264,3.264,0,0,1-3.325,3.5,3.273,3.273,0,0,1-3.3-3.5,3.245,3.245,0,0,1,3.3-3.45A3.25,3.25,0,0,1-10.012-10.45Zm-8.225,6.875a4.534,4.534,0,0,0,4.775,3.8c3.325,0,5.625-3.2,5.625-8.175a10.739,10.739,0,0,0-.9-4.7,4.9,4.9,0,0,0-4.575-2.925,4.976,4.976,0,0,0-5.15,5.15,4.922,4.922,0,0,0,4.975,5.1A4,4,0,0,0-9.612-7.95c0,.15.025.525.025.675,0,3.3-1.625,5.875-3.875,5.875a2.79,2.79,0,0,1-2.825-2.175ZM-.412-8.25a3.171,3.171,0,0,1,3.15,3.4A3.144,3.144,0,0,1-.387-1.475a3.169,3.169,0,0,1-3.35-2.9H-5.662A4.972,4.972,0,0,0-.387.225,4.874,4.874,0,0,0,4.588-4.85,4.791,4.791,0,0,0-.237-9.95a4.322,4.322,0,0,0-2.8.975V-13.6h6.75v-1.75h-8.4v8.425h1.55A3.506,3.506,0,0,1-.412-8.25ZM12.613.225c3.425,0,5.725-3.225,5.725-7.9s-2.3-7.9-5.725-7.9-5.725,3.225-5.725,7.9S9.188.225,12.613.225Zm0-14.025c2.475,0,3.8,2.55,3.8,6.125s-1.325,6.125-3.8,6.125c-2.5,0-3.8-2.55-3.8-6.125S10.113-13.8,12.613-13.8Z" transform="translate(2484 1539.867)" fill="#001dff"></path><path id="Path_1799" data-name="Path 1799" d="M-9.875-10.45A3.264,3.264,0,0,1-13.2-6.95a3.273,3.273,0,0,1-3.3-3.5,3.245,3.245,0,0,1,3.3-3.45A3.25,3.25,0,0,1-9.875-10.45ZM-18.1-3.575a4.534,4.534,0,0,0,4.775,3.8C-10,.225-7.7-2.975-7.7-7.95a10.739,10.739,0,0,0-.9-4.7,4.9,4.9,0,0,0-4.575-2.925,4.976,4.976,0,0,0-5.15,5.15,4.922,4.922,0,0,0,4.975,5.1A4,4,0,0,0-9.475-7.95c0,.15.025.525.025.675,0,3.3-1.625,5.875-3.875,5.875A2.79,2.79,0,0,1-16.15-3.575Zm16.45-3.45H-.575C1.175-7.025,2.55-6,2.55-4.275a2.783,2.783,0,0,1-3.075,2.8A3.179,3.179,0,0,1-3.9-4.375H-5.825A4.963,4.963,0,0,0-.5.225c3.075,0,4.925-2,4.925-4.525a3.62,3.62,0,0,0-2.7-3.575,3.547,3.547,0,0,0,2.4-3.5c0-2.45-1.75-4.2-4.675-4.2A4.874,4.874,0,0,0-5.525-11.15H-3.6A2.954,2.954,0,0,1-.55-13.875a2.577,2.577,0,0,1,2.8,2.6A2.58,2.58,0,0,1-.625-8.7H-1.65ZM12.475.225C15.9.225,18.2-3,18.2-7.675s-2.3-7.9-5.725-7.9S6.75-12.35,6.75-7.675,9.05.225,12.475.225Zm0-14.025c2.475,0,3.8,2.55,3.8,6.125S14.95-1.55,12.475-1.55c-2.5,0-3.8-2.55-3.8-6.125S9.975-13.8,12.475-13.8Z" transform="translate(2784.17 1359.682) rotate(-90)" fill="#001dff"></path><path id="Path_1800" data-name="Path 1800" d="M-16.6-15.375h-1.175l-4.55,2.325v2l3.8-1.95V0H-16.6Zm12.75,1.55V-15.35h-9.925v1.75h7.9L-11.3,0h1.975ZM3.2-8.25a3.171,3.171,0,0,1,3.15,3.4A3.144,3.144,0,0,1,3.225-1.475a3.169,3.169,0,0,1-3.35-2.9H-2.05A4.972,4.972,0,0,0,3.225.225,4.874,4.874,0,0,0,8.2-4.85a4.791,4.791,0,0,0-4.825-5.1,4.322,4.322,0,0,0-2.8.975V-13.6h6.75v-1.75h-8.4v8.425H.475A3.506,3.506,0,0,1,3.2-8.25ZM16.225.225C19.65.225,21.95-3,21.95-7.675s-2.3-7.9-5.725-7.9S10.5-12.35,10.5-7.675,12.8.225,16.225.225Zm0-14.025c2.475,0,3.8,2.55,3.8,6.125S18.7-1.55,16.225-1.55c-2.5,0-3.8-2.55-3.8-6.125S13.725-13.8,16.225-13.8Z" transform="translate(2819.17 1406) rotate(-90)" fill="#001dff"></path><g id="Group_1490" data-name="Group 1490" transform="translate(2760 1318)"><path id="Path_1065-6" data-name="Path 1065" d="M.339,32.182v-93" transform="translate(-0.339 60.818)" fill="none" stroke="#001dff" stroke-width="1"></path></g><g id="Group_1491" data-name="Group 1491" transform="translate(2795 1318)"><path id="Path_1065-7" data-name="Path 1065" d="M.509,114.682v-175.5" transform="translate(-0.509 60.818)" fill="none" stroke="#001dff" stroke-width="1"></path></g></g></g><path id="Path_1796" data-name="Path 1796" d="M.518-4.3C.518-1.624,2.2.126,4.368.126a3.226,3.226,0,0,0,3.346-2.66H6.622A2.244,2.244,0,0,1,4.368-.868c-1.652,0-2.744-1.4-2.744-3.43s1.106-3.43,2.744-3.43A2.248,2.248,0,0,1,6.622-6.076H7.714A3.217,3.217,0,0,0,4.368-8.722C2.2-8.722.518-6.972.518-4.3ZM9.142,0h1.05V-4.214a1.687,1.687,0,0,1,1.582-1.162,1.294,1.294,0,0,1,1.372,1.47V0H14.21V-4.074a2.053,2.053,0,0,0-2.184-2.268,2.322,2.322,0,0,0-1.834.91V-9.1H9.142ZM19.908-1.862A1.432,1.432,0,0,1,18.4-.77c-1.05,0-1.792-.812-1.806-2.142h4.4V-3.29c0-1.806-.91-3.052-2.618-3.052S15.54-4.956,15.54-3.094C15.54-1.176,16.7.126,18.4.126A2.371,2.371,0,0,0,20.9-1.862ZM18.382-5.446a1.561,1.561,0,0,1,1.54,1.736h-3.3A1.782,1.782,0,0,1,18.382-5.446Zm7.2-.8a1.518,1.518,0,0,0-.6-.1,1.735,1.735,0,0,0-1.54.938v-.812h-1.05V0h1.05V-4.172a1.505,1.505,0,0,1,1.442-1.162,1.329,1.329,0,0,1,.7.168Zm4.494,0a1.518,1.518,0,0,0-.6-.1,1.735,1.735,0,0,0-1.54.938v-.812H26.88V0h1.05V-4.172a1.505,1.505,0,0,1,1.442-1.162,1.329,1.329,0,0,1,.7.168ZM33.208,2.38l3.346-8.6H35.462l-1.806,4.9-1.834-4.9H30.688L33.11.042,32.172,2.38ZM40.418-4.3c0,2.674,1.68,4.424,3.85,4.424a3.226,3.226,0,0,0,3.346-2.66H46.522A2.244,2.244,0,0,1,44.268-.868c-1.652,0-2.744-1.4-2.744-3.43s1.106-3.43,2.744-3.43a2.248,2.248,0,0,1,2.254,1.652h1.092a3.217,3.217,0,0,0-3.346-2.646C42.1-8.722,40.418-6.972,40.418-4.3ZM49.042,0h1.05V-4.214a1.687,1.687,0,0,1,1.582-1.162,1.294,1.294,0,0,1,1.372,1.47V0H54.11V-4.074a2.053,2.053,0,0,0-2.184-2.268,2.322,2.322,0,0,0-1.834.91V-9.1h-1.05ZM60.4,0V-4.144a2.108,2.108,0,0,0-2.366-2.2,2.252,2.252,0,0,0-2.324,1.764h1.036a1.205,1.205,0,0,1,1.274-.854A1.254,1.254,0,0,1,59.388-4.1v.784a2.663,2.663,0,0,0-1.568-.5,2.129,2.129,0,0,0-2.38,1.946A2.091,2.091,0,0,0,57.75.112a2.491,2.491,0,0,0,1.638-.574V0ZM59.388-1.54a1.556,1.556,0,0,1-1.456.77c-.756,0-1.484-.35-1.484-1.106s.728-1.078,1.484-1.078a1.556,1.556,0,0,1,1.456.77Zm3.85-4.676h-1.05V0h1.05Zm.154-1.876a.675.675,0,0,0-.686-.672.672.672,0,0,0-.672.672.681.681,0,0,0,.672.672A.684.684,0,0,0,63.392-8.092Zm1.2,6.384A2.335,2.335,0,0,0,67.144.126c1.33,0,2.31-.7,2.31-1.876,0-.868-.518-1.456-1.582-1.736l-1.2-.294c-.588-.168-.868-.364-.868-.784,0-.6.574-.9,1.19-.9a1.275,1.275,0,0,1,1.372.882h1.05A2.19,2.19,0,0,0,67-6.342a1.98,1.98,0,0,0-2.226,1.834c0,.966.616,1.414,1.5,1.638l1.232.322c.644.168.924.434.924.868,0,.63-.532.924-1.274.924a1.386,1.386,0,0,1-1.47-.952ZM74.83-1.862A1.432,1.432,0,0,1,73.318-.77c-1.05,0-1.792-.812-1.806-2.142h4.4V-3.29c0-1.806-.91-3.052-2.618-3.052s-2.828,1.386-2.828,3.248c0,1.918,1.162,3.22,2.856,3.22a2.371,2.371,0,0,0,2.506-1.988ZM73.3-5.446a1.561,1.561,0,0,1,1.54,1.736h-3.3A1.782,1.782,0,0,1,73.3-5.446ZM80.486,0h5.488V-.994H81.592V-8.6H80.486Zm13.02-8.6v3.682H88.648V-8.6H87.542V0h1.106V-3.92h4.858V0h1.106V-8.6ZM97.762,0V-3.738h3.892v-.98H97.762v-2.9h4.144V-8.6h-5.25V0Zm13.2,0V-4.144a2.108,2.108,0,0,0-2.366-2.2,2.252,2.252,0,0,0-2.324,1.764h1.036a1.205,1.205,0,0,1,1.274-.854,1.254,1.254,0,0,1,1.372,1.33v.784a2.663,2.663,0,0,0-1.568-.5,2.129,2.129,0,0,0-2.38,1.946,2.091,2.091,0,0,0,2.31,1.988,2.491,2.491,0,0,0,1.638-.574V0Zm-1.008-1.54a1.556,1.556,0,0,1-1.456.77c-.756,0-1.484-.35-1.484-1.106s.728-1.078,1.484-1.078a1.556,1.556,0,0,1,1.456.77Zm2.8,1.54h1.05V-4.214a1.687,1.687,0,0,1,1.582-1.162,1.294,1.294,0,0,1,1.372,1.47V0h1.064V-4.074a2.053,2.053,0,0,0-2.184-2.268,2.322,2.322,0,0,0-1.834.91v-.784h-1.05ZM123.7,0h1.064V-9.1H123.7v3.612a2.189,2.189,0,0,0-1.75-.854c-1.82,0-2.8,1.484-2.8,3.234s.98,3.234,2.8,3.234a2.189,2.189,0,0,0,1.75-.854Zm0-1.848a1.789,1.789,0,0,1-1.6,1.022c-1.19,0-1.89-.966-1.89-2.282s.7-2.282,1.89-2.282a1.789,1.789,0,0,1,1.6,1.022Zm8.638-6.762h-.658l-2.548,1.3v1.12l2.128-1.092V0h1.078Zm1.61,5.446h3.374v-.98h-3.374ZM143.332,0V-4.144a2.108,2.108,0,0,0-2.366-2.2,2.252,2.252,0,0,0-2.324,1.764h1.036a1.205,1.205,0,0,1,1.274-.854,1.254,1.254,0,0,1,1.372,1.33v.784a2.663,2.663,0,0,0-1.568-.5,2.129,2.129,0,0,0-2.38,1.946,2.091,2.091,0,0,0,2.31,1.988,2.491,2.491,0,0,0,1.638-.574V0Zm-1.008-1.54a1.556,1.556,0,0,1-1.456.77c-.756,0-1.484-.35-1.484-1.106s.728-1.078,1.484-1.078a1.556,1.556,0,0,1,1.456.77Zm5.992-4.7a1.518,1.518,0,0,0-.6-.1,1.735,1.735,0,0,0-1.54.938v-.812h-1.05V0h1.05V-4.172a1.505,1.505,0,0,1,1.442-1.162,1.329,1.329,0,0,1,.7.168Zm5.712.9a1.82,1.82,0,0,0-1.68-.994,1.944,1.944,0,0,0-1.68.854v-.728h-1.05V0h1.05V-4.284A1.449,1.449,0,0,1,152.04-5.39c.8,0,1.176.574,1.176,1.442V0h1.05V-4.284a1.449,1.449,0,0,1,1.372-1.106c.8,0,1.176.574,1.176,1.442V0h1.064V-4.116c0-1.344-.7-2.226-1.96-2.226A2.248,2.248,0,0,0,154.028-5.348ZM165.466-3.64,167.93,0h1.26l-2.534-3.682A2.278,2.278,0,0,0,168.84-6.1c0-1.624-1.092-2.492-2.814-2.492h-3.192V0h1.106V-3.64ZM163.94-7.63H166c1.134,0,1.75.574,1.75,1.526s-.616,1.526-1.75,1.526H163.94ZM176.526-8.6v3.682h-4.858V-8.6h-1.106V0h1.106V-3.92h4.858V0h1.106V-8.6ZM180.782,0V-3.738h3.892v-.98h-3.892v-2.9h4.144V-8.6h-5.25V0Z" transform="translate(839 1294.25)" fill="#001dff"></path></g><rect id="measuerments_background_box" data-name="measuerments background box" width="800" height="1950" transform="translate(240 136)" fill="none"></rect></g></svg> 