<?xml version="1.0" encoding="UTF-8"?> <svg xmlns="http://www.w3.org/2000/svg" width="800" height="550" viewBox="0 0 800 550"><g id="diagram-Bourbon" transform="translate(-2615 -956.5)"><g id="Group_1587" data-name="Group 1587" transform="translate(0.5)"><g id="Group_1586" data-name="Group 1586"><path id="Path_1494" data-name="Path 1494" d="M27.233,3.015v.4m-34.906,0V5.478M-11.214.454l-3.769,71.805M30.575.454l3.769,71.805M29.159,9.627ZM26.436,5.938l.8-.46H-7.673l.8.46m34.108-.46V3.414H25.385v-.4h1.848V.951H-7.673V3.414h1.848v-.4H-7.673M28.678.454l.4,7.578H-9.718l0,0h0v0l0,0v0l-.007,0-.009.009-.026.026-.026.028-.03.03-.03.035-.059.068-.047.054-.021.028L-10,8.351l-.021.03-.021.028-.019.03-.019.03-.014.023-.012.021-.012.023-.012.021-.009.023-.009.023,0,.012,0,.012,0,.012,0,.012,0,.012,0,.009,0,.012,0,.012,0,.009,0,.012,0,.009,0,.012v.012l0,.012v.009l0,.012v.063l0,.019,0,.016,0,.019,0,.016,0,.019,0,.016,0,.019.007.021.007.021.007.021.007.021.009.019.009.023.019.038.021.045.023.042.026.042.026.04.045.07.15.223,0,.007,0,0,0,0,0,0,0,0,0,0h0l0,0,0,0v0l-3.288,62.634M26.731,8.032l1.9-1.1h-37.9l1.9,1.1m36-1.1v-1h-37.9v1M-9.317.454l-.4,7.578h0M32.447,72.259,29.159,9.627l0,0h0v0l-38.957,0v0m38.959,0Zm.009-.019,0,0,0,0,0,0,0,0v0m.009-.016,0-.007.15-.223.047-.07.026-.04.023-.042.023-.042.021-.045.019-.038.009-.023.009-.019.007-.021.009-.021.007-.021,0-.021.007-.019,0-.016,0-.019,0-.016,0-.019,0-.016,0-.019V8.774l0-.009V8.752l0-.012,0-.012,0-.009V8.708l0-.009,0-.012,0-.012,0-.009,0-.012,0-.012,0-.012,0-.012,0-.012L29.5,8.584l-.009-.023-.012-.021-.012-.023-.012-.021-.014-.023-.019-.03-.019-.03-.019-.028-.021-.03-.023-.028L29.323,8.3l-.045-.054-.059-.068-.03-.035-.03-.03-.028-.028L29.1,8.053,29.1,8.044l0,0-.007,0v0h0l0,0h0v0h0M39.6-1.042,37.009.454H-17.648l-2.589-1.5,0-1v-.2H39.6v1.2H-20.24m59.841-1H-20.24m4.208,74.8h3.99v-.5h-3.99Zm0-.5,47.436.5h3.99v-.5H31.4Z" transform="translate(3111.74 1175.74)" fill="rgba(0,0,0,0)" stroke="#001dff" stroke-linecap="round" stroke-linejoin="round" stroke-width="0.5"></path><path id="Path_1698" data-name="Path 1698" d="M-17.025-4.9A3.264,3.264,0,0,1-13.7-8.4a3.273,3.273,0,0,1,3.3,3.5,3.245,3.245,0,0,1-3.3,3.45A3.25,3.25,0,0,1-17.025-4.9ZM-8.8-11.775a4.534,4.534,0,0,0-4.775-3.8c-3.325,0-5.625,3.2-5.625,8.175a10.739,10.739,0,0,0,.9,4.7A4.9,4.9,0,0,0-13.725.225a4.976,4.976,0,0,0,5.15-5.15,4.922,4.922,0,0,0-4.975-5.1A4,4,0,0,0-17.425-7.4c0-.15-.025-.525-.025-.675,0-3.3,1.625-5.875,3.875-5.875a2.79,2.79,0,0,1,2.825,2.175Zm8.325,12C2.95.225,5.25-3,5.25-7.675s-2.3-7.9-5.725-7.9S-6.2-12.35-6.2-7.675-3.9.225-.475.225Zm0-14.025c2.475,0,3.8,2.55,3.8,6.125S2-1.55-.475-1.55c-2.5,0-3.8-2.55-3.8-6.125S-2.975-13.8-.475-13.8ZM13.475.225C16.9.225,19.2-3,19.2-7.675s-2.3-7.9-5.725-7.9S7.75-12.35,7.75-7.675,10.05.225,13.475.225Zm0-14.025c2.475,0,3.8,2.55,3.8,6.125S15.95-1.55,13.475-1.55c-2.5,0-3.8-2.55-3.8-6.125S10.975-13.8,13.475-13.8Z" transform="translate(3122 1284.868)" fill="#001dff"></path><path id="Path_1064" data-name="Path 1064" d="M0,0H60" transform="translate(3092.5 1260.698)" fill="rgba(0,0,0,0)" stroke="#001dff" stroke-width="1"></path></g><g id="Group_1585" data-name="Group 1585"><path id="Path_1496" data-name="Path 1496" d="M49.564,3.243V5.307m25,0-.8.46m-24.3-2.524V5.307M-11.194,9.457H77.868m-.141-2.69H-11.053m88.836,1.1H-11.109M77.673,5.767H-11m.289-5.484-3.772,71.81M79.288.283l3.772,71.81m-1.9,0L77.386.283m-93.772,71.81L-12.614.283m50.579,2.97a1,1,0,1,0-.294.7,1.011,1.011,0,0,0,.294-.7m25.1,0a1,1,0,1,0-.292.7,1.019,1.019,0,0,0,.292-.7m-12.7,2.515-.8-.46h25V.78h-25V3.243h1.853v-.4H49.564m25,0H72.71v.4h1.853m5.122,4.619H91.431l1.9-1.1v-1H79.575m13.761,1H79.627m-54.363-1-.8-.46h25l-.8.46m-24.2-.46V2.844h1.853v.4H24.465m0-.4V.78h25V2.844H47.609v.4h1.853v-.4M-12.955,6.766H-26.662v-1H-12.9m-13.758,1,1.9,1.1h11.745M103.336-1.214v-1.2h-140v.2h140m-140,0v1h140l-2.6,1.5h-134.8l-2.6-1.5m23.222,73.8h-4v-.5h4Zm0-.5,97.554.5h-4v-.5h4Zm0-.5" transform="translate(2913.165 1174.91)" fill="rgba(0,0,0,0)" stroke="#001dff" stroke-linecap="round" stroke-linejoin="round" stroke-width="0.5"></path><g id="Group_876" data-name="Group 876" transform="translate(2877 1260.068)"><path id="Path_1062" data-name="Path 1062" d="M0,.63H139.5" transform="translate(0 0)" fill="rgba(0,0,0,0)" stroke="#001dff" stroke-width="1"></path></g><path id="Path_1697" data-name="Path 1697" d="M-18.362-15.375h-1.175l-4.55,2.325v2l3.8-1.95V0h1.925Zm10.825.025h-2l-5.9,10.475v1.4h7.075V0h1.825V-3.475h2.7v-1.65h-2.7v-3.7H-8.362v3.7h-4.9ZM4.037.225C7.462.225,9.762-3,9.762-7.675s-2.3-7.9-5.725-7.9-5.725,3.225-5.725,7.9S.612.225,4.037.225Zm0-14.025c2.475,0,3.8,2.55,3.8,6.125S6.512-1.55,4.037-1.55c-2.5,0-3.8-2.55-3.8-6.125S1.537-13.8,4.037-13.8ZM17.987.225c3.425,0,5.725-3.225,5.725-7.9s-2.3-7.9-5.725-7.9-5.725,3.225-5.725,7.9S14.562.225,17.987.225Zm0-14.025c2.475,0,3.8,2.55,3.8,6.125s-1.325,6.125-3.8,6.125c-2.5,0-3.8-2.55-3.8-6.125S15.487-13.8,17.987-13.8Z" transform="translate(2947 1284.868)" fill="#001dff"></path><path id="Path_1696" data-name="Path 1696" d="M-8.212-13.825V-15.35h-9.925v1.75h7.9L-15.662,0h1.975Zm7.05,5.575a3.171,3.171,0,0,1,3.15,3.4A3.144,3.144,0,0,1-1.137-1.475a3.169,3.169,0,0,1-3.35-2.9H-6.412A4.972,4.972,0,0,0-1.137.225,4.874,4.874,0,0,0,3.838-4.85,4.791,4.791,0,0,0-.987-9.95a4.322,4.322,0,0,0-2.8.975V-13.6h6.75v-1.75h-8.4v8.425h1.55A3.506,3.506,0,0,1-1.162-8.25ZM11.863.225c3.425,0,5.725-3.225,5.725-7.9s-2.3-7.9-5.725-7.9-5.725,3.225-5.725,7.9S8.438.225,11.863.225Zm0-14.025c2.475,0,3.8,2.55,3.8,6.125s-1.325,6.125-3.8,6.125c-2.5,0-3.8-2.55-3.8-6.125S9.363-13.8,11.863-13.8Z" transform="translate(3054.912 1209.682) rotate(-90)" fill="#001dff"></path><g id="Group_879" data-name="Group 879" transform="translate(3030.743 1172.5)"><path id="Path_1065" data-name="Path 1065" d="M.508,14.182v-75" transform="translate(-0.508 60.818)" fill="rgba(0,0,0,0)" stroke="#001dff" stroke-width="1"></path></g></g></g><path id="Path_1695" data-name="Path 1695" d="M5.432-4.452a1.842,1.842,0,0,0,1.26-1.862C6.692-7.8,5.628-8.6,3.85-8.6H1.022V0H4.13C5.894,0,6.986-.854,6.986-2.422A2.073,2.073,0,0,0,5.432-4.452ZM2.1-4.858V-7.63H3.85C5-7.63,5.628-7.2,5.628-6.258S5-4.858,3.85-4.858Zm0,.924H4.13c1.162,0,1.778.574,1.778,1.484S5.292-.966,4.13-.966H2.1Zm11.676.826c0-1.9-1.162-3.234-2.856-3.234S8.064-5.012,8.064-3.108,9.212.126,10.92.126,13.776-1.2,13.776-3.108Zm-1.064,0c0,1.358-.672,2.31-1.792,2.31S9.128-1.75,9.128-3.108s.672-2.31,1.792-2.31S12.712-4.466,12.712-3.108ZM20.16-6.216H19.1V-2A1.652,1.652,0,0,1,17.542-.84a1.284,1.284,0,0,1-1.358-1.47V-6.216H15.12v4.074A2.043,2.043,0,0,0,17.29.126,2.244,2.244,0,0,0,19.1-.784V0H20.16Zm5.054-.028a1.518,1.518,0,0,0-.6-.1,1.735,1.735,0,0,0-1.54.938v-.812h-1.05V0h1.05V-4.172a1.505,1.505,0,0,1,1.442-1.162,1.329,1.329,0,0,1,.7.168ZM27.566-.728a2.189,2.189,0,0,0,1.75.854c1.82,0,2.8-1.47,2.8-3.234s-.98-3.234-2.8-3.234a2.189,2.189,0,0,0-1.75.854V-9.1H26.5V0h1.064Zm0-3.64a1.789,1.789,0,0,1,1.6-1.022c1.19,0,1.89.966,1.89,2.282s-.7,2.282-1.89,2.282a1.789,1.789,0,0,1-1.6-1.022Zm11.27,1.26c0-1.9-1.162-3.234-2.856-3.234s-2.856,1.33-2.856,3.234S34.272.126,35.98.126,38.836-1.2,38.836-3.108Zm-1.064,0C37.772-1.75,37.1-.8,35.98-.8s-1.792-.952-1.792-2.31.672-2.31,1.792-2.31S37.772-4.466,37.772-3.108ZM40.264,0h1.05V-4.214A1.687,1.687,0,0,1,42.9-5.376a1.294,1.294,0,0,1,1.372,1.47V0h1.064V-4.074a2.053,2.053,0,0,0-2.184-2.268,2.322,2.322,0,0,0-1.834.91v-.784h-1.05Zm11.13-.994V-7.616h1.638c1.946,0,3.094,1.3,3.094,3.318s-1.148,3.3-3.094,3.3ZM50.288,0h2.758a3.974,3.974,0,0,0,4.172-4.3,3.974,3.974,0,0,0-4.172-4.3H50.288ZM62.664-1.862A1.432,1.432,0,0,1,61.152-.77c-1.05,0-1.792-.812-1.806-2.142h4.4V-3.29c0-1.806-.91-3.052-2.618-3.052S58.3-4.956,58.3-3.094c0,1.918,1.162,3.22,2.856,3.22a2.371,2.371,0,0,0,2.506-1.988ZM61.138-5.446a1.561,1.561,0,0,1,1.54,1.736h-3.3A1.782,1.782,0,0,1,61.138-5.446Zm3.514,3.738A2.335,2.335,0,0,0,67.2.126c1.33,0,2.31-.7,2.31-1.876,0-.868-.518-1.456-1.582-1.736l-1.2-.294c-.588-.168-.868-.364-.868-.784,0-.6.574-.9,1.19-.9a1.275,1.275,0,0,1,1.372.882h1.05A2.19,2.19,0,0,0,67.06-6.342a1.98,1.98,0,0,0-2.226,1.834c0,.966.616,1.414,1.5,1.638l1.232.322c.644.168.924.434.924.868,0,.63-.532.924-1.274.924a1.386,1.386,0,0,1-1.47-.952ZM75.054,0h1.288l-2.9-3.528,2.8-2.688H74.858L72.016-3.458V-9.1h-1.05V0h1.05V-2.226l.672-.644Z" transform="translate(2976 1338.25)" fill="#001dff"></path><rect id="measuerments_background_box" data-name="measuerments background box" width="800" height="550" transform="translate(2615 956.5)" fill="none"></rect></g></svg> 