<?xml version="1.0" encoding="UTF-8"?> <svg xmlns="http://www.w3.org/2000/svg" width="800" height="550" viewBox="0 0 800 550"><g id="diagram-Kile" transform="translate(-1173 -2458.5)"><g id="diagram-Kile-50"><path id="Path_1691" data-name="Path 1691" d="M-63.154-8.6H-64.26V0h1.106V-2.926l.924-.994L-59,0h1.372l-3.808-4.676L-57.75-8.6h-1.4l-4,4.3Zm7.756,2.38h-1.05V0h1.05Zm.154-1.876a.675.675,0,0,0-.686-.672.672.672,0,0,0-.672.672.681.681,0,0,0,.672.672A.684.684,0,0,0-55.244-8.092ZM-52.472-9.1h-1.05V0h1.05Zm5.8,7.238A1.432,1.432,0,0,1-48.188-.77c-1.05,0-1.792-.812-1.806-2.142h4.4V-3.29c0-1.806-.91-3.052-2.618-3.052s-2.828,1.386-2.828,3.248c0,1.918,1.162,3.22,2.856,3.22a2.371,2.371,0,0,0,2.506-1.988ZM-48.2-5.446a1.561,1.561,0,0,1,1.54,1.736h-3.3A1.782,1.782,0,0,1-48.2-5.446ZM-41.524-4.3c0,2.674,1.68,4.424,3.85,4.424a3.226,3.226,0,0,0,3.346-2.66H-35.42A2.244,2.244,0,0,1-37.674-.868c-1.652,0-2.744-1.4-2.744-3.43s1.106-3.43,2.744-3.43A2.248,2.248,0,0,1-35.42-6.076h1.092a3.217,3.217,0,0,0-3.346-2.646C-39.844-8.722-41.524-6.972-41.524-4.3Zm13.93,1.19c0-1.9-1.162-3.234-2.856-3.234s-2.856,1.33-2.856,3.234S-32.158.126-30.45.126-27.594-1.2-27.594-3.108Zm-1.064,0c0,1.358-.672,2.31-1.792,2.31s-1.792-.952-1.792-2.31.672-2.31,1.792-2.31S-28.658-4.466-28.658-3.108ZM-19.4-9.086a2.081,2.081,0,0,0-.826-.14,1.827,1.827,0,0,0-1.9,1.974v1.036h-2.6v-.868a.991.991,0,0,1,1.022-1.134,1.216,1.216,0,0,1,.658.168V-9a2.01,2.01,0,0,0-.812-.14,1.827,1.827,0,0,0-1.9,1.974v.952h-1.05v.9h1.05V0h1.036V-5.32h2.6V0h1.05V-5.32h1.4v-.9h-1.4v-.952c0-.742.406-1.134,1.008-1.134a1.264,1.264,0,0,1,.672.168Zm4.76,7.224A1.432,1.432,0,0,1-16.156-.77c-1.05,0-1.792-.812-1.806-2.142h4.4V-3.29c0-1.806-.91-3.052-2.618-3.052s-2.828,1.386-2.828,3.248c0,1.918,1.162,3.22,2.856,3.22A2.371,2.371,0,0,0-13.65-1.862ZM-16.17-5.446A1.561,1.561,0,0,1-14.63-3.71h-3.3A1.782,1.782,0,0,1-16.17-5.446Zm7.952,3.584A1.432,1.432,0,0,1-9.73-.77c-1.05,0-1.792-.812-1.806-2.142h4.4V-3.29c0-1.806-.91-3.052-2.618-3.052s-2.828,1.386-2.828,3.248c0,1.918,1.162,3.22,2.856,3.22A2.371,2.371,0,0,0-7.224-1.862ZM-9.744-5.446A1.561,1.561,0,0,1-8.2-3.71h-3.3A1.782,1.782,0,0,1-9.744-5.446Zm6.58-2.17h3V0H.938V-7.616h3V-8.6h-7.1ZM8.75,0V-4.144a2.108,2.108,0,0,0-2.366-2.2A2.252,2.252,0,0,0,4.06-4.578H5.1A1.205,1.205,0,0,1,6.37-5.432,1.254,1.254,0,0,1,7.742-4.1v.784a2.663,2.663,0,0,0-1.568-.5,2.129,2.129,0,0,0-2.38,1.946A2.091,2.091,0,0,0,6.1.112,2.491,2.491,0,0,0,7.742-.462V0ZM7.742-1.54a1.556,1.556,0,0,1-1.456.77C5.53-.77,4.8-1.12,4.8-1.876S5.53-2.954,6.286-2.954a1.556,1.556,0,0,1,1.456.77Zm3.85.812a2.189,2.189,0,0,0,1.75.854c1.82,0,2.8-1.47,2.8-3.234s-.98-3.234-2.8-3.234a2.189,2.189,0,0,0-1.75.854V-9.1H10.528V0h1.064Zm0-3.64a1.789,1.789,0,0,1,1.6-1.022c1.19,0,1.89.966,1.89,2.282s-.7,2.282-1.89,2.282a1.789,1.789,0,0,1-1.6-1.022ZM18.62-9.1H17.57V0h1.05Zm5.8,7.238A1.432,1.432,0,0,1,22.9-.77c-1.05,0-1.792-.812-1.806-2.142h4.4V-3.29c0-1.806-.91-3.052-2.618-3.052s-2.828,1.386-2.828,3.248c0,1.918,1.162,3.22,2.856,3.22A2.371,2.371,0,0,0,25.41-1.862ZM22.89-5.446A1.561,1.561,0,0,1,24.43-3.71h-3.3A1.782,1.782,0,0,1,22.89-5.446Zm6.58-2.17h3V0h1.106V-7.616h3V-8.6h-7.1ZM41.384,0V-4.144a2.108,2.108,0,0,0-2.366-2.2,2.252,2.252,0,0,0-2.324,1.764H37.73A1.205,1.205,0,0,1,39-5.432,1.254,1.254,0,0,1,40.376-4.1v.784a2.663,2.663,0,0,0-1.568-.5,2.129,2.129,0,0,0-2.38,1.946A2.091,2.091,0,0,0,38.738.112a2.491,2.491,0,0,0,1.638-.574V0ZM40.376-1.54a1.556,1.556,0,0,1-1.456.77c-.756,0-1.484-.35-1.484-1.106s.728-1.078,1.484-1.078a1.556,1.556,0,0,1,1.456.77Zm3.85-7.56h-1.05V0h1.05Zm2.926,0H46.1V0h1.05ZM54.5-4.62a1.776,1.776,0,0,1,1.764,1.9,1.761,1.761,0,0,1-1.75,1.89A1.775,1.775,0,0,1,52.64-2.45H51.562A2.784,2.784,0,0,0,54.516.126,2.729,2.729,0,0,0,57.3-2.716a2.683,2.683,0,0,0-2.7-2.856,2.421,2.421,0,0,0-1.568.546v-2.59h3.78V-8.6h-4.7v4.718h.868A1.963,1.963,0,0,1,54.5-4.62ZM61.516.126c1.918,0,3.206-1.806,3.206-4.424s-1.288-4.424-3.206-4.424S58.31-6.916,58.31-4.3,59.6.126,61.516.126Zm0-7.854c1.386,0,2.128,1.428,2.128,3.43S62.9-.868,61.516-.868,59.388-2.3,59.388-4.3,60.116-7.728,61.516-7.728Z" transform="translate(1327 2862)" fill="#001dff"></path><g id="Group_1505" data-name="Group 1505" transform="translate(-1190 1723)"><g id="Group_1399" data-name="Group 1399" transform="translate(2470.829 948.07)"><path id="Path_1536" data-name="Path 1536" d="M1.144,51.155H47.179l-1.84,2.961H3.015Zm0,0-1.916,41.9H8.419l1.811-38.9m36.967-3,1.916,41.9H39.92l-1.809-38.9m-14.879-3v41.9h1.852v-41.9M49.171-12.06a25.006,25.006,0,0,1-25,25.011,25.005,25.005,0,0,1-25-25.011,25.005,25.005,0,0,1,25-25.011A25.006,25.006,0,0,1,49.171-12.06ZM24.72,5.1h-1.1M23.07,12.95l.643-10.005h.914l.645,10.005M23.622-29.193h1.1m.552-7.851-.645,10.008h-.914L23.07-37.045M7.032-11.5v-1.1m-7.849-.552,10,.645v.914l-10,.643M41.31-12.6v1.1m7.849.552-10-.643V-12.5l10-.645" transform="translate(0 0)" fill="none" stroke="#001dff" stroke-linecap="round" stroke-linejoin="round" stroke-width="0.5"></path></g><g id="Group_1009" data-name="Group 1009" transform="translate(2331 -659)"><g id="Group_1003" data-name="Group 1003" transform="translate(-38)"><path id="Path_1687" data-name="Path 1687" d="M8.45-15.35h-2L.55-4.875v1.4H7.625V0H9.45V-3.475h2.7v-1.65H9.45v-3.7H7.625v3.7h-4.9ZM21.7-11.225c0,1.45-1.25,2.725-2.85,4.475L13.9-1.3V0H23.925V-1.75H16.6l3.9-4.275c1.55-1.75,3.1-3.275,3.1-5.225,0-2.625-1.75-4.325-4.675-4.325C16.1-15.575,14.2-13.6,13.9-10.75h2.025c.15-1.775,1.15-3.075,3-3.075A2.517,2.517,0,0,1,21.7-11.225ZM31.825.225C35.25.225,37.55-3,37.55-7.675s-2.3-7.9-5.725-7.9S26.1-12.35,26.1-7.675,28.4.225,31.825.225Zm0-14.025c2.475,0,3.8,2.55,3.8,6.125S34.3-1.55,31.825-1.55c-2.5,0-3.8-2.55-3.8-6.125S29.325-13.8,31.825-13.8Z" transform="translate(276.797 1698.1) rotate(-90)" fill="#001dff"></path><g id="Group_1001" data-name="Group 1001" transform="translate(252.92 1711.528)"><path id="Path_1134" data-name="Path 1134" d="M.734-11.528v-42" transform="translate(-0.734)" fill="none" stroke="#001dff" stroke-width="1"></path></g></g></g><g id="Group_1504" data-name="Group 1504" transform="translate(2316.5 -653)"><path id="Path_1167" data-name="Path 1167" d="M0,0H50" transform="translate(153.5 1720.5)" fill="none" stroke="#001dff" stroke-width="1"></path><path id="Path_1686" data-name="Path 1686" d="M5.925-8.25a3.171,3.171,0,0,1,3.15,3.4A3.144,3.144,0,0,1,5.95-1.475a3.169,3.169,0,0,1-3.35-2.9H.675A4.972,4.972,0,0,0,5.95.225,4.874,4.874,0,0,0,10.925-4.85,4.791,4.791,0,0,0,6.1-9.95a4.322,4.322,0,0,0-2.8.975V-13.6h6.75v-1.75H1.65v8.425H3.2A3.506,3.506,0,0,1,5.925-8.25ZM18.95.225c3.425,0,5.725-3.225,5.725-7.9s-2.3-7.9-5.725-7.9-5.725,3.225-5.725,7.9S15.525.225,18.95.225Zm0-14.025c2.475,0,3.8,2.55,3.8,6.125S21.425-1.55,18.95-1.55c-2.5,0-3.8-2.55-3.8-6.125S16.45-13.8,18.95-13.8ZM32.9.225c3.425,0,5.725-3.225,5.725-7.9s-2.3-7.9-5.725-7.9-5.725,3.225-5.725,7.9S29.475.225,32.9.225Zm0-14.025c2.475,0,3.8,2.55,3.8,6.125S35.375-1.55,32.9-1.55c-2.5,0-3.8-2.55-3.8-6.125S30.4-13.8,32.9-13.8Z" transform="translate(159 1745)" fill="#001dff"></path></g></g></g><g id="diagram-Kile-60" transform="translate(10.017)"><path id="Path_1690" data-name="Path 1690" d="M-65.072-8.6h-1.106V0h1.106V-2.926l.924-.994L-60.914,0h1.372L-63.35-4.676l3.682-3.92h-1.4l-4,4.3Zm7.756,2.38h-1.05V0h1.05Zm.154-1.876a.675.675,0,0,0-.686-.672.672.672,0,0,0-.672.672.681.681,0,0,0,.672.672A.684.684,0,0,0-57.162-8.092ZM-54.39-9.1h-1.05V0h1.05Zm5.8,7.238A1.432,1.432,0,0,1-50.106-.77c-1.05,0-1.792-.812-1.806-2.142h4.4V-3.29c0-1.806-.91-3.052-2.618-3.052s-2.828,1.386-2.828,3.248c0,1.918,1.162,3.22,2.856,3.22A2.371,2.371,0,0,0-47.6-1.862ZM-50.12-5.446A1.561,1.561,0,0,1-48.58-3.71h-3.3A1.782,1.782,0,0,1-50.12-5.446ZM-43.442-4.3c0,2.674,1.68,4.424,3.85,4.424a3.226,3.226,0,0,0,3.346-2.66h-1.092A2.244,2.244,0,0,1-39.592-.868c-1.652,0-2.744-1.4-2.744-3.43s1.106-3.43,2.744-3.43a2.248,2.248,0,0,1,2.254,1.652h1.092a3.217,3.217,0,0,0-3.346-2.646C-41.762-8.722-43.442-6.972-43.442-4.3Zm13.93,1.19c0-1.9-1.162-3.234-2.856-3.234s-2.856,1.33-2.856,3.234S-34.076.126-32.368.126-29.512-1.2-29.512-3.108Zm-1.064,0c0,1.358-.672,2.31-1.792,2.31s-1.792-.952-1.792-2.31.672-2.31,1.792-2.31S-30.576-4.466-30.576-3.108Zm9.254-5.978a2.081,2.081,0,0,0-.826-.14,1.827,1.827,0,0,0-1.9,1.974v1.036h-2.6v-.868a.991.991,0,0,1,1.022-1.134,1.216,1.216,0,0,1,.658.168V-9a2.01,2.01,0,0,0-.812-.14,1.827,1.827,0,0,0-1.9,1.974v.952h-1.05v.9h1.05V0h1.036V-5.32h2.6V0H-23V-5.32h1.4v-.9H-23v-.952C-23-7.91-22.6-8.3-21.994-8.3a1.264,1.264,0,0,1,.672.168Zm4.76,7.224A1.432,1.432,0,0,1-18.074-.77c-1.05,0-1.792-.812-1.806-2.142h4.4V-3.29c0-1.806-.91-3.052-2.618-3.052S-20.93-4.956-20.93-3.094c0,1.918,1.162,3.22,2.856,3.22a2.371,2.371,0,0,0,2.506-1.988Zm-1.526-3.584a1.561,1.561,0,0,1,1.54,1.736h-3.3A1.782,1.782,0,0,1-18.088-5.446Zm7.952,3.584A1.432,1.432,0,0,1-11.648-.77c-1.05,0-1.792-.812-1.806-2.142h4.4V-3.29c0-1.806-.91-3.052-2.618-3.052S-14.5-4.956-14.5-3.094c0,1.918,1.162,3.22,2.856,3.22A2.371,2.371,0,0,0-9.142-1.862Zm-1.526-3.584a1.561,1.561,0,0,1,1.54,1.736h-3.3A1.782,1.782,0,0,1-11.662-5.446Zm6.58-2.17h3V0H-.98V-7.616h3V-8.6h-7.1ZM6.832,0V-4.144a2.108,2.108,0,0,0-2.366-2.2A2.252,2.252,0,0,0,2.142-4.578H3.178a1.205,1.205,0,0,1,1.274-.854A1.254,1.254,0,0,1,5.824-4.1v.784a2.663,2.663,0,0,0-1.568-.5,2.129,2.129,0,0,0-2.38,1.946A2.091,2.091,0,0,0,4.186.112,2.491,2.491,0,0,0,5.824-.462V0ZM5.824-1.54a1.556,1.556,0,0,1-1.456.77c-.756,0-1.484-.35-1.484-1.106s.728-1.078,1.484-1.078a1.556,1.556,0,0,1,1.456.77Zm3.85.812a2.189,2.189,0,0,0,1.75.854c1.82,0,2.8-1.47,2.8-3.234s-.98-3.234-2.8-3.234a2.189,2.189,0,0,0-1.75.854V-9.1H8.61V0H9.674Zm0-3.64a1.789,1.789,0,0,1,1.6-1.022c1.19,0,1.89.966,1.89,2.282s-.7,2.282-1.89,2.282a1.789,1.789,0,0,1-1.6-1.022ZM16.7-9.1h-1.05V0H16.7Zm5.8,7.238A1.432,1.432,0,0,1,20.986-.77c-1.05,0-1.792-.812-1.806-2.142h4.4V-3.29c0-1.806-.91-3.052-2.618-3.052S18.13-4.956,18.13-3.094c0,1.918,1.162,3.22,2.856,3.22a2.371,2.371,0,0,0,2.506-1.988ZM20.972-5.446a1.561,1.561,0,0,1,1.54,1.736h-3.3A1.782,1.782,0,0,1,20.972-5.446ZM28.154,0h5.488V-.994H29.26V-8.6H28.154ZM40.278-3.108c0-1.9-1.162-3.234-2.856-3.234s-2.856,1.33-2.856,3.234S35.714.126,37.422.126,40.278-1.2,40.278-3.108Zm-1.064,0c0,1.358-.672,2.31-1.792,2.31S35.63-1.75,35.63-3.108s.672-2.31,1.792-2.31S39.214-4.466,39.214-3.108Zm6.44-3.108h-.938L43.442-1.47,42.07-6.216H41.02L42.854,0h1.022l1.3-4.718L46.466,0h1.022l1.834-6.216H48.3L46.928-1.47Zm8.792,3.472A1.828,1.828,0,0,1,56.308-4.7a1.833,1.833,0,0,1,1.848,1.96A1.817,1.817,0,0,1,56.308-.812,1.82,1.82,0,0,1,54.446-2.744Zm4.606-3.85a2.539,2.539,0,0,0-2.674-2.128c-1.862,0-3.15,1.792-3.15,4.578a6.014,6.014,0,0,0,.5,2.632A2.745,2.745,0,0,0,56.294.126a2.786,2.786,0,0,0,2.884-2.884,2.757,2.757,0,0,0-2.786-2.856,2.241,2.241,0,0,0-2.17,1.47c0-.084-.014-.294-.014-.378,0-1.848.91-3.29,2.17-3.29A1.562,1.562,0,0,1,57.96-6.594ZM63.434.126C65.352.126,66.64-1.68,66.64-4.3s-1.288-4.424-3.206-4.424S60.228-6.916,60.228-4.3,61.516.126,63.434.126Zm0-7.854c1.386,0,2.128,1.428,2.128,3.43s-.742,3.43-2.128,3.43S61.306-2.3,61.306-4.3,62.034-7.728,63.434-7.728Z" transform="translate(1550 2862)" fill="#001dff"></path><g id="Group_1510" data-name="Group 1510" transform="translate(-1117.943 1723)"><g id="Group_1404" data-name="Group 1404" transform="translate(2641.206 924.628)"><path id="Path_1541" data-name="Path 1541" d="M34.738,17.364a30,30,0,1,1-30-29.979A29.989,29.989,0,0,1,34.738,17.364ZM5.289,39.481h-1.1m-.553,7.862L4.28,37.324H5.2L5.84,47.342M4.189-4.763h1.1m.551-7.864L5.2-2.606H4.28l-.6-9.895M-17.393,17.912v-1.1m-7.869-.553,10.028.644v.917l-10.028.644m52.134-1.651v1.1m7.866.553-10.025-.644v-.917l10.025-.644M-23.607,80.4H32.988l-1.843,2.967H-21.73Zm27.368,0v35.926H5.619V80.4m-29.226,0-1.655,35.926H-15.8l1.53-33M33.083,80.4l1.655,35.926H25.283l-1.532-33" transform="translate(0 0)" fill="none" stroke="#001dff" stroke-linecap="round" stroke-linejoin="round" stroke-width="0.5"></path></g><g id="Group_1506" data-name="Group 1506" transform="translate(2462.443 -653)"><path id="Path_1167-2" data-name="Path 1167" d="M0,0H60" transform="translate(153.5 1720.5)" fill="none" stroke="#001dff" stroke-width="1"></path><path id="Path_1689" data-name="Path 1689" d="M3.175-4.9A3.264,3.264,0,0,1,6.5-8.4,3.273,3.273,0,0,1,9.8-4.9,3.245,3.245,0,0,1,6.5-1.45,3.25,3.25,0,0,1,3.175-4.9ZM11.4-11.775a4.534,4.534,0,0,0-4.775-3.8C3.3-15.575,1-12.375,1-7.4a10.739,10.739,0,0,0,.9,4.7A4.9,4.9,0,0,0,6.475.225a4.976,4.976,0,0,0,5.15-5.15,4.922,4.922,0,0,0-4.975-5.1A4,4,0,0,0,2.775-7.4c0-.15-.025-.525-.025-.675,0-3.3,1.625-5.875,3.875-5.875A2.79,2.79,0,0,1,9.45-11.775Zm8.325,12C23.15.225,25.45-3,25.45-7.675s-2.3-7.9-5.725-7.9S14-12.35,14-7.675,16.3.225,19.725.225Zm0-14.025c2.475,0,3.8,2.55,3.8,6.125S22.2-1.55,19.725-1.55c-2.5,0-3.8-2.55-3.8-6.125S17.225-13.8,19.725-13.8ZM33.675.225C37.1.225,39.4-3,39.4-7.675s-2.3-7.9-5.725-7.9-5.725,3.225-5.725,7.9S30.25.225,33.675.225Zm0-14.025c2.475,0,3.8,2.55,3.8,6.125S36.15-1.55,33.675-1.55c-2.5,0-3.8-2.55-3.8-6.125S31.175-13.8,33.675-13.8Z" transform="translate(164 1745)" fill="#001dff"></path></g><g id="Group_1507" data-name="Group 1507" transform="translate(2487 -659)"><g id="Group_1003-2" data-name="Group 1003" transform="translate(-38)"><path id="Path_1688" data-name="Path 1688" d="M4.6-7.025H5.675C7.425-7.025,8.8-6,8.8-4.275a2.783,2.783,0,0,1-3.075,2.8,3.179,3.179,0,0,1-3.375-2.9H.425A4.963,4.963,0,0,0,5.75.225c3.075,0,4.925-2,4.925-4.525a3.62,3.62,0,0,0-2.7-3.575,3.547,3.547,0,0,0,2.4-3.5c0-2.45-1.75-4.2-4.675-4.2A4.874,4.874,0,0,0,.725-11.15H2.65A2.954,2.954,0,0,1,5.7-13.875a2.577,2.577,0,0,1,2.8,2.6A2.58,2.58,0,0,1,5.625-8.7H4.6ZM15.175-4.9A3.264,3.264,0,0,1,18.5-8.4a3.273,3.273,0,0,1,3.3,3.5,3.245,3.245,0,0,1-3.3,3.45A3.25,3.25,0,0,1,15.175-4.9ZM23.4-11.775a4.534,4.534,0,0,0-4.775-3.8C15.3-15.575,13-12.375,13-7.4a10.739,10.739,0,0,0,.9,4.7A4.9,4.9,0,0,0,18.475.225a4.976,4.976,0,0,0,5.15-5.15,4.922,4.922,0,0,0-4.975-5.1A4,4,0,0,0,14.775-7.4c0-.15-.025-.525-.025-.675,0-3.3,1.625-5.875,3.875-5.875a2.79,2.79,0,0,1,2.825,2.175Zm8.325,12C35.15.225,37.45-3,37.45-7.675s-2.3-7.9-5.725-7.9S26-12.35,26-7.675,28.3.225,31.725.225Zm0-14.025c2.475,0,3.8,2.55,3.8,6.125S34.2-1.55,31.725-1.55c-2.5,0-3.8-2.55-3.8-6.125S29.225-13.8,31.725-13.8Z" transform="translate(276.797 1701.1) rotate(-90)" fill="#001dff"></path><g id="Group_1001-2" data-name="Group 1001" transform="translate(252.92 1717.528)"><path id="Path_1134-2" data-name="Path 1134" d="M.734-17.528v-36" transform="translate(-0.734)" fill="none" stroke="#001dff" stroke-width="1"></path></g></g></g></g></g><g id="diagram-Kile-90" transform="translate(57)"><g id="Group_1511" data-name="Group 1511" transform="translate(-1092.763 1723)"><g id="Group_1409" data-name="Group 1409" transform="translate(2768.48 930.937)"><path id="Path_1546" data-name="Path 1546" d="M.98,73.753H87.462l-1.842,2.966H2.855Zm42.392,0v35.972h1.875V73.753M89.283-8.93a45,45,0,0,1-45,45.008A45,45,0,0,1-.717-8.93a45,45,0,0,1,45-45.008A45,45,0,0,1,89.283-8.93ZM43.707-41.722h1.229m.947-12.216-1.148,15.03h-.8l-1.25-15.03m2.178,77.8H43.631m-.947,12.216,1.148-15.03h.8l1.25,15.03M11.5-8.352V-9.583M-.717-10.53,14.311-9.382v.8L-.717-7.329M77.072-9.507v1.231m12.211.947L74.255-8.48v-.8l15.028-1.25M.98,73.753l-1.7,35.972H8.738L10.27,76.719m77.316-2.966,1.7,35.972H79.828L78.3,76.719" transform="translate(0 0)" fill="none" stroke="#001dff" stroke-linecap="round" stroke-linejoin="round" stroke-width="0.5"></path></g><g id="Group_1508" data-name="Group 1508" transform="translate(2614.264 -653)"><path id="Path_1167-3" data-name="Path 1167" d="M0,0H90" transform="translate(153.5 1720.5)" fill="none" stroke="#001dff" stroke-width="1"></path><path id="Path_1693" data-name="Path 1693" d="M9.325-10.45A3.264,3.264,0,0,1,6-6.95a3.273,3.273,0,0,1-3.3-3.5A3.245,3.245,0,0,1,6-13.9,3.25,3.25,0,0,1,9.325-10.45ZM1.1-3.575A4.534,4.534,0,0,0,5.875.225C9.2.225,11.5-2.975,11.5-7.95a10.739,10.739,0,0,0-.9-4.7,4.9,4.9,0,0,0-4.575-2.925,4.976,4.976,0,0,0-5.15,5.15,4.922,4.922,0,0,0,4.975,5.1A4,4,0,0,0,9.725-7.95c0,.15.025.525.025.675,0,3.3-1.625,5.875-3.875,5.875A2.79,2.79,0,0,1,3.05-3.575ZM19.725.225C23.15.225,25.45-3,25.45-7.675s-2.3-7.9-5.725-7.9S14-12.35,14-7.675,16.3.225,19.725.225Zm0-14.025c2.475,0,3.8,2.55,3.8,6.125S22.2-1.55,19.725-1.55c-2.5,0-3.8-2.55-3.8-6.125S17.225-13.8,19.725-13.8ZM33.675.225C37.1.225,39.4-3,39.4-7.675s-2.3-7.9-5.725-7.9-5.725,3.225-5.725,7.9S30.25.225,33.675.225Zm0-14.025c2.475,0,3.8,2.55,3.8,6.125S36.15-1.55,33.675-1.55c-2.5,0-3.8-2.55-3.8-6.125S31.175-13.8,33.675-13.8Z" transform="translate(179.75 1745)" fill="#001dff"></path></g><g id="Group_1509" data-name="Group 1509" transform="translate(2669 -659)"><g id="Group_1003-3" data-name="Group 1003" transform="translate(-38)"><path id="Path_1694" data-name="Path 1694" d="M4.6-7.025H5.675C7.425-7.025,8.8-6,8.8-4.275a2.783,2.783,0,0,1-3.075,2.8,3.179,3.179,0,0,1-3.375-2.9H.425A4.963,4.963,0,0,0,5.75.225c3.075,0,4.925-2,4.925-4.525a3.62,3.62,0,0,0-2.7-3.575,3.547,3.547,0,0,0,2.4-3.5c0-2.45-1.75-4.2-4.675-4.2A4.874,4.874,0,0,0,.725-11.15H2.65A2.954,2.954,0,0,1,5.7-13.875a2.577,2.577,0,0,1,2.8,2.6A2.58,2.58,0,0,1,5.625-8.7H4.6ZM15.175-4.9A3.264,3.264,0,0,1,18.5-8.4a3.273,3.273,0,0,1,3.3,3.5,3.245,3.245,0,0,1-3.3,3.45A3.25,3.25,0,0,1,15.175-4.9ZM23.4-11.775a4.534,4.534,0,0,0-4.775-3.8C15.3-15.575,13-12.375,13-7.4a10.739,10.739,0,0,0,.9,4.7A4.9,4.9,0,0,0,18.475.225a4.976,4.976,0,0,0,5.15-5.15,4.922,4.922,0,0,0-4.975-5.1A4,4,0,0,0,14.775-7.4c0-.15-.025-.525-.025-.675,0-3.3,1.625-5.875,3.875-5.875a2.79,2.79,0,0,1,2.825,2.175Zm8.325,12C35.15.225,37.45-3,37.45-7.675s-2.3-7.9-5.725-7.9S26-12.35,26-7.675,28.3.225,31.725.225Zm0-14.025c2.475,0,3.8,2.55,3.8,6.125S34.2-1.55,31.725-1.55c-2.5,0-3.8-2.55-3.8-6.125S29.225-13.8,31.725-13.8Z" transform="translate(276.797 1701.1) rotate(-90)" fill="#001dff"></path><g id="Group_1001-3" data-name="Group 1001" transform="translate(252.92 1717.528)"><path id="Path_1134-3" data-name="Path 1134" d="M.734-17.528v-36" transform="translate(-0.734)" fill="none" stroke="#001dff" stroke-width="1"></path></g></g></g></g><path id="Path_1692" data-name="Path 1692" d="M-65.072-8.6h-1.106V0h1.106V-2.926l.924-.994L-60.914,0h1.372L-63.35-4.676l3.682-3.92h-1.4l-4,4.3Zm7.756,2.38h-1.05V0h1.05Zm.154-1.876a.675.675,0,0,0-.686-.672.672.672,0,0,0-.672.672.681.681,0,0,0,.672.672A.684.684,0,0,0-57.162-8.092ZM-54.39-9.1h-1.05V0h1.05Zm5.8,7.238A1.432,1.432,0,0,1-50.106-.77c-1.05,0-1.792-.812-1.806-2.142h4.4V-3.29c0-1.806-.91-3.052-2.618-3.052s-2.828,1.386-2.828,3.248c0,1.918,1.162,3.22,2.856,3.22A2.371,2.371,0,0,0-47.6-1.862ZM-50.12-5.446A1.561,1.561,0,0,1-48.58-3.71h-3.3A1.782,1.782,0,0,1-50.12-5.446ZM-43.442-4.3c0,2.674,1.68,4.424,3.85,4.424a3.226,3.226,0,0,0,3.346-2.66h-1.092A2.244,2.244,0,0,1-39.592-.868c-1.652,0-2.744-1.4-2.744-3.43s1.106-3.43,2.744-3.43a2.248,2.248,0,0,1,2.254,1.652h1.092a3.217,3.217,0,0,0-3.346-2.646C-41.762-8.722-43.442-6.972-43.442-4.3Zm13.93,1.19c0-1.9-1.162-3.234-2.856-3.234s-2.856,1.33-2.856,3.234S-34.076.126-32.368.126-29.512-1.2-29.512-3.108Zm-1.064,0c0,1.358-.672,2.31-1.792,2.31s-1.792-.952-1.792-2.31.672-2.31,1.792-2.31S-30.576-4.466-30.576-3.108Zm9.254-5.978a2.081,2.081,0,0,0-.826-.14,1.827,1.827,0,0,0-1.9,1.974v1.036h-2.6v-.868a.991.991,0,0,1,1.022-1.134,1.216,1.216,0,0,1,.658.168V-9a2.01,2.01,0,0,0-.812-.14,1.827,1.827,0,0,0-1.9,1.974v.952h-1.05v.9h1.05V0h1.036V-5.32h2.6V0H-23V-5.32h1.4v-.9H-23v-.952C-23-7.91-22.6-8.3-21.994-8.3a1.264,1.264,0,0,1,.672.168Zm4.76,7.224A1.432,1.432,0,0,1-18.074-.77c-1.05,0-1.792-.812-1.806-2.142h4.4V-3.29c0-1.806-.91-3.052-2.618-3.052S-20.93-4.956-20.93-3.094c0,1.918,1.162,3.22,2.856,3.22a2.371,2.371,0,0,0,2.506-1.988Zm-1.526-3.584a1.561,1.561,0,0,1,1.54,1.736h-3.3A1.782,1.782,0,0,1-18.088-5.446Zm7.952,3.584A1.432,1.432,0,0,1-11.648-.77c-1.05,0-1.792-.812-1.806-2.142h4.4V-3.29c0-1.806-.91-3.052-2.618-3.052S-14.5-4.956-14.5-3.094c0,1.918,1.162,3.22,2.856,3.22A2.371,2.371,0,0,0-9.142-1.862Zm-1.526-3.584a1.561,1.561,0,0,1,1.54,1.736h-3.3A1.782,1.782,0,0,1-11.662-5.446Zm6.58-2.17h3V0H-.98V-7.616h3V-8.6h-7.1ZM6.832,0V-4.144a2.108,2.108,0,0,0-2.366-2.2A2.252,2.252,0,0,0,2.142-4.578H3.178a1.205,1.205,0,0,1,1.274-.854A1.254,1.254,0,0,1,5.824-4.1v.784a2.663,2.663,0,0,0-1.568-.5,2.129,2.129,0,0,0-2.38,1.946A2.091,2.091,0,0,0,4.186.112,2.491,2.491,0,0,0,5.824-.462V0ZM5.824-1.54a1.556,1.556,0,0,1-1.456.77c-.756,0-1.484-.35-1.484-1.106s.728-1.078,1.484-1.078a1.556,1.556,0,0,1,1.456.77Zm3.85.812a2.189,2.189,0,0,0,1.75.854c1.82,0,2.8-1.47,2.8-3.234s-.98-3.234-2.8-3.234a2.189,2.189,0,0,0-1.75.854V-9.1H8.61V0H9.674Zm0-3.64a1.789,1.789,0,0,1,1.6-1.022c1.19,0,1.89.966,1.89,2.282s-.7,2.282-1.89,2.282a1.789,1.789,0,0,1-1.6-1.022ZM16.7-9.1h-1.05V0H16.7Zm5.8,7.238A1.432,1.432,0,0,1,20.986-.77c-1.05,0-1.792-.812-1.806-2.142h4.4V-3.29c0-1.806-.91-3.052-2.618-3.052S18.13-4.956,18.13-3.094c0,1.918,1.162,3.22,2.856,3.22a2.371,2.371,0,0,0,2.506-1.988ZM20.972-5.446a1.561,1.561,0,0,1,1.54,1.736h-3.3A1.782,1.782,0,0,1,20.972-5.446ZM28.154,0h5.488V-.994H29.26V-8.6H28.154ZM40.278-3.108c0-1.9-1.162-3.234-2.856-3.234s-2.856,1.33-2.856,3.234S35.714.126,37.422.126,40.278-1.2,40.278-3.108Zm-1.064,0c0,1.358-.672,2.31-1.792,2.31S35.63-1.75,35.63-3.108s.672-2.31,1.792-2.31S39.214-4.466,39.214-3.108Zm6.44-3.108h-.938L43.442-1.47,42.07-6.216H41.02L42.854,0h1.022l1.3-4.718L46.466,0h1.022l1.834-6.216H48.3L46.928-1.47Zm12.236.364a1.828,1.828,0,0,1-1.862,1.96,1.833,1.833,0,0,1-1.848-1.96,1.817,1.817,0,0,1,1.848-1.932A1.82,1.82,0,0,1,57.89-5.852ZM53.284-2A2.539,2.539,0,0,0,55.958.126c1.862,0,3.15-1.792,3.15-4.578a6.014,6.014,0,0,0-.5-2.632,2.745,2.745,0,0,0-2.562-1.638,2.786,2.786,0,0,0-2.884,2.884,2.757,2.757,0,0,0,2.786,2.856,2.241,2.241,0,0,0,2.17-1.47c0,.084.014.294.014.378,0,1.848-.91,3.29-2.17,3.29A1.562,1.562,0,0,1,54.376-2ZM63.434.126C65.352.126,66.64-1.68,66.64-4.3s-1.288-4.424-3.206-4.424S60.228-6.916,60.228-4.3,61.516.126,63.434.126Zm0-7.854c1.386,0,2.128,1.428,2.128,3.43s-.742,3.43-2.128,3.43S61.306-2.3,61.306-4.3,62.034-7.728,63.434-7.728Z" transform="translate(1731 2862)" fill="#001dff"></path></g><rect id="measuerments_background_box" data-name="measuerments background box" width="800" height="550" transform="translate(1173 2458.5)" fill="none"></rect></g></svg> 