<?xml version="1.0" encoding="UTF-8"?> <!-- Generator: Adobe Illustrator 17.0.0, SVG Export Plug-In . SVG Version: 6.00 Build 0) --> <svg xmlns="http://www.w3.org/2000/svg" xmlns:xlink="http://www.w3.org/1999/xlink" id="Layer_1" x="0px" y="0px" width="800px" height="550px" viewBox="0 0 800 550" xml:space="preserve"> <path id="Path_1064" fill="none" stroke="#001DFF" d="M421.375,302.198h87.269"></path> <path id="Path_1625" fill="#001DFF" d="M537.405,280.02v1.92l10.056,5.664h1.344v-6.792h3.336v-1.752h-3.336v-2.592h-1.584v2.592 h-3.552v1.752h3.552v4.7L537.405,280.02z M552.357,268.432c0-3.288-3.1-5.5-7.584-5.5s-7.584,2.208-7.584,5.5 c0,3.292,3.1,5.5,7.584,5.5S552.357,271.716,552.357,268.432z M538.893,268.432c0-2.376,2.448-3.648,5.88-3.648 s5.88,1.268,5.88,3.648c0,2.4-2.448,3.648-5.88,3.648S538.893,270.832,538.893,268.432z M552.357,254.556c0-3.288-3.1-5.5-7.584-5.5 s-7.584,2.208-7.584,5.5c0,3.292,3.1,5.5,7.584,5.5S552.357,257.844,552.357,254.556z M538.893,254.556 c0-2.376,2.448-3.648,5.88-3.648s5.88,1.272,5.88,3.648c0,2.4-2.448,3.648-5.88,3.648S538.893,256.956,538.893,254.556z"></path> <g id="Group_882" transform="translate(2158.753 359.99)"> <path id="Path_1068" fill="none" stroke="#001DFF" d="M-1630.125-71.49v-39.01"></path> </g> <g id="Group_883" transform="translate(2153.109 359.682)"> <path id="Path_1069" fill="none" stroke="#001DFF" d="M-1630.125-110.5h6.156"></path> </g> <g id="Group_1460" transform="translate(-4)"> <g id="Group_1098" transform="translate(1892.898 343.727)"> <path id="Path_1258" fill="none" stroke="#001DFF" stroke-width="0.5" stroke-linecap="round" stroke-linejoin="round" d=" M-1637.699-78.848c-0.177-0.004-0.325,0.136-0.329,0.313c0,0,0,0,0,0 M-1630.068-71.682h-7.449 M-1637.955-89.464 c-0.334,2.496-0.284,5.029,0.147,7.51 M-1636.214-91.414c-0.936,0.245-1.639,1.02-1.79,1.976 M-1561.134-82.023 c0.431-2.482,0.481-5.015,0.147-7.512 M-1560.864-89.509c-0.154-0.955-0.855-1.729-1.79-1.976 M-1563.142-80.056 c1.052-0.128,1.905-0.915,2.117-1.953 M-1637.367-90.609l37.972,0.137l38.045-0.209 M-1641.379-71.608 c0.725,0.099,1.461,0.087,2.183-0.036 M-1639.175-71.687c0.151-0.021,0.265-0.148,0.27-0.3 M-1641.678-71.914 c0.007,0.156,0.127,0.283,0.282,0.3 M-1621.92-94.922c-4.994-0.03-9.918,1.181-14.33,3.522 M-1621.889-94.853l14.385-0.557 l18.179-0.069 M-1636.214-91.415c-0.936,0.245-1.639,1.02-1.79,1.976 M-1635.849-79.974c4.919,0.651,9.883,0.895,14.842,0.728 M-1637.915-81.938c0.213,1.036,1.062,1.822,2.112,1.953 M-1637.882-82.258l19.2,0.417l19.206,0.14h19.2l19.206-0.277 M-1562.695-91.467c-4.411-2.344-9.335-3.555-14.33-3.524 M-1589.325-95.479l12.488,0.557 M-1577.937-79.322 c4.959,0.168,9.923-0.075,14.842-0.725 M-1621.014-79.27l45.129-0.071 M-1638.905-71.959v-20.179l-0.144-20.178 M-1639.125-112.373c-0.029-0.639-0.561-1.138-1.2-1.127 M-1641.533-112.316l-0.365,13.429v13.5l0.291,13.5 M-1640.401-113.5 c-0.635-0.013-1.166,0.48-1.2,1.114 M-1638.025-72.168V-78.5 M-1611.882-78.78v-0.069 M-1638.025-72.2 c0,0.121,0.051,0.237,0.14,0.32c0.091,0.086,0.211,0.133,0.336,0.133 M-1607.428-78.776v-0.069 M-1630.069-55.608v-20.8 M-1626.053-55.608v-20.8 M-1638.025-76.725c0.002,0.084,0.038,0.163,0.1,0.22c0.063,0.059,0.146,0.092,0.232,0.092 M-1637.657-78.78h76.6 M-1637.657-76.413h76.6 M-1626.048-71.683h53.302 M-1568.73-71.683h7.595 M-1626.052-55.608h-4.017 M-1640.363-71.542l0.071-41.888l3.434-1.49 M-1559.673-112.32l-0.22,20.178v20.183 M-1558.542-113.5 c-0.641-0.014-1.176,0.487-1.205,1.128 M-1557.192-71.89l0.294-13.5v-13.5l-0.367-13.426 M-1557.265-112.387 c-0.035-0.635-0.567-1.127-1.203-1.113 M-1568.725-55.608v-20.8 M-1568.725-55.608h-4.019v-20.8 M-1560.77-78.531 c-0.004-0.177-0.15-0.317-0.327-0.313c0,0,0,0,0,0 M-1560.77-72.164V-78.5 M-1561.317-71.751c0.125,0,0.245-0.047,0.336-0.133 c0.089-0.083,0.14-0.199,0.14-0.32 M-1561.097-76.413c0.086,0.002,0.169-0.029,0.232-0.087c0.06-0.057,0.094-0.137,0.095-0.22 M-1559.67-71.639c0.722,0.123,1.458,0.135,2.183,0.036 M-1559.965-71.99c0.005,0.152,0.119,0.279,0.27,0.3 M-1557.474-71.619 c0.155-0.018,0.274-0.145,0.282-0.3 M-1635.066-133.027c-0.546,0.103-0.994,0.491-1.172,1.017 M-1635.066-133.027 c-0.546,0.103-0.994,0.491-1.172,1.017 M-1630.268-133.043c-1.587-0.017-3.175-0.02-4.765-0.009 M-1562.547-132.078 c-0.177-0.526-0.625-0.914-1.17-1.017 M-1563.679-133.114c-2.261-0.019-4.524-0.019-6.787,0 M-1562.26-94.414l0.22-12.562 l-0.073-12.558l-0.365-12.5 M-1565.085-92.486c0.659,0.32,1.44,0.261,2.044-0.154c0.589-0.395,0.883-1.104,0.748-1.8 M-1570.51-133.061l-14.9-0.41l-14.972-0.137l-14.969,0.137l-14.9,0.479 M-1636.371-94.41l-0.217-12.562l0.073-12.562l0.365-12.5 M-1633.543-92.486c-0.66,0.32-1.441,0.261-2.046-0.154c-0.588-0.396-0.882-1.104-0.748-1.8 M-1562.087-114.92l3.581,1.49 l0.073,41.888"></path> </g> <g id="Group_876" transform="translate(1891.125 412.698)"> <path id="Path_1062" fill="none" stroke="#001DFF" d="M-1640.125-110.5h84.875"></path> </g> <path id="Path_1622" fill="#001DFF" d="M280.301,324.993c-1.664,0.165-3.146-1.05-3.311-2.714 c-0.008-0.079-0.013-0.157-0.014-0.236c0.046-1.669,1.437-2.985,3.107-2.939c0.073,0.002,0.146,0.007,0.218,0.014 c1.95,0,3.35,1.2,3.35,2.925C283.651,323.793,282.251,324.993,280.301,324.993z M280.301,317.468 c-1.426,0.116-2.676-0.945-2.792-2.371c-0.004-0.051-0.007-0.103-0.008-0.154c0.02-1.432,1.197-2.578,2.63-2.558 c0.057,0.001,0.114,0.003,0.17,0.008c1.431-0.124,2.691,0.934,2.816,2.365c0.005,0.062,0.009,0.123,0.009,0.185 c-0.036,1.435-1.229,2.57-2.664,2.534C280.408,317.476,280.354,317.473,280.301,317.468z M280.301,326.593 c2.975,0,5.25-1.75,5.25-4.4c0.022-1.837-1.219-3.45-3-3.9c1.475-0.502,2.462-1.892,2.45-3.45c0-2.475-2.075-4.05-4.7-4.05 c-2.6,0-4.675,1.575-4.675,4.05c-0.022,1.561,0.969,2.956,2.45,3.45c-1.787,0.442-3.031,2.06-3,3.9 C275.076,324.843,277.351,326.593,280.301,326.593z M292.901,318.118c1.751,0.007,3.165,1.432,3.158,3.184 c0,0.072-0.003,0.144-0.008,0.216c0.128,1.732-1.173,3.239-2.904,3.367c-0.073,0.005-0.147,0.008-0.221,0.008 c-1.719,0.104-3.207-1.184-3.35-2.9h-1.925c0.199,2.721,2.552,4.773,5.275,4.6c2.691,0.058,4.92-2.076,4.978-4.768 c0.002-0.102,0.001-0.205-0.003-0.307c0.171-2.64-1.831-4.919-4.472-5.09c-0.118-0.008-0.235-0.011-0.353-0.01 c-1.019-0.015-2.011,0.33-2.8,0.975v-4.625h6.75v-1.75h-8.4v8.425h1.55C290.837,318.611,291.839,318.124,292.901,318.118z M305.926,326.593c3.425,0,5.725-3.225,5.725-7.9c0-4.675-2.3-7.9-5.725-7.9c-3.425,0-5.725,3.225-5.725,7.9 C300.201,323.368,302.501,326.593,305.926,326.593z M305.926,312.568c2.475,0,3.8,2.55,3.8,6.125c0,3.575-1.325,6.125-3.8,6.125 c-2.5,0-3.8-2.55-3.8-6.125C302.126,315.118,303.426,312.568,305.926,312.568z"></path> <path id="Path_1623" fill="#001DFF" d="M360.462,257.532h-1.525v9.925h1.75v-7.9l13.6,5.425v-1.975L360.462,257.532z M372.912,250.507c0.165,1.664-1.05,3.146-2.714,3.311c-0.079,0.008-0.157,0.012-0.236,0.014c-1.669-0.046-2.985-1.437-2.939-3.107 c0.002-0.073,0.007-0.146,0.014-0.218c0-1.95,1.2-3.35,2.925-3.35C371.712,247.157,372.912,248.557,372.912,250.507z M365.387,250.507c0.116,1.426-0.945,2.676-2.371,2.792c-0.051,0.004-0.103,0.007-0.154,0.008c-1.432-0.02-2.578-1.197-2.558-2.63 c0.001-0.057,0.003-0.114,0.008-0.17c-0.124-1.431,0.934-2.691,2.365-2.816c0.062-0.005,0.123-0.009,0.185-0.009 c1.435,0.036,2.57,1.229,2.534,2.664C365.395,250.4,365.392,250.454,365.387,250.507z M374.512,250.507c0-2.975-1.75-5.25-4.4-5.25 c-1.837-0.022-3.45,1.219-3.9,3c-0.502-1.475-1.892-2.462-3.45-2.45c-2.475,0-4.05,2.075-4.05,4.7c0,2.6,1.575,4.675,4.05,4.675 c1.561,0.022,2.956-0.969,3.45-2.45c0.442,1.787,2.06,3.031,3.9,3C372.762,255.732,374.512,253.457,374.512,250.507z M374.512,237.182c0-3.425-3.225-5.725-7.9-5.725c-4.675,0-7.9,2.3-7.9,5.725s3.225,5.725,7.9,5.725 C371.287,242.907,374.512,240.607,374.512,237.182z M360.487,237.182c0-2.475,2.55-3.8,6.125-3.8c3.575,0,6.125,1.325,6.125,3.8 c0,2.5-2.55,3.8-6.125,3.8C363.037,240.982,360.487,239.682,360.487,237.182z"></path> <g id="Group_879" transform="translate(1990.243 320.619)"> <path id="Path_1065" fill="none" stroke="#001DFF" d="M-1640.125-32.375V-110.5"></path> </g> </g> <path id="Path_1621" fill="#001DFF" d="M355.936,376.306c1.736,0,2.828-0.9,2.828-2.576c0-1.676-1.092-2.58-2.828-2.58h-3.22v8.6 h1.106v-3.444H355.936z M357.672,373.73c0,0.966-0.6,1.6-1.764,1.6h-2.086v-3.21h2.086c0.842-0.124,1.625,0.457,1.75,1.299 C357.673,373.522,357.678,373.626,357.672,373.73z M363.762,377.888c-0.165,0.687-0.808,1.151-1.512,1.092 c-1.05,0-1.792-0.812-1.806-2.142h4.4v-0.378c0-1.806-0.91-3.052-2.618-3.052c-1.708,0-2.828,1.386-2.828,3.248 c0,1.918,1.162,3.22,2.856,3.22c1.224,0.085,2.311-0.777,2.506-1.988H363.762z M362.236,374.304c0.862,0.006,1.556,0.71,1.55,1.572 c0,0.055-0.004,0.109-0.01,0.164h-3.3C360.501,375.082,361.278,374.316,362.236,374.304z M366.236,379.75h1.05v-4.214 c0.225-0.686,0.86-1.153,1.582-1.162c0.713-0.05,1.331,0.487,1.381,1.2c0.006,0.09,0.003,0.18-0.009,0.27v3.906h1.064v-4.074 c0.121-1.127-0.694-2.14-1.821-2.261c-0.12-0.013-0.242-0.015-0.363-0.007c-0.719,0.003-1.397,0.339-1.834,0.91v-0.784h-1.05V379.75 z M372.564,378.042c0.25,1.178,1.356,1.972,2.552,1.834c1.33,0,2.31-0.7,2.31-1.876c0-0.868-0.518-1.456-1.582-1.736l-1.2-0.294 c-0.588-0.168-0.868-0.364-0.868-0.784c0-0.6,0.574-0.9,1.19-0.9c0.61-0.075,1.187,0.296,1.372,0.882h1.05 c-0.216-1.129-1.267-1.899-2.408-1.764c-1.085-0.14-2.077,0.625-2.218,1.71c-0.005,0.043-0.01,0.085-0.012,0.128 c0,0.966,0.616,1.414,1.5,1.638l1.232,0.322c0.644,0.168,0.924,0.434,0.924,0.868c0,0.63-0.532,0.924-1.274,0.924 c-0.654,0.072-1.268-0.326-1.47-0.952H372.564z M379.928,373.534h-1.05v6.216h1.05V373.534z M380.082,371.658 c-0.002-0.373-0.305-0.674-0.678-0.672c-0.003,0-0.005,0-0.008,0c-0.371,0-0.672,0.301-0.672,0.672l0,0 c0.005,0.369,0.303,0.667,0.672,0.672c0.375,0.003,0.683-0.297,0.69-0.672H380.082z M384.566,379.75l2.422-6.216h-1.106 l-1.806,4.886l-1.82-4.886h-1.134l2.408,6.216H384.566z M391.986,377.888c-0.165,0.687-0.808,1.151-1.512,1.092 c-1.05,0-1.792-0.812-1.806-2.142h4.4v-0.378c0-1.806-0.91-3.052-2.618-3.052c-1.708,0-2.828,1.386-2.828,3.248 c0,1.918,1.162,3.22,2.856,3.22c1.222,0.083,2.307-0.778,2.502-1.988H391.986z M390.46,374.304c0.862,0.006,1.556,0.71,1.55,1.572 c0,0.055-0.004,0.109-0.01,0.164h-3.3C388.725,375.082,389.502,374.316,390.46,374.304z M400.274,371.15l-3.36,8.6h1.12l0.98-2.59 h3.542l0.994,2.59h1.12l-3.36-8.6H400.274z M400.774,372.522l1.4,3.668h-2.796L400.774,372.522z M409.09,373.502 c-0.191-0.073-0.395-0.108-0.6-0.1c-0.648,0-1.242,0.362-1.54,0.938v-0.812h-1.05v6.222h1.05v-4.172 c0.157-0.673,0.753-1.152,1.444-1.162c0.244-0.009,0.487,0.049,0.7,0.168L409.09,373.502z M414.802,374.402 c-0.32-0.629-0.975-1.016-1.68-0.994c-0.67-0.024-1.305,0.299-1.68,0.854v-0.728H410.4v6.216h1.05v-4.284 c0.154-0.635,0.715-1.088,1.368-1.106c0.8,0,1.176,0.574,1.176,1.442v3.948h1.05v-4.284c0.155-0.636,0.717-1.09,1.372-1.106 c0.8,0,1.176,0.574,1.176,1.442v3.948h1.064v-4.116c0-1.344-0.7-2.226-1.96-2.226c-0.757-0.008-1.468,0.366-1.89,0.994H414.802z M419.982,376.642c0,1.932,1.162,3.234,2.828,3.234c1.226,0.089,2.313-0.784,2.492-2h-1.074c-0.132,0.664-0.739,1.124-1.414,1.074 c-1.064,0-1.764-0.952-1.764-2.31c0-1.358,0.7-2.31,1.764-2.31c0.677-0.05,1.284,0.414,1.414,1.08h1.078 c-0.179-1.216-1.266-2.089-2.492-2c-1.666-0.002-2.828,1.3-2.828,3.232H419.982z M426.678,379.75h1.05v-4.214 c0.225-0.686,0.86-1.153,1.582-1.162c0.713-0.05,1.331,0.487,1.381,1.2c0.006,0.09,0.003,0.18-0.009,0.27v3.906h1.064v-4.074 c0.121-1.127-0.694-2.14-1.821-2.261c-0.121-0.013-0.242-0.015-0.363-0.007c-0.719,0.003-1.397,0.339-1.834,0.91v-3.668h-1.05 V379.75z M438.032,379.75v-4.144c0.06-1.163-0.834-2.154-1.997-2.213c-0.123-0.006-0.247-0.002-0.369,0.013 c-1.102-0.061-2.086,0.686-2.324,1.764h1.036c0.165-0.553,0.7-0.911,1.274-0.854c0.689-0.067,1.302,0.438,1.369,1.127 c0.007,0.069,0.008,0.138,0.003,0.207v0.784c-0.457-0.328-1.006-0.503-1.568-0.5c-1.167-0.142-2.229,0.689-2.371,1.856 c-0.004,0.03-0.007,0.06-0.009,0.09c0.054,1.154,1.032,2.045,2.186,1.991c0.041-0.002,0.083-0.005,0.124-0.009 c0.597,0.011,1.178-0.192,1.638-0.574v0.462H438.032z M437.024,378.21c-0.299,0.514-0.863,0.812-1.456,0.77 c-0.756,0-1.484-0.35-1.484-1.106c0-0.756,0.728-1.078,1.484-1.078c0.593-0.042,1.157,0.256,1.456,0.77V378.21z M440.874,373.534 h-1.05v6.216h1.05V373.534z M441.028,371.658c-0.002-0.373-0.305-0.674-0.678-0.672c-0.003,0-0.005,0-0.008,0 c-0.371,0-0.672,0.301-0.672,0.672l0,0c0.005,0.369,0.303,0.667,0.672,0.672C440.716,372.331,441.021,372.032,441.028,371.658z M445.942,373.506c-0.191-0.073-0.395-0.108-0.6-0.1c-0.65,0.001-1.246,0.365-1.542,0.944v-0.812h-1.05v6.212h1.05v-4.172 c0.157-0.672,0.752-1.151,1.442-1.162c0.244-0.009,0.487,0.049,0.7,0.168L445.942,373.506z"></path> <g> <path fill="none" stroke="#001DFF" stroke-width="0.5" stroke-linecap="round" stroke-linejoin="round" d="M423.426,229.504 c-0.739,0-1.337,0.614-1.337,1.371"></path> <path fill="none" stroke="#001DFF" stroke-width="0.5" stroke-linecap="round" stroke-linejoin="round" d="M431.024,210.121 c-2.691-0.07-5.319,0.846-7.411,2.583"></path> <polyline fill="none" stroke="#001DFF" stroke-width="0.5" stroke-linecap="round" stroke-linejoin="round" points=" 423.426,212.953 423.515,221.182 423.872,229.412 "></polyline> <path fill="none" stroke="#001DFF" stroke-width="0.5" stroke-linecap="round" stroke-linejoin="round" d="M423.577,212.701 c-0.082,0.074-0.134,0.176-0.148,0.287"></path> <path fill="none" stroke="#001DFF" stroke-width="0.5" stroke-linecap="round" stroke-linejoin="round" d="M441.851,229.074 c-2.686-6.83-6.357-13.208-10.891-18.92"></path> <polyline fill="none" stroke="#001DFF" stroke-width="0.5" stroke-linecap="round" stroke-linejoin="round" points=" 427.973,229.321 426.012,220.908 423.782,212.587 "></polyline> <line fill="none" stroke="#001DFF" stroke-width="0.5" stroke-linecap="round" stroke-linejoin="round" x1="435.819" y1="229.138" x2="430.648" y2="210.118"></line> <polyline fill="none" stroke="#001DFF" stroke-width="0.5" stroke-linecap="round" stroke-linejoin="round" points=" 504.562,229.504 477.553,228.955 450.543,228.955 423.426,229.504 "></polyline> <polyline fill="none" stroke="#001DFF" stroke-width="0.5" stroke-linecap="round" stroke-linejoin="round" points=" 422.089,230.875 421.554,241.209 421.375,251.45 421.464,261.784 421.91,272.025 "></polyline> <path fill="none" stroke="#001DFF" stroke-width="0.5" stroke-linecap="round" stroke-linejoin="round" d="M421.912,272.099 c0.039,0.728,0.625,1.298,1.335,1.298"></path> <g> <path fill="none" stroke="#001DFF" stroke-width="0.5" stroke-linecap="round" stroke-linejoin="round" d="M505.899,230.875 c0-0.758-0.599-1.371-1.337-1.371"></path> <polyline fill="none" stroke="#001DFF" stroke-width="0.5" stroke-linecap="round" stroke-linejoin="round" points=" 505.543,272.116 506.078,258.4 506.167,244.592 505.988,230.876 "></polyline> <path fill="none" stroke="#001DFF" stroke-width="0.5" stroke-linecap="round" stroke-linejoin="round" d="M504.205,273.397 c0.708,0,1.294-0.567,1.335-1.292"></path> </g> <path fill="none" stroke="#001DFF" stroke-width="0.5" stroke-linecap="round" stroke-linejoin="round" d="M507.117,252.807 c-0.333-0.09-0.666-0.177-1-0.261"></path> <path fill="none" stroke="#001DFF" stroke-width="0.5" stroke-linecap="round" stroke-linejoin="round" d="M508.252,264.487 c1.128-3.165,1.339-6.598,0.608-9.883"></path> <path fill="none" stroke="#001DFF" stroke-width="0.5" stroke-linecap="round" stroke-linejoin="round" d="M508.806,254.633 c-0.257-0.848-0.887-1.524-1.702-1.826"></path> <path fill="none" stroke="#001DFF" stroke-width="0.5" stroke-linecap="round" stroke-linejoin="round" d="M505.907,265.614 c0.932-0.067,1.789-0.464,2.36-1.095"></path> <line fill="none" stroke="#001DFF" stroke-width="0.5" stroke-linecap="round" stroke-linejoin="round" x1="506.101" y1="254.741" x2="508.842" y2="254.65"></line> <line fill="none" stroke="#001DFF" stroke-width="0.5" stroke-linecap="round" stroke-linejoin="round" x1="505.834" y1="264.634" x2="508.218" y2="264.527"></line> <line fill="none" stroke="#001DFF" stroke-width="0.5" stroke-linecap="round" stroke-linejoin="round" x1="503.849" y1="288.119" x2="507.504" y2="288.119"></line> <line fill="none" stroke="#001DFF" stroke-width="0.5" stroke-linecap="round" stroke-linejoin="round" x1="503.849" y1="273.397" x2="423.248" y2="273.397"></line> <line fill="none" stroke="#001DFF" stroke-width="0.5" stroke-linecap="round" stroke-linejoin="round" x1="509.109" y1="268.642" x2="505.678" y2="268.642"></line> <line fill="none" stroke="#001DFF" stroke-width="0.5" stroke-linecap="round" stroke-linejoin="round" x1="509.109" y1="266.356" x2="505.767" y2="266.356"></line> <line fill="none" stroke="#001DFF" stroke-width="0.5" stroke-linecap="round" stroke-linejoin="round" x1="509.377" y1="266.63" x2="509.377" y2="268.368"></line> <path fill="none" stroke="#001DFF" stroke-width="0.5" stroke-linecap="round" stroke-linejoin="round" d="M509.377,266.63 c0-0.151-0.119-0.274-0.267-0.274"></path> <path fill="none" stroke="#001DFF" stroke-width="0.5" stroke-linecap="round" stroke-linejoin="round" d="M509.109,268.642 c0.148,0,0.267-0.122,0.267-0.274"></path> <line fill="none" stroke="#001DFF" stroke-width="0.5" stroke-linecap="round" stroke-linejoin="round" x1="507.504" y1="268.642" x2="507.504" y2="288.119"></line> <line fill="none" stroke="#001DFF" stroke-width="0.5" stroke-linecap="round" stroke-linejoin="round" x1="503.849" y1="273.397" x2="503.849" y2="288.119"></line> <line fill="none" stroke="#001DFF" stroke-width="0.5" stroke-linecap="round" stroke-linejoin="round" x1="423.426" y1="273.397" x2="423.426" y2="288.119"></line> <polyline fill="none" stroke="#001DFF" stroke-width="0.5" stroke-linecap="round" stroke-linejoin="round" points=" 427.082,273.397 427.082,288.119 423.426,288.119 "></polyline> </g> <text transform="matrix(1 0 0 1 446.6226 326.4551)" fill="#001DFF" font-family="'Calibre-Regular'" font-size="24.9553">880</text> </svg> 