<?xml version="1.0" encoding="UTF-8"?> <svg xmlns="http://www.w3.org/2000/svg" width="800" height="550" viewBox="0 0 800 550"><g id="diagram-Portobello-Sofa-Wood" transform="translate(-2043 -368.5)"><path id="Path_1777" data-name="Path 1777" d="M4.242-3.444c1.736,0,2.828-.9,2.828-2.576S5.978-8.6,4.242-8.6H1.022V0H2.128V-3.444ZM5.978-6.02c0,.966-.6,1.6-1.764,1.6H2.128V-7.63H4.214A1.541,1.541,0,0,1,5.978-6.02Zm7.434,2.912c0-1.9-1.162-3.234-2.856-3.234S7.7-5.012,7.7-3.108,8.848.126,10.556.126,13.412-1.2,13.412-3.108Zm-1.064,0c0,1.358-.672,2.31-1.792,2.31S8.764-1.75,8.764-3.108s.672-2.31,1.792-2.31S12.348-4.466,12.348-3.108Zm5.684-3.136a1.518,1.518,0,0,0-.6-.1,1.735,1.735,0,0,0-1.54.938v-.812H14.84V0h1.05V-4.172a1.505,1.505,0,0,1,1.442-1.162,1.329,1.329,0,0,1,.7.168Zm1.6,4.676A1.55,1.55,0,0,0,21.336.126a2.209,2.209,0,0,0,.98-.21v-.98a1.547,1.547,0,0,1-.812.252c-.532,0-.826-.266-.826-.868V-5.32h1.5v-.9h-1.5V-7.854h-1.05v1.638H18.62v.9h1.008Zm9.338-1.54c0-1.9-1.162-3.234-2.856-3.234s-2.856,1.33-2.856,3.234S24.4.126,26.11.126,28.966-1.2,28.966-3.108Zm-1.064,0C27.9-1.75,27.23-.8,26.11-.8s-1.792-.952-1.792-2.31.672-2.31,1.792-2.31S27.9-4.466,27.9-3.108Zm3.542,2.38a2.189,2.189,0,0,0,1.75.854c1.82,0,2.8-1.47,2.8-3.234s-.98-3.234-2.8-3.234a2.189,2.189,0,0,0-1.75.854V-9.1H30.38V0h1.064Zm0-3.64a1.789,1.789,0,0,1,1.6-1.022c1.19,0,1.89.966,1.89,2.282s-.7,2.282-1.89,2.282a1.789,1.789,0,0,1-1.6-1.022ZM41.37-1.862A1.432,1.432,0,0,1,39.858-.77c-1.05,0-1.792-.812-1.806-2.142h4.4V-3.29c0-1.806-.91-3.052-2.618-3.052S37-4.956,37-3.094c0,1.918,1.162,3.22,2.856,3.22a2.371,2.371,0,0,0,2.506-1.988ZM39.844-5.446a1.561,1.561,0,0,1,1.54,1.736h-3.3A1.782,1.782,0,0,1,39.844-5.446ZM44.9-9.1h-1.05V0H44.9Zm2.926,0h-1.05V0h1.05Zm7.14,5.992c0-1.9-1.162-3.234-2.856-3.234s-2.856,1.33-2.856,3.234S50.4.126,52.108.126,54.964-1.2,54.964-3.108Zm-1.064,0c0,1.358-.672,2.31-1.792,2.31s-1.792-.952-1.792-2.31.672-2.31,1.792-2.31S53.9-4.466,53.9-3.108Zm4.97.868a3.081,3.081,0,0,0,3.3,2.366c1.708,0,2.968-.938,2.968-2.492,0-1.218-.77-1.96-2.142-2.31l-1.47-.378c-.9-.238-1.372-.588-1.372-1.316,0-.882.756-1.414,1.778-1.414a1.969,1.969,0,0,1,2.044,1.33h1.106a2.927,2.927,0,0,0-3.15-2.268,2.548,2.548,0,0,0-2.828,2.436c0,1.3.868,1.9,2.058,2.212l1.54.406c.994.252,1.372.686,1.372,1.358,0,.952-.784,1.5-1.9,1.5A2.122,2.122,0,0,1,59.99-2.24Zm13.076-.868c0-1.9-1.162-3.234-2.856-3.234s-2.856,1.33-2.856,3.234S67.382.126,69.09.126,71.946-1.2,71.946-3.108Zm-1.064,0c0,1.358-.672,2.31-1.792,2.31S67.3-1.75,67.3-3.108s.672-2.31,1.792-2.31S70.882-4.466,70.882-3.108Zm5.6-5.978a2.01,2.01,0,0,0-.812-.14,1.827,1.827,0,0,0-1.9,1.974v1.036h-1.05v.9h1.05V0H74.8V-5.32h1.4v-.9H74.8v-.952A.991.991,0,0,1,75.824-8.3a1.216,1.216,0,0,1,.658.168ZM81.788,0V-4.144a2.108,2.108,0,0,0-2.366-2.2A2.252,2.252,0,0,0,77.1-4.578h1.036a1.205,1.205,0,0,1,1.274-.854A1.254,1.254,0,0,1,80.78-4.1v.784a2.663,2.663,0,0,0-1.568-.5,2.129,2.129,0,0,0-2.38,1.946A2.091,2.091,0,0,0,79.142.112,2.491,2.491,0,0,0,80.78-.462V0ZM80.78-1.54a1.556,1.556,0,0,1-1.456.77c-.756,0-1.484-.35-1.484-1.106s.728-1.078,1.484-1.078a1.556,1.556,0,0,1,1.456.77Zm5.376-2.422a5.044,5.044,0,0,0,3.752,5.138V.056a3.888,3.888,0,0,1-2.7-4.018,3.888,3.888,0,0,1,2.7-4.018V-9.1A5.044,5.044,0,0,0,86.156-3.962Zm8.82-2.254h-.938L92.764-1.47,91.392-6.216h-1.05L92.176,0H93.2l1.3-4.718L95.788,0H96.81l1.834-6.216H97.622L96.25-1.47ZM105.1-3.108c0-1.9-1.162-3.234-2.856-3.234s-2.856,1.33-2.856,3.234S100.534.126,102.242.126,105.1-1.2,105.1-3.108Zm-1.064,0c0,1.358-.672,2.31-1.792,2.31s-1.792-.952-1.792-2.31.672-2.31,1.792-2.31S104.034-4.466,104.034-3.108Zm7.784,0c0-1.9-1.162-3.234-2.856-3.234s-2.856,1.33-2.856,3.234S107.254.126,108.962.126,111.818-1.2,111.818-3.108Zm-1.064,0c0,1.358-.672,2.31-1.792,2.31s-1.792-.952-1.792-2.31.672-2.31,1.792-2.31S110.754-4.466,110.754-3.108ZM117.376,0h1.064V-9.1h-1.064v3.612a2.189,2.189,0,0,0-1.75-.854c-1.82,0-2.8,1.484-2.8,3.234s.98,3.234,2.8,3.234a2.189,2.189,0,0,0,1.75-.854Zm0-1.848a1.789,1.789,0,0,1-1.6,1.022c-1.19,0-1.89-.966-1.89-2.282s.7-2.282,1.89-2.282a1.789,1.789,0,0,1,1.6,1.022Zm7.07,1.12a2.189,2.189,0,0,0,1.75.854c1.82,0,2.8-1.47,2.8-3.234s-.98-3.234-2.8-3.234a2.189,2.189,0,0,0-1.75.854V-9.1h-1.064V0h1.064Zm0-3.64a1.789,1.789,0,0,1,1.6-1.022c1.19,0,1.89.966,1.89,2.282s-.7,2.282-1.89,2.282a1.789,1.789,0,0,1-1.6-1.022ZM134.932,0V-4.144a2.108,2.108,0,0,0-2.366-2.2,2.252,2.252,0,0,0-2.324,1.764h1.036a1.205,1.205,0,0,1,1.274-.854,1.254,1.254,0,0,1,1.372,1.33v.784a2.663,2.663,0,0,0-1.568-.5,2.129,2.129,0,0,0-2.38,1.946,2.091,2.091,0,0,0,2.31,1.988,2.491,2.491,0,0,0,1.638-.574V0Zm-1.008-1.54a1.556,1.556,0,0,1-1.456.77c-.756,0-1.484-.35-1.484-1.106s.728-1.078,1.484-1.078a1.556,1.556,0,0,1,1.456.77Zm2.282-.168A2.335,2.335,0,0,0,138.754.126c1.33,0,2.31-.7,2.31-1.876,0-.868-.518-1.456-1.582-1.736l-1.2-.294c-.588-.168-.868-.364-.868-.784,0-.6.574-.9,1.19-.9a1.275,1.275,0,0,1,1.372.882h1.05a2.19,2.19,0,0,0-2.408-1.764,1.98,1.98,0,0,0-2.226,1.834c0,.966.616,1.414,1.5,1.638l1.232.322c.644.168.924.434.924.868,0,.63-.532.924-1.274.924a1.386,1.386,0,0,1-1.47-.952Zm10.234-.154A1.432,1.432,0,0,1,144.928-.77c-1.05,0-1.792-.812-1.806-2.142h4.4V-3.29c0-1.806-.91-3.052-2.618-3.052s-2.828,1.386-2.828,3.248c0,1.918,1.162,3.22,2.856,3.22a2.371,2.371,0,0,0,2.506-1.988Zm-1.526-3.584a1.561,1.561,0,0,1,1.54,1.736h-3.3A1.782,1.782,0,0,1,144.914-5.446Zm7.1,1.484A5.044,5.044,0,0,0,148.26-9.1v1.12a3.888,3.888,0,0,1,2.7,4.018,3.888,3.888,0,0,1-2.7,4.018v1.12A5.044,5.044,0,0,0,152.012-3.962Z" transform="translate(2367 749.25)" fill="#001dff"></path><g id="Group_1547" data-name="Group 1547" transform="translate(0.5)"><g id="Group_1545" data-name="Group 1545"><path id="Path_1397" data-name="Path 1397" d="M97.936,11.3l.057,1.478L98,14.26l-.04,1.478-.09,1.476-.135,1.474-.109.869-.127.869-.151.865-.2.978-.227.971-.26.964-.288.952-.321.943-.349.929-.378.919-.408.9-.437.891-.465.872-.418.737-.434.725-.451.713-.732,1.094-.767,1.066-.4.533-.418.538-.439.535-.458.533-.491.54-.507.524-.522.507-.536.49-.3.261-.307.256-.314.251-.316.242-.321.239-.326.23-.328.227-.333.218-.38.239-.387.235-.394.225-.4.22-.4.213-.408.206-.833.391-.489.216-.491.2-1,.384-1.015.351-1.029.32-1.232.339-1.246.3-1.256.265-1.263.232-1.522.239-1.529.2-1.536.163-1.536.133-2.466.149-2.469.083-2.473.028H-32.169l-3.873-.069-1.768-.078-1.765-.114-1.609-.14-1.6-.175-1.458-.192-1.456-.23-1.314-.244-1.307-.277-1.194-.291-1.178-.325-1.029-.32-1.01-.351-1-.384-.5-.2-.479-.216-.437-.2-.427-.206-.418-.213-.42-.22-.382-.213-.375-.218-.382-.227-.366-.235-.333-.218-.33-.227-.323-.23-.321-.239-.323-.244-.314-.249-.3-.256-.307-.261-.531-.49-.522-.507-.507-.524-.5-.54-.453-.533-.437-.535-.427-.538-.4-.533-.767-1.066-.732-1.094-.453-.713-.427-.725-.418-.737-.463-.872-.444-.891-.4-.9-.385-.919-.347-.929-.323-.943-.288-.952-.253-.964-.227-.971-.2-.978-.113-.649-.1-.649-.087-.654-.078-.651-.132-1.381-.087-1.384-.042-1.459V13l.017-.85.045-.85M82.86-8.028l.755.043.894.069.864.088.828.107.8.13.382.073.375.081.366.085.356.092.347.1.34.107.333.114.321.118.326.13.314.137.307.145.3.152.29.161.283.166.274.175.267.18.156.114.153.114.151.118.151.121.179.152.175.154.172.159.17.163.165.166.163.168.158.173.156.175.222.261.212.268.205.27.2.277.191.282.186.284.179.289.175.294.172.31.168.313.16.315.156.322L96.5.006l.144.327L96.916,1l.257.692.238.7.217.713.2.72.184.744.168.749.146.753.132.753.151,1.026.127,1.026.1,1.031.1,1.483.052,1.485,0,1.485-.042,1.485-.09,1.485-.137,1.478-.083.673-.092.673-.106.668-.118.668-.125.644-.139.64-.151.637-.163.633-.175.618-.184.614-.2.609-.208.6-.222.6-.231.592-.245.585-.255.583-.269.58L95.47,30l-.29.571-.3.561-.427.758L94,32.637l-.463.737-.753,1.118L92,35.587l-.413.55-.434.554-.451.552-.474.55-.5.552-.524.543-.548.535-.573.521-.316.275-.323.265-.328.263-.33.256-.337.249-.34.242-.345.237-.347.227-.4.251-.4.242-.408.237-.415.227-.42.223-.425.213-.866.407-.5.22-.507.211-1.029.4-1.045.36-1.06.327-1.26.348-1.27.308-1.284.27-1.289.239-1.546.242-1.55.2-1.558.166-1.56.133-2.8.166-2.808.083-1.869.017H-32.169l-3.906-.069-1.786-.081-1.786-.116-1.628-.14-1.626-.175-1.484-.2-1.473-.232-1.343-.249-1.343-.287-1.211-.3-1.211-.334-1.055-.327-1.045-.36-1.029-.4-.505-.211-.507-.22-.444-.2-.444-.213-.437-.223-.437-.23-.4-.22-.394-.23-.392-.237-.392-.244-.349-.227-.34-.237-.34-.242-.34-.249-.33-.256-.323-.263-.321-.265-.323-.275-.566-.521-.55-.535-.522-.543-.507-.552-.47-.55-.453-.552-.437-.554-.408-.55-.786-1.095-.758-1.118-.463-.737-.444-.746-.427-.758-.3-.561L-68.5,30l-.278-.573-.269-.58-.255-.583-.243-.585-.236-.592-.217-.6-.21-.6-.2-.609-.182-.614-.175-.618-.165-.633-.149-.637-.139-.64-.123-.644-.12-.668-.106-.668-.094-.673-.078-.673-.142-1.481-.087-1.483-.042-1.485L-72,12.875l.052-1.485.094-1.483.1-1.031.13-1.026.149-1.026.132-.753.146-.753.168-.749.182-.744.2-.72.217-.713.236-.7L-69.949,1l.278-.663.139-.327.149-.322.158-.322.165-.315.165-.313.175-.31.175-.294.175-.289.191-.284.191-.282L-67.8-3l.21-.27.217-.268.219-.261.156-.175.158-.173.165-.168.165-.166.165-.163.175-.159.175-.154.182-.152.149-.121.149-.118.156-.114.158-.114.262-.18.278-.175.278-.166.288-.161.3-.152.3-.145.314-.137.323-.13.323-.118.33-.114.34-.107.349-.1.356-.092.366-.085.375-.081.385-.073.793-.13.826-.107.864-.088.9-.069.75-.043M83.264,36.65l-.014-.114-.033-.211-.042-.213-.047-.208-.054-.206-.064-.206-.068-.2-.076-.2-.083-.2L82.7,34.7,82.6,34.5l-.1-.187-.106-.182-.113-.18-.12-.175-.125-.173-.13-.166-.137-.161-.139-.156-.146-.152-.151-.147-.156-.14-.16-.135-.165-.128-.168-.123-.172-.116-.179-.111-.179-.1-.182-.1-.186-.09-.189-.083-.194-.076-.194-.071-.2-.062-.2-.057-.2-.047-.2-.04-.2-.033L78,31.284l-.2-.019-.205-.012-.205,0H-50.418l-.2,0-.208.012-.2.019-.21.026-.2.033-.2.04-.2.047-.2.057-.191.062-.2.071-.191.076-.184.083-.191.09-.182.1-.184.1-.175.109-.175.118-.165.123-.165.128-.156.135-.158.14-.149.147-.149.149-.139.156-.139.163-.13.166-.123.171-.123.175-.113.18-.1.185-.1.187-.1.192-.087.192-.078.2-.078.2-.071.2-.061.206-.052.206-.052.211-.042.211-.026.213-.009.045M72.479,49.924V72.745H66.548V56.666H58.4M85.041,34.911l0,.007-.094.111-.094.107-.2.213-.227.232-.274.268-.312.291-.342.308-.415.353-.425.344-.43.334-.439.322-.441.308-.448.3-.458.284-.463.27-.484.268L79,39.481l-.526.253-.531.239-.573.242-.595.232-.614.22-.625.211-.677.211-.689.2-.7.185-.708.173-.739.166-1.161.235-1.161.206-1.609.249-1.614.208-1.659.178-1.661.145-1.758.126-1.624.09-1.706.073-1.72.054-7.151.208-35.711.886-35.708-.886-7.148-.208-1.723-.054-1.706-.073-1.624-.09-1.758-.126-1.661-.145L-39.5,42.71l-1.614-.208-1.607-.249-1.166-.206-1.159-.235-.741-.166-.706-.173-.7-.185-.7-.2-.67-.211-.628-.211-.618-.22-.592-.232-.576-.242-.531-.239-.524-.253-.488-.253-.489-.268-.46-.27-.463-.284-.444-.3-.446-.308-.434-.322-.437-.334-.418-.344-.42-.353-.34-.308-.311-.291-.271-.268-.227-.232-.2-.213-.1-.107-.087-.111-.007-.007M83.111,47.773l-.085.135-.09.13-.094.128-.1.123-.1.123-.106.116-.111.111-.113.109-.116.107-.12.1-.123.095-.125.092-.13.088-.132.081-.135.078-.137.073-.139.066-.142.062-.144.059-.146.05-.146.047-.149.043-.149.036-.151.028-.151.026-.153.019-.153.014-.153.009-.153,0H-52.4l-.149,0-.156-.009-.149-.014-.158-.019-.146-.026-.158-.028-.149-.036-.146-.043-.149-.047-.139-.05-.149-.059-.139-.062-.139-.066-.139-.073-.132-.078-.13-.081-.13-.088-.132-.092-.123-.095-.12-.1-.113-.107-.113-.109-.106-.111-.113-.116-.094-.123-.106-.123-.085-.128-.1-.13-.078-.135M55.518,56.666V72.745h5.928V56.666m21.671-8.905,1.73-2.781,1.8-2.734,1.862-2.687M66.789,49.924v6.742H-39.817V49.924m-23.7-55.779.314-.18.321-.173.333-.161.33-.149.33-.137m30.455,63.322h-8.144V72.745H-45.5V49.924m11.028,6.742V72.745h5.928V56.666M-53.755,38.512H80.732M-56.143,47.761l-1.735-2.781-1.8-2.734-1.855-2.687m9.638-.009H78.865M91.219-5.329l.168.133.165.133.16.14.156.137.151.14.149.145.146.145.144.149.139.152.139.156.135.156.262.32.253.329.238.336.231.344.219.351.212.358.2.365.194.367.139.277.135.282.253.566.238.578.219.588.212.614.2.623.182.63.168.637.156.644.139.647.13.654.118.661.1.663.094.666L97.32,9.1l.118,1.4.073,1.41.031,1.471-.012,1.436L97.5,15.6l-.038.779-.054.777-.066.775-.085.8-.1.794-.12.791L96.9,21.1l-.106.533-.116.531-.125.528-.135.526-.149.54-.16.535-.168.533-.179.528-.2.547-.208.545-.219.54-.231.533-.255.559-.264.554-.274.55-.286.54-.637,1.147L92.51,31.99l-.769,1.187-.8,1.161-.434.6-.455.606-.481.609-.5.6-.538.6-.555.588-.3.3-.307.294-.309.284-.316.282-.33.28-.335.275-.34.265-.345.261-.361.258-.366.251-.368.244-.375.235-.385.232-.392.223-.394.218-.4.211-.406.2-.411.2-.833.374-.859.348-.868.322L78.1,43.8l-.883.272-.9.249-.9.227-.911.206-.916.187-1.845.322-1.857.258-1.869.2-1.871.152-1.881.1-1.881.064-3.236.028-.531,0-15.1-.038-15.052-.054-7.844-.024-7.134-.009-14.976.033-15.052.054-15.1.038-.533,0-3.236-.028-1.881-.064-1.879-.1-1.874-.152-1.869-.2-1.857-.258-1.848-.322-.913-.187-.906-.206-.909-.227-.9-.249-.89-.272L-52,43.5l-.871-.32-.854-.348-.828-.374-.411-.2-.408-.2-.4-.211-.4-.218-.382-.223-.394-.232-.366-.235-.373-.244-.368-.251-.356-.258-.349-.261-.34-.265-.33-.275-.33-.28-.314-.282-.314-.284-.3-.294-.3-.3-.557-.588-.533-.6-.505-.6-.479-.609-.463-.606-.434-.6-.8-1.161-.767-1.187-.68-1.118-.637-1.147-.278-.54-.278-.55-.262-.554-.253-.559-.236-.533-.217-.54-.21-.545-.2-.547-.172-.528-.175-.533-.158-.535-.149-.54-.139-.526-.12-.528-.113-.531-.106-.533-.139-.789-.123-.791-.1-.794-.087-.8-.061-.775-.052-.777-.042-.779-.026-.777-.009-1.436.026-1.471.078-1.41.113-1.4.158-1.339.2-1.329.113-.659.13-.654.139-.654.158-.649.165-.633.182-.63.2-.623.21-.618.217-.588.245-.578.253-.566.13-.282.139-.277.191-.37.21-.367.21-.36.227-.353.227-.341.236-.334.253-.327.262-.317.13-.156.139-.156.139-.152.149-.149L-65.2-4.5l.156-.145.149-.14.158-.137.156-.14.165-.133.165-.133.175-.126.165-.123.175-.116.184-.114.175-.111.217-.126.227-.123.227-.118.236-.114.236-.111.253-.1.243-.1.262-.095.55-.19.557-.173.557-.159.566-.14.628-.142.628-.121.637-.107.644-.09.776-.092.793-.073.88-.062.887-.047.838-.026,1.709-.024,1.786.012,1.864.036,3.9.1,8.432.2,4.286.073,4.323.036,39.72.043L53.208-7.8l4.326-.036,4.283-.073,8.432-.2,3.9-.1,1.86-.036L77.8-8.255l1.713.024.835.026.887.047.885.062.786.073.784.092.64.09.635.107.63.121.625.142.5.123.493.137.493.149.489.161.08.028.092.031.208.076.208.078.205.083.205.088.3.135.293.145.288.154.283.163.177.111.177.114.172.116.17.123Z" transform="translate(2323.514 586.755)" fill="none" stroke="#001dff" stroke-linecap="round" stroke-linejoin="round" stroke-width="0.5"></path><g id="Group_876" data-name="Group 876" transform="translate(2251.5 673.198)"><path id="Path_1062" data-name="Path 1062" d="M0,0H171" transform="translate(0 0)" fill="none" stroke="#001dff" stroke-width="1"></path></g><path id="Path_1776" data-name="Path 1776" d="M-14.85-15.375h-1.175l-4.55,2.325v2l3.8-1.95V0h1.925Zm12.75,1.55V-15.35h-9.925v1.75h7.9L-9.55,0h1.975Zm7.475-1.55H4.2L-.35-13.05v2L3.45-13V0H5.375Zm9.1,15.6C17.9.225,20.2-3,20.2-7.675s-2.3-7.9-5.725-7.9S8.75-12.35,8.75-7.675,11.05.225,14.475.225Zm0-14.025c2.475,0,3.8,2.55,3.8,6.125S16.95-1.55,14.475-1.55c-2.5,0-3.8-2.55-3.8-6.125S11.975-13.8,14.475-13.8Z" transform="translate(2337.5 697.368)" fill="#001dff"></path><path id="Path_1775" data-name="Path 1775" d="M-11.313-1.375a3.027,3.027,0,0,1-3.325-2.95A3.024,3.024,0,0,1-11.313-7.25c1.95,0,3.35,1.2,3.35,2.925C-7.963-2.575-9.363-1.375-11.313-1.375Zm0-7.525a2.59,2.59,0,0,1-2.8-2.525,2.594,2.594,0,0,1,2.8-2.55,2.6,2.6,0,0,1,2.825,2.55A2.6,2.6,0,0,1-11.313-8.9Zm0,9.125c2.975,0,5.25-1.75,5.25-4.4a3.974,3.974,0,0,0-3-3.9,3.616,3.616,0,0,0,2.45-3.45c0-2.475-2.075-4.05-4.7-4.05-2.6,0-4.675,1.575-4.675,4.05a3.584,3.584,0,0,0,2.45,3.45,3.948,3.948,0,0,0-3,3.9C-16.538-1.525-14.263.225-11.313.225Zm12.875-15.6H.387l-4.55,2.325v2L-.363-13V0H1.563Zm9.1,15.6c3.425,0,5.725-3.225,5.725-7.9s-2.3-7.9-5.725-7.9-5.725,3.225-5.725,7.9S7.238.225,10.663.225Zm0-14.025c2.475,0,3.8,2.55,3.8,6.125s-1.325,6.125-3.8,6.125c-2.5,0-3.8-2.55-3.8-6.125S8.163-13.8,10.663-13.8Z" transform="translate(2459.912 618.182) rotate(-90)" fill="#001dff"></path><g id="Group_879" data-name="Group 879" transform="translate(2435.743 578.5)"><path id="Path_1065" data-name="Path 1065" d="M0,19.926V-60.818" transform="translate(0 60.818)" fill="none" stroke="#001dff" stroke-width="1"></path></g></g><g id="Group_1546" data-name="Group 1546"><path id="Path_1774" data-name="Path 1774" d="M-9.875-10.45A3.264,3.264,0,0,1-13.2-6.95a3.273,3.273,0,0,1-3.3-3.5,3.245,3.245,0,0,1,3.3-3.45A3.25,3.25,0,0,1-9.875-10.45ZM-18.1-3.575a4.534,4.534,0,0,0,4.775,3.8C-10,.225-7.7-2.975-7.7-7.95a10.739,10.739,0,0,0-.9-4.7,4.9,4.9,0,0,0-4.575-2.925,4.976,4.976,0,0,0-5.15,5.15,4.922,4.922,0,0,0,4.975,5.1A4,4,0,0,0-9.475-7.95c0,.15.025.525.025.675,0,3.3-1.625,5.875-3.875,5.875A2.79,2.79,0,0,1-16.15-3.575Zm16.45-3.45H-.575C1.175-7.025,2.55-6,2.55-4.275a2.783,2.783,0,0,1-3.075,2.8A3.179,3.179,0,0,1-3.9-4.375H-5.825A4.963,4.963,0,0,0-.5.225c3.075,0,4.925-2,4.925-4.525a3.62,3.62,0,0,0-2.7-3.575,3.547,3.547,0,0,0,2.4-3.5c0-2.45-1.75-4.2-4.675-4.2A4.874,4.874,0,0,0-5.525-11.15H-3.6A2.954,2.954,0,0,1-.55-13.875a2.577,2.577,0,0,1,2.8,2.6A2.58,2.58,0,0,1-.625-8.7H-1.65ZM12.475.225C15.9.225,18.2-3,18.2-7.675s-2.3-7.9-5.725-7.9S6.75-12.35,6.75-7.675,9.05.225,12.475.225Zm0-14.025c2.475,0,3.8,2.55,3.8,6.125S14.95-1.55,12.475-1.55c-2.5,0-3.8-2.55-3.8-6.125S9.975-13.8,12.475-13.8Z" transform="translate(2541.073 697.371)" fill="#001dff"></path><path id="Path_1064" data-name="Path 1064" d="M0,0H87.269" transform="translate(2497.497 673.199)" fill="none" stroke="#001dff" stroke-width="1"></path><path id="Path_1773" data-name="Path 1773" d="M8.112-14.736H6.192L.528-4.68v1.344H7.32V0H9.072V-3.336h2.592V-4.92H9.072V-8.472H7.32V-4.92h-4.7ZM19.7.216c3.288,0,5.5-3.1,5.5-7.584s-2.208-7.584-5.5-7.584-5.5,3.1-5.5,7.584S16.416.216,19.7.216Zm0-13.464c2.376,0,3.648,2.448,3.648,5.88S22.08-1.488,19.7-1.488c-2.4,0-3.648-2.448-3.648-5.88S17.3-13.248,19.7-13.248ZM33.576.216c3.288,0,5.5-3.1,5.5-7.584s-2.208-7.584-5.5-7.584-5.5,3.1-5.5,7.584S30.288.216,33.576.216Zm0-13.464c2.376,0,3.648,2.448,3.648,5.88s-1.272,5.88-3.648,5.88c-2.4,0-3.648-2.448-3.648-5.88S31.176-13.248,33.576-13.248Z" transform="translate(2628.263 658.632) rotate(-90)" fill="#001dff"></path><g id="Group_882" data-name="Group 882" transform="translate(2604.75 618.99)"><path id="Path_1068" data-name="Path 1068" d="M.263,3.575v-40" transform="translate(-0.263 36.425)" fill="none" stroke="#001dff" stroke-width="1"></path></g><g id="Group_883" data-name="Group 883" transform="translate(2599.106 618.682)"><path id="Path_1069" data-name="Path 1069" d="M0,0H6.156" fill="none" stroke="#001dff" stroke-width="1"></path></g><g id="Group_1544" data-name="Group 1544" transform="translate(2534.845 598.518)"><path id="Path_1273" data-name="Path 1273" d="M51.726,28.09v-.805M-37.171-18.9l13.292,37.89M38.224,44.4h0M-32.5-20.364l1.089-.09,1.011-.05,1.011-.014.6.007.821.028.994.064,1.037.1,1.084.14,1.155.185,1.148.223,1.233.28,1.221.317,1.337.391,1.325.431,1.311.471,1.3.507,1.361.573,1.349.6,2.746,1.317,2.746,1.419,2.781,1.519,2.781,1.583L4.544-7.01l5.65,3.523,3.394,2.165,6.767,4.359L22.6,4.48l2.241,1.44L29.282,8.8l4.343,2.893L37.8,14.61l2,1.471,1.931,1.495,1.841,1.507,1.747,1.528.824.765.8.784.741.76.72.782.693.805.67.827.646.85.62.867.594.888.568.9.49.832.464.846.17.329.163.334.151.32.14.325.1.249m-73.454,5.579v-9.7l0-.052-.007-.135-.012-.133-.019-.166-.021-.166-.052-.332-.076-.426-.083-.424-.232-1.059-.272-1.1-.324-1.215-.348-1.211-.8-2.554h-3.747l0,41.5h6V44.4m0-13.151,1.172,3.336h0a4.658,4.658,0,0,0,1.614,2.2,4.427,4.427,0,0,0,2.532.869M50.462,26.247h1.463a.073.073,0,0,1,.024,0h.007a.493.493,0,0,1,.334.161.53.53,0,0,1,.137.355.541.541,0,0,1-.147.367.5.5,0,0,1-.355.152h-.731M38.5,37.659V43.4l0,.036,0,.071-.007.073-.009.071-.009.073-.014.073-.014.071-.019.071-.021.076-.012.038-.012.038-.014.038-.014.038-.014.036-.014.038-.014.028-.014.031-.007.014-.007.014-.009.014-.007.014,0,.009,0,0,0,0,0,0,0,0,0,0,0,0,0,0m5.214-25.4h2.27a5.97,5.97,0,0,1,4.244,1.822,6.431,6.431,0,0,1,1.756,4.4v1.038m2.459,8.593-6.719,2.537a4.336,4.336,0,0,1-1.538.282H-20.253v5.75l0,.04,0,.045,0,.04,0,.043.007.043.009.043.007.043.012.04.012.04.012.04.014.043.017.038.017.04.017.038.019.038.019.04.021.036.021.038.012.019.012.017.012.017.012.017.012.017.012.014.012.017.014.014.012.014.014.014.012.012.009.012.012.009.012.009,0,0,.007,0,.007.007,0,0,.007,0,.007,0,.007,0,0,0,0,0,0,0,0,0,.007,0,0,0,0,0,0,0,0,0,0,0h.007l0,0h.007l0,0H38.214V60.482h6V37.659m-70.451-56.54L-27.131-19l-.831-.1-.835-.081-.772-.059-.731-.043-1.33-.043-1.169,0-1,.033-.843.052-.7.064-.566.064-.45.062-.343.054-.251.043-.166.033-.118.026a.5.5,0,0,1-.376-.066.526.526,0,0,1-.222-.325.538.538,0,0,1,.064-.391.5.5,0,0,1,.31-.23l.149-.033.185-.036.267-.047.362-.057.469-.064.589-.066.722-.064.869-.054,1.027-.036,1.2,0,1.366.043.75.045.788.059.854.083.852.1.911.126.937.149.98.178.975.2,1.013.23,1.032.258,1.06.291,1.053.315,1.075.348,1.072.374,1.082.4,1.072.422,2.161.91,2.17.988,2.168,1.047,2.163,1.1,2.159,1.147,2.151,1.185L.764-8.914,5.008-6.4,9.23-3.8l4.211,2.663,4.194,2.7,8.317,5.416L29.41,9.261l4.083,2.774,2,1.4,1.979,1.429,1.941,1.452L41.3,17.8l1.82,1.5.876.763.862.775.959.9.8.787.764.8.736.8.7.8.656.782.615.768.573.744.528.711.48.675.831,1.225.54.846.551.912.343.588.421.76.251.474.187.367.286.592.036.078a.55.55,0,0,1,.014.4.521.521,0,0,1-.26.289.49.49,0,0,1-.383.014.511.511,0,0,1-.279-.27l-.028-.062-.27-.561-.182-.353-.244-.46-.322-.585-.421-.73-.54-.888-.322-.507-.592-.9-.9-1.279-.516-.7-.561-.73-.6-.749-.641-.765-.682-.779-.72-.782-.748-.777-.781-.772-.94-.886-.847-.765-.862-.749-1.8-1.485-1.867-1.462L36.9,15.717,34.931,14.3l-2-1.4-4.069-2.762L25.417,7.849,17.1,2.436,12.918-.26l-4.2-2.656L4.506-5.505l-4.23-2.5L-2.249-9.445l-2.137-1.18L-6.53-11.762l-2.147-1.094-2.149-1.04-2.149-.976-2.132-.9-1.056-.415-1.065-.4-1.053-.367-1.053-.341-1.032-.31-1.039-.284-1.008-.253-.994-.227-.954-.194-.961-.175ZM38.224,44.4h0v0h0l0,0h0l0,0h0m-.012.007Zm0,0Zm0,0Z" fill="none" stroke="#001dff" stroke-linecap="round" stroke-linejoin="round" stroke-width="0.5"></path></g></g></g><rect id="measuerments_background_box" data-name="measuerments background box" width="800" height="550" transform="translate(2043 368.5)" fill="none"></rect></g></svg> 