<?xml version="1.0" encoding="UTF-8"?> <svg xmlns="http://www.w3.org/2000/svg" width="800" height="550" viewBox="0 0 800 550"><g id="diagram-Kitsune-Armchair" transform="translate(-331 -169.5)"><g id="Group_898" data-name="Group 898" transform="translate(16 -1)"><path id="Path_1071" data-name="Path 1071" d="M0,0H77" transform="translate(745.5 472.19)" fill="none" stroke="#001dff" stroke-width="1"></path><path id="Path_1616" data-name="Path 1616" d="M10.375-13.825V-15.35H.45v1.75h7.9L2.925,0H4.9Zm12.15,0V-15.35H12.6v1.75h7.9L15.075,0H17.05Zm8,14.05C33.95.225,36.25-3,36.25-7.675s-2.3-7.9-5.725-7.9S24.8-12.35,24.8-7.675,27.1.225,30.525.225Zm0-14.025c2.475,0,3.8,2.55,3.8,6.125S33-1.55,30.525-1.55c-2.5,0-3.8-2.55-3.8-6.125S28.025-13.8,30.525-13.8Z" transform="translate(765.424 495.776)" fill="#001dff"></path><path id="Path_1617" data-name="Path 1617" d="M4.6-7.025H5.675C7.425-7.025,8.8-6,8.8-4.275a2.783,2.783,0,0,1-3.075,2.8,3.179,3.179,0,0,1-3.375-2.9H.425A4.963,4.963,0,0,0,5.75.225c3.075,0,4.925-2,4.925-4.525a3.62,3.62,0,0,0-2.7-3.575,3.547,3.547,0,0,0,2.4-3.5c0-2.45-1.75-4.2-4.675-4.2A4.874,4.874,0,0,0,.725-11.15H2.65A2.954,2.954,0,0,1,5.7-13.875a2.577,2.577,0,0,1,2.8,2.6A2.58,2.58,0,0,1,5.625-8.7H4.6ZM21.675-10.45a3.264,3.264,0,0,1-3.325,3.5,3.273,3.273,0,0,1-3.3-3.5,3.245,3.245,0,0,1,3.3-3.45A3.25,3.25,0,0,1,21.675-10.45ZM13.45-3.575a4.534,4.534,0,0,0,4.775,3.8c3.325,0,5.625-3.2,5.625-8.175a10.739,10.739,0,0,0-.9-4.7,4.9,4.9,0,0,0-4.575-2.925,4.976,4.976,0,0,0-5.15,5.15,4.922,4.922,0,0,0,4.975,5.1A4,4,0,0,0,22.075-7.95c0,.15.025.525.025.675,0,3.3-1.625,5.875-3.875,5.875A2.79,2.79,0,0,1,15.4-3.575ZM32.5.225c3.425,0,5.725-3.225,5.725-7.9s-2.3-7.9-5.725-7.9-5.725,3.225-5.725,7.9S29.075.225,32.5.225Zm0-14.025c2.475,0,3.8,2.55,3.8,6.125S34.975-1.55,32.5-1.55c-2.5,0-3.8-2.55-3.8-6.125S30-13.8,32.5-13.8Z" transform="translate(861.03 455.653) rotate(-90)" fill="#001dff"></path><g id="Group_896" data-name="Group 896" transform="translate(774.091 406.131)"><path id="Path_1079" data-name="Path 1079" d="M38.463,30.48a.1.1,0,0,1,.081.1m-56.333-17.09-.367-25.31m-.035-2.711v0m0,0v0M-16.957,22.6h0m0,0,0,0m-.773.028h0m0,0h0m-.007,0,0,0m-.007-.007h0M38.456,30.48h0M-17.368-12.27c-.007-.49.014-1.011-.026-1.486h0s0,0-.009,0h0m-.755,1.478a37.894,37.894,0,0,0-1.512-10.352c-.17.052-.692.136-.748.27-.07.164.2.709.255.906q.244.908.437,1.828c.251,1.213.425,2.443.562,3.675.07.615.125,1.234.172,1.849.03.383-.086,1.624.163,1.833.135.115.848,0,1.024,0a1.277,1.277,0,0,1,.423,0c.367.174.1.162.1.394,0,.035-.06.3-.07.4-.16,2.431.072,4.959.109,7.395q.077,5.46.158,10.92l.1,6.646m-.369-25.334h-1.077a1.329,1.329,0,0,1-.42,0c-.146-.068-.406-.425-.023-.425m.706-1.5c0-.258-.012-.516-.016-.774a2.489,2.489,0,0,0,.787.789l0,0m-2.64-8.756c-1.526.04-6.85-.183-7.819.4-.947.57-1.119,1.868-1.189,2.873a23.449,23.449,0,0,0,.313,4.82q.505,3.7,1.012,7.4c.59,4.311,1.126,8.632,1.776,12.936.778,5.135,1.519,10.279,2.336,15.412a51.557,51.557,0,0,0,1.18,5.485,14.846,14.846,0,0,0,1.753,4.71,4.337,4.337,0,0,0,.457.533m2.448-18.139c.016,2.9.012,5.813.049,8.707v0h0l0,0c.158.059.641.127.769-.014.153-.167.014-1.091.012-1.312q-.01-2.13-.021-4.262-.01-1.559-.019-3.121M46.832,25.246c.07-.122.137-.246.207-.368a11.744,11.744,0,0,0,.864-3.971,13.048,13.048,0,0,0-.834-3.884M43.024,27.274a22.654,22.654,0,0,1-2.791.15m6.713-2.38c.019-.035.039-.07.06-.108a4.311,4.311,0,0,1-3.376,2.251,43.633,43.633,0,0,1-6.576.289H-17.721m-1.142-39.311c.286,8.01.244,16.036.351,24.05A3.5,3.5,0,0,0-18.5,13.36c.139.249.581.129.924.129.142,0,.634-.084.748.061.286.366-.272.35-.45.361a3.678,3.678,0,0,1-1.04,0c-.037-.009-.142.021-.179,0-.158-.084-.358-.422,0-.422m0,.422c-.276.016-.123,2.157-.123,2.452q0,2.654,0,5.308a68.623,68.623,0,0,1-.128,6.947,8.083,8.083,0,0,1-.546,2.666c-.2.415-.94.645-1,.969-.19.986,1.219.1,1.426-.138a3.96,3.96,0,0,0,.669-1.748,38.332,38.332,0,0,0,.471-7.754m-.46-37.159Zm58.671,41.9,0,22.22a.307.307,0,0,0,.081.207.29.29,0,0,0,.2.092m-55.655,0a.29.29,0,0,0,.2-.092.307.307,0,0,0,.081-.207V27.349m1.883.127V49.569a.307.307,0,0,0,.081.207.3.3,0,0,0,.2.092M38.6,27.476V49.569a.3.3,0,0,1-.084.207.285.285,0,0,1-.2.092m-53.714.1v.3a.1.1,0,0,0,.03.07.1.1,0,0,0,.07.031h3.265a.107.107,0,0,0,.074-.031.111.111,0,0,0,.028-.07v-.3a.111.111,0,0,0-.028-.07.1.1,0,0,0-.072-.028H-15.3a.094.094,0,0,0-.07.028A.1.1,0,0,0-15.4,49.968Zm54.937.4h1.632a.1.1,0,0,0,.1-.1v-.3a.1.1,0,0,0-.03-.07.1.1,0,0,0-.07-.028H37.9a.1.1,0,0,0-.1.1v.3a.1.1,0,0,0,.1.1Zm-.992-19.791H-12.443M47.037-13.758H-17.38m.174,36.413a20.8,20.8,0,0,0,4.338.357q2.571.056,5.144.059c2.1,0,4.208-.042,6.312-.063l29.185-.289c5.717-.056,11.509.1,17.214-.357.43-.033,1.749.028,2.076-.441.186-.265.014-.744.009-1.044-.07-3.917-.033-7.838-.049-11.755C46.995,2.259,46.932-4.605,47-11.467a13.405,13.405,0,0,1,.039-2.29m-65.231-.789a9.456,9.456,0,0,0,1.586-.009h4.688q7.813,0,15.626,0h43.21a.388.388,0,0,1,.255.387.624.624,0,0,1-.142.446" transform="translate(0 0.5)" fill="none" stroke="#001dff" stroke-linecap="round" stroke-linejoin="round" stroke-width="0.5"></path></g><path id="Path_1076" data-name="Path 1076" d="M0,21.763v-39" transform="translate(837.241 434.365)" fill="none" stroke="#001dff" stroke-width="1"></path><path id="Path_1077" data-name="Path 1077" d="M0,0H6.414" transform="translate(830.949 417.253)" fill="none" stroke="#001dff" stroke-width="1"></path></g><g id="Group_899" data-name="Group 899" transform="translate(-4)"><path id="Path_1071-2" data-name="Path 1071" d="M0,0H87" transform="translate(588 472.192)" fill="none" stroke="#001dff" stroke-width="1"></path><path id="Path_1620" data-name="Path 1620" d="M6.075-1.375A3.027,3.027,0,0,1,2.75-4.325,3.024,3.024,0,0,1,6.075-7.25c1.95,0,3.35,1.2,3.35,2.925C9.425-2.575,8.025-1.375,6.075-1.375Zm0-7.525a2.59,2.59,0,0,1-2.8-2.525,2.594,2.594,0,0,1,2.8-2.55A2.6,2.6,0,0,1,8.9-11.425,2.6,2.6,0,0,1,6.075-8.9Zm0,9.125c2.975,0,5.25-1.75,5.25-4.4a3.974,3.974,0,0,0-3-3.9,3.616,3.616,0,0,0,2.45-3.45c0-2.475-2.075-4.05-4.7-4.05-2.6,0-4.675,1.575-4.675,4.05a3.584,3.584,0,0,0,2.45,3.45,3.948,3.948,0,0,0-3,3.9C.85-1.525,3.125.225,6.075.225ZM23.15-13.825V-15.35H13.225v1.75h7.9L15.7,0h1.975ZM31.125.225C34.55.225,36.85-3,36.85-7.675s-2.3-7.9-5.725-7.9S25.4-12.35,25.4-7.675,27.7.225,31.125.225Zm0-14.025c2.475,0,3.8,2.55,3.8,6.125S33.6-1.55,31.125-1.55c-2.5,0-3.8-2.55-3.8-6.125S28.625-13.8,31.125-13.8Z" transform="translate(612.886 495.776)" fill="#001dff"></path><path id="Path_1619" data-name="Path 1619" d="M10.375-13.825V-15.35H.45v1.75h7.9L2.925,0H4.9Zm6.3,6.8H17.75c1.75,0,3.125,1.025,3.125,2.75a2.783,2.783,0,0,1-3.075,2.8,3.179,3.179,0,0,1-3.375-2.9H12.5a4.963,4.963,0,0,0,5.325,4.6c3.075,0,4.925-2,4.925-4.525a3.62,3.62,0,0,0-2.7-3.575,3.547,3.547,0,0,0,2.4-3.5c0-2.45-1.75-4.2-4.675-4.2A4.874,4.874,0,0,0,12.8-11.15h1.925a2.954,2.954,0,0,1,3.05-2.725,2.577,2.577,0,0,1,2.8,2.6A2.58,2.58,0,0,1,17.7-8.7H16.675ZM31.3.225c3.425,0,5.725-3.225,5.725-7.9s-2.3-7.9-5.725-7.9-5.725,3.225-5.725,7.9S27.875.225,31.3.225Zm0-14.025c2.475,0,3.8,2.55,3.8,6.125S33.775-1.55,31.3-1.55c-2.5,0-3.8-2.55-3.8-6.125S28.8-13.8,31.3-13.8Z" transform="translate(714.639 437.906) rotate(-90)" fill="#001dff"></path><g id="Group_895" data-name="Group 895" transform="translate(621.882 386.798)"><path id="Path_1078" data-name="Path 1078" d="M45.444,5.127l.047-.538m-71.5,0,.047.54m-7.02-.338,6.565,0m60.664,41.43-5.436.007m5.462-.007h-.019m-.019,3.041a.088.088,0,0,0-.028-.031.115.115,0,0,0-.04-.014m-4.688.021a.066.066,0,0,0-.026-.019m-44.219-3,10.591.009m-5.8,2.989a.06.06,0,0,0-.023.019m-4.69-.021a.115.115,0,0,0-.04.014.065.065,0,0,0-.026.031m.073-.045H1.476m-16.266-3h.019m48.933,3H18.008m13.338,1.276c.938-.047,1.879-.108,2.806-.216.028,0,.054-.007.082-.012m1.9-.322a7.006,7.006,0,0,0,2.881-1.269,5.584,5.584,0,0,0,1.356-1.713,3.81,3.81,0,0,0,.455-1.281M36.13,50.662a7.964,7.964,0,0,0,3.322-1.443,6.207,6.207,0,0,0,1.532-1.929,4.24,4.24,0,0,0,.556-1.821v0m-63.618-.007a8.839,8.839,0,0,0,1.121,2.733,5.986,5.986,0,0,0,2.588,1.943,9.992,9.992,0,0,0,1.724.526m1.9.31c.96.115,1.922.176,2.886.223m-2.886-.928c.026,0,.054.007.082.012.931.11,1.868.169,2.8.216m-9.422-4.8a6.633,6.633,0,0,0,.9,2.094,5.346,5.346,0,0,0,2.288,1.7,8.787,8.787,0,0,0,1.457.456m6.677.623h.023c6.466.214,12.939.2,19.41.186q5.575-.011,11.147-.04c2.94-.021,5.88-.049,8.815-.146h.023m-39.419.7c6.476.214,12.956.2,19.436.186,3.716-.009,7.433-.016,11.149-.042,2.944-.019,5.891-.049,8.833-.143m1.893-.073c.967-.047,1.931-.11,2.888-.221m19-46.313a.4.4,0,0,0-.115-.282.41.41,0,0,0-.282-.115.4.4,0,0,0-.279.115.395.395,0,0,0,0,.562.4.4,0,0,0,.279.117.412.412,0,0,0,.282-.117.4.4,0,0,0,.115-.28m-86.2,0a.4.4,0,0,0-.115-.282.41.41,0,0,0-.282-.115.4.4,0,0,0-.279.115.4.4,0,0,0-.117.282.393.393,0,0,0,.117.28.4.4,0,0,0,.279.117.412.412,0,0,0,.282-.117.4.4,0,0,0,.115-.28M46.509-3.685h0m-72.747-.023,0,0m0,.007v0m-.779-.019,0,0m.781.035h0m-.781-.035h0m.781.035h0M33.537,69.2h0m0-.5h0M45.651,4.953a.456.456,0,0,1-.157-.291.336.336,0,0,1,.026-.2.347.347,0,0,1,.131-.148.338.338,0,0,1,.19-.054l7,0m-7.306.179.12-2.512L45.7-.59l.007-3.092h0v0h0v-.009h0v0h0v0m.633,7.949.082-1.652L46.479.956,46.5-.583l.007-3.1V-3.69l0,0v0h0v0h0l0,0h0v0l0,0,0,0m-.793.038-4.5.136L9.742-3.709l-31.47.179-4.5-.136m78.69,8.457-6.569,0-.2.125-.108.089-.108.092-.1.1-.1.1-.1.1-.092.108L45,5.611l-.087.113-.164.216-.157.223-.225.331-.216.338-.206.338m8.988-2.124.106.644.061.345.049.35.035.308.026.331.019.334.012.336,0,.39,0,.39-.026.912-.035.721-.148,2.1-.188,2.1-.791,7.026-.725,5.158-.847,5.019L49.7,35.433l-.2.888-.2.811-.181.66-.2.653-.084.258-.1.291-.089.242-.1.256-.108.254-.1.223-.108.221-.1.186-.052.092-.054.092-.047.073-.049.073M45.231,5.9l-.523.477-.23.223-.223.23-.218.233-.619.728-.357.465-.345.475-.326.484-3.022,5.825-.61,1.513-.563,1.53-.486,1.473-.249.825-.228.811-.291,1.168L36.7,23.491l-.153.822-.129.827-.1.82-.042.411-.033.414-.023.385-.016.385-.009.385,0,.385,0,.371.014.367.023.369.03.369.038.345.047.345.052.331.061.329.089.411.1.407.115.4.129.4.1.284.1.27.1.256.1.242.169.371.155.324M-24.459,7.171l-.206-.338-.216-.338-.223-.331-.16-.223-.164-.216-.131-.164L-25.7,5.4l-.087-.1-.087-.092-.094-.087-.059-.056-.063-.052-.063-.052-.063-.047-.2-.125m.246.16a.456.456,0,0,0,.157-.291.357.357,0,0,0-.028-.2.358.358,0,0,0-.129-.148.343.343,0,0,0-.19-.054l-7,0m6.5,0-.082-1.652L-26.993.956l-.026-1.539,0-3.1v0h0v0h0v0h0m.974,8.123-.1-1.943L-26.2.939l-.031-4.622h0v0h0v0l0,0h0v0h0l0,0v0l0,0v0h0v0h0l0,0,0,0v0l0,0h0v0l0,0,0,0m-7.2,8.765-.1.642-.061.348-.052.35-.035.327-.026.327-.016.327-.012.327,0,.39.014.855.052,1.17.148,2.1.188,2.1.582,5.351.934,6.826.847,5.029.774,3.922.195.851.211.848.19.7.188.616.178.526.1.261.1.258.108.258.1.221.108.221.052.1.052.1.052.087.052.089.047.073.049.073m2.689-34.813.523.477.228.223.225.23.216.235.622.728.357.465.345.475.328.484,3.024,5.832.61,1.511.561,1.53.486,1.473.249.822.225.808.293,1.17.244,1.137.153.822.129.827.108.867.07.78.023.385.016.385.009.388v.388l0,.367-.014.367-.023.364-.03.367-.035.338-.045.338-.054.338-.061.336-.089.411-.1.409-.115.4-.129.4-.1.284-.1.268-.1.258-.1.242-.169.371-.155.322M47.4,41.248l.023-.016.028-.016.028-.019.028-.019.026-.021.016-.014.016-.012.03-.028.031-.028.033-.031.028-.031.028-.033.028-.031.026-.033.03-.038.028-.04.026-.038.028-.038.028-.045.028-.045.052-.089v0M31.346,49.219V68.4a.306.306,0,0,0,.087.209.3.3,0,0,0,.206.089M32.73,46.167l4.852-.078,2.281-.209.3-.052.3-.061.3-.07.3-.078.258-.078.256-.085.272-.1.267-.108.136-.056.181-.082.169-.08.31-.16.293-.16.258-.153.272-.169.27-.174.38-.261.368-.273.38-.3.375-.315.364-.327.345-.327.544-.533.425-.423.27-.251,0,0,0,0,0,0,0,0,0,0,0,0,0,0,0,0,0,0,0,0,0,0v0l0,0,0,0v0l0,0v0l0,0v0l0,0,0,0v-.007l0,0v0l0,0v-.009l0,0v-.054l0-.007v-.007l0,0,0-.007,0-.007,0-.007,0-.007,0-.007,0-.007,0,0,0-.007,0-.007,0-.007,0-.007-.009-.012-.007-.014-.012-.016-.014-.019-.012-.016-.012-.016-.028-.033-.028-.033-.052-.054-.049-.052L47.2,40.64l-.115-.1-.061-.054-.063-.054-.063-.049-.049-.038-.049-.035-.052-.033L46.7,40.24l-.049-.031-.052-.028-.054-.026-.054-.026-.136-.063-.185-.1-.183-.1-.178-.108-.26-.164-.251-.176-.19-.136-.188-.141L43.483,37.97l-.542-.423-.561-.411-.324-.228-.328-.223-.331-.216-.333-.209-.476-.282-.486-.27-.488-.258-.5-.244-1.1-.508-1.11-.472-1.124-.439-1.138-.4-1.15-.369-1.159-.336L27.2,31.614l-1.086-.15-1.089-.129L23.573,31.2l-1.45-.108-3.341-.164-9.038-.11-9.04.11-3.341.164-1.527.115-1.37.132-1.089.129-1.086.15-5.136,1.06-1.161.334-1.15.369-1.14.407-1.126.439-1.112.475-1.1.508-.5.247-.49.256-.483.27-.476.282-.336.209-.331.216-.326.223-.326.228-.558.414-.544.423-1.434,1.173-.185.141-.19.136-.253.176-.258.164-.178.108-.183.1-.185.1L-27,40.13l-.054.026-.052.026-.052.028-.049.031-.052.033-.052.033-.049.035-.049.038-.063.049-.063.054-.063.054-.113.1-.054.052-.052.052-.049.054-.028.033-.028.033-.012.016-.014.016-.012.019-.012.016-.009.014-.007.012,0,.007,0,.007,0,.007,0,.007,0,0,0,.007,0,.007,0,.007,0,.007v.007l0,.007,0,0v.007l0,.007v0l0,.007v.031l0,0v.007l0,0v.009l0,0v0l0,0v.007l0,0v0l0,0v0l0,0,0,0v0l0,0,0,0v0l0,0,0,0,0,0,0,0,0,0,0,0,0,0,0,0,0,0,0,0,0,0,.27.249.425.425.542.533.347.327.361.324.373.315.382.305.368.268.38.266.27.174.272.169.258.15.293.162.31.157.171.082.181.082.134.056.275.108.275.1.282.094.282.082.277.073.277.063.284.056.3.052,2.281.209,4.852.078M33.948,68.7a.3.3,0,0,0,.2-.092.3.3,0,0,0,.084-.207V46.272a.048.048,0,0,1,.014-.035.052.052,0,0,1,.035-.014h1.795a.044.044,0,0,1,.035.014.042.042,0,0,1,.016.035V68.4a.3.3,0,0,0,.08.2.306.306,0,0,0,.2.094m-6.954-19.48V68.4a.3.3,0,0,1-.289.3m1.063-22.495-1.689.028-2.752,0-16.043,0-16.043,0-2.75,0-1.621-.026m-17.836-5.623.052.087.054.082.028.042.028.04.031.04.031.04.026.033.028.031.026.033.031.028.031.033.033.028.03.028.033.026.026.019L-28,41.2l.028.019.028.016.026.016m29.4,7.971h.976a.048.048,0,0,0,.049-.049v-2.9a.051.051,0,0,0,0-.026.055.055,0,0,0-.016-.016M-14.462,68.7a.3.3,0,0,1-.2-.092.311.311,0,0,1-.082-.207V46.272a.042.042,0,0,0-.016-.035.044.044,0,0,0-.035-.014h-1.795a.048.048,0,0,0-.035.014.048.048,0,0,0-.014.035V68.4a.311.311,0,0,1-.082.207.315.315,0,0,1-.2.092m5.065-19.482V68.4a.3.3,0,0,1-.084.209.3.3,0,0,1-.2.089m2.184-19.48V68.4a.311.311,0,0,0,.082.207.309.309,0,0,0,.2.092M18,49.219h-.974m0,0a.052.052,0,0,1-.035-.014.048.048,0,0,1-.014-.035v-2.9a.054.054,0,0,1,.007-.026A.037.037,0,0,1,17,46.23M45.874-3.777l.019,0,.016,0,.016,0,.038,0,.038,0,.038,0,.038,0h.108l.035,0,.038,0,.038,0,.016,0,.019,0,.016,0,.016,0,.016,0,.014,0,.014,0,.012,0,.007,0,.007,0h0l.007,0,0,0,0,0,.007,0,0,0,0,0,0,0,0,0,0,0v0h0l0,0,0,0,0,0h0v0h0l0,0v0l0,0h0v0m-.626-.07-.014,0-.016,0-.014,0-.016,0-.012,0-.007,0-.007,0,0,0-.007,0,0,0,0,0,0,0-.007,0,0,0,0,0,0,0,0,0,0,0,0,0h0l0,0h0l0,0,0,0,0,0h0l0,0,0,0v0h0v0l0,0,0,0m.791.009h0l0,0v0Zm0,0v0ZM-27.023-3.7h0v0Zm.009-.014v0l0,0h0v0h0v0l0,0v0m.009-.014,0,0Zm0,0,0,0Zm.706-.035,0,0-.007,0-.014,0-.014,0-.014,0-.016,0-.016,0-.016,0-.019,0-.016,0-.038,0-.038,0-.035,0-.038,0H-26.7l-.038,0-.038,0-.035,0-.019,0-.016,0-.016,0-.019,0-.014,0-.014,0-.016,0-.012,0-.007,0-.007,0h0l0,0-.007,0,0,0,0,0,0,0,0,0,0,0,0,0,0,0,0,0,0,0v0l0,0,0,0m.7-.031,0,0,.007,0,0,0,.007,0,0,0,0,0,0,0,0,0,0,0,0,0h0v0l0,0m.023.035h0v0ZM33.537,68.7h3.292a.1.1,0,0,1,.1.1v.3a.1.1,0,0,1-.028.073.1.1,0,0,1-.07.028H33.537a.1.1,0,0,1-.1-.1v-.3a.1.1,0,0,1,.028-.07A.1.1,0,0,1,33.537,68.7Zm-1.717,0H28.753a.1.1,0,0,0-.1.1v.3a.1.1,0,0,0,.028.073.1.1,0,0,0,.07.028h3.292a.117.117,0,0,0,.073-.028.112.112,0,0,0,.028-.073v-.3a.111.111,0,0,0-.028-.07.1.1,0,0,0-.073-.028H31.82Zm-48.937,0h-.225a.1.1,0,0,0-.07.028.1.1,0,0,0-.031.07v.3a.1.1,0,0,0,.031.073.1.1,0,0,0,.07.028h3.292a.1.1,0,0,0,.07-.031.094.094,0,0,0,.03-.07v-.3a.1.1,0,0,0-.03-.07.1.1,0,0,0-.07-.028h-3.067Zm4.782.5H-9.27a.107.107,0,0,0,.073-.031.092.092,0,0,0,.028-.07v-.3a.1.1,0,0,0-.028-.07.1.1,0,0,0-.07-.028h-3.292m0,0a.1.1,0,0,0-.07.028.1.1,0,0,0-.028.07v.3a.1.1,0,0,0,.028.073.1.1,0,0,0,.07.028h.225" fill="none" stroke="#001dff" stroke-linecap="round" stroke-linejoin="round" stroke-width="0.5"></path></g><line id="Line_1" data-name="Line 1" y2="73" transform="translate(690.5 383.5)" fill="none" stroke="#001dff" stroke-width="1"></line></g><path id="Path_1618" data-name="Path 1618" d="M-44.8-8.6h-1.106V0H-44.8V-2.926l.924-.994L-40.642,0h1.372l-3.808-4.676L-39.4-8.6h-1.4l-4,4.3Zm7.756,2.38h-1.05V0h1.05Zm.154-1.876a.675.675,0,0,0-.686-.672.672.672,0,0,0-.672.672.681.681,0,0,0,.672.672A.684.684,0,0,0-36.89-8.092Zm2.016,6.524A1.55,1.55,0,0,0-33.166.126a2.209,2.209,0,0,0,.98-.21v-.98A1.547,1.547,0,0,1-33-.812c-.532,0-.826-.266-.826-.868V-5.32h1.5v-.9h-1.5V-7.854h-1.05v1.638h-1.008v.9h1.008Zm3.584-.14A2.335,2.335,0,0,0-28.742.126c1.33,0,2.31-.7,2.31-1.876,0-.868-.518-1.456-1.582-1.736l-1.2-.294c-.588-.168-.868-.364-.868-.784,0-.6.574-.9,1.19-.9a1.275,1.275,0,0,1,1.372.882h1.05a2.19,2.19,0,0,0-2.408-1.764,1.98,1.98,0,0,0-2.226,1.834c0,.966.616,1.414,1.5,1.638l1.232.322c.644.168.924.434.924.868,0,.63-.532.924-1.274.924a1.386,1.386,0,0,1-1.47-.952Zm11.27-4.508h-1.064V-2A1.652,1.652,0,0,1-22.638-.84,1.284,1.284,0,0,1-24-2.31V-6.216H-25.06v4.074A2.043,2.043,0,0,0-22.89.126a2.244,2.244,0,0,0,1.806-.91V0h1.064ZM-18.158,0h1.05V-4.214a1.687,1.687,0,0,1,1.582-1.162,1.294,1.294,0,0,1,1.372,1.47V0h1.064V-4.074a2.053,2.053,0,0,0-2.184-2.268,2.322,2.322,0,0,0-1.834.91v-.784h-1.05ZM-7.392-1.862A1.432,1.432,0,0,1-8.9-.77c-1.05,0-1.792-.812-1.806-2.142h4.4V-3.29c0-1.806-.91-3.052-2.618-3.052S-11.76-4.956-11.76-3.094C-11.76-1.176-10.6.126-8.9.126A2.371,2.371,0,0,0-6.4-1.862ZM-8.918-5.446A1.561,1.561,0,0,1-7.378-3.71h-3.3A1.782,1.782,0,0,1-8.918-5.446ZM.9-8.6-2.464,0h1.12l.98-2.59H3.178L4.172,0h1.12L1.932-8.6Zm.5,1.372L2.8-3.556H0Zm8.316.98a1.518,1.518,0,0,0-.6-.1,1.735,1.735,0,0,0-1.54.938v-.812H6.524V0h1.05V-4.172A1.505,1.505,0,0,1,9.016-5.334a1.329,1.329,0,0,1,.7.168Zm5.712.9a1.82,1.82,0,0,0-1.68-.994,1.944,1.944,0,0,0-1.68.854v-.728h-1.05V0h1.05V-4.284A1.449,1.449,0,0,1,13.44-5.39c.8,0,1.176.574,1.176,1.442V0h1.05V-4.284A1.449,1.449,0,0,1,17.038-5.39c.8,0,1.176.574,1.176,1.442V0h1.064V-4.116c0-1.344-.7-2.226-1.96-2.226A2.248,2.248,0,0,0,15.428-5.348Zm5.18,2.24c0,1.932,1.162,3.234,2.828,3.234a2.347,2.347,0,0,0,2.492-2H24.85A1.34,1.34,0,0,1,23.436-.8c-1.064,0-1.764-.952-1.764-2.31s.7-2.31,1.764-2.31A1.34,1.34,0,0,1,24.85-4.34h1.078a2.347,2.347,0,0,0-2.492-2C21.77-6.342,20.608-5.04,20.608-3.108ZM27.3,0h1.05V-4.214a1.687,1.687,0,0,1,1.582-1.162A1.294,1.294,0,0,1,31.3-3.906V0h1.064V-4.074a2.053,2.053,0,0,0-2.184-2.268,2.322,2.322,0,0,0-1.834.91V-9.1H27.3ZM38.654,0V-4.144a2.108,2.108,0,0,0-2.366-2.2,2.252,2.252,0,0,0-2.324,1.764H35a1.205,1.205,0,0,1,1.274-.854A1.254,1.254,0,0,1,37.646-4.1v.784a2.663,2.663,0,0,0-1.568-.5A2.129,2.129,0,0,0,33.7-1.876,2.091,2.091,0,0,0,36.008.112a2.491,2.491,0,0,0,1.638-.574V0ZM37.646-1.54a1.556,1.556,0,0,1-1.456.77c-.756,0-1.484-.35-1.484-1.106s.728-1.078,1.484-1.078a1.556,1.556,0,0,1,1.456.77ZM41.5-6.216h-1.05V0H41.5Zm.154-1.876a.675.675,0,0,0-.686-.672.672.672,0,0,0-.672.672.681.681,0,0,0,.672.672A.684.684,0,0,0,41.65-8.092Zm4.914,1.848a1.518,1.518,0,0,0-.6-.1,1.735,1.735,0,0,0-1.54.938v-.812h-1.05V0h1.05V-4.172a1.505,1.505,0,0,1,1.442-1.162,1.329,1.329,0,0,1,.7.168Z" transform="translate(731 549.25)" fill="#001dff"></path><rect id="measuerments_background_box" data-name="measuerments background box" width="800" height="550" transform="translate(331 169.5)" fill="none"></rect></g></svg> 