<?xml version="1.0" encoding="UTF-8"?> <svg xmlns="http://www.w3.org/2000/svg" width="800" height="730" viewBox="0 0 800 730"><g id="diagram-Copal_-sofas" data-name="diagram-Copal -sofas" transform="translate(-1380 -432.5)"><g id="diagram-Copal_-2seater" data-name="diagram-Copal -2seater" transform="translate(-146 289)"><g id="Group_1526" data-name="Group 1526" transform="translate(0 -293)"><g id="Group_885" data-name="Group 885" transform="translate(1273 406)"><path id="Path_1751" data-name="Path 1751" d="M10.375-13.825V-15.35H.45v1.75h7.9L2.925,0H4.9Zm4,8.925A3.264,3.264,0,0,1,17.7-8.4,3.273,3.273,0,0,1,21-4.9a3.245,3.245,0,0,1-3.3,3.45A3.25,3.25,0,0,1,14.375-4.9ZM22.6-11.775a4.534,4.534,0,0,0-4.775-3.8c-3.325,0-5.625,3.2-5.625,8.175a10.739,10.739,0,0,0,.9,4.7A4.9,4.9,0,0,0,17.675.225a4.976,4.976,0,0,0,5.15-5.15,4.922,4.922,0,0,0-4.975-5.1A4,4,0,0,0,13.975-7.4c0-.15-.025-.525-.025-.675,0-3.3,1.625-5.875,3.875-5.875a2.79,2.79,0,0,1,2.825,2.175Zm8.325,12C34.35.225,36.65-3,36.65-7.675s-2.3-7.9-5.725-7.9S25.2-12.35,25.2-7.675,27.5.225,30.925.225Zm0-14.025c2.475,0,3.8,2.55,3.8,6.125S33.4-1.55,30.925-1.55c-2.5,0-3.8-2.55-3.8-6.125S28.425-13.8,30.925-13.8Z" transform="translate(734 319.868)" fill="#001dff"></path><path id="Path_1064" data-name="Path 1064" d="M0,0H76" transform="translate(715.5 295.698)" fill="none" stroke="#001dff" stroke-width="1"></path><g id="Group_880" data-name="Group 880" transform="translate(741.122 250.717)"><path id="Path_1066" data-name="Path 1066" d="M5.346,8.743,29.2,7.482M28.8-.17l1.382,26.117M-.775,3.026A7.055,7.055,0,0,1-4.7,1.6M31.121,5.878l3.993-.211m-.053-1-3.993.211M-1.476,27.265,7.6,2.616M36.787-.593Zm.088,1.661L38.254.994,43.248.731a7.075,7.075,0,0,0,4.709-2.173,7.074,7.074,0,0,0,1.921-4.816,7.04,7.04,0,0,0-.972-3.559,7.032,7.032,0,0,0-2.647-2.571M28.887,1.491,3.706,2.822l-.072,0-.175.007-.176,0H3.107l-.175,0-.176-.01L2.58,2.81l-.175-.018L.9,2.581.532,2.54.351,2.526l-.183-.01-.146,0H-.052l-.073,0-.064,0-.064,0-.064.006-.033,0-.031,0-.025,0-.024,0-.024.006-.024.006-.019,0-.01,0-.011,0-.01,0-.008,0-.01,0-.008,0-.007,0-.007,0-.007,0-.007,0,0,0,0,0,0,0h0l0,0,0,0,0,0,0,0,0,0h0l0,0,0,0v0l0,0,0,0v0l0,0v0l0,0h0l0,0v0h0L-8.624,24.332m-.006.018a4.132,4.132,0,0,0-.251,1.485v.083l0,.082,0,.082.007.082.01.082.01.081.011.082.013.081.014.082.017.08.018.081.02.08.02.08.023.078.024.08.025.077.037.1.039.1.043.1.043.1.048.1.052.1.04.072.041.072.042.071.045.07.046.07.047.069.048.066.049.066.052.066.053.065.053.063.055.063.057.061.058.06.06.059.059.057.067.061.067.059.1.078.1.075.1.072.1.069.067.042.067.042.069.041.07.037.071.037.072.036.071.034.111.048.078.033.08.03.081.029.081.027.082.025.083.022.082.022.084.019.114.024.116.019.112.016.113.012.112.008.113,0h.222L-4.8,29.8l.111-.007.12-.013.123-.018.08-.013.08-.016.081-.017.078-.019.078-.02.078-.023.078-.024.112-.039.08-.03.081-.031.078-.034.077-.035.078-.037.076-.039.076-.041.073-.042.1-.061.1-.065.092-.063.089-.066.087-.069.086-.071.064-.055.061-.057.061-.058.059-.06.059-.061.057-.063.055-.061.061-.075.051-.065.051-.065.048-.066.047-.066.046-.069.045-.069.043-.071.041-.071.04-.072.039-.072.037-.076.036-.075.035-.075.033-.077.03-.076.029-.078m39.648-1.747L36.787-.593h0v0M38.169,25.53a4,4,0,0,1-7.988.423m4.8-22.781.211,3.993a2,2,0,1,1-3.993.211l-.212-3.993a2,2,0,0,1,3.995-.211ZM30.473-.368l.316-.022L34.784-.6l.336-.012.337,0,.934.031.124,0h.052l.051,0,.17-.01A10.1,10.1,0,0,0,43.51-3.684a10.1,10.1,0,0,0,2.749-6.87V-29.531a10.11,10.11,0,0,0-2.73-6.867,10.105,10.105,0,0,0-6.7-3.116l-56.083-3.194a6.554,6.554,0,0,0-3.733.928A6.547,6.547,0,0,0-25.543-38.9a6.546,6.546,0,0,0-.482,3.815l5.608,31.8A6.57,6.57,0,0,0-18.062.673a6.565,6.565,0,0,0,4.389,1.4L28.969-.179l.053,0,.052-.006L29.179-.2l.952-.134ZM-.631,2.639h0Z" fill="none" stroke="#001dff" stroke-width="0.5"></path></g><path id="Path_1750" data-name="Path 1750" d="M8.45-15.35h-2L.55-4.875v1.4H7.625V0H9.45V-3.475h2.7v-1.65H9.45v-3.7H7.625v3.7h-4.9ZM18.575-7.025H19.65c1.75,0,3.125,1.025,3.125,2.75a2.783,2.783,0,0,1-3.075,2.8,3.179,3.179,0,0,1-3.375-2.9H14.4a4.963,4.963,0,0,0,5.325,4.6c3.075,0,4.925-2,4.925-4.525a3.62,3.62,0,0,0-2.7-3.575,3.547,3.547,0,0,0,2.4-3.5c0-2.45-1.75-4.2-4.675-4.2A4.874,4.874,0,0,0,14.7-11.15h1.925a2.954,2.954,0,0,1,3.05-2.725,2.577,2.577,0,0,1,2.8,2.6A2.58,2.58,0,0,1,19.6-8.7H18.575ZM33.2.225c3.425,0,5.725-3.225,5.725-7.9s-2.3-7.9-5.725-7.9-5.725,3.225-5.725,7.9S29.775.225,33.2.225Zm0-14.025c2.475,0,3.8,2.55,3.8,6.125S35.675-1.55,33.2-1.55c-2.5,0-3.8-2.55-3.8-6.125S30.7-13.8,33.2-13.8Z" transform="translate(830.266 279.632) rotate(-90)" fill="#001dff"></path><g id="Group_882" data-name="Group 882" transform="translate(806.529 274.425)"><path id="Path_1068" data-name="Path 1068" d="M0,6.575v-43" transform="translate(0)" fill="none" stroke="#001dff" stroke-width="1"></path></g><g id="Group_883" data-name="Group 883" transform="translate(801.109 237.692)"><path id="Path_1069" data-name="Path 1069" d="M0,0H5.669" fill="none" stroke="#001dff" stroke-width="1"></path></g></g><g id="Group_1524" data-name="Group 1524"><g id="Group_1196" data-name="Group 1196" transform="translate(1809.919 632.66)"><path id="Path_1349" data-name="Path 1349" d="M82.7,25.436a7.113,7.113,0,0,0,2.8-4.427m-.177-4.844.024.083m.024.081.021.081M20.769,12.39c-.019.078-.033.154-.045.232m64.745,4.114c-.019-.083-.038-.164-.057-.244M20.783,12.367a1.938,1.938,0,0,0-.059.277m-2.016-1.71v-.024M93.213,24.974,93,26.752M-40.92,48.744-37.8,33.4m-10.664,18.75-.014-.078M-31.967,33.4l-3.6,17.7M20.7,25.415V12.888m-68.4,12.548h136.8m-.977,7.99H-46.717m125.923,0,3.123,15.341a6.585,6.585,0,0,1,.132,1.117l0,.192,0,.192-.007.192-.012.192-.021.192-.024.192-.031.19-.038.19-.045.187-.05.185-.031.1-.033.1-.035.1-.038.1-.033.076-.04.09-.042.09-.047.088-.047.085-.038.064-.04.064-.031.047-.033.047-.033.05-.035.045-.05.066-.052.062-.057.064-.054.059-.052.052-.04.04-.042.038-.042.038-.042.036-.054.045-.057.043-.057.04-.057.04-.057.036-.057.033-.059.033-.071.038-.054.026-.057.026-.057.024-.059.024-.059.021-.061.021-.061.019-.061.017-.059.014-.061.014-.064.012-.061.009-.047.007-.047,0-.047,0-.047,0-.059,0-.064,0h-.061l-.064,0-.061,0-.061,0-.064,0-.061-.009-.064-.009-.061-.012-.061-.014-.064-.014-.059-.019L79,53.834l-.066-.024-.057-.019-.054-.024-.061-.026-.061-.028-.061-.028-.059-.031-.059-.036-.061-.036-.059-.038-.059-.04-.054-.04-.057-.043-.061-.05-.061-.052-.061-.057-.057-.057-.059-.059-.054-.062-.054-.062-.05-.062-.068-.085-.064-.09-.045-.069-.045-.071-.045-.071-.04-.071-.035-.066-.033-.064-.04-.081-.038-.081-.035-.083-.035-.083L77.2,51.9l-.052-.147L77.1,51.6l-.042-.154-.038-.152-.033-.156L73.376,33.426M20.7,25.436V-16.532a2.023,2.023,0,0,1,.585-1.413,2.023,2.023,0,0,1,1.412-.586H69.937l10.1.116,6.677.232,1.947.1,1.782.116,1.61.126,1.433.14,1.277.159.588.088.583.107.293.059.307.071.321.081.323.095.215.066.215.076.212.081.21.085.153.069.153.071.153.074.149.078.149.083.146.088.144.088.144.092.179.126.179.13.172.138.17.142.163.149.16.152.153.159.149.161.118.14.116.142.111.145.109.147.1.154.1.154.094.156.092.161.085.161.083.166.076.166.073.171.068.171.061.171.059.173.052.173.042.159.04.161.035.159.033.164.026.161.024.166.019.164.017.164.012.166.007.166,0,.164,0,.166,0,.166-.009.164-.014.164-.019.164L98.592,19.364m3.614-29.9a6.546,6.546,0,0,0-.71-2.942,6.541,6.541,0,0,0-1.966-2.3c-.024-.019-.05-.036-.073-.055a6.625,6.625,0,0,0-1.159-.65l-.04-.017a6.456,6.456,0,0,0-2.469-.522h-.144a6.529,6.529,0,0,0-2.089.365l-.139.05a6.617,6.617,0,0,0-.954.453l-.13.076a6.5,6.5,0,0,0-.866.633l-.116.1a6.728,6.728,0,0,0-.732.782,6.5,6.5,0,0,0-1.225,2.535l-.4,1.714-.026.114-.024.111-.021.114-.045.282-.453,3.554L86.108,12.824l-.156,1.287-.05.408m.618-4.958q-.368,2.81-.7,5.624l-.113,1.031-.017.223-.038.733v1.4a6.485,6.485,0,0,0,3.581,5.8m-3.621-6.205v1.567a6.976,6.976,0,0,1-2.95,5.7M20.7,12.91a2,2,0,0,1,2-2v0m-2,11.953v.026c0,.031,0,.062,0,.09M22.7,10.911h50.93l1.985.019L77.533,11l.562.033.559.045.434.047.217.028.217.033.179.033.182.033.177.04.179.043.182.05.182.052.179.057.179.064.179.066.177.074.177.078.172.081.172.088.17.092.165.095.165.1.163.107.161.111.156.116.153.119.151.123.146.128.144.13.139.135.118.121.116.123.113.128.111.128.106.135.1.135.1.14.1.142.1.145.09.147.087.149.085.152.08.154.078.156.073.159.068.161.064.161.061.164.057.166.054.166.047.166.045.168.04.168.035.171.031.168.028.171.021.171.021.168.014.171.009.168.007.171,0,.166M98.573,19.5l-.021.142-.026.142-.028.142-.031.14-.033.14-.038.138-.04.14-.042.135-.047.138-.05.133-.052.135-.054.133-.059.13-.061.13-.064.128-.066.128-.078.142-.08.14-.087.138-.087.135-.092.135-.094.13-.1.128-.1.123-.109.13L96.924,23l-.113.121-.118.121-.118.114-.12.111-.123.109-.125.1-.156.123-.161.119-.194.135-.2.13-.168.1-.175.1-.175.092-.177.088-.191.088-.194.081-.194.078-.2.071-.205.066-.208.064-.208.059-.21.052M-40.927,48.777a6.456,6.456,0,0,0-.123,1.084l0,.194,0,.192.007.192.012.192.019.19.019.161.024.159.028.156.033.159.04.154.042.154.031.1.033.1.035.1.04.1.031.076.04.092.042.088.047.088.047.088.04.064.038.062.031.05.035.047.033.047.033.047.052.064.052.064.054.062.057.062.05.052.04.04.042.036.042.038.042.038.054.043.057.045.057.04.059.038.054.038.059.033.057.033.059.031.068.033.057.026.057.024.057.024.061.021.059.019.061.019.061.017.059.017.064.012.061.012.061.012.047,0,.047.007.047,0,.047,0,.059,0h.189l.061,0,.061,0,.064-.007.061-.007.064-.009.061-.014.064-.012.061-.017.061-.017.066-.021.066-.021.057-.021.057-.021.061-.026.059-.028.061-.031.059-.031.061-.033.059-.038.059-.038.059-.04.057-.04.054-.04.061-.052.061-.052.061-.055.059-.059.057-.057.057-.062.052-.062.052-.062.066-.088.064-.088.047-.069.045-.071.042-.071.042-.074.033-.064.033-.064.04-.081.038-.081.038-.083.033-.083.057-.149.052-.149.047-.152.042-.152.04-.154.033-.154M-44.7,12.8h0l.432,3.737.012.2.007.2v1.605a6.509,6.509,0,0,1-.968,3.407,6.515,6.515,0,0,1-2.611,2.39m15.6-13.456v0h50.93a2,2,0,0,1,2,2V-16.553a2.018,2.018,0,0,0-.585-1.413,2.015,2.015,0,0,0-1.411-.586H-28.528l-10.1.116-2.346.064-2.233.078-2.1.09-1.947.1-1.782.114-1.61.128-1.433.138-1.277.159-.585.09-.585.1-.293.062-.307.071-.319.081-.323.092-.217.069-.215.074-.212.083-.208.085-.156.066-.153.071-.151.076-.151.078-.149.083-.146.085-.144.088-.142.092-.182.126-.177.13-.175.14-.17.142-.163.147-.16.154-.153.156-.149.164-.118.14-.116.14-.111.147-.109.147-.1.152-.1.154-.1.159-.092.159-.085.164-.08.164-.078.168-.073.168-.066.171-.064.173-.057.173-.054.173-.042.159-.04.159-.035.161-.031.161-.028.164-.024.164-.019.166-.017.164-.009.166-.007.164,0,.166v.166l.007.164.009.164.012.166.019.161M92.993,26.776l.368-3L90.123,50.228c-.007.047-.012.095-.017.14l-.227,1.738a2,2,0,0,1-2.223,1.743l-.05-.007-.047-.007-.05-.009-.047-.009-.047-.012-.047-.012-.047-.014-.047-.014-.047-.017-.045-.017-.047-.019-.045-.019-.042-.021L87,53.649l-.045-.021-.042-.024-.042-.026-.04-.024-.042-.028-.04-.028-.04-.026-.038-.031-.04-.031-.035-.031-.038-.033-.035-.033-.035-.033-.035-.036-.033-.036-.033-.038-.031-.038-.031-.038-.031-.038-.028-.04-.026-.04-.028-.04-.026-.043-.024-.043-.024-.043-.024-.043-.021-.045-.021-.045-.019-.045-.019-.045-.017-.045L86,52.492l-.014-.047-.014-.045-.012-.047-.012-.05-.009-.047-.009-.047-.007-.05-.007-.047-.007-.05,0-.05,0-.066,0-.071,0-.069,0-.069.007-.095.245-2.11L89.4,23.063a9.618,9.618,0,0,0,3.963.5v.211M-44.205,18.14l0-.168,0-.168.009-.171.017-.168.019-.171.021-.171.028-.168.031-.171.035-.171.04-.168.045-.166.05-.168.052-.166.057-.164.061-.164.064-.164.068-.159.073-.159.078-.156.08-.154.085-.152.087-.152.092-.147.094-.142.1-.142.1-.14.1-.138.109-.133.111-.128.111-.128.116-.123.118-.121.139-.135.144-.133.149-.128.149-.123.153-.119.158-.116.161-.109.163-.107.163-.1.168-.1.168-.09.172-.088.175-.081.175-.078.177-.074.179-.069.179-.062.179-.059.182-.052.182-.047.179-.043.179-.04.179-.036.182-.031.215-.033.217-.028.434-.047.562-.047.562-.033,1.914-.066,1.985-.019M-51.784,25.109-52,25.054l-.21-.059-.205-.062-.2-.066-.2-.074-.194-.076-.194-.083-.189-.085-.179-.088-.175-.092-.172-.1-.17-.1-.184-.116-.179-.126-.175-.13-.172-.135-.125-.1-.123-.109-.12-.111-.118-.116L-55.4,23.1l-.113-.123-.111-.123-.109-.13-.1-.126-.1-.128-.094-.13-.092-.133-.087-.135-.085-.138-.083-.14-.078-.145-.066-.126-.064-.128-.061-.13-.057-.13L-56.753,21l-.052-.133-.05-.135L-56.9,20.6l-.042-.138-.04-.138-.038-.138-.033-.14-.033-.14-.028-.142-.024-.142-.024-.14M-60.744-9.774-57.18,19.34a6.536,6.536,0,0,0,1.756,3.7A6.515,6.515,0,0,0-51.8,24.95m7.6-6.8v1.567a6.989,6.989,0,0,0,.781,3.208,7,7,0,0,0,2.167,2.492M-60.78-10.149a6.565,6.565,0,0,1,1.591-4.673l.059-.069a6.6,6.6,0,0,1,1.01-.913l.076-.052a6.3,6.3,0,0,1,1.157-.65l.04-.019a6.575,6.575,0,0,1,4.843-.1,6.49,6.49,0,0,1,2.58,1.788,6.51,6.51,0,0,1,1.44,2.791l.387,1.641.061.282.024.123.047.289.453,3.554L-44.7,12.8m.085,39.72.024-.064.019-.066.019-.064.014-.069.014-.066.012-.069.007-.069.007-.069,0-.069,0-.066v-.069l0-.069-.255-2.205-3.241-26.471a9.856,9.856,0,0,1-3.963.5v.213l3.246,26.5c.068.612.149,1.223.236,1.833a2.023,2.023,0,0,0,.753,1.33,2.013,2.013,0,0,0,1.473.41l.066-.009.068-.012.066-.014.068-.017.066-.019.064-.021.066-.021.064-.026.061-.028.064-.028.061-.031.057-.036.061-.036.057-.038.054-.04.054-.043.054-.043.052-.045.05-.047.047-.05.047-.05.045-.052.042-.055.04-.055.04-.057.038-.057.035-.059.033-.062.031-.059.028-.064.028-.062Z" transform="translate(0)" fill="none" stroke="#001dff" stroke-linecap="round" stroke-linejoin="round" stroke-width="0.5"></path></g><g id="Group_876" data-name="Group 876" transform="translate(1749 701.698)"><path id="Path_1062" data-name="Path 1062" d="M0,.169H163" transform="translate(0 0)" fill="none" stroke="#001dff" stroke-width="1"></path></g><path id="Path_1753" data-name="Path 1753" d="M6.35-15.375H5.175L.625-13.05v2L4.425-13V0H6.35ZM11.9-4.9a3.264,3.264,0,0,1,3.325-3.5,3.273,3.273,0,0,1,3.3,3.5,3.245,3.245,0,0,1-3.3,3.45A3.25,3.25,0,0,1,11.9-4.9Zm8.225-6.875a4.534,4.534,0,0,0-4.775-3.8c-3.325,0-5.625,3.2-5.625,8.175a10.739,10.739,0,0,0,.9,4.7A4.9,4.9,0,0,0,15.2.225a4.976,4.976,0,0,0,5.15-5.15,4.922,4.922,0,0,0-4.975-5.1A4,4,0,0,0,11.5-7.4c0-.15-.025-.525-.025-.675,0-3.3,1.625-5.875,3.875-5.875a2.79,2.79,0,0,1,2.825,2.175Zm6.4,4.75H27.6c1.75,0,3.125,1.025,3.125,2.75a2.783,2.783,0,0,1-3.075,2.8,3.179,3.179,0,0,1-3.375-2.9H22.35a4.963,4.963,0,0,0,5.325,4.6c3.075,0,4.925-2,4.925-4.525a3.62,3.62,0,0,0-2.7-3.575,3.547,3.547,0,0,0,2.4-3.5c0-2.45-1.75-4.2-4.675-4.2A4.874,4.874,0,0,0,22.65-11.15h1.925a2.954,2.954,0,0,1,3.05-2.725,2.577,2.577,0,0,1,2.8,2.6A2.58,2.58,0,0,1,27.55-8.7H26.525ZM40.65.225c3.425,0,5.725-3.225,5.725-7.9s-2.3-7.9-5.725-7.9-5.725,3.225-5.725,7.9S37.225.225,40.65.225Zm0-14.025c2.475,0,3.8,2.55,3.8,6.125S43.125-1.55,40.65-1.55c-2.5,0-3.8-2.55-3.8-6.125S38.15-13.8,40.65-13.8Z" transform="translate(1807 725.868)" fill="#001dff"></path><path id="Path_1752" data-name="Path 1752" d="M10.375-13.825V-15.35H.45v1.75h7.9L2.925,0H4.9Zm9.65,2.6c0,1.45-1.25,2.725-2.85,4.475L12.225-1.3V0H22.25V-1.75H14.925l3.9-4.275c1.55-1.75,3.1-3.275,3.1-5.225,0-2.625-1.75-4.325-4.675-4.325-2.825,0-4.725,1.975-5.025,4.825H14.25c.15-1.775,1.15-3.075,3-3.075A2.517,2.517,0,0,1,20.025-11.225Zm9.45,2.975a3.171,3.171,0,0,1,3.15,3.4A3.144,3.144,0,0,1,29.5-1.475a3.169,3.169,0,0,1-3.35-2.9H24.225A4.972,4.972,0,0,0,29.5.225,4.874,4.874,0,0,0,34.475-4.85a4.791,4.791,0,0,0-4.825-5.1,4.322,4.322,0,0,0-2.8.975V-13.6H33.6v-1.75H25.2v8.425h1.55A3.506,3.506,0,0,1,29.475-8.25Z" transform="translate(1951.412 668.189) rotate(-90)" fill="#001dff"></path><g id="Group_879" data-name="Group 879" transform="translate(1927.243 675.818)"><path id="Path_1065" data-name="Path 1065" d="M0,11.682v-72.5" transform="translate(0)" fill="none" stroke="#001dff" stroke-width="1"></path></g></g></g><path id="Path_1759" data-name="Path 1759" d="M-52.444-4.3c0,2.674,1.68,4.424,3.85,4.424a3.226,3.226,0,0,0,3.346-2.66H-46.34A2.244,2.244,0,0,1-48.594-.868c-1.652,0-2.744-1.4-2.744-3.43s1.106-3.43,2.744-3.43A2.248,2.248,0,0,1-46.34-6.076h1.092a3.217,3.217,0,0,0-3.346-2.646C-50.764-8.722-52.444-6.972-52.444-4.3Zm13.93,1.19c0-1.9-1.162-3.234-2.856-3.234s-2.856,1.33-2.856,3.234S-43.078.126-41.37.126-38.514-1.2-38.514-3.108Zm-1.064,0c0,1.358-.672,2.31-1.792,2.31s-1.792-.952-1.792-2.31.672-2.31,1.792-2.31S-39.578-4.466-39.578-3.108Zm3.542,2.38a2.21,2.21,0,0,0,1.75.854c1.834,0,2.8-1.512,2.8-3.234s-.966-3.234-2.8-3.234a2.21,2.21,0,0,0-1.75.854v-.728h-1.05v8.6h1.05Zm0-3.64a1.789,1.789,0,0,1,1.6-1.022c1.19,0,1.89.966,1.89,2.282s-.7,2.282-1.89,2.282a1.789,1.789,0,0,1-1.6-1.022ZM-25.55,0V-4.144a2.108,2.108,0,0,0-2.366-2.2A2.252,2.252,0,0,0-30.24-4.578H-29.2a1.205,1.205,0,0,1,1.274-.854A1.254,1.254,0,0,1-26.558-4.1v.784a2.663,2.663,0,0,0-1.568-.5,2.129,2.129,0,0,0-2.38,1.946A2.091,2.091,0,0,0-28.2.112a2.491,2.491,0,0,0,1.638-.574V0Zm-1.008-1.54a1.556,1.556,0,0,1-1.456.77c-.756,0-1.484-.35-1.484-1.106s.728-1.078,1.484-1.078a1.556,1.556,0,0,1,1.456.77Zm3.85-7.56h-1.05V0h1.05ZM-13.9-6.286c0,.812-.7,1.526-1.6,2.506L-18.27-.728V0h5.614V-.98h-4.1l2.184-2.394c.868-.98,1.736-1.834,1.736-2.926a2.343,2.343,0,0,0-2.618-2.422,2.78,2.78,0,0,0-2.814,2.7h1.134a1.66,1.66,0,0,1,1.68-1.722A1.41,1.41,0,0,1-13.9-6.286Zm1.932,3.122H-8.6v-.98H-11.97Zm4.452,1.456A2.335,2.335,0,0,0-4.97.126c1.33,0,2.31-.7,2.31-1.876,0-.868-.518-1.456-1.582-1.736l-1.2-.294c-.588-.168-.868-.364-.868-.784,0-.6.574-.9,1.19-.9a1.275,1.275,0,0,1,1.372.882H-2.7A2.19,2.19,0,0,0-5.11-6.342,1.98,1.98,0,0,0-7.336-4.508c0,.966.616,1.414,1.5,1.638l1.232.322c.644.168.924.434.924.868,0,.63-.532.924-1.274.924a1.386,1.386,0,0,1-1.47-.952ZM2.716-1.862A1.432,1.432,0,0,1,1.2-.77C.154-.77-.588-1.582-.6-2.912h4.4V-3.29c0-1.806-.91-3.052-2.618-3.052S-1.652-4.956-1.652-3.094C-1.652-1.176-.49.126,1.2.126A2.371,2.371,0,0,0,3.71-1.862ZM1.19-5.446A1.561,1.561,0,0,1,2.73-3.71h-3.3A1.782,1.782,0,0,1,1.19-5.446ZM9.7,0V-4.144a2.108,2.108,0,0,0-2.366-2.2A2.252,2.252,0,0,0,5.012-4.578H6.048a1.205,1.205,0,0,1,1.274-.854A1.254,1.254,0,0,1,8.694-4.1v.784a2.663,2.663,0,0,0-1.568-.5,2.129,2.129,0,0,0-2.38,1.946A2.091,2.091,0,0,0,7.056.112,2.491,2.491,0,0,0,8.694-.462V0ZM8.694-1.54a1.556,1.556,0,0,1-1.456.77c-.756,0-1.484-.35-1.484-1.106s.728-1.078,1.484-1.078a1.556,1.556,0,0,1,1.456.77Zm3.052-.028A1.55,1.55,0,0,0,13.454.126a2.209,2.209,0,0,0,.98-.21v-.98a1.547,1.547,0,0,1-.812.252c-.532,0-.826-.266-.826-.868V-5.32h1.5v-.9H12.8V-7.854h-1.05v1.638H10.738v.9h1.008Zm7.994-.294A1.432,1.432,0,0,1,18.228-.77c-1.05,0-1.792-.812-1.806-2.142h4.4V-3.29c0-1.806-.91-3.052-2.618-3.052s-2.828,1.386-2.828,3.248c0,1.918,1.162,3.22,2.856,3.22a2.371,2.371,0,0,0,2.506-1.988ZM18.214-5.446a1.561,1.561,0,0,1,1.54,1.736h-3.3A1.782,1.782,0,0,1,18.214-5.446Zm7.2-.8a1.518,1.518,0,0,0-.6-.1,1.735,1.735,0,0,0-1.54.938v-.812h-1.05V0h1.05V-4.172A1.505,1.505,0,0,1,24.71-5.334a1.329,1.329,0,0,1,.7.168Zm3.78,4a3.081,3.081,0,0,0,3.3,2.366c1.708,0,2.968-.938,2.968-2.492,0-1.218-.77-1.96-2.142-2.31l-1.47-.378c-.9-.238-1.372-.588-1.372-1.316,0-.882.756-1.414,1.778-1.414A1.969,1.969,0,0,1,34.3-6.454h1.106a2.927,2.927,0,0,0-3.15-2.268,2.548,2.548,0,0,0-2.828,2.436c0,1.3.868,1.9,2.058,2.212l1.54.406c.994.252,1.372.686,1.372,1.358,0,.952-.784,1.5-1.9,1.5A2.122,2.122,0,0,1,30.31-2.24Zm13.076-.868c0-1.9-1.162-3.234-2.856-3.234s-2.856,1.33-2.856,3.234S37.7.126,39.41.126,42.266-1.2,42.266-3.108Zm-1.064,0C41.2-1.75,40.53-.8,39.41-.8s-1.792-.952-1.792-2.31.672-2.31,1.792-2.31S41.2-4.466,41.2-3.108Zm5.6-5.978a2.01,2.01,0,0,0-.812-.14,1.827,1.827,0,0,0-1.9,1.974v1.036h-1.05v.9h1.05V0h1.036V-5.32h1.4v-.9h-1.4v-.952A.991.991,0,0,1,46.144-8.3a1.216,1.216,0,0,1,.658.168ZM52.108,0V-4.144a2.108,2.108,0,0,0-2.366-2.2,2.252,2.252,0,0,0-2.324,1.764h1.036a1.205,1.205,0,0,1,1.274-.854A1.254,1.254,0,0,1,51.1-4.1v.784a2.663,2.663,0,0,0-1.568-.5,2.129,2.129,0,0,0-2.38,1.946A2.091,2.091,0,0,0,49.462.112,2.491,2.491,0,0,0,51.1-.462V0ZM51.1-1.54a1.556,1.556,0,0,1-1.456.77c-.756,0-1.484-.35-1.484-1.106s.728-1.078,1.484-1.078a1.556,1.556,0,0,1,1.456.77Z" transform="translate(1929 486.25)" fill="#001dff"></path></g><g id="diagram-Copal_-3seater" data-name="diagram-Copal -3seater" transform="translate(-146 266)"><g id="Group_1530" data-name="Group 1530"><g id="Group_885-2" data-name="Group 885" transform="translate(1273 406)"><path id="Path_1755" data-name="Path 1755" d="M10.375-13.825V-15.35H.45v1.75h7.9L2.925,0H4.9Zm4,8.925A3.264,3.264,0,0,1,17.7-8.4,3.273,3.273,0,0,1,21-4.9a3.245,3.245,0,0,1-3.3,3.45A3.25,3.25,0,0,1,14.375-4.9ZM22.6-11.775a4.534,4.534,0,0,0-4.775-3.8c-3.325,0-5.625,3.2-5.625,8.175a10.739,10.739,0,0,0,.9,4.7A4.9,4.9,0,0,0,17.675.225a4.976,4.976,0,0,0,5.15-5.15,4.922,4.922,0,0,0-4.975-5.1A4,4,0,0,0,13.975-7.4c0-.15-.025-.525-.025-.675,0-3.3,1.625-5.875,3.875-5.875a2.79,2.79,0,0,1,2.825,2.175Zm8.325,12C34.35.225,36.65-3,36.65-7.675s-2.3-7.9-5.725-7.9S25.2-12.35,25.2-7.675,27.5.225,30.925.225Zm0-14.025c2.475,0,3.8,2.55,3.8,6.125S33.4-1.55,30.925-1.55c-2.5,0-3.8-2.55-3.8-6.125S28.425-13.8,30.925-13.8Z" transform="translate(734 319.868)" fill="#001dff"></path><path id="Path_1064-2" data-name="Path 1064" d="M0,0H76" transform="translate(715.5 295.698)" fill="none" stroke="#001dff" stroke-width="1"></path><g id="Group_880-2" data-name="Group 880" transform="translate(741.122 250.717)"><path id="Path_1066-2" data-name="Path 1066" d="M5.346,8.743,29.2,7.482M28.8-.17l1.382,26.117M-.775,3.026A7.055,7.055,0,0,1-4.7,1.6M31.121,5.878l3.993-.211m-.053-1-3.993.211M-1.476,27.265,7.6,2.616M36.787-.593Zm.088,1.661L38.254.994,43.248.731a7.075,7.075,0,0,0,4.709-2.173,7.074,7.074,0,0,0,1.921-4.816,7.04,7.04,0,0,0-.972-3.559,7.032,7.032,0,0,0-2.647-2.571M28.887,1.491,3.706,2.822l-.072,0-.175.007-.176,0H3.107l-.175,0-.176-.01L2.58,2.81l-.175-.018L.9,2.581.532,2.54.351,2.526l-.183-.01-.146,0H-.052l-.073,0-.064,0-.064,0-.064.006-.033,0-.031,0-.025,0-.024,0-.024.006-.024.006-.019,0-.01,0-.011,0-.01,0-.008,0-.01,0-.008,0-.007,0-.007,0-.007,0-.007,0,0,0,0,0,0,0h0l0,0,0,0,0,0,0,0,0,0h0l0,0,0,0v0l0,0,0,0v0l0,0v0l0,0h0l0,0v0h0L-8.624,24.332m-.006.018a4.132,4.132,0,0,0-.251,1.485v.083l0,.082,0,.082.007.082.01.082.01.081.011.082.013.081.014.082.017.08.018.081.02.08.02.08.023.078.024.08.025.077.037.1.039.1.043.1.043.1.048.1.052.1.04.072.041.072.042.071.045.07.046.07.047.069.048.066.049.066.052.066.053.065.053.063.055.063.057.061.058.06.06.059.059.057.067.061.067.059.1.078.1.075.1.072.1.069.067.042.067.042.069.041.07.037.071.037.072.036.071.034.111.048.078.033.08.03.081.029.081.027.082.025.083.022.082.022.084.019.114.024.116.019.112.016.113.012.112.008.113,0h.222L-4.8,29.8l.111-.007.12-.013.123-.018.08-.013.08-.016.081-.017.078-.019.078-.02.078-.023.078-.024.112-.039.08-.03.081-.031.078-.034.077-.035.078-.037.076-.039.076-.041.073-.042.1-.061.1-.065.092-.063.089-.066.087-.069.086-.071.064-.055.061-.057.061-.058.059-.06.059-.061.057-.063.055-.061.061-.075.051-.065.051-.065.048-.066.047-.066.046-.069.045-.069.043-.071.041-.071.04-.072.039-.072.037-.076.036-.075.035-.075.033-.077.03-.076.029-.078m39.648-1.747L36.787-.593h0v0M38.169,25.53a4,4,0,0,1-7.988.423m4.8-22.781.211,3.993a2,2,0,1,1-3.993.211l-.212-3.993a2,2,0,0,1,3.995-.211ZM30.473-.368l.316-.022L34.784-.6l.336-.012.337,0,.934.031.124,0h.052l.051,0,.17-.01A10.1,10.1,0,0,0,43.51-3.684a10.1,10.1,0,0,0,2.749-6.87V-29.531a10.11,10.11,0,0,0-2.73-6.867,10.105,10.105,0,0,0-6.7-3.116l-56.083-3.194a6.554,6.554,0,0,0-3.733.928A6.547,6.547,0,0,0-25.543-38.9a6.546,6.546,0,0,0-.482,3.815l5.608,31.8A6.57,6.57,0,0,0-18.062.673a6.565,6.565,0,0,0,4.389,1.4L28.969-.179l.053,0,.052-.006L29.179-.2l.952-.134ZM-.631,2.639h0Z" fill="none" stroke="#001dff" stroke-width="0.5"></path></g><path id="Path_1756" data-name="Path 1756" d="M8.45-15.35h-2L.55-4.875v1.4H7.625V0H9.45V-3.475h2.7v-1.65H9.45v-3.7H7.625v3.7h-4.9ZM18.575-7.025H19.65c1.75,0,3.125,1.025,3.125,2.75a2.783,2.783,0,0,1-3.075,2.8,3.179,3.179,0,0,1-3.375-2.9H14.4a4.963,4.963,0,0,0,5.325,4.6c3.075,0,4.925-2,4.925-4.525a3.62,3.62,0,0,0-2.7-3.575,3.547,3.547,0,0,0,2.4-3.5c0-2.45-1.75-4.2-4.675-4.2A4.874,4.874,0,0,0,14.7-11.15h1.925a2.954,2.954,0,0,1,3.05-2.725,2.577,2.577,0,0,1,2.8,2.6A2.58,2.58,0,0,1,19.6-8.7H18.575ZM33.2.225c3.425,0,5.725-3.225,5.725-7.9s-2.3-7.9-5.725-7.9-5.725,3.225-5.725,7.9S29.775.225,33.2.225Zm0-14.025c2.475,0,3.8,2.55,3.8,6.125S35.675-1.55,33.2-1.55c-2.5,0-3.8-2.55-3.8-6.125S30.7-13.8,33.2-13.8Z" transform="translate(830.266 279.632) rotate(-90)" fill="#001dff"></path><g id="Group_882-2" data-name="Group 882" transform="translate(806.529 274.425)"><path id="Path_1068-2" data-name="Path 1068" d="M0,6.575v-43" transform="translate(0)" fill="none" stroke="#001dff" stroke-width="1"></path></g><g id="Group_883-2" data-name="Group 883" transform="translate(801.109 237.692)"><path id="Path_1069-2" data-name="Path 1069" d="M0,0H5.669" fill="none" stroke="#001dff" stroke-width="1"></path></g></g><g id="Group_1529" data-name="Group 1529"><path id="Path_1062-2" data-name="Path 1062" d="M0,.169H230" transform="translate(1682.5 701.698)" fill="none" stroke="#001dff" stroke-width="1"></path><path id="Path_1757" data-name="Path 1757" d="M8.525-11.225c0,1.45-1.25,2.725-2.85,4.475L.725-1.3V0H10.75V-1.75H3.425l3.9-4.275c1.55-1.75,3.1-3.275,3.1-5.225,0-2.625-1.75-4.325-4.675-4.325-2.825,0-4.725,1.975-5.025,4.825H2.75c.15-1.775,1.15-3.075,3-3.075A2.517,2.517,0,0,1,8.525-11.225Zm8.2,4.2H17.8c1.75,0,3.125,1.025,3.125,2.75a2.783,2.783,0,0,1-3.075,2.8,3.179,3.179,0,0,1-3.375-2.9H12.55a4.963,4.963,0,0,0,5.325,4.6c3.075,0,4.925-2,4.925-4.525a3.62,3.62,0,0,0-2.7-3.575,3.547,3.547,0,0,0,2.4-3.5c0-2.45-1.75-4.2-4.675-4.2A4.874,4.874,0,0,0,12.85-11.15h1.925a2.954,2.954,0,0,1,3.05-2.725,2.577,2.577,0,0,1,2.8,2.6A2.58,2.58,0,0,1,17.75-8.7H16.725ZM30.85.225c3.425,0,5.725-3.225,5.725-7.9s-2.3-7.9-5.725-7.9-5.725,3.225-5.725,7.9S27.425.225,30.85.225Zm0-14.025c2.475,0,3.8,2.55,3.8,6.125S33.325-1.55,30.85-1.55c-2.5,0-3.8-2.55-3.8-6.125S28.35-13.8,30.85-13.8ZM44.8.225c3.425,0,5.725-3.225,5.725-7.9s-2.3-7.9-5.725-7.9-5.725,3.225-5.725,7.9S41.375.225,44.8.225Zm0-14.025c2.475,0,3.8,2.55,3.8,6.125S47.275-1.55,44.8-1.55C42.3-1.55,41-4.1,41-7.675S42.3-13.8,44.8-13.8Z" transform="translate(1772 725.868)" fill="#001dff"></path><path id="Path_1754" data-name="Path 1754" d="M10.375-13.825V-15.35H.45v1.75h7.9L2.925,0H4.9Zm9.65,2.6c0,1.45-1.25,2.725-2.85,4.475L12.225-1.3V0H22.25V-1.75H14.925l3.9-4.275c1.55-1.75,3.1-3.275,3.1-5.225,0-2.625-1.75-4.325-4.675-4.325-2.825,0-4.725,1.975-5.025,4.825H14.25c.15-1.775,1.15-3.075,3-3.075A2.517,2.517,0,0,1,20.025-11.225Zm9.45,2.975a3.171,3.171,0,0,1,3.15,3.4A3.144,3.144,0,0,1,29.5-1.475a3.169,3.169,0,0,1-3.35-2.9H24.225A4.972,4.972,0,0,0,29.5.225,4.874,4.874,0,0,0,34.475-4.85a4.791,4.791,0,0,0-4.825-5.1,4.322,4.322,0,0,0-2.8.975V-13.6H33.6v-1.75H25.2v8.425h1.55A3.506,3.506,0,0,1,29.475-8.25Z" transform="translate(1951.412 668.189) rotate(-90)" fill="#001dff"></path><path id="Path_1065-2" data-name="Path 1065" d="M0,11.682v-72.5" transform="translate(1927.243 675.818)" fill="none" stroke="#001dff" stroke-width="1"></path><g id="Group_1528" data-name="Group 1528" transform="translate(1771.261 632.686)"><path id="Path_1342" data-name="Path 1342" d="M121.206,25.475a7.129,7.129,0,0,0,2.8-4.43m-200.154,4.43H127.62M-76.91,52.223l-.012-.078m16.534-18.68L-64,51.168m-5.359-2.355,3.129-15.348m197.961-8.454-.219,1.778M-7.572,12.447a1.561,1.561,0,0,0-.045.233M59.192,12.4a1.82,1.82,0,0,0-.059.278m64.844,4.092c-.019-.083-.038-.164-.057-.245M-73.14,12.858s0,0,0,0m199.786,20.6H-75.165m199.043-17.1.021.083m-.068-.245.024.081M117.7,33.465l3.129,15.348a6.815,6.815,0,0,1,.132,1.117l0,.193,0,.192-.007.193-.014.193-.019.19-.024.193-.033.19-.035.188-.045.188-.05.185-.031.1-.033.1-.038.1-.038.1-.031.074-.042.093-.042.09-.047.088-.047.086-.038.064-.04.062-.031.05-.033.048-.033.048-.035.045-.052.067-.052.064-.054.062-.054.059-.054.055-.04.038-.04.038-.042.038-.042.036-.054.045-.057.043-.057.04-.059.038-.057.038-.057.033-.059.033-.071.038-.054.026-.057.026-.059.024-.057.024-.059.021-.061.021-.061.017-.061.017-.061.017-.061.014-.061.01-.064.01-.045.007-.05.007-.047,0-.047,0-.059,0h-.189l-.061,0-.064,0-.064-.007-.061-.01-.061-.01-.064-.012-.061-.012-.064-.017-.059-.017-.068-.021-.066-.021-.057-.021-.054-.021-.064-.026-.059-.029-.061-.031-.059-.031-.061-.036-.061-.036-.059-.038-.057-.038-.057-.04-.057-.043-.061-.05-.061-.052-.061-.057-.059-.057-.057-.059-.057-.062-.052-.059-.052-.062-.066-.088-.064-.088-.047-.071-.045-.069-.042-.071-.042-.074-.035-.064-.033-.064-.04-.081-.038-.081-.035-.083-.035-.083-.057-.147-.052-.15-.047-.152-.045-.152-.038-.152-.033-.157-3.61-17.717M-89.211-9.725l3.57,29.123a6.546,6.546,0,0,0,1.759,3.7,6.553,6.553,0,0,0,3.626,1.911m10.563.463a7.008,7.008,0,0,1-2.172-2.491,7.015,7.015,0,0,1-.783-3.211V18.205M-89.247-10.1a6.567,6.567,0,0,1,1.592-4.675l.061-.069a6.612,6.612,0,0,1,1.012-.913l.073-.052a6.566,6.566,0,0,1,1.16-.651l.04-.017a6.578,6.578,0,0,1,4.85-.1,6.544,6.544,0,0,1,2.587,1.787A6.537,6.537,0,0,1-76.429-12l.387,1.642.061.28.024.124.047.288.453,3.558,2.318,18.967.432,3.741.012.2.007.2,0,.2v1.4a6.521,6.521,0,0,1-.971,3.408,6.51,6.51,0,0,1-2.615,2.391m201.3-14.816q-.368,2.809-.7,5.625l-.116,1.031-.017.223-.038.734v1.4a6.485,6.485,0,0,0,3.586,5.8M59.114,25.475V-16.507a2.02,2.02,0,0,0-.585-1.412,2.025,2.025,0,0,0-1.415-.587H-5.636a2.024,2.024,0,0,0-1.415.587,2.02,2.02,0,0,0-.585,1.412,2.022,2.022,0,0,0-.587-1.412,2.025,2.025,0,0,0-1.415-.587H-56.944l-10.115.116-2.351.064-2.238.078-2.1.09-1.95.1-1.785.114-1.61.126-1.438.14-1.276.159-.589.088-.585.107-.292.059-.309.071-.318.081-.325.093-.215.069-.215.074-.212.081-.21.086-.158.069-.153.071-.153.074-.149.081-.149.081-.146.086-.144.09-.144.093-.182.124-.177.133-.174.135-.17.143-.165.15-.16.152-.153.159-.149.162-.118.138-.116.143-.111.145-.108.15-.1.152-.1.154-.1.157-.09.162-.087.162-.083.164-.075.169-.073.169-.068.171-.064.171-.057.173-.052.173-.045.159-.038.159-.038.162-.031.162-.028.162-.024.164-.019.164-.014.166-.012.164-.007.166,0,.166v.164l0,.164.012.166.014.162.017.164M59.114-16.507a2.022,2.022,0,0,1,.587-1.412,2.02,2.02,0,0,1,1.415-.587h47.306l10.115.116,6.687.233,1.952.1,1.785.114,1.61.126,1.436.14,1.278.159.587.088.585.107.295.059.309.071.318.081.323.093.217.069.215.074.212.081.212.086.153.069.153.071.153.074.151.081.149.081.146.086.144.09.144.093.182.124.177.133.174.135.167.143.165.15.16.152.156.159.149.162.118.138.116.143.111.145.108.15.1.152.1.154.1.157.09.162.087.162.083.164.075.169.073.169.068.171.061.171.059.173.052.173.045.159.038.159.035.162.033.162.026.162.026.164.019.164.014.166.012.164.007.166,0,.166,0,.164,0,.164-.009.166-.014.162-.016.164L137.12,19.4M-7.636-16.507V12.943a2.025,2.025,0,0,1,.585-1.414,2.033,2.033,0,0,1,1.415-.585h62.75v.026m83.625-21.482a6.506,6.506,0,0,0-.712-2.942,6.531,6.531,0,0,0-1.969-2.3c-.024-.017-.047-.036-.073-.052a6.462,6.462,0,0,0-1.158-.651l-.042-.017A6.546,6.546,0,0,0,134.311-17h-.144a6.519,6.519,0,0,0-2.091.366l-.139.052a6.487,6.487,0,0,0-.955.449l-.132.078a6.594,6.594,0,0,0-.868.632l-.113.1a6.775,6.775,0,0,0-.736.784A6.5,6.5,0,0,0,127.907-12l-.4,1.714-.026.114-.024.112-.021.114-.045.28-.455,3.558-2.318,18.967q-.078.645-.156,1.288l-.047.409M-7.636,25.475V12.943a2.028,2.028,0,0,0-.587-1.414,2.033,2.033,0,0,0-1.415-.585H-60.646v0m184.771,7.256v1.569a6.981,6.981,0,0,1-2.954,5.7M57.114,10.945a2,2,0,0,1,2,2,2,2,0,0,1,2-2v0m0,0h51.008l1.985.019,1.919.067.564.036.561.045.434.048.217.029.217.033.182.031.182.036.177.038.179.045.184.048.182.055.179.057.179.062.179.069.179.071.177.078.172.083.172.086.17.09.167.1.163.1.163.107.163.109.156.116.156.119.151.124.146.128.144.131.139.138.118.119.116.124.113.126.111.131.106.133.106.135.1.14.1.143.1.145.09.147.09.15.085.152.08.154.075.157.073.159.068.159.066.162.061.164.057.164.054.166.047.169.045.166.04.169.035.171.031.169.028.169.021.171.021.171.014.169.009.169.007.171,0,.166M59.114,22.906v.026c0,.031,0,.059,0,.09m72.6,2.146.21-.052.208-.059.207-.062.208-.069.2-.071.2-.076.193-.083.191-.088.179-.086.174-.093.172-.1.17-.1.2-.128.2-.135.16-.119.156-.124.125-.1.123-.107.12-.112.12-.116.115-.119.116-.121.111-.126.108-.128.1-.126.1-.128.094-.131.092-.133.09-.135.085-.138.083-.14.078-.143.066-.128.064-.128.061-.131.059-.131.054-.133.052-.133.05-.135.047-.135.042-.138.04-.138.038-.138.033-.14.033-.14.026-.143.026-.14.024-.143m-217.34,5.63-.212-.052-.212-.059-.205-.064-.2-.067-.2-.071-.193-.076-.193-.083-.191-.088-.179-.086-.174-.093-.172-.1-.172-.1-.184-.116-.179-.126-.177-.128-.172-.135-.123-.1-.123-.107-.123-.112-.118-.116-.116-.119-.116-.121-.111-.126-.111-.128-.1-.126-.1-.128-.094-.131-.092-.133-.09-.135L-84.75,22l-.083-.14-.078-.143-.068-.128-.061-.128-.061-.128-.059-.133-.054-.131-.052-.133-.05-.135-.047-.135-.042-.135-.04-.14-.038-.138-.033-.138-.033-.14-.026-.143-.026-.143-.024-.143M-64,51.183l-.033.157-.038.152-.042.152-.047.152-.054.15-.054.147-.035.083-.035.083-.038.081-.04.081-.035.064-.033.064-.042.074-.042.071-.045.069-.047.071-.064.088-.066.088-.052.062-.052.059-.057.062-.059.059-.059.057-.061.057-.059.052-.064.05-.054.043-.057.04-.057.038-.061.038-.059.036-.061.036-.059.031-.061.031-.059.029-.064.026-.054.021-.057.021-.066.021-.068.021-.061.017-.061.017-.064.012-.061.012-.061.01-.064.01-.061.007-.064,0-.064,0h-.186l-.059,0-.047,0-.05,0-.045-.007-.05-.007-.061-.01-.061-.01-.061-.014-.061-.017L-67.4,53.9l-.061-.017-.059-.021-.061-.021-.059-.024-.057-.024-.054-.026-.068-.033-.059-.031-.059-.033-.057-.033-.057-.038-.059-.038-.057-.04-.057-.043-.054-.045-.042-.036-.042-.038-.042-.038-.04-.038-.052-.055-.054-.059-.057-.062-.052-.064-.05-.067-.035-.045-.033-.048-.033-.048-.033-.05-.038-.062-.038-.064-.049-.086-.045-.088-.042-.09-.042-.093-.031-.074-.04-.1-.035-.1-.033-.1-.031-.1-.045-.154-.038-.157-.033-.157-.028-.157-.024-.159-.021-.159-.016-.19-.014-.193-.007-.193v-.192l0-.193a6.75,6.75,0,0,1,.125-1.086M-72.647,18.2l0-.166.007-.171.009-.169.014-.169.019-.171.024-.171.026-.169.033-.169.035-.171.04-.169.045-.166.047-.169.052-.166.059-.164.061-.164.064-.162.071-.159.071-.159.078-.157.083-.154.083-.152.087-.15.092-.147.094-.145.1-.143.1-.14.1-.135.108-.133.111-.131.113-.126.116-.124.116-.119.141-.138.144-.131.146-.128.153-.124.153-.119.156-.116.163-.109.163-.107.163-.1.167-.1.17-.09.17-.086.175-.083.177-.078.177-.071.182-.069.177-.062.182-.057.182-.055.184-.048.177-.045.182-.038.179-.036.182-.031.215-.033.217-.029.436-.048.561-.045.564-.036,1.917-.067,1.988-.019M131.513,26.815l.368-3.006V23.6a9.66,9.66,0,0,1-3.968-.5l-3.244,26.477-.248,2.11-.007.093,0,.069v.14l0,.069,0,.048,0,.05.007.048.007.05.009.048.012.048.012.048.012.048.012.048.016.048.017.048.016.045.019.045.019.045.021.045.021.043.021.045.024.043.026.043.026.04.026.04.028.043.028.038.031.04.031.036.031.038.033.038.033.036.035.036.035.033.035.033.038.033.038.031.038.031.04.031.038.026.042.029.04.026.042.026.042.026.042.024.042.021.045.021.045.021.045.019.047.019.045.017.047.014.047.017.047.012.047.012.047.012.049.012.047.007.05.007.047.007a2,2,0,0,0,2.228-1.742l.226-1.737c0-.048.012-.1.017-.14l3.242-26.466M-73.27,53.022l.038-.057.035-.059.033-.059.031-.062.028-.064.028-.062.024-.064.021-.067.021-.064.019-.067.014-.067.014-.069.012-.067.007-.069.007-.069,0-.069V51.85l0-.069-.252-2.2L-76.434,23.1a9.961,9.961,0,0,1-3.971.5v.212l3.249,26.511q.106.92.238,1.832a2.024,2.024,0,0,0,.752,1.333,2.016,2.016,0,0,0,1.474.409l.071-.01.066-.012.068-.014.066-.017.066-.017.066-.021.064-.024.064-.026.064-.029.061-.029.061-.033.061-.033.059-.036.057-.038.054-.04.057-.04.052-.045.052-.045.05-.048.05-.05.045-.05.047-.052.042-.052.04-.055Z" transform="translate(0 0)" fill="none" stroke="#001dff" stroke-linecap="round" stroke-linejoin="round" stroke-width="0.5"></path></g></g></g><path id="Path_1826" data-name="Path 1826" d="M-51.891-4.3c0,2.674,1.68,4.424,3.85,4.424a3.226,3.226,0,0,0,3.346-2.66h-1.092A2.244,2.244,0,0,1-48.041-.868c-1.652,0-2.744-1.4-2.744-3.43s1.106-3.43,2.744-3.43a2.248,2.248,0,0,1,2.254,1.652h1.092a3.217,3.217,0,0,0-3.346-2.646C-50.211-8.722-51.891-6.972-51.891-4.3Zm13.93,1.19c0-1.9-1.162-3.234-2.856-3.234s-2.856,1.33-2.856,3.234S-42.525.126-40.817.126-37.961-1.2-37.961-3.108Zm-1.064,0c0,1.358-.672,2.31-1.792,2.31s-1.792-.952-1.792-2.31.672-2.31,1.792-2.31S-39.025-4.466-39.025-3.108Zm3.542,2.38a2.21,2.21,0,0,0,1.75.854c1.834,0,2.8-1.512,2.8-3.234s-.966-3.234-2.8-3.234a2.21,2.21,0,0,0-1.75.854v-.728h-1.05v8.6h1.05Zm0-3.64a1.789,1.789,0,0,1,1.6-1.022c1.19,0,1.89.966,1.89,2.282s-.7,2.282-1.89,2.282a1.789,1.789,0,0,1-1.6-1.022ZM-25,0V-4.144a2.108,2.108,0,0,0-2.366-2.2,2.252,2.252,0,0,0-2.324,1.764h1.036a1.205,1.205,0,0,1,1.274-.854A1.254,1.254,0,0,1-26.005-4.1v.784a2.663,2.663,0,0,0-1.568-.5,2.129,2.129,0,0,0-2.38,1.946A2.091,2.091,0,0,0-27.643.112a2.491,2.491,0,0,0,1.638-.574V0Zm-1.008-1.54a1.556,1.556,0,0,1-1.456.77c-.756,0-1.484-.35-1.484-1.106s.728-1.078,1.484-1.078a1.556,1.556,0,0,1,1.456.77Zm3.85-7.56H-23.2V0h1.05Zm6.608,5.166h.6a1.576,1.576,0,0,1,1.75,1.54A1.559,1.559,0,0,1-14.917-.826a1.78,1.78,0,0,1-1.89-1.624h-1.078A2.779,2.779,0,0,0-14.9.126a2.527,2.527,0,0,0,2.758-2.534,2.027,2.027,0,0,0-1.512-2,1.986,1.986,0,0,0,1.344-1.96,2.343,2.343,0,0,0-2.618-2.352,2.729,2.729,0,0,0-2.786,2.478h1.078A1.654,1.654,0,0,1-14.931-7.77a1.443,1.443,0,0,1,1.568,1.456,1.445,1.445,0,0,1-1.61,1.442h-.574Zm4.424.77h3.374v-.98h-3.374Zm4.452,1.456A2.335,2.335,0,0,0-4.123.126c1.33,0,2.31-.7,2.31-1.876,0-.868-.518-1.456-1.582-1.736L-4.6-3.78c-.588-.168-.868-.364-.868-.784,0-.6.574-.9,1.19-.9A1.275,1.275,0,0,1-2.9-4.578h1.05A2.19,2.19,0,0,0-4.263-6.342,1.98,1.98,0,0,0-6.489-4.508c0,.966.616,1.414,1.5,1.638l1.232.322c.644.168.924.434.924.868,0,.63-.532.924-1.274.924a1.386,1.386,0,0,1-1.47-.952ZM3.563-1.862A1.432,1.432,0,0,1,2.051-.77C1-.77.259-1.582.245-2.912h4.4V-3.29c0-1.806-.91-3.052-2.618-3.052S-.805-4.956-.805-3.094C-.805-1.176.357.126,2.051.126A2.371,2.371,0,0,0,4.557-1.862ZM2.037-5.446A1.561,1.561,0,0,1,3.577-3.71H.273A1.782,1.782,0,0,1,2.037-5.446ZM10.549,0V-4.144a2.108,2.108,0,0,0-2.366-2.2A2.252,2.252,0,0,0,5.859-4.578H6.9a1.205,1.205,0,0,1,1.274-.854A1.254,1.254,0,0,1,9.541-4.1v.784a2.663,2.663,0,0,0-1.568-.5,2.129,2.129,0,0,0-2.38,1.946A2.091,2.091,0,0,0,7.9.112,2.491,2.491,0,0,0,9.541-.462V0ZM9.541-1.54a1.556,1.556,0,0,1-1.456.77C7.329-.77,6.6-1.12,6.6-1.876s.728-1.078,1.484-1.078a1.556,1.556,0,0,1,1.456.77Zm3.052-.028A1.55,1.55,0,0,0,14.3.126a2.209,2.209,0,0,0,.98-.21v-.98a1.547,1.547,0,0,1-.812.252c-.532,0-.826-.266-.826-.868V-5.32h1.5v-.9h-1.5V-7.854h-1.05v1.638H11.585v.9h1.008Zm7.994-.294A1.432,1.432,0,0,1,19.075-.77c-1.05,0-1.792-.812-1.806-2.142h4.4V-3.29c0-1.806-.91-3.052-2.618-3.052s-2.828,1.386-2.828,3.248c0,1.918,1.162,3.22,2.856,3.22a2.371,2.371,0,0,0,2.506-1.988ZM19.061-5.446A1.561,1.561,0,0,1,20.6-3.71H17.3A1.782,1.782,0,0,1,19.061-5.446Zm7.2-.8a1.518,1.518,0,0,0-.6-.1,1.735,1.735,0,0,0-1.54.938v-.812h-1.05V0h1.05V-4.172a1.505,1.505,0,0,1,1.442-1.162,1.329,1.329,0,0,1,.7.168Zm3.878,4.536A2.335,2.335,0,0,0,32.683.126c1.33,0,2.31-.7,2.31-1.876,0-.868-.518-1.456-1.582-1.736l-1.2-.294c-.588-.168-.868-.364-.868-.784,0-.6.574-.9,1.19-.9a1.275,1.275,0,0,1,1.372.882h1.05a2.19,2.19,0,0,0-2.408-1.764,1.98,1.98,0,0,0-2.226,1.834c0,.966.616,1.414,1.5,1.638l1.232.322c.644.168.924.434.924.868,0,.63-.532.924-1.274.924a1.386,1.386,0,0,1-1.47-.952Zm11.578-1.4c0-1.9-1.162-3.234-2.856-3.234S36-5.012,36-3.108,37.149.126,38.857.126,41.713-1.2,41.713-3.108Zm-1.064,0c0,1.358-.672,2.31-1.792,2.31s-1.792-.952-1.792-2.31.672-2.31,1.792-2.31S40.649-4.466,40.649-3.108Zm5.6-5.978a2.01,2.01,0,0,0-.812-.14,1.827,1.827,0,0,0-1.9,1.974v1.036h-1.05v.9h1.05V0h1.036V-5.32h1.4v-.9h-1.4v-.952A.991.991,0,0,1,45.591-8.3a1.216,1.216,0,0,1,.658.168ZM51.555,0V-4.144a2.108,2.108,0,0,0-2.366-2.2,2.252,2.252,0,0,0-2.324,1.764H47.9a1.205,1.205,0,0,1,1.274-.854A1.254,1.254,0,0,1,50.547-4.1v.784a2.663,2.663,0,0,0-1.568-.5A2.129,2.129,0,0,0,46.6-1.876,2.091,2.091,0,0,0,48.909.112a2.491,2.491,0,0,0,1.638-.574V0ZM50.547-1.54a1.556,1.556,0,0,1-1.456.77c-.756,0-1.484-.35-1.484-1.106s.728-1.078,1.484-1.078a1.556,1.556,0,0,1,1.456.77Z" transform="translate(1926 780.25)" fill="#001dff"></path></g><rect id="measuerments_background_box" data-name="measuerments background box" width="800" height="730" transform="translate(1380 432.5)" fill="none"></rect></g></svg> 