<?xml version="1.0" encoding="UTF-8"?> <svg xmlns="http://www.w3.org/2000/svg" width="800" height="550" viewBox="0 0 800 550"><g id="diagram-Inlay" transform="translate(-140 -3021.5)"><path id="Path_1742" data-name="Path 1742" d="M2.128-8.6H1.022V0H2.128ZM4.088,0h1.05V-4.214A1.687,1.687,0,0,1,6.72-5.376a1.294,1.294,0,0,1,1.372,1.47V0H9.156V-4.074A2.053,2.053,0,0,0,6.972-6.342a2.322,2.322,0,0,0-1.834.91v-.784H4.088Zm7.9-9.1h-1.05V0h1.05ZM18.368,0V-4.144A2.108,2.108,0,0,0,16-6.342a2.252,2.252,0,0,0-2.324,1.764h1.036a1.205,1.205,0,0,1,1.274-.854A1.254,1.254,0,0,1,17.36-4.1v.784a2.663,2.663,0,0,0-1.568-.5,2.129,2.129,0,0,0-2.38,1.946A2.091,2.091,0,0,0,15.722.112,2.491,2.491,0,0,0,17.36-.462V0ZM17.36-1.54A1.556,1.556,0,0,1,15.9-.77c-.756,0-1.484-.35-1.484-1.106s.728-1.078,1.484-1.078a1.556,1.556,0,0,1,1.456.77Zm4.522,3.92,3.346-8.6H24.136l-1.806,4.9L20.5-6.216H19.362L21.784.042,20.846,2.38ZM30.7-.994V-7.616H32.34c1.946,0,3.094,1.3,3.094,3.318s-1.148,3.3-3.094,3.3ZM29.6,0h2.758a3.974,3.974,0,0,0,4.172-4.3,3.974,3.974,0,0,0-4.172-4.3H29.6Zm9.436-6.216h-1.05V0h1.05Zm.154-1.876a.675.675,0,0,0-.686-.672.672.672,0,0,0-.672.672.681.681,0,0,0,.672.672A.684.684,0,0,0,39.186-8.092ZM40.908,0h1.05V-4.214A1.687,1.687,0,0,1,43.54-5.376a1.294,1.294,0,0,1,1.372,1.47V0h1.064V-4.074a2.053,2.053,0,0,0-2.184-2.268,2.322,2.322,0,0,0-1.834.91v-.784h-1.05Zm7.9-6.216h-1.05V0H48.8Zm.154-1.876a.675.675,0,0,0-.686-.672.672.672,0,0,0-.672.672.681.681,0,0,0,.672.672A.684.684,0,0,0,48.958-8.092ZM50.68,0h1.05V-4.214a1.687,1.687,0,0,1,1.582-1.162,1.294,1.294,0,0,1,1.372,1.47V0h1.064V-4.074a2.053,2.053,0,0,0-2.184-2.268,2.322,2.322,0,0,0-1.834.91v-.784H50.68ZM61.6-.42c0,1.344-.588,2.044-1.708,2.044A1.484,1.484,0,0,1,58.268.462H57.232a2.415,2.415,0,0,0,2.66,2.058c1.6,0,2.772-.966,2.772-3.01V-6.216H61.6v.7a2.182,2.182,0,0,0-1.736-.826,2.859,2.859,0,0,0-2.786,3.15,2.867,2.867,0,0,0,2.786,3.15A2.191,2.191,0,0,0,61.6-.882Zm0-1.54a1.8,1.8,0,0,1-1.582.966c-1.176,0-1.862-.924-1.862-2.2S58.842-5.4,60.018-5.4a1.8,1.8,0,0,1,1.582.966ZM67.214-4.3c0,2.674,1.68,4.424,3.85,4.424a3.226,3.226,0,0,0,3.346-2.66H73.318A2.244,2.244,0,0,1,71.064-.868c-1.652,0-2.744-1.4-2.744-3.43s1.106-3.43,2.744-3.43a2.248,2.248,0,0,1,2.254,1.652H74.41a3.217,3.217,0,0,0-3.346-2.646C68.894-8.722,67.214-6.972,67.214-4.3ZM75.838,0h1.05V-4.214A1.687,1.687,0,0,1,78.47-5.376a1.294,1.294,0,0,1,1.372,1.47V0h1.064V-4.074a2.053,2.053,0,0,0-2.184-2.268,2.322,2.322,0,0,0-1.834.91V-9.1h-1.05ZM87.192,0V-4.144a2.108,2.108,0,0,0-2.366-2.2A2.252,2.252,0,0,0,82.5-4.578h1.036a1.205,1.205,0,0,1,1.274-.854A1.254,1.254,0,0,1,86.184-4.1v.784a2.663,2.663,0,0,0-1.568-.5,2.129,2.129,0,0,0-2.38,1.946A2.091,2.091,0,0,0,84.546.112a2.491,2.491,0,0,0,1.638-.574V0ZM86.184-1.54a1.556,1.556,0,0,1-1.456.77c-.756,0-1.484-.35-1.484-1.106s.728-1.078,1.484-1.078a1.556,1.556,0,0,1,1.456.77Zm3.85-4.676h-1.05V0h1.05Zm.154-1.876a.675.675,0,0,0-.686-.672.672.672,0,0,0-.672.672.681.681,0,0,0,.672.672A.684.684,0,0,0,90.188-8.092ZM95.1-6.244a1.518,1.518,0,0,0-.6-.1,1.735,1.735,0,0,0-1.54.938v-.812H91.91V0h1.05V-4.172A1.505,1.505,0,0,1,94.4-5.334a1.329,1.329,0,0,1,.7.168Z" transform="translate(492 3398.977)" fill="#001dff"></path><g id="Group_1584" data-name="Group 1584" transform="translate(0.5)"><g id="Group_989" data-name="Group 989" transform="translate(-630.002 2658.727)"><path id="Path_1161" data-name="Path 1161" d="M0,0H48.5" transform="translate(1207.757 663.5)" fill="none" stroke="#001dff" stroke-width="1"></path><path id="Path_1739" data-name="Path 1739" d="M8.45-15.35h-2L.55-4.875v1.4H7.625V0H9.45V-3.475h2.7v-1.65H9.45v-3.7H7.625v3.7h-4.9ZM19.425-1.375A3.027,3.027,0,0,1,16.1-4.325,3.024,3.024,0,0,1,19.425-7.25c1.95,0,3.35,1.2,3.35,2.925C22.775-2.575,21.375-1.375,19.425-1.375Zm0-7.525a2.59,2.59,0,0,1-2.8-2.525,2.594,2.594,0,0,1,2.8-2.55,2.6,2.6,0,0,1,2.825,2.55A2.6,2.6,0,0,1,19.425-8.9Zm0,9.125c2.975,0,5.25-1.75,5.25-4.4a3.974,3.974,0,0,0-3-3.9,3.616,3.616,0,0,0,2.45-3.45c0-2.475-2.075-4.05-4.7-4.05-2.6,0-4.675,1.575-4.675,4.05a3.584,3.584,0,0,0,2.45,3.45,3.948,3.948,0,0,0-3,3.9C14.2-1.525,16.475.225,19.425.225Zm12.6-8.475a3.171,3.171,0,0,1,3.15,3.4A3.144,3.144,0,0,1,32.05-1.475a3.169,3.169,0,0,1-3.35-2.9H26.775A4.972,4.972,0,0,0,32.05.225,4.874,4.874,0,0,0,37.025-4.85,4.791,4.791,0,0,0,32.2-9.95a4.322,4.322,0,0,0-2.8.975V-13.6h6.75v-1.75h-8.4v8.425H29.3A3.506,3.506,0,0,1,32.025-8.25Z" transform="translate(1211.673 687.828)" fill="#001dff"></path><path id="Path_1738" data-name="Path 1738" d="M8.45-15.35h-2L.55-4.875v1.4H7.625V0H9.45V-3.475h2.7v-1.65H9.45v-3.7H7.625v3.7h-4.9ZM23.2-13.825V-15.35H13.275v1.75h7.9L15.75,0h1.975ZM30.925.225C34.35.225,36.65-3,36.65-7.675s-2.3-7.9-5.725-7.9S25.2-12.35,25.2-7.675,27.5.225,30.925.225Zm0-14.025c2.475,0,3.8,2.55,3.8,6.125S33.4-1.55,30.925-1.55c-2.5,0-3.8-2.55-3.8-6.125S28.425-13.8,30.925-13.8Z" transform="translate(1297.263 633.434) rotate(-90)" fill="#001dff"></path><g id="Group_986" data-name="Group 986" transform="translate(11.244 77.158)"><g id="Group_985" data-name="Group 985" transform="translate(1196.17 482.467)"><path id="Path_1164" data-name="Path 1164" d="M18.376,13.7h.7l.05.05h.65l.052.05m-27.946.554,5.7-.2,5.7-.2,5.749-.2,5.7-.2m9.447,1.858-.05-.552s-1.5-1.018-5.649-1.155m-36.044,1.607v-.4m.2-.2h.349l.05-.05h.95l.1-.05h.851M12.827-3.968l-.05-.2V-4.32l-.05-.1v-.1l-.05-.151v-.1l-.05-.1-.05-.149v-.1l-.05-.1-.05-.1-.052-.1-.05-.151-.05-.1-.05-.1-.05-.1-.05-.1-.05-.1-.05-.1-.1-.1-.05-.1-.052-.1-.1-.1-.05-.1-.05-.1-.1-.1-.05-.1-.1-.1-.05-.05-.1-.1-.1-.1-.05-.1-.1-.05-.1-.1-.05-.1-.1-.05-.1-.1-.1-.05-.1-.1-.1-.052-.1-.05-.1-.1-.1-.052-.1-.05-.1-.05-.1-.1-.1-.052-.1-.05-.1-.05-.1-.05-.1-.05-.15-.052-.1-.05h-.1l-.1-.05-.1-.05-.15-.05h-.1l-.1-.052-.249-.05-.251-.05m.05,0-5.848-1-3.4-.6M-6.569-9.689l.05-.151.05-.2v-.1l.05-.1v-.1l.05-.1.05-.05v-.1l.05-.1.05-.1.05-.1v-.052l.052-.1.05-.1.05-.052.05-.1.05-.1.05-.052.05-.1.05-.05.05-.1.1-.1.052-.05.05-.1.05-.05.1-.1.05-.05.05-.052.05-.1.1-.05.05-.052.1-.1.05-.05.1-.05.05-.052.1-.1.05-.05.1-.05.05-.052.1-.05.1-.05.05-.05.1-.05.1-.052.05-.05.1-.05.1-.05h.1l.05-.05.1-.052h.1l.1-.05.1-.05h.05l.1-.05h.1l.1-.05h.1l.1-.052h.1l.149-.05a4.4,4.4,0,0,1,1.249-.05m-.15,3.061h-.1M-8.07-2.01l.749-3.764.751-3.915m9.248-3.364,5.85,1m-12.6,5.421-1,5.17-12,62.044v.1l-.05.05v.05h-.05l-.05.05h-.2m40.493,0h-.7l-.1-.05h-.1l-.05-.05h-.05l-.052-.05h-.05v-.05h-.05v-.052h-.05v-.1l-3.949-27.91-5.1-36.544m-31.744,64.8h-.851l-.05-.05h-.1l-.05-.05h-.05l-.05-.05-.05-.05v-.052h-.05v-.05l5.5-28.261L-8.07-2.01m-9,62.6v.1l-.05.05-.05.05-.05.05h-.149m-5.7-75.8-.249-1.354-.249-1.257M2.778-13.053Zm11.949,26.6h.548m.1.6h-.65l-5.75.2-5.749.2-11.447.4m32.393.452h-1.5l-.05-.05h-.2l-.05-.05h-.1l-.05-.052h-.15l-.052-.05h-.1l-.05-.05h-.05l-.05-.05h-.149l-.05-.05h-.05l-.1-.052h-.05l-.149-.05-.1-.05-.149-.05-.151-.052h-.2l-.149-.05-.151-.05-.15-.05-.2-.05h-.15l-.2-.052-.2-.05h-.149l-.2-.05-.2-.05h-.2l-.2-.05m5.7,1.054-1.8.9h-.65l-.1.05H20.275l-.05.05h-1.3l-.15.05m-30.6,1.055h-.749l-.1.05h-1.349l-.151.05h-1.349l-.05.05h-.1l-1.9-2.358h.15l.052-.052h.949l.1-.05h2.05l.15-.05h1.451l.15-.05h1.15m27.036,1.28L-8.7,17.316m-6.318-2.711h.849l.1-.052h1.55l.149-.05h1.1m-6.3.384a.223.223,0,0,1,.071-.171.226.226,0,0,1,.174-.062m2.3-.05h-.9l-.1.05h-.45m24.9-26.705-5.8-1h-.05m-.45,2.961h-.05M-1.321-10.7ZM-3.533-9.068a2.028,2.028,0,0,1,1.951-1.646l.262.02h-.05m9.8-1.354h.1l.149.05.15.05h.2l.151.052.2.05.149.05.2.05.149.05.15.052.2.1.15.05.149.05.149.1.2.05.149.1.15.1.149.05.151.1.149.1.149.1.151.1.149.1.15.1.149.1.1.1.149.1.149.1.149.151.1.1.15.151.1.1.149.151.1.1.151.151.1.1.1.151.149.149.1.151.1.151.1.1.1.151.1.149.1.151.1.151.05.149.1.2.1.151.05.149.1.151.05.149.1.2.052.151.05.149.05.151.1.2.05.151.05.2.05.151v.151l.05.2.05.151.05.2v.149l.052.2M2.828-13.053h-.05m-.05,0,5.8,1m-5.8-1h-.05l-3.4-.6m-.2-.05h-.2l-.05-.05h-.2m-2.65,7.128h0l.45-2.46M23.475,60.837h1m.445-.486a.424.424,0,0,1-.42.486m-1.025,0h-.4m1.4,0h.05m.4-.452L15.877-4.37M-20.167,60.536Zm1.65.3h1.1m-1.1,0h-.4M-3.57-14.158l2.05.352,4.1.753m.15,0h.05" transform="translate(23.566 17.572)" fill="none" stroke="#001dff" stroke-linecap="round" stroke-linejoin="round" stroke-width="0.5"></path></g><path id="Path_1166" data-name="Path 1166" d="M.065.065l.3-.05.349-.1h.1m-.4,2.91,1.593,8.037H4.8l.1-.05H16.247M-.084.262v-.1h.05V.115h.05V.065h.05M26.055,4.7ZM26.105,4.7Zm-.05,0-4.133-.739-2.041-.345L.813-.083" transform="translate(1196.253 482.199)" fill="none" stroke="#001dff" stroke-linecap="round" stroke-linejoin="round" stroke-width="0.5"></path></g><g id="Group_987" data-name="Group 987" transform="translate(832 -277)"><g id="Group_954" data-name="Group 954" transform="translate(440.887 868.192)"><path id="Path_1131" data-name="Path 1131" d="M.188,13.412V-33.661" transform="translate(-0.188 33.661)" fill="none" stroke="#001dff" stroke-width="1"></path></g><g id="Group_955" data-name="Group 955" transform="translate(435.517 868.379)"><path id="Path_1132" data-name="Path 1132" d="M0,0H5.558" fill="none" stroke="#001dff" stroke-width="1"></path></g></g></g><g id="Group_1583" data-name="Group 1583" transform="translate(-19)"><g id="Group_980" data-name="Group 980" transform="translate(447 3218.316)"><path id="Path_1159" data-name="Path 1159" d="M21.256,16.824v.2l-.05.05v.05l-.05.05v.051h-.05v.05l-.05.05h-.05v.05h-.05l-.05.05H-21.6l-.05-.05h-.05l-.05-.05-.05-.05v-.05h-.05v-.051l-.05-.05v-.05l-.05-.05v-.2M25.625,56.673h.695v-.051h.149l.05-.05h.051l.05-.05.05-.05h.05v-.05h.05v-.1l.05-.05-.248-27.9-.349-34m-49.51,15.949.1.1.1.149.1.1.1.149.1.1.149.149.1.151.1.1.1.151.149.151.2.3.248.25.248.3m42.31,0,.248-.3.2-.3.149-.1.1-.149.149-.151.1-.151.1-.149.149-.1.1-.149.1-.1.1-.149.1-.1.1-.149.1-.1m-.347-.75h-1.39l-1.392.05h-2.78l-1.441.051H9.636l-1.441.05H-8.888l-1.439-.05h-5.662l-1.39-.051h-2.781l-1.39-.05h-1.392m45.538.7v-.4m-45.935,0v.4m.1-.55-.05.05v.151m45.885,0V9.774l-.05-.05-.05-.05-.05-.051H22.4l-.05-.05h-.1m-45.19,0h-.05m-.05,0-.05.05h-.05l-.05.051h-.05m1.59-.1-.2-15.248m-4.52-9.351-.05.1v.05l-.05.05v.1l-.05.05v.2l-.05.149v.151l-.05.05v.4l-.05.1v.4l-.05.1v.55l-.05.1v.75l-.05.1v1.1l-.05.3v1.8l-.05.3v2.5m3.625-2.4V-9.876l.05-.25v-1.149l.05-.151v-.7l.05-.1v-.5l.05-.05v-.3l.05-.149v-.3h.05v-.25l.05-.05m-2.781-2.849-.347.8-.3.849m4.421,1.7v-.95l-.05-.2v-.9l-.05-.05v-.45l-.05-.05v-.3l-.051-.1v-.1l-.05-.051v-.149l-.05-.05v-.051l-.05-.1-.05-.05v-.05h-.05v-.051l-.05-.05v-.05h-.05v-.05l-.05-.051-.05-.05-.05-.05h-.05l-.05-.05v-.05h-.05l-.05-.051h-.05l-.05-.05-.05-.05h-.1l-.05-.05h-.1l-.05-.05h-.2m-3.427,12-.3,28-.3,33.9v.1l.05.051.05.05.05.05.05.05h.1l.05.05h.2l.1.051h.546m2.136,0h.05v-.051h.05l.05-.05v-.05h.05v-.05l.05-.05v-.151m50.156-61.9-.05-2.5V-9.975l-.05-.25v-1.15l-.05-.1v-.9l-.05-.1v-.551l-.05-.1v-.4l-.05-.1v-.349l-.05-.051v-.3l-.05-.149v-.1l-.05-.1v-.151l-.05-.05v-.05l-.05-.1m-3.427,1.2v.05l.05.051v.25l.05.05v.349l.05.1v.4l.05.1v.7l.05.1v.75l.05.151v1.4l.05.252v1.1m3.079-7-.3-.849-.347-.8m-2.235-.95h-.2l-.05.05h-.1l-.05.05h-.1l-.05.05H22.2v.05h-.05l-.05.051h-.05l-.05.05v.05h-.05l-.05.05h-.05v.05l-.05.051v.05h-.05l-.05.05v.05h-.05v.1l-.05.05-.05.05v.1l-.05.05v.05l-.05.1v.1l-.05.1v.25l-.05.1v.448l-.05.051v.7l-.05.1v1.3m1.987,69.6v.2h.05v.05l.05.05v.05h.05l.05.051M21.157-5.675l-.2,15.248m1.737,47.1h.746m-3.129-.25v.1l.05.05v.05h.05v.051h.2M24.087-16.924ZM-24.778-16.924Zm48.766-.252-.149-.25-.05-.149-.05-.1v-.1h-.05v-.1l-.05-.151-.1-.151-.05-.149m-47.674,0-.1.149-.05.151-.05.151-.05.1v.1h-.05v.1l-.1.149-.1.25m41.367-3.549h-.2l-.2-.05h-.2l-.149-.05m-32.576,0-.2.05h-.149l-.2.05h-.2m27.76-.7h-.347l-.3-.05-.647-.05H8.393l-.645-.051H7.1l-.695-.05H5.763l-.7-.05H4.421l-.695-.05H.994l-.645-.05h-1.39l-.7.05h-2.73l-.7.05h-.645l-.695.05H-7.2l-.645.05h-.7l-.645.051-.695.05h-.645l-.347.05h-.3m34.613,3v-.05l-.05-.05h-.05v-.05l-.05-.05-.05-.051-.05-.05-.05-.05-.05-.05h-.05v-.051l-.051-.05h-.05l-.05-.05-.1-.05h-.05l-.05-.05-.05-.051-.05-.05h-.1l-.05-.05-.05-.05h-.1l-.05-.05H22.2l-.1-.051-.05-.05h-.1l-.1-.05-.05-.05h-.1l-.1-.05-.05-.051h-.1l-.1-.05h-.1l-.1-.05-.1-.05h-.05l-.1-.05H20.76l-.1-.051-.1-.05h-.1l-.1-.05h-.1l-.1-.05-.149-.05h-.1l-.1-.051h-.149l-.1-.05h-.151l-.1-.05h-.149l-.1-.05-.149-.05h-.1l-.149-.051h-.149m-39.429.351-.1.05h-.1l-.05.05h-.1l-.1.05h-.05l-.2.051-.149.05-.149.05-.149.05-.1.05-.149.051-.149.05-.149.05-.1.05-.1.05-.149.051-.1.05-.1.05-.1.05-.1.05-.1.051-.1.05-.05.05-.1.1-.05.051-.1.05-.05.05-.05.05-.05.051-.05.05-.05.05v.05h-.05v.05l-.05.051v.05m18.225,7.75H6.805m11.57,21.4-1.142.051H-17.925l-1.143-.051M-22.942,9.574ZM22.6,9.925V9.873M-23.24,9.724ZM22.546,9.724ZM22.2,9.574ZM-22.942,9.574Zm1.094-15.2v-.1m.248,18.2v-.1m-.05-2.8-.2-15.3m.794,62.149H-21l-.546-39m.223,39.25a.276.276,0,0,0,.273-.277m-2.335.277H-21.3m-2.98,0h.893m2.062,0a.276.276,0,0,0,.273-.277M-23.339-8.075v2.45m-3.575-2.45v2.45m3.575.05.05-2.45v-1.7l.05-.25v-1l.05-.151v-.8l.05-.1v-.6l.05-.05v-.45l.05-.1v-.351l.05-.05v-.3h.05v-.2h.05v-.1l.645-1.65.05-.05v.05h.05v.149h.051v.351l.05.05v.5l.05.151v1.45l.149,7.6m-2.971-11.368a.358.358,0,0,0,.136.018m.748.051h-.695m.651,0a.509.509,0,0,0,.156-.018m-.658-.681h-.05v.05l-.05.05-.2.6m1.29-.7-.05.05v.05M-21.848-5.726Zm-2.483,62.4h-.993m.968,0a.425.425,0,0,0,.422-.425m-2.384.425h.994m-.994,0h-.794M-23.935,56.273Zm-.422.4a.425.425,0,0,0,.422-.425M-24.332,56.673Zm46.977-62.3-.05-2.45m3.625,2.4v-2.4m0,0-.05-.5v-1.95l-.05-.2v-.8l-.05-.2v-.7l-.05-.151v-.5l-.05-.1v-.4l-.05-.1v-.25m-4.767,8.3.1-7.6v-.3l.05-.2v-1.1l.05-.1v-.5l.05-.051v-.3h.05v-.1l.05-.05v.05h.05l.645,1.65v.1l.05.05v.151l.05.1v.25l.05.1v.349l.05.1v.4l.05.1v.6l.05.151v.8l.05.1v1.45l.05.25v3.6m.647-11.349h.695m0-.051a.358.358,0,0,0,.136-.018m-1,.05a.521.521,0,0,0,.156.018m.851,0h0l-.248-.6v-.1h-.05m-.945.1v-.05h-.05v-.05M21.157-5.726Zm3.427,62.4H23.64m-.447-.425a.423.423,0,0,0,.42.425m1.962,0h-.993m1.836,0h-.844m-2.382-.425a.423.423,0,0,0,.42.425M23.243,56.273ZM23.64,56.673ZM21.157-5.726Zm-.248,18.2v-.1m.05-2.8.2-15.3M20.313,56.4a.275.275,0,0,0,.273.277m2.109,0H20.462l-.05-.051h-.05v-.05l-.05-.05v-.1m2.382.25h.9M-21.947,16.824v-.3m43.2,0v.3m-45.19-1.15v.25l.05.051.05.1v.05l.05.05v.051l.05.05.05.05v.05h.05v.05l.05.051m46.431,0h.05v-.051h.05v-.05h.05v-.05l.051-.05v-.05l.05-.051.05-.05v-.05l.05-.1v-.051l.05-.05v-.2m-47.178-2.6v2.6m47.178,0v-2.6m-47.178,0v-.051l.05-.05v-.149l.05-.051v-.05l.05-.05.05-.05.05-.05.05-.051h.05v-.05h.05m46.382,0h.05v.05h.05l.05.051.051.05v.05h.05l.05.05v.05l.05.051v.2l.05.051M22.844,16.524Zm-46.431-.05.05.05m46.382,0v-.05M-23.991-16.977A.262.262,0,0,0-23.844-17m-.954,0a.172.172,0,0,0,.129.023m1.28-1.4v.05l-.05.1-.05.1v.1l-.05.151-.05.2-.05.2-.05.151-.1.4m-.149,0h-.695m48.557-.055A.175.175,0,0,0,24.057-17m-.119.078h-.695M23.052-17a.264.264,0,0,0,.147.023m-.1.053-.1-.4-.05-.151-.05-.2-.05-.2-.05-.151-.05-.1v-.1l-.05-.1-.05-.05m1.441,1.45-.1-.2m-48.1-1.3a.126.126,0,0,0-.115.08m-.456,1.221-.1.2m43.3-3.451-.1-.05h-.2l-.149-.05h-.1l-.1-.05H17.73l-.1-.05h-.248l-.248-.051-.5-.1M22.646-18.374ZM10.381-21.425h.4l.347.05.4.05h.347l.347.051h.4l.347.05.347.05.347.05.347.05h.3l.347.051.347.05.149.05H15.3l.149.05h.2l.3.051m-36.846.8.2-.05.2-.051.2-.05h.2l.1-.05h.1l.2-.05.248-.05.2-.051.248-.05.2-.05.25-.05h.2l.149-.05h.1l.248-.051.248-.05.248-.05m6.208-.7-.4.05h-.349l-.347.05h-.4l-.347.051-.347.05H-13.7l-.347.05-.347.05-.3.05h-.347l-.349.051-.3.05-.149.05h-.2l-.149.05h-.149l-.3.051M-23.389-18.374ZM23.491-18.324Zm-45.389,7.8h1.737l.1-.05h.645m38.139,0h.645l.1.05h1.739m-41.168-.05H-5.908m25.127,0H6.805M-22.942,9.574h-.1v.05h-.05v.051M18.375,10.823Zm-41.665-.95v.051l.05.05.05.05h.1v.05h.1l.05.051h.05l.05.05h.05l.05.05h.1l.05.05h.1l.05.05h.1l.1.051h.05l.1.05h.1l.1.05h.1l.05.05h.149l.1.05h.1l.1.051h.149l.1.05h.2l.1.05h.2l.1.05h.3l.2.05h.893m-4.047-1.149a.177.177,0,0,0-.126.053m45.74,0a.174.174,0,0,0-.126-.053m-44.022,2.65v.149m-1.292-26.3v-.1l.05-.05v-.25m-2.831-2.45v-.1l.05-.05v-.05h.05v-.05l.051-.1.05-.05h.05v-.05l.05-.051h.05v-.05l.05-.05h.05l.05-.05h.05v-.05h.05l.05-.051h.05l.05-.05h.1l.05-.05h.248M-21.947-13.326Zm-1.392,7.7-.2,18.1H22.844l-.2-18.1m-46.58,61.9.347-39.8H22.844l.4,39.8m-.994-70.1v-.1l-.05-.05v-.25m2.831-2.45v-.1l-.05-.05v-.05h-.05v-.05l-.1-.1v-.05h-.05l-.05-.05v-.051h-.05l-.05-.05v-.05h-.05l-.05-.05h-.05l-.05-.05-.05-.051h-.05l-.05-.05h-.1l-.05-.05h-.3M21.256-13.326Zm-.347,25.65v.149m-.05,4.949-.546,39M-23.935-16.924ZM23.243-16.924ZM23.938-16.924ZM-24.629-16.924Zm47.724,0-.05-.1v-.05m-46.78,0-.05.151m39.727-3.9.2.05h.149l.2.05.149.05h.2l.149.05.2.051h.149l.149.05.2.05h.149l.149.05.149.05h.149l.149.051.149.05h.149l.149.05.149.05.149.05h.149l.1.051.151.05.149.05h.1l.149.05.1.05.149.051h.1l.1.05.1.05.149.05.1.05h.1l.1.051.1.05.1.05h.1l.1.05.05.05.1.051.1.05h.05l.1.05.05.05.1.05.05.051.05.05h.1l.05.05.05.05.05.05.05.051h.05l.05.05.05.05.05.05v.051h.05l.05.05v.05l.05.05v.1m-39.28-2.45-.2.05h-.149l-.2.05-.149.05h-.2l-.149.05-.2.051h-.149l-.149.05-.2.05h-.149l-.151.05-.149.05h-.149l-.149.051-.149.05h-.149l-.149.05-.149.05-.149.05h-.149l-.1.051-.149.05-.149.05h-.1l-.149.05-.1.05-.149.051H-21l-.1.05-.149.05-.1.05-.1.05h-.1l-.1.051-.1.05-.1.05h-.1l-.1.05-.1.05-.05.051-.1.05h-.1l-.05.05-.1.05-.05.05-.05.051-.1.05h-.05l-.05.05-.05.05-.05.05-.05.051h-.05l-.05.05-.05.05-.05.05-.05.051-.05.05v.05l-.05.05-.05.1m-.72-.051a.128.128,0,0,0-.115.076m18.315,7.775H6.805M22.6,9.873v.051h-.05v.05H22.5v.05h-.1v.05h-.1l-.05.051H22.2l-.05.05H22.1l-.05.05H21.9l-.05.05H21.8l-.05.05H21.6l-.05.051H21.5l-.1.05h-.149l-.05.05h-.1l-.05.05h-.2l-.05.05h-.1l-.1.051h-.149l-.1.05h-.2l-.1.05h-.2l-.1.05h-.3l-.2.05h-.893" transform="translate(27.51 21.774)" fill="none" stroke="#001dff" stroke-linecap="round" stroke-linejoin="round" stroke-width="0.5"></path></g><path id="Path_1167" data-name="Path 1167" d="M0,0H54.5" transform="translate(446.5 3322.227)" fill="none" stroke="#001dff" stroke-width="1"></path><path id="Path_1741" data-name="Path 1741" d="M5.925-8.25a3.171,3.171,0,0,1,3.15,3.4A3.144,3.144,0,0,1,5.95-1.475a3.169,3.169,0,0,1-3.35-2.9H.675A4.972,4.972,0,0,0,5.95.225,4.874,4.874,0,0,0,10.925-4.85,4.791,4.791,0,0,0,6.1-9.95a4.322,4.322,0,0,0-2.8.975V-13.6h6.75v-1.75H1.65v8.425H3.2A3.506,3.506,0,0,1,5.925-8.25Zm14.825-7.1h-2L12.85-4.875v1.4h7.075V0H21.75V-3.475h2.7v-1.65h-2.7v-3.7H19.925v3.7h-4.9Zm10.875,7.1a3.171,3.171,0,0,1,3.15,3.4A3.144,3.144,0,0,1,31.65-1.475a3.169,3.169,0,0,1-3.35-2.9H26.375A4.972,4.972,0,0,0,31.65.225,4.874,4.874,0,0,0,36.625-4.85,4.791,4.791,0,0,0,31.8-9.95a4.322,4.322,0,0,0-2.8.975V-13.6h6.75v-1.75h-8.4v8.425H28.9A3.506,3.506,0,0,1,31.625-8.25Z" transform="translate(456 3346.727)" fill="#001dff"></path><path id="Path_1740" data-name="Path 1740" d="M10.375-13.825V-15.35H.45v1.75h7.9L2.925,0H4.9ZM17.4-1.375a3.027,3.027,0,0,1-3.325-2.95A3.024,3.024,0,0,1,17.4-7.25c1.95,0,3.35,1.2,3.35,2.925C20.75-2.575,19.35-1.375,17.4-1.375Zm0-7.525a2.59,2.59,0,0,1-2.8-2.525,2.594,2.594,0,0,1,2.8-2.55,2.6,2.6,0,0,1,2.825,2.55A2.6,2.6,0,0,1,17.4-8.9Zm0,9.125c2.975,0,5.25-1.75,5.25-4.4a3.974,3.974,0,0,0-3-3.9,3.616,3.616,0,0,0,2.45-3.45c0-2.475-2.075-4.05-4.7-4.05-2.6,0-4.675,1.575-4.675,4.05a3.584,3.584,0,0,0,2.45,3.45,3.948,3.948,0,0,0-3,3.9C12.175-1.525,14.45.225,17.4.225ZM30-8.25a3.171,3.171,0,0,1,3.15,3.4,3.144,3.144,0,0,1-3.125,3.375,3.169,3.169,0,0,1-3.35-2.9H24.75a4.972,4.972,0,0,0,5.275,4.6A4.874,4.874,0,0,0,35-4.85a4.791,4.791,0,0,0-4.825-5.1,4.322,4.322,0,0,0-2.8.975V-13.6h6.75v-1.75h-8.4v8.425h1.55A3.506,3.506,0,0,1,30-8.25Z" transform="translate(549.797 3275.318) rotate(-90)" fill="#001dff"></path><g id="Group_1582" data-name="Group 1582" transform="translate(525 3218.035)"><path id="Path_1134" data-name="Path 1134" d="M.734,24.972v-78.5" transform="translate(-0.734 53.528)" fill="none" stroke="#001dff" stroke-width="1"></path></g></g></g><rect id="measuerments_background_box" data-name="measuerments background box" width="800" height="550" transform="translate(140 3021.5)" fill="none"></rect></g></svg> 