<?xml version="1.0" encoding="UTF-8"?> <svg xmlns="http://www.w3.org/2000/svg" width="800" height="550" viewBox="0 0 800 550"><g id="diagram-Com" transform="translate(-2389 -680.5)"><g id="Group_1580" data-name="Group 1580" transform="translate(15)"><g id="Group_1578" data-name="Group 1578" transform="translate(0 -2)"><g id="Group_1576" data-name="Group 1576" transform="translate(208.875 -16.837)"><g id="Group_1328" data-name="Group 1328" transform="translate(2463.37 933.024)"><path id="Path_1470" data-name="Path 1470" d="M1.709.036-1.445-.035m-.08-.011.014,0m40.84,43.3c-.078.082-.157.163-.235.247m-3.124.012c-.078-.067-.155-.138-.233-.206m-34.328,0c-.078.067-.157.138-.235.206M-1.952,43.5c-.077-.083-.155-.165-.233-.247" transform="translate(2.185 0.046)" fill="none" stroke="#001dff" stroke-width="0.5"></path></g><path id="Path_1472" data-name="Path 1472" d="M11.971,0h-27.2" transform="translate(2485.755 935.946)" fill="none" stroke="#001dff" stroke-width="0.5"></path><path id="Path_1473" data-name="Path 1473" d="M16.647,0V.4h1.581V0M-19.691,0V.4h-1.581V0" transform="translate(2485.648 976.434)" fill="none" stroke="#001dff" stroke-width="0.5"></path><g id="Group_1332" data-name="Group 1332" transform="translate(2462.125 929.598)"><path id="Path_1474" data-name="Path 1474" d="M17.042,1.525l3.148-.071c.071-.011.144-.02.212-.036a1.611,1.611,0,0,0,.707-.49,4.552,4.552,0,0,0,.3-.348A4.737,4.737,0,0,0,21.751.07a3.811,3.811,0,0,0,.408-.9A1.256,1.256,0,0,0,22.2-1.01a.515.515,0,0,0,0-.138c0-.005,0-.011,0-.014-.027-.1-.178-.034-.315.021a12.192,12.192,0,0,1-1.212.417c-.618.179-1.413.4-2.156.536-.31.057-.611.1-.914.149-.228.036-.458.069-.688.1q-1.6.237-3.205.4c-1.988.2-3.991.325-5.994.367C6.7.854,5.685.856,4.673.854c-.581,0-1.163,0-1.744,0-.62,0-1.24.009-1.86.011-.29,0-.577,0-.868,0s-.577,0-.866,0c-.62,0-1.24-.007-1.86-.011-.581,0-1.163,0-1.744,0-1.012,0-2.024,0-3.036-.023q-3-.064-5.994-.367Q-14.906.3-16.505.064c-.232-.034-.46-.067-.688-.1-.3-.046-.6-.092-.912-.149-.745-.14-1.539-.357-2.158-.536a12.352,12.352,0,0,1-1.212-.417c-.137-.055-.289-.117-.315-.021a.055.055,0,0,1,0,.014.515.515,0,0,0,0,.138,1.559,1.559,0,0,0,.039.181,3.811,3.811,0,0,0,.408.9,5,5,0,0,0,.34.511,4.6,4.6,0,0,0,.3.348,1.606,1.606,0,0,0,.706.49c.068.016.139.025.212.036l-.118-.012M13.7.464l.267,2.968a1.586,1.586,0,0,1-.258.927l-.012.032,3.638,40.393.315.282h2.963l.315-.334L16.91.064M22.2-1.143,22.1-1.775a.448.448,0,0,0-.036-.087.173.173,0,0,0-.107-.1.2.2,0,0,0-.064,0l-.071.012c-.3.046-.6.121-.9.2-.679.169-1.351.336-2.031.474-.987.2-1.987.344-2.99.478a67.863,67.863,0,0,1-7.58.678c-.574.011-1.146.011-1.73.011C4.43-.11,2.091-.083.2-.069-1.688-.083-4.028-.11-6.189-.115c-.586,0-1.158,0-1.732-.011A67.825,67.825,0,0,1-15.5-.8c-1-.133-2-.275-2.99-.478-.679-.138-1.352-.305-2.031-.474-.3-.075-.6-.149-.9-.2l-.071-.012a.2.2,0,0,0-.064,0,.18.18,0,0,0-.109.1.6.6,0,0,0-.041.115c-.016.064-.03.13-.043.193l-.045.41M-13.3.464l-.267,2.968a1.586,1.586,0,0,0,.258.927l.012.032-3.638,40.393-.315.282h-2.963l-.315-.334L-16.505.064m-5.019-2.031,3.991.371,2.425.135,6,.142,20.975-.036,3.638-.1L17.936-1.6l3.838-.348" transform="translate(21.799 1.968)" fill="none" stroke="#001dff" stroke-width="0.5"></path></g><path id="Path_1476" data-name="Path 1476" d="M12.12,0H-15.421" transform="translate(2485.776 937.846)" fill="none" stroke="#001dff" stroke-width="0.5"></path><g id="Group_1335" data-name="Group 1335" transform="translate(2464.864 897.837)"><path id="Path_1477" data-name="Path 1477" d="M0,13.946c.068-.561.135-1.124.193-1.686.07-.669.125-1.338.178-2.008.157-1.947.3-3.9.444-5.844q.12-1.651.246-3.3c.093-1.212.194-2.425.319-3.634.023-.233.048-.465.075-.7C1.6-4.483,1.767-5.739,2-6.987c.118-.639.251-1.276.406-1.91a21.752,21.752,0,0,1,.772-2.535,14.258,14.258,0,0,1,.587-1.344,9.074,9.074,0,0,1,1-1.6,7.59,7.59,0,0,1,1.76-1.594,10.642,10.642,0,0,1,3.36-1.369,21.99,21.99,0,0,1,3.344-.492c.973-.078,1.949-.117,2.926-.137,1.036-.023,2.07-.025,3.106-.025s2.072,0,3.107.025c.975.02,1.952.059,2.926.137a21.774,21.774,0,0,1,3.344.494A10.554,10.554,0,0,1,32-15.968a7.531,7.531,0,0,1,1.761,1.6,9.06,9.06,0,0,1,1,1.6,14.446,14.446,0,0,1,.585,1.344A21.752,21.752,0,0,1,36.117-8.9q.233.951.408,1.91c.232,1.248.4,2.5.544,3.765.025.233.052.463.075.7.125,1.209.225,2.421.317,3.634.087,1.1.166,2.2.248,3.3q.214,2.924.442,5.844c.053.671.109,1.338.178,2.008.057.565.125,1.125.193,1.686" transform="translate(0 17.99)" fill="none" stroke="#001dff" stroke-width="0.5"></path></g></g><path id="Path_1167" data-name="Path 1167" d="M0,0H44" transform="translate(2671.5 983.5)" fill="none" stroke="#001dff" stroke-width="1"></path><path id="Path_1746" data-name="Path 1746" d="M8.45-15.35h-2L.55-4.875v1.4H7.625V0H9.45V-3.475h2.7v-1.65H9.45v-3.7H7.625v3.7h-4.9Zm13.225,0h-2l-5.9,10.475v1.4H20.85V0h1.825V-3.475h2.7v-1.65h-2.7v-3.7H20.85v3.7h-4.9ZM33.25.225c3.425,0,5.725-3.225,5.725-7.9s-2.3-7.9-5.725-7.9-5.725,3.225-5.725,7.9S29.825.225,33.25.225Zm0-14.025c2.475,0,3.8,2.55,3.8,6.125S35.725-1.55,33.25-1.55c-2.5,0-3.8-2.55-3.8-6.125S30.75-13.8,33.25-13.8Z" transform="translate(2674 1008)" fill="#001dff"></path><path id="Path_1745" data-name="Path 1745" d="M10.375-13.825V-15.35H.45v1.75h7.9L2.925,0H4.9ZM20.9-10.45a3.264,3.264,0,0,1-3.325,3.5,3.273,3.273,0,0,1-3.3-3.5,3.245,3.245,0,0,1,3.3-3.45A3.25,3.25,0,0,1,20.9-10.45ZM12.675-3.575A4.534,4.534,0,0,0,17.45.225c3.325,0,5.625-3.2,5.625-8.175a10.739,10.739,0,0,0-.9-4.7A4.9,4.9,0,0,0,17.6-15.575a4.976,4.976,0,0,0-5.15,5.15,4.922,4.922,0,0,0,4.975,5.1A4,4,0,0,0,21.3-7.95c0,.15.025.525.025.675,0,3.3-1.625,5.875-3.875,5.875a2.79,2.79,0,0,1-2.825-2.175ZM31.3.225c3.425,0,5.725-3.225,5.725-7.9s-2.3-7.9-5.725-7.9-5.725,3.225-5.725,7.9S27.875.225,31.3.225Zm0-14.025c2.475,0,3.8,2.55,3.8,6.125S33.775-1.55,31.3-1.55c-2.5,0-3.8-2.55-3.8-6.125S28.8-13.8,31.3-13.8Z" transform="translate(2757.797 939.318) rotate(-90)" fill="#001dff"></path><g id="Group_1001" data-name="Group 1001" transform="translate(2733.92 881.034)"><path id="Path_1134" data-name="Path 1134" d="M.734,25.472v-79" transform="translate(-0.734 53.528)" fill="none" stroke="#001dff" stroke-width="1"></path></g></g><g id="Group_1579" data-name="Group 1579" transform="translate(0 -0.42)"><g id="Group_1577" data-name="Group 1577" transform="translate(-0.291)"><path id="Path_1481" data-name="Path 1481" d="M.2.885l-.45-2.03" transform="translate(2808.827 886.807)" fill="none" stroke="#001dff" stroke-width="0.5"></path><path id="Path_1482" data-name="Path 1482" d="M10.671,0-13.818,1.484m0,0L10.671,0" transform="translate(2836.187 918.01)" fill="none" stroke="#001dff" stroke-width="0.5"></path><path id="Path_1483" data-name="Path 1483" d="M0,0V.057M0,.34V.4" transform="translate(2822.305 919.364)" fill="none" stroke="#001dff" stroke-width="0.5"></path><path id="Path_1484" data-name="Path 1484" d="M.413,19.83v.206H1.963V19.83m42.887,0v.206H46.4V19.83M43.967,19.7l-.153-.133.3.259.007.005h2.921l.309-.349L40.924-25.577v0h0v0h0l0,0,0,0,0,0h0l0,0h0l0,0h0l-.007,0-.011,0-.018,0-.023,0-.057-.007-.155-.012-.366-.021-.471-.018-.867-.009-.573.012-.236.009-.212.012-.184.016.582,4.076a1.43,1.43,0,0,1-.209.9l-.012.02,5.728,40.181M37.723-25.612l-4.145.121-3.017.184-2.337.2L17.9-24.006l-3.428.284-1.06,3.9-.007.028-.007.027-.007.03,0,.027-.005.03,0,.028,0,.028,0,.028,0,.03v.087l0,.028,0,.028,0,.03,0,.028.005.032.005.032.007.034.007.032.007.032.009.03.009.03.011.032.011.03.012.03.011.027.005.012L13.49-19l.005.011.005.011,0,0,0,.005,0,0,0,0,0,0,0,0,0,0,0,0,0,0,0,0,0,0v0l0,0h0l.012.021L3.069,19.6l-.3.227h-3s0,0,0,0l-.3-.383L11.186-23.643" transform="translate(2808.781 938.834)" fill="none" stroke="#001dff" stroke-width="0.5"></path><path id="Path_1485" data-name="Path 1485" d="M6.018,15.321c-.378-.041-.758-.082-1.132-.145a8.212,8.212,0,0,1-.961-.225,6,6,0,0,1-1.4-.6,4.779,4.779,0,0,1-.737-.544,5.555,5.555,0,0,1-1.079-1.37,8.324,8.324,0,0,1-.555-1.193,14.714,14.714,0,0,1-.685-2.62C-.659,7.913-.751,7.2-.85,6.488q-.519-3.771-1.245-7.511c-.546-2.822-1.179-5.63-1.958-8.4q-.583-2.069-1.279-4.106-.348-1.013-.728-2.017c-.319-.846-.656-1.684-1.018-2.514q-.174-.4-.351-.8c-.062-.142-.123-.282-.187-.422-.02-.043-.039-.083-.057-.124a3.559,3.559,0,0,1,.423.09,4.749,4.749,0,0,1,.578.181c.157.058.323.129.482.207a6.412,6.412,0,0,1,.569.33,7.692,7.692,0,0,1,.786.569,5.613,5.613,0,0,1,.952,1.018,7.567,7.567,0,0,1,.8,1.528c.119.294.232.59.333.89.232.686.416,1.392.58,2.1q.3,1.276.521,2.565c.241,1.388.417,2.789.546,4.191.068.761.123,1.525.166,2.287C-.855-2.023-.81-.6-.759.831-.7,2.419-.637,4-.55,5.591A33.3,33.3,0,0,0-.159,9.553a9.013,9.013,0,0,0,.97,2.959A5,5,0,0,0,2.3,14.167a6.334,6.334,0,0,0,2.878.927,16.8,16.8,0,0,0,3,.021c1.919-.126,3.832-.417,5.741-.706,1.946-.3,3.886-.594,5.835-.856,2.543-.34,5.1-.619,7.663-.7,1.364-.046,2.73-.037,4.1,0,1.978.055,3.957.168,5.917.376,1,.106,1.994.236,2.994.4a11.1,11.1,0,0,1,3,.84l.218.108c.039.021.077.039.116.059a.1.1,0,0,0,.136-.039l.412-.706a.1.1,0,0,0,.009-.08.1.1,0,0,0-.052-.062l-.159-.08c-.077-.041-.155-.08-.234-.117a12.119,12.119,0,0,0-3.278-.929c-1.022-.174-2.038-.307-3.06-.415-1.988-.209-3.993-.326-6-.381-1.386-.039-2.773-.046-4.159,0-2.6.089-5.191.369-7.768.714-1.955.261-3.9.558-5.853.856-1.878.287-3.765.574-5.652.7a16.492,16.492,0,0,1-2.821-.02,5.205,5.205,0,0,1-2.4-.75A4.059,4.059,0,0,1,1.7,12,7.893,7.893,0,0,1,.85,9.379,33.173,33.173,0,0,1,.472,5.534C.386,3.956.322,2.375.265.8c-.052-1.434-.1-2.87-.18-4.3Q.021-4.667-.083-5.826c-.13-1.432-.31-2.858-.556-4.272-.155-.888-.335-1.769-.549-2.645-.178-.727-.378-1.448-.622-2.154-.118-.337-.244-.672-.389-1a7.766,7.766,0,0,0-1.018-1.743,6.143,6.143,0,0,0-1.111-1.08,6.252,6.252,0,0,0-.958-.6,5.9,5.9,0,0,0-.681-.289c-.1-.035-.205-.069-.31-.1a2.9,2.9,0,0,0-.382-.089c-.091-.012-.182-.021-.273-.03a.1.1,0,0,0-.077.005l-.613.278a.1.1,0,0,0-.052.057.092.092,0,0,0,0,.078" transform="translate(2813.973 899.247)" fill="none" stroke="#001dff" stroke-width="0.5"></path><path id="Path_1487" data-name="Path 1487" d="M15.448,0h0ZM-20,6.1h0Z" transform="translate(2842.596 913.336)" fill="none" stroke="#001dff" stroke-width="0.5"></path><path id="Path_1488" data-name="Path 1488" d="M0,0H0" transform="translate(2858.149 913.225)" fill="none" stroke="#001dff" stroke-width="0.5"></path><path id="Path_1489" data-name="Path 1489" d="M3.439.055l.273.252,0,0,0,0h0l-.2-.2m-7.973-.1c.236-.02.473-.037.709-.05A16.161,16.161,0,0,1-.371.106" transform="translate(2854.326 913.021)" fill="none" stroke="#001dff" stroke-width="0.5"></path></g><path id="Path_1167-2" data-name="Path 1167" d="M0,0H52" transform="translate(2806.5 982.534)" fill="none" stroke="#001dff" stroke-width="1"></path><path id="Path_1744" data-name="Path 1744" d="M5.925-8.25a3.171,3.171,0,0,1,3.15,3.4A3.144,3.144,0,0,1,5.95-1.475a3.169,3.169,0,0,1-3.35-2.9H.675A4.972,4.972,0,0,0,5.95.225,4.874,4.874,0,0,0,10.925-4.85,4.791,4.791,0,0,0,6.1-9.95a4.322,4.322,0,0,0-2.8.975V-13.6h6.75v-1.75H1.65v8.425H3.2A3.506,3.506,0,0,1,5.925-8.25ZM20.75-11.225c0,1.45-1.25,2.725-2.85,4.475L12.95-1.3V0H22.975V-1.75H15.65l3.9-4.275c1.55-1.75,3.1-3.275,3.1-5.225,0-2.625-1.75-4.325-4.675-4.325-2.825,0-4.725,1.975-5.025,4.825h2.025c.15-1.775,1.15-3.075,3-3.075A2.517,2.517,0,0,1,20.75-11.225ZM30.875.225C34.3.225,36.6-3,36.6-7.675s-2.3-7.9-5.725-7.9-5.725,3.225-5.725,7.9S27.45.225,30.875.225Zm0-14.025c2.475,0,3.8,2.55,3.8,6.125S33.35-1.55,30.875-1.55c-2.5,0-3.8-2.55-3.8-6.125S28.375-13.8,30.875-13.8Z" transform="translate(2813 1007.034)" fill="#001dff"></path><g id="Group_1075" data-name="Group 1075" transform="translate(2341.5 -1245)"><path id="Path_1743" data-name="Path 1743" d="M8.45-15.35h-2L.55-4.875v1.4H7.625V0H9.45V-3.475h2.7v-1.65H9.45v-3.7H7.625v3.7h-4.9Zm10.925,7.1a3.171,3.171,0,0,1,3.15,3.4A3.144,3.144,0,0,1,19.4-1.475a3.169,3.169,0,0,1-3.35-2.9H14.125A4.972,4.972,0,0,0,19.4.225,4.874,4.874,0,0,0,24.375-4.85a4.791,4.791,0,0,0-4.825-5.1,4.322,4.322,0,0,0-2.8.975V-13.6H23.5v-1.75H15.1v8.425h1.55A3.506,3.506,0,0,1,19.375-8.25ZM32.45.225c3.425,0,5.725-3.225,5.725-7.9s-2.3-7.9-5.725-7.9-5.725,3.225-5.725,7.9S29.025.225,32.45.225Zm0-14.025c2.475,0,3.8,2.55,3.8,6.125S34.925-1.55,32.45-1.55c-2.5,0-3.8-2.55-3.8-6.125S29.95-13.8,32.45-13.8Z" transform="translate(560.263 2201.434) rotate(-90)" fill="#001dff"></path><g id="Group_1074" data-name="Group 1074" transform="translate(95 1291)"><g id="Group_954" data-name="Group 954" transform="translate(440.887 868.192)"><path id="Path_1131" data-name="Path 1131" d="M.188,11.339v-45" transform="translate(-0.188 33.661)" fill="none" stroke="#001dff" stroke-width="1"></path></g><g id="Group_955" data-name="Group 955" transform="translate(435.517 868.379)"><path id="Path_1132" data-name="Path 1132" d="M0,0H5.558" fill="none" stroke="#001dff" stroke-width="1"></path></g></g></g></g></g><path id="Path_1747" data-name="Path 1747" d="M.518-4.3C.518-1.624,2.2.126,4.368.126a3.226,3.226,0,0,0,3.346-2.66H6.622A2.244,2.244,0,0,1,4.368-.868c-1.652,0-2.744-1.4-2.744-3.43s1.106-3.43,2.744-3.43A2.248,2.248,0,0,1,6.622-6.076H7.714A3.217,3.217,0,0,0,4.368-8.722C2.2-8.722.518-6.972.518-4.3Zm13.93,1.19c0-1.9-1.162-3.234-2.856-3.234S8.736-5.012,8.736-3.108,9.884.126,11.592.126,14.448-1.2,14.448-3.108Zm-1.064,0c0,1.358-.672,2.31-1.792,2.31S9.8-1.75,9.8-3.108s.672-2.31,1.792-2.31S13.384-4.466,13.384-3.108Zm6.9-2.24a1.82,1.82,0,0,0-1.68-.994,1.944,1.944,0,0,0-1.68.854v-.728h-1.05V0h1.05V-4.284A1.449,1.449,0,0,1,18.3-5.39c.8,0,1.176.574,1.176,1.442V0h1.05V-4.284A1.449,1.449,0,0,1,21.9-5.39c.8,0,1.176.574,1.176,1.442V0h1.064V-4.116c0-1.344-.7-2.226-1.96-2.226A2.248,2.248,0,0,0,20.286-5.348ZM30.2-.994V-7.616h1.638c1.946,0,3.094,1.3,3.094,3.318s-1.148,3.3-3.094,3.3ZM29.092,0H31.85a3.974,3.974,0,0,0,4.172-4.3A3.974,3.974,0,0,0,31.85-8.6H29.092Zm9.436-6.216h-1.05V0h1.05Zm.154-1.876A.675.675,0,0,0,38-8.764a.672.672,0,0,0-.672.672A.681.681,0,0,0,38-7.42.684.684,0,0,0,38.682-8.092ZM40.4,0h1.05V-4.214a1.687,1.687,0,0,1,1.582-1.162,1.294,1.294,0,0,1,1.372,1.47V0h1.064V-4.074a2.053,2.053,0,0,0-2.184-2.268,2.322,2.322,0,0,0-1.834.91v-.784H40.4Zm7.9-6.216H47.25V0H48.3Zm.154-1.876a.675.675,0,0,0-.686-.672.672.672,0,0,0-.672.672.681.681,0,0,0,.672.672A.684.684,0,0,0,48.454-8.092ZM50.176,0h1.05V-4.214a1.687,1.687,0,0,1,1.582-1.162,1.294,1.294,0,0,1,1.372,1.47V0h1.064V-4.074A2.053,2.053,0,0,0,53.06-6.342a2.322,2.322,0,0,0-1.834.91v-.784h-1.05ZM61.1-.42c0,1.344-.588,2.044-1.708,2.044A1.484,1.484,0,0,1,57.764.462H56.728a2.415,2.415,0,0,0,2.66,2.058c1.6,0,2.772-.966,2.772-3.01V-6.216H61.1v.7a2.182,2.182,0,0,0-1.736-.826,2.859,2.859,0,0,0-2.786,3.15A2.867,2.867,0,0,0,59.36-.042,2.191,2.191,0,0,0,61.1-.882Zm0-1.54a1.8,1.8,0,0,1-1.582.966c-1.176,0-1.862-.924-1.862-2.2S58.338-5.4,59.514-5.4a1.8,1.8,0,0,1,1.582.966ZM66.71-4.3c0,2.674,1.68,4.424,3.85,4.424a3.226,3.226,0,0,0,3.346-2.66H72.814A2.244,2.244,0,0,1,70.56-.868c-1.652,0-2.744-1.4-2.744-3.43s1.106-3.43,2.744-3.43a2.248,2.248,0,0,1,2.254,1.652h1.092A3.217,3.217,0,0,0,70.56-8.722C68.39-8.722,66.71-6.972,66.71-4.3ZM75.334,0h1.05V-4.214a1.687,1.687,0,0,1,1.582-1.162,1.294,1.294,0,0,1,1.372,1.47V0H80.4V-4.074a2.053,2.053,0,0,0-2.184-2.268,2.322,2.322,0,0,0-1.834.91V-9.1h-1.05ZM86.688,0V-4.144a2.108,2.108,0,0,0-2.366-2.2A2.252,2.252,0,0,0,82-4.578h1.036a1.205,1.205,0,0,1,1.274-.854A1.254,1.254,0,0,1,85.68-4.1v.784a2.663,2.663,0,0,0-1.568-.5,2.129,2.129,0,0,0-2.38,1.946A2.091,2.091,0,0,0,84.042.112,2.491,2.491,0,0,0,85.68-.462V0ZM85.68-1.54a1.556,1.556,0,0,1-1.456.77c-.756,0-1.484-.35-1.484-1.106s.728-1.078,1.484-1.078a1.556,1.556,0,0,1,1.456.77Zm3.85-4.676H88.48V0h1.05Zm.154-1.876A.675.675,0,0,0,89-8.764a.672.672,0,0,0-.672.672A.681.681,0,0,0,89-7.42.684.684,0,0,0,89.684-8.092ZM94.6-6.244a1.518,1.518,0,0,0-.6-.1,1.735,1.735,0,0,0-1.54.938v-.812h-1.05V0h1.05V-4.172A1.505,1.505,0,0,1,93.9-5.334a1.329,1.329,0,0,1,.7.168Z" transform="translate(2742 1059)" fill="#001dff"></path><rect id="measuerments_background_box" data-name="measuerments background box" width="800" height="550" transform="translate(2389 680.5)" fill="none"></rect></g></svg> 